<svg width="16" height="20" viewBox="0 0 16 20" fill="none" xmlns="http://www.w3.org/2000/svg">
<path fill-rule="evenodd" clip-rule="evenodd" d="M7.66965 9.12033C7.66965 9.12033 11.0128 7.92861 11.0128 5.43858C11.0128 2.94678 11.0128 1.82916 11.0128 1.82916C8.70648 -0.609718 6.63003 -0.609718 4.32266 1.82916C4.32266 1.82916 4.32266 2.94678 4.32266 5.43858C4.32266 7.92861 7.66965 9.12033 7.66965 9.12033ZM7.66965 14.272C9.04067 14.272 10.1498 15.3735 10.1498 16.7373C10.1498 18.0989 9.04067 19.2002 7.66965 19.2002C6.29685 19.2002 5.18796 18.0989 5.18796 16.7373C5.18796 15.3735 6.29685 14.272 7.66965 14.272ZM8.8737 16.2553C9.50783 16.2553 9.50783 17.2124 8.8737 17.2124H8.14797V17.9328C8.14797 18.5626 7.18448 18.5626 7.18448 17.9328V17.2124H6.46281C5.82766 17.2124 5.82766 16.2553 6.46281 16.2553H7.18448V15.5388C7.18448 14.9078 8.14797 14.9078 8.14797 15.5388V16.2553H8.8737ZM7.66965 9.66087C6.34126 9.66087 4.60661 9.65306 3.55557 9.64726C0.570942 9.63265 0 14.3594 0 16.2096C0 16.2096 1.9039 16.9946 4.63732 17.4397C4.58403 17.2151 4.55611 16.9775 4.55611 16.7373C4.55611 15.027 5.9487 13.644 7.66965 13.644C9.38958 13.644 10.7822 15.027 10.7822 16.7373C10.7822 16.9775 10.7537 17.2151 10.7002 17.4397C13.4344 16.9946 15.3365 16.2096 15.3365 16.2096C15.3365 14.3594 14.7656 9.63265 11.7804 9.64726C10.7304 9.65306 8.99474 9.66087 7.66965 9.66087Z" fill="#748A9F"/>
</svg>
