<svg width="27" height="27" viewBox="0 0 27 27" fill="none" xmlns="http://www.w3.org/2000/svg">
<path d="M26.209 1.9487H22.7442C22.7567 1.56493 22.7637 1.1789 22.7637 0.791016C22.7637 0.354103 22.4094 0 21.9727 0H5.02728C4.59057 0 4.23626 0.354103 4.23626 0.791016C4.23626 1.1789 4.24326 1.56493 4.25583 1.9487H0.791016C0.354103 1.9487 0 2.3028 0 2.73972C0 6.28404 0.926353 9.62794 2.60829 12.1557C4.27087 14.6546 6.4855 16.0879 8.87791 16.2274C9.4203 16.8175 9.99358 17.2987 10.5908 17.6658V21.1815H9.26374C7.65946 21.1815 6.35449 22.4867 6.35449 24.0908V25.4178H6.29826C5.86134 25.4178 5.50724 25.7721 5.50724 26.2088C5.50724 26.6457 5.86134 26.9998 6.29826 26.9998H20.7017C21.1387 26.9998 21.4928 26.6457 21.4928 26.2088C21.4928 25.7721 21.1387 25.4178 20.7017 25.4178H20.6455V24.0908C20.6455 22.4867 19.3405 21.1815 17.7363 21.1815H16.4092V17.6658C17.0064 17.2989 17.5799 16.8175 18.1223 16.2274C20.5145 16.0879 22.7291 14.6546 24.3919 12.1557C26.0739 9.62794 27 6.28404 27 2.73972C27 2.3028 26.6459 1.9487 26.209 1.9487ZM3.92542 11.2794C2.53805 9.19453 1.72293 6.46758 1.59872 3.53073H4.3442C4.6295 7.14098 5.47696 10.4781 6.8015 13.1269C7.01244 13.5488 7.23306 13.9474 7.46191 14.3227C6.14623 13.8259 4.9286 12.7873 3.92542 11.2794ZM19.0635 24.0908V25.418H7.93652V24.0908C7.93652 23.3591 8.53185 22.7635 9.26374 22.7635H17.7363C18.4682 22.7635 19.0635 23.3591 19.0635 24.0908ZM14.8272 21.1815H12.1728V18.3532C12.6076 18.4677 13.0507 18.5273 13.5 18.5273C13.9493 18.5273 14.3924 18.4677 14.8272 18.3532V21.1815ZM15.3171 16.4713C15.2814 16.4859 15.2472 16.5036 15.2145 16.5232C14.6554 16.8013 14.0809 16.9452 13.5 16.9452C12.9193 16.9452 12.345 16.8013 11.7861 16.5236C11.753 16.5036 11.7186 16.4859 11.6825 16.4708C11.0623 16.1429 10.4622 15.6477 9.8947 14.997C9.86483 14.9543 9.83125 14.915 9.79397 14.8791C9.23058 14.2103 8.70055 13.3875 8.21647 12.4194C6.76277 9.51217 5.92314 5.68954 5.82756 1.58203H21.1724C21.0767 5.68954 20.237 9.51237 18.7835 12.4194C18.2994 13.3875 17.7694 14.2103 17.2062 14.8791C17.1687 14.915 17.1348 14.9545 17.1051 14.9972C16.5376 15.6481 15.9373 16.1431 15.3171 16.4713ZM23.0746 11.2794C22.0714 12.7873 20.8538 13.8259 19.5381 14.3227C19.7669 13.9474 19.9876 13.5488 20.1985 13.1269C21.523 10.4781 22.3703 7.14098 22.6558 3.53073H25.4013C25.2771 6.46758 24.462 9.19453 23.0746 11.2794Z" fill="white"/>
</svg>
