<svg width="16" height="11" viewBox="0 0 16 11" fill="none" xmlns="http://www.w3.org/2000/svg">
<path d="M15.3074 4.73252H2.36462L5.45295 1.31012C5.7235 1.01049 5.7235 0.524436 5.45295 0.224853C5.18239 -0.0749511 4.74375 -0.0749511 4.4736 0.224853L0.202918 4.95728C-0.0676393 5.25691 -0.0676393 5.743 0.202918 6.04254L4.4736 10.7752C4.60883 10.9251 4.78607 11 4.96327 11C5.14047 11 5.31771 10.9251 5.45295 10.7752C5.7235 10.4756 5.7235 9.98951 5.45295 9.68997L2.36462 6.2674H15.3074C15.6898 6.2674 16 5.92376 16 5.49993C16 5.07611 15.6899 4.73252 15.3074 4.73252Z" fill="#717B86"/>
</svg>
