<svg width="18" height="23" viewBox="0 0 18 23" fill="none" xmlns="http://www.w3.org/2000/svg">
<path d="M11.2389 18.0742C11.1271 18.0742 11.0145 18.0649 10.9041 18.0467L8.74734 17.6903L6.59126 18.0465C6.48053 18.0649 6.3677 18.0742 6.25557 18.0742C5.71019 18.0742 5.17745 17.8514 4.79438 17.4631L4.39798 17.0614V22.3157C4.39798 22.5528 4.52081 22.7732 4.72261 22.8977C4.83246 22.9656 4.95722 23 5.08234 23C5.18692 23 5.29186 22.976 5.38837 22.9277L8.74734 21.2483L12.1063 22.9277C12.3185 23.0337 12.5703 23.0223 12.7722 22.8977C12.9739 22.7732 13.0967 22.5529 13.0967 22.3157V17.0614L12.7001 17.4634C12.3169 17.8516 11.7843 18.0742 11.2389 18.0742Z" fill="#B3CDE4"/>
<path d="M8.7473 5.00546C6.90164 5.00546 5.40009 6.50701 5.40009 8.35268C5.40009 10.1983 6.90164 11.6999 8.7473 11.6999C10.593 11.6999 12.0943 10.1983 12.0943 8.35268C12.0943 6.50701 10.593 5.00546 8.7473 5.00546Z" fill="#B3CDE4"/>
<path d="M17.418 8.03787L16.3085 5.89601L15.947 3.51093C15.9138 3.29124 15.7757 3.10119 15.5771 3.0017L13.4205 1.92076L11.7261 0.203553C11.5962 0.0721208 11.4202 0 11.2386 0C11.2016 0 11.1644 0.0029831 11.1274 0.00912477L8.74737 0.402367L6.36738 0.00912477C6.33018 0.0029831 6.29298 0 6.25595 0C6.07434 0 5.89833 0.0721208 5.76866 0.203728L4.07426 1.92076L1.91765 3.00152C1.71901 3.10119 1.58091 3.29106 1.54757 3.51093L1.18609 5.89583L0.0767271 8.03787C-0.0255757 8.23528 -0.0255757 8.47007 0.0767271 8.66731L1.18609 10.8095L1.54757 13.1944C1.58091 13.4143 1.71901 13.6042 1.91765 13.7037L4.07426 14.7846L5.76866 16.5018C5.89833 16.6331 6.07416 16.7055 6.2556 16.7055C6.2928 16.7055 6.33018 16.7025 6.36738 16.6962L8.74737 16.303L11.1274 16.6962C11.1646 16.7025 11.2018 16.7055 11.239 16.7055C11.4204 16.7055 11.5964 16.6332 11.7261 16.5018L13.4205 14.7846L15.5771 13.7037C15.7757 13.6042 15.9138 13.4143 15.947 13.1944L16.3085 10.8095L17.418 8.66731C17.5203 8.47007 17.5203 8.23528 17.418 8.03787ZM8.74737 13.0686C6.14698 13.0686 4.03144 10.9531 4.03144 8.35268C4.03144 5.75229 6.14698 3.63692 8.74737 3.63692C11.3476 3.63692 13.4631 5.75229 13.4631 8.35268C13.4631 10.9531 11.3476 13.0686 8.74737 13.0686Z" fill="#B3CDE4"/>
</svg>
