<svg width="32" height="26" viewBox="0 0 32 26" fill="none" xmlns="http://www.w3.org/2000/svg">
<rect width="32" height="26" rx="4" fill="#384552" fill-opacity="0.572"/>
<rect x="0.5" y="0.5" width="31" height="25" rx="3.5" stroke="#384552" stroke-opacity="0.29"/>
<g clip-path="url(#clip0)">
<path d="M22.6483 7.9844H21.9923V7.35184C21.9923 7.03897 21.6251 6.88255 21.4051 7.10328L19.9137 8.59469C19.8478 8.66062 19.8154 8.74987 19.8154 8.84324V9.69231L19.5848 9.91849C18.1976 11.3058 17.2513 12.252 15.9506 13.5527C15.8133 13.69 15.8133 13.9125 15.9506 14.0498C16.088 14.1872 16.3104 14.1872 16.4478 14.0498C16.8395 13.6581 19.7705 10.7268 20.1623 10.3351L20.3079 10.1848H21.1566C21.2499 10.1848 21.3392 10.1524 21.4051 10.0865L22.8969 8.59471C23.1174 8.37416 22.9615 7.9844 22.6483 7.9844Z" fill="#677B8F"/>
<path d="M18.0048 13.4871L17.0171 14.4749C16.9826 14.5094 16.9426 14.5351 16.9001 14.5523C16.4163 14.9201 15.867 14.8163 15.5253 14.4752L15.5249 14.4749C15.1143 14.0632 15.1143 13.3944 15.5253 12.9834C15.528 12.9807 15.532 12.98 15.5348 12.9773C15.5373 12.9746 15.5381 12.971 15.5407 12.9683L16.5136 11.9955C15.917 11.9132 15.3977 12.1164 15.0281 12.486C14.3428 13.1713 14.3428 14.2867 15.0281 14.972C15.7131 15.657 16.8285 15.6577 17.5142 14.972C17.9183 14.5677 18.0775 14.0142 18.0048 13.4871Z" fill="#677B8F"/>
<path d="M19.1171 12.375L18.5827 12.9094C18.8878 13.7755 18.7028 14.7776 18.0115 15.4692C17.0518 16.4288 15.4904 16.4285 14.5311 15.4692C13.5715 14.5096 13.5715 12.9484 14.5311 11.9888C15.2226 11.2975 16.2252 11.1123 17.0915 11.4177L17.6257 10.8835C16.3229 10.2654 14.9242 10.6015 14.034 11.4917C12.7993 12.7257 12.7992 14.7322 14.034 15.9663C15.268 17.2011 17.2745 17.2012 18.5087 15.9663C19.4794 14.9955 19.6742 13.5501 19.1171 12.375Z" fill="#677B8F"/>
<path d="M20.6707 10.8211L19.635 11.8568C20.4518 13.3278 20.2531 15.2159 19.0055 16.4635C17.4967 17.973 15.0456 17.9732 13.5365 16.4635C12.027 14.9546 12.0268 12.5036 13.5365 10.9945C14.7845 9.74653 16.6727 9.54825 18.1436 10.3653L19.1794 9.32955C17.1608 7.99073 14.3669 8.17525 12.5419 10.0002C10.486 12.0561 10.486 15.4019 12.5419 17.4581C13.5702 18.486 14.9205 19 16.2709 19C17.6216 19 18.9719 18.486 19.9998 17.4581C21.8209 15.6371 22.0124 12.8442 20.6707 10.8211Z" fill="#677B8F"/>
</g>
<defs>
<clipPath id="clip0">
<rect width="12" height="12" fill="white" transform="translate(11 7)"/>
</clipPath>
</defs>
</svg>
