<svg width="19" height="20" viewBox="0 0 19 20" fill="none" xmlns="http://www.w3.org/2000/svg">
<path d="M15.9481 1.34767H3.03337C1.68308 1.34767 0.584473 2.50387 0.584473 3.92545V12.245C0.584473 13.6633 1.67829 14.8177 3.02467 14.8227V18.598L8.17892 14.8227H15.9481C17.2984 14.8227 18.397 13.6663 18.397 12.245V3.92545C18.397 2.50387 17.2984 1.34767 15.9481 1.34767ZM17.3533 12.245C17.3533 13.0605 16.7229 13.7241 15.9481 13.7241H7.85146L4.06837 16.4952V13.7241H3.03337C2.25853 13.7241 1.62817 13.0605 1.62817 12.245V3.92545C1.62817 3.10972 2.25853 2.4463 3.03337 2.4463H15.9481C16.7229 2.4463 17.3533 3.10972 17.3533 3.92545V12.245Z" fill="#4C5C6A"/>
<path d="M5.35187 5.22961H13.6295V6.32824H5.35187V5.22961Z" fill="#4C5C6A"/>
<path d="M5.35187 7.57336H13.6295V8.67199H5.35187V7.57336Z" fill="#4C5C6A"/>
<path d="M5.35187 9.91714H13.6295V11.0158H5.35187V9.91714Z" fill="#4C5C6A"/>
</svg>
