<svg width="17" height="17" viewBox="0 0 17 17" fill="none" xmlns="http://www.w3.org/2000/svg">
<path d="M6.89523 3.18751C5.23559 3.18751 3.88477 4.53833 3.88477 6.19797V13.4583H2.64523C1.57066 13.4583 0.697266 12.585 0.697266 11.5105V1.94797C0.697266 0.873405 1.57066 7.62939e-06 2.64523 7.62939e-06H11.4993C12.5739 7.62939e-06 13.4473 0.873405 13.4473 1.94797V3.18751H6.89523Z" fill="#56636E"/>
<path d="M16.2806 15.052C16.2806 16.128 15.4086 17 14.3327 17H6.89523C5.81924 17 4.94727 16.128 4.94727 15.052V6.19796C4.94727 5.12197 5.81924 4.25 6.89523 4.25H14.3327C15.4086 4.25 16.2806 5.12197 16.2806 6.19796V15.052Z" fill="#56636E"/>
</svg>
