<svg width="22" height="28" viewBox="0 0 22 28" fill="none" xmlns="http://www.w3.org/2000/svg">
<path d="M21.0605 0H1.00225C0.586206 0 0.217529 0.337318 0.217529 0.753362V21.7533C0.217529 22.0286 0.383269 22.2818 0.624721 22.4141L10.6617 27.9074C10.7743 27.9691 10.9028 28 11.0274 28C11.152 28 11.2786 27.9691 11.3913 27.9074L21.4057 22.4141C21.6472 22.2819 21.7825 22.0286 21.7825 21.7533V0.753362C21.7825 0.337318 21.4765 0 21.0605 0ZM20.2758 21.307L11 26.3877L1.72425 21.307V1.50672H20.2758V21.307Z" fill="white"/>
<path d="M17.2624 19.6903V16.1502L11.008 19.4462L4.73773 16.1502V19.6817L11.0079 23.1032L17.2624 19.6903Z" fill="white"/>
<path d="M17.2624 14.4493V10.9092L11.008 14.2052L4.73773 10.9092V14.4407L11.0079 17.8622L17.2624 14.4493Z" fill="white"/>
<path d="M8.55972 10.8939L11.0784 9.0651L13.5973 10.8977L12.6353 7.94137L15.154 6.12106H12.0407L11.0784 3.16006L10.1163 6.12106H7.00299L9.52167 7.94193L8.55972 10.8939Z" fill="white"/>
</svg>
