<svg width="5" height="16" viewBox="0 0 5 16" fill="none" xmlns="http://www.w3.org/2000/svg">
<path d="M0.832 1.904C0.832 1.408 1 0.991999 1.336 0.655999C1.672 0.319999 2.088 0.151999 2.584 0.151999C3.08 0.151999 3.496 0.319999 3.832 0.655999C4.168 0.991999 4.336 1.408 4.336 1.904C4.336 2.384 4.168 2.792 3.832 3.128C3.496 3.464 3.08 3.632 2.584 3.632C2.088 3.632 1.672 3.464 1.336 3.128C1 2.792 0.832 2.384 0.832 1.904ZM0.832 7.69306C0.832 7.19706 1 6.78106 1.336 6.44506C1.672 6.10906 2.088 5.94106 2.584 5.94106C3.08 5.94106 3.496 6.10906 3.832 6.44506C4.168 6.78106 4.336 7.19706 4.336 7.69306C4.336 8.17306 4.168 8.58106 3.832 8.91706C3.496 9.25306 3.08 9.42106 2.584 9.42106C2.088 9.42106 1.672 9.25306 1.336 8.91706C1 8.58106 0.832 8.17306 0.832 7.69306ZM0.831999 13.4821C0.831999 12.9861 0.999999 12.5701 1.336 12.2341C1.672 11.8981 2.088 11.7301 2.584 11.7301C3.08 11.7301 3.496 11.8981 3.832 12.2341C4.168 12.5701 4.336 12.9861 4.336 13.4821C4.336 13.9621 4.168 14.3701 3.832 14.7061C3.496 15.0421 3.08 15.2101 2.584 15.2101C2.088 15.2101 1.672 15.0421 1.336 14.7061C0.999999 14.3701 0.831999 13.9621 0.831999 13.4821Z" fill="#6D7883"/>
</svg>
