<svg width="40" height="40" viewBox="0 0 40 40" fill="none" xmlns="http://www.w3.org/2000/svg">
<rect x="0.5" y="0.5" width="39" height="39" rx="8.5" fill="#EDD927" fill-opacity="0.33" stroke="#EDD927"/>
<g clip-path="url(#clip0)">
<path d="M19.9997 23.7063C19.4406 23.7063 18.9719 24.175 18.9719 24.7341C18.9719 25.2933 19.4406 25.762 19.9997 25.762C20.5383 25.762 21.0276 25.2933 21.0029 24.7588C21.0276 24.1709 20.563 23.7063 19.9997 23.7063Z" fill="#EDD927"/>
<path d="M29.5133 27.3489C30.1588 26.2347 30.1629 24.9067 29.5215 23.7967L23.0832 12.6468C22.446 11.5244 21.2948 10.8584 20.0039 10.8584C18.7129 10.8584 17.5617 11.5285 16.9245 12.6427L10.478 23.8049C9.8366 24.9273 9.84071 26.2635 10.4903 27.3776C11.1317 28.4795 12.2787 29.1414 13.5614 29.1414H26.4216C27.7085 29.1414 28.8637 28.4712 29.5133 27.3489ZM28.1155 26.543C27.7578 27.1597 27.1247 27.5256 26.4175 27.5256H13.5573C12.8584 27.5256 12.2294 27.168 11.8799 26.5636C11.5263 25.951 11.5222 25.2192 11.8758 24.6025L18.3223 13.4444C18.6718 12.8318 19.2967 12.47 20.0039 12.47C20.7069 12.47 21.3359 12.8359 21.6854 13.4485L28.1278 24.6066C28.4732 25.2069 28.469 25.9305 28.1155 26.543Z" fill="#EDD927"/>
<path d="M19.7448 16.4909C19.2555 16.6307 18.9513 17.0747 18.9513 17.6133C18.976 17.9381 18.9965 18.267 19.0212 18.5918C19.0911 19.8293 19.161 21.0422 19.2309 22.2797C19.2555 22.699 19.5803 23.0032 19.9997 23.0032C20.419 23.0032 20.7479 22.6785 20.7685 22.255C20.7685 22.0001 20.7685 21.7657 20.7932 21.5067C20.8384 20.7132 20.8877 19.9198 20.9329 19.1263C20.9576 18.6124 21.0028 18.0985 21.0275 17.5845C21.0275 17.3995 21.0028 17.2351 20.9329 17.0706C20.7233 16.6102 20.234 16.3758 19.7448 16.4909Z" fill="#EDD927"/>
</g>
<defs>
<clipPath id="clip0">
<rect width="20" height="20" fill="white" transform="translate(10 10)"/>
</clipPath>
</defs>
</svg>
