<svg width="15" height="15" viewBox="0 0 15 15" fill="none" xmlns="http://www.w3.org/2000/svg">
<g clip-path="url(#clip0)">
<path d="M7.5 3.0293C4.63409 3.0293 2.03513 4.59726 0.117367 7.14406C-0.0391224 7.35271 -0.0391224 7.64421 0.117367 7.85286C2.03513 10.4027 4.63409 11.9707 7.5 11.9707C10.3659 11.9707 12.9649 10.4027 14.8826 7.85593C15.0391 7.64728 15.0391 7.35578 14.8826 7.14712C12.9649 4.59726 10.3659 3.0293 7.5 3.0293ZM7.70558 10.6482C5.80316 10.7679 4.23213 9.1999 4.35179 7.29441C4.44998 5.72337 5.72338 4.44998 7.29442 4.35179C9.19684 4.23212 10.7679 5.80009 10.6482 7.70558C10.5469 9.27354 9.27355 10.5469 7.70558 10.6482ZM7.61046 9.19376C6.58561 9.2582 5.73872 8.41438 5.80623 7.38953C5.85839 6.54264 6.54572 5.85839 7.39261 5.80315C8.41746 5.73872 9.26435 6.58253 9.19684 7.60739C9.14161 8.45734 8.45428 9.1416 7.61046 9.19376Z" fill="#495B6C"/>
</g>
<defs>
<clipPath id="clip0">
<rect width="15" height="15" fill="white"/>
</clipPath>
</defs>
</svg>
