<svg width="40" height="40" viewBox="0 0 40 40" fill="none" xmlns="http://www.w3.org/2000/svg">
<rect x="0.5" y="0.5" width="39" height="39" rx="8.5" fill="#E0263C" fill-opacity="0.33" stroke="#E0263C"/>
<path fill-rule="evenodd" clip-rule="evenodd" d="M22.045 20.5L26.68 15.865C27.1067 15.4384 27.1067 14.7466 26.68 14.3201C26.2534 13.8934 25.5617 13.8934 25.135 14.3201L20.5 18.9551L15.8649 14.32C15.4383 13.8933 14.7466 13.8933 14.3199 14.32C13.8934 14.7466 13.8934 15.4384 14.3199 15.865L18.955 20.5L14.3199 25.135C13.8934 25.5617 13.8934 26.2534 14.3199 26.68C14.7466 27.1067 15.4383 27.1067 15.8649 26.68L20.5 22.045L25.135 26.68C25.5616 27.1067 26.2534 27.1067 26.68 26.68C27.1067 26.2534 27.1067 25.5617 26.68 25.135L22.045 20.5Z" fill="#E0263C"/>
</svg>
