<svg width="19" height="19" viewBox="0 0 19 19" fill="none" xmlns="http://www.w3.org/2000/svg">
<g clip-path="url(#clip0)">
<path d="M16.4403 0H2.56108C1.1471 0 0.000793457 1.14626 0.000793457 2.56029V16.4396C0.000793457 17.8536 1.14706 18.9999 2.56108 18.9999H9.40626L9.41792 12.2104H7.654C7.42477 12.2104 7.23871 12.025 7.23783 11.7958L7.22937 9.60723C7.22849 9.37674 7.4151 9.18943 7.64559 9.18943H9.4063V7.07473C9.4063 4.62065 10.9051 3.28438 13.0943 3.28438H14.8907C15.1206 3.28438 15.3069 3.47072 15.3069 3.7006V5.546C15.3069 5.77579 15.1207 5.96208 14.8909 5.96222L13.7885 5.96273C12.598 5.96273 12.3674 6.52847 12.3674 7.35872V9.18948H14.9835C15.2328 9.18948 15.4262 9.40714 15.3968 9.65468L15.1374 11.8432C15.1126 12.0527 14.935 12.2105 14.7241 12.2105H12.3791L12.3674 19H16.4404C17.8544 19 19.0007 17.8537 19.0007 16.4398V2.56029C19.0006 1.14626 17.8543 0 16.4403 0Z" fill="#56636E"/>
</g>
<defs>
<clipPath id="clip0">
<rect width="19" height="19" fill="white"/>
</clipPath>
</defs>
</svg>
