<svg width="13" height="13" viewBox="0 0 13 13" fill="none" xmlns="http://www.w3.org/2000/svg">
<path d="M11.924 10.1206C11.924 10.1206 11.1081 9.31613 10.6175 8.83252L8.95911 10.4683L10.266 11.7567C10.8532 12.3376 11.6152 11.9655 11.8748 11.7086C12.27 11.3224 12.4076 10.599 11.9246 10.1211C11.9244 10.121 11.9242 10.1208 11.924 10.1206Z" fill="white"/>
<path d="M10.3308 6.69185C9.93219 6.29868 9.28594 6.29868 8.88732 6.69185L6.78889 8.76159C6.39028 9.15476 6.39028 9.79218 6.78889 10.1853C7.1875 10.5785 7.83376 10.5785 8.23237 10.1853L10.3308 8.1156C10.7294 7.72243 10.7294 7.08501 10.3308 6.69185Z" fill="white"/>
<path d="M0.308677 10.1206C0.308486 10.1208 0.308271 10.121 0.308104 10.1211C-0.174897 10.599 -0.0372551 11.3224 0.357942 11.7086C0.617553 11.9655 1.37947 12.3376 1.96671 11.7567L3.2736 10.4683L1.61516 8.83252C1.12459 9.31615 0.308677 10.1206 0.308677 10.1206Z" fill="white"/>
<path d="M3.18358 5.53382L5.60971 3.14085L2.53128 0.104523C2.46409 0.0382099 2.37294 0.000976562 2.27788 0.000976562H0.358563C0.160642 0.000976562 0.000183105 0.159242 0.000183105 0.354457V2.24754C0.000183105 2.3413 0.0379324 2.4312 0.105164 2.49747L3.18358 5.53382Z" fill="white"/>
<path d="M12.2329 2.2468V0.353725C12.2329 0.158509 12.0725 0.000244141 11.8745 0.000244141H9.95522C9.86015 0.000244141 9.769 0.0374775 9.70182 0.10379L3.69043 6.03298L6.11656 8.42595L12.1279 2.49676C12.1952 2.43047 12.2329 2.34057 12.2329 2.2468Z" fill="white"/>
<path d="M3.34535 6.69185C2.94673 6.29868 2.30048 6.29868 1.90187 6.69185C1.50325 7.08501 1.50325 7.72243 1.90187 8.1156L4.0003 10.1853C4.39891 10.5785 5.04517 10.5785 5.44378 10.1853C5.84239 9.79218 5.84239 9.15476 5.44378 8.76159L3.34535 6.69185Z" fill="white"/>
</svg>
