<svg width="28" height="28" viewBox="0 0 28 28" fill="none" xmlns="http://www.w3.org/2000/svg">
<g clip-path="url(#clip0)">
<path d="M9.707 20.5998C7.8598 19.0207 6.80942 16.7514 6.80942 14.3031C6.80942 12.6588 7.28964 11.0699 8.19818 9.70827L8.19776 9.70785C8.27252 9.59591 8.32166 9.46496 8.33447 9.32204C8.34281 9.22869 8.5246 7.02111 7.21594 5.54732C5.90708 4.07461 3.69351 3.99514 3.59995 3.99257C3.16074 3.9804 2.78946 4.31066 2.74994 4.7473C2.74161 4.84044 2.55918 7.04867 3.86847 8.52224C4.54096 9.27889 5.45206 9.66726 6.19184 9.86678C6.01795 10.2156 5.86499 10.5734 5.73383 10.939C5.47534 10.6025 5.15982 10.2846 4.77381 10.0274C3.13404 8.93474 0.972384 9.41988 0.881167 9.44103C0.454134 9.54015 0.177919 9.95458 0.250765 10.387C0.266359 10.4792 0.650454 12.6603 2.29044 13.7539C3.14942 14.3264 4.15152 14.4657 4.92398 14.4657C5.00281 14.4657 5.07886 14.4642 5.15235 14.4616C5.15747 14.7931 5.17777 15.1219 5.21472 15.4468C4.88532 15.283 4.52387 15.1529 4.13294 15.0841C2.19132 14.7429 0.407564 16.0569 0.332583 16.1129C-0.0184001 16.3757 -0.10449 16.8661 0.136049 17.2325C0.187533 17.3109 1.41672 19.1532 3.3577 19.4946C3.57987 19.5336 3.7999 19.551 4.01587 19.551C4.91223 19.551 5.73255 19.2523 6.31061 18.968C6.40503 19.1457 6.50479 19.3205 6.61011 19.4922C6.56546 19.4933 6.52081 19.4941 6.47595 19.4969C4.50827 19.6157 3.07871 21.3082 3.01889 21.3802C2.73862 21.7171 2.76874 22.214 3.08789 22.5145C3.15347 22.5763 4.65802 23.9729 6.52359 23.9729C6.59729 23.9729 6.67206 23.9706 6.74683 23.9661C8.71408 23.8467 10.1436 22.155 10.2035 22.083C10.4839 21.7461 10.4538 21.2493 10.1347 20.9485C10.1148 20.9299 9.96164 20.788 9.707 20.5998Z" fill="#384653"/>
<path d="M27.6673 16.1132C27.5921 16.057 25.8081 14.743 23.8671 15.0844C23.476 15.153 23.1145 15.2831 22.7851 15.4471C22.8221 15.122 22.8424 14.7932 22.8475 14.4617C22.921 14.4643 22.9968 14.466 23.0757 14.466C23.8483 14.466 24.8504 14.3263 25.7096 13.754C27.3494 12.6606 27.7335 10.4793 27.7491 10.3871C27.8219 9.95468 27.5459 9.54046 27.1187 9.44113C27.0275 9.41998 24.8658 8.93484 23.2258 10.0277C22.84 10.2849 22.5245 10.6028 22.2663 10.9391C22.1349 10.5738 21.9821 10.2157 21.808 9.86709C22.5478 9.66736 23.4589 9.27899 24.1316 8.52234C25.4407 7.04877 25.2583 4.84054 25.2499 4.7474C25.2104 4.31076 24.837 3.98157 24.3999 3.99267C24.3063 3.99524 22.0928 4.07471 20.7835 5.54785C19.4755 7.02142 19.6571 9.229 19.6654 9.32214C19.6782 9.46506 19.7273 9.59601 19.8021 9.70795L19.8017 9.70837C20.7102 11.07 21.1904 12.6589 21.1904 14.3034C21.1904 16.7522 20.1396 19.0219 18.2918 20.601C18.0378 20.7886 17.8851 20.93 17.8652 20.9488C17.546 21.2494 17.5161 21.7465 17.7964 22.0833C17.8564 22.1553 19.2858 23.847 21.253 23.9664C21.328 23.9709 21.4024 23.9733 21.4763 23.9733C23.3418 23.9733 24.8466 22.5766 24.9122 22.5149C25.2311 22.2143 25.2612 21.7174 24.981 21.3805C24.9212 21.3085 23.4916 19.6158 21.5243 19.4972C21.4793 19.4944 21.4346 19.4936 21.3898 19.4925C21.4953 19.3208 21.5948 19.1458 21.6895 18.9683C22.2673 19.2524 23.0876 19.5513 23.9844 19.5513C24.2002 19.5513 24.4206 19.5338 24.6428 19.4949C26.5831 19.1535 27.8125 17.311 27.8638 17.2328C28.1043 16.8662 28.0183 16.3758 27.6673 16.1132Z" fill="#384653"/>
<path d="M18.569 13.5909C18.7361 13.3741 18.7854 13.0887 18.7008 12.8285C18.6163 12.5681 18.4086 12.3662 18.1461 12.2889L15.9675 11.6476L14.6845 9.77411C14.5299 9.54831 14.2737 9.41309 14.0001 9.41309C13.7264 9.41309 13.4703 9.5481 13.3156 9.77411L12.0326 11.6476L9.85407 12.2889C9.59152 12.3662 9.38409 12.5681 9.2995 12.8285C9.21491 13.0887 9.26404 13.3741 9.43109 13.5909L10.8167 15.39L10.7532 17.6602C10.7457 17.9337 10.8735 18.1934 11.095 18.3545C11.3163 18.5154 11.6028 18.5566 11.8608 18.4647L14.0001 17.7032L16.1395 18.4647C16.2299 18.497 16.3241 18.5128 16.4176 18.5128C16.5905 18.5128 16.7616 18.4587 16.9053 18.3545C17.1267 18.1934 17.2546 17.9337 17.2469 17.6602L17.1837 15.39L18.569 13.5909Z" fill="#384653"/>
</g>
<defs>
<clipPath id="clip0">
<rect width="28" height="28" fill="white"/>
</clipPath>
</defs>
</svg>
