<svg width="369" height="52" viewBox="0 0 369 52" fill="none" xmlns="http://www.w3.org/2000/svg">
<rect x="0.5" y="0.5" width="110" height="51" rx="3.5" fill="#1D262F" stroke="#273542"/>
<path d="M69.08 20V17.504H74.072V35H71.312V20H69.08ZM77.8306 26.024C77.8306 23.256 78.2946 21.096 79.2226 19.544C80.1666 17.976 81.7826 17.192 84.0706 17.192C86.3586 17.192 87.9666 17.976 88.8946 19.544C89.8386 21.096 90.3106 23.256 90.3106 26.024C90.3106 28.824 89.8386 31.016 88.8946 32.6C87.9666 34.168 86.3586 34.952 84.0706 34.952C81.7826 34.952 80.1666 34.168 79.2226 32.6C78.2946 31.016 77.8306 28.824 77.8306 26.024ZM87.6226 26.024C87.6226 24.728 87.5346 23.632 87.3586 22.736C87.1986 21.84 86.8626 21.112 86.3506 20.552C85.8386 19.976 85.0786 19.688 84.0706 19.688C83.0626 19.688 82.3026 19.976 81.7906 20.552C81.2786 21.112 80.9346 21.84 80.7586 22.736C80.5986 23.632 80.5186 24.728 80.5186 26.024C80.5186 27.368 80.5986 28.496 80.7586 29.408C80.9186 30.32 81.2546 31.056 81.7666 31.616C82.2946 32.176 83.0626 32.456 84.0706 32.456C85.0786 32.456 85.8386 32.176 86.3506 31.616C86.8786 31.056 87.2226 30.32 87.3826 29.408C87.5426 28.496 87.6226 27.368 87.6226 26.024Z" fill="#B5C3CF"/>
<rect x="0.5" y="0.5" width="49" height="51" rx="3.5" fill="#1D262F" stroke="#273542"/>
<path d="M36.3262 16.66H33.3747C33.3854 16.3331 33.3913 16.0042 33.3913 15.6738C33.3913 15.3016 33.0895 15 32.7175 15H18.2825C17.9105 15 17.6087 15.3016 17.6087 15.6738C17.6087 16.0042 17.6146 16.3331 17.6253 16.66H14.6738C14.3016 16.66 14 16.9616 14 17.3338C14 20.3531 14.7891 23.2016 16.2219 25.3548C17.6381 27.4835 19.5247 28.7045 21.5627 28.8233C22.0247 29.326 22.513 29.736 23.0218 30.0487V33.0435H21.8913C20.5247 33.0435 19.4131 34.1553 19.4131 35.5218V36.6522H19.3652C18.993 36.6522 18.6914 36.954 18.6914 37.326C18.6914 37.6982 18.993 37.9998 19.3652 37.9998H31.6348C32.007 37.9998 32.3086 37.6982 32.3086 37.326C32.3086 36.954 32.007 36.6522 31.6348 36.6522H31.5869V35.5218C31.5869 34.1553 30.4753 33.0435 29.1087 33.0435H27.9782V30.0487C28.487 29.7361 28.9755 29.326 29.4375 28.8233C31.4753 28.7045 33.3619 27.4835 34.7783 25.3548C36.2111 23.2016 37 20.3531 37 17.3338C37 16.9616 36.6984 16.66 36.3262 16.66ZM17.3439 24.6084C16.162 22.8324 15.4677 20.5094 15.3619 18.0077H17.7006C17.9436 21.0831 18.6656 23.9258 19.7939 26.1822C19.9736 26.5416 20.1615 26.8811 20.3564 27.2009C19.2357 26.7776 18.1984 25.8929 17.3439 24.6084ZM30.2393 35.5218V36.6523H20.7607V35.5218C20.7607 34.8985 21.2679 34.3912 21.8913 34.3912H29.1087C29.7321 34.3912 30.2393 34.8985 30.2393 35.5218ZM26.6306 33.0435H24.3694V30.6342C24.7398 30.7318 25.1173 30.7825 25.5 30.7825C25.8827 30.7825 26.2602 30.7318 26.6306 30.6342V33.0435ZM27.0479 29.0311C27.0175 29.0435 26.9884 29.0586 26.9605 29.0753C26.4842 29.3122 25.9948 29.4348 25.5 29.4348C25.0053 29.4348 24.5161 29.3122 24.04 29.0756C24.0118 29.0586 23.9825 29.0435 23.9518 29.0307C23.4234 28.7514 22.9123 28.3295 22.4288 27.7752C22.4034 27.7389 22.3748 27.7053 22.343 27.6748C21.8631 27.105 21.4116 26.4042 20.9992 25.5795C19.7609 23.103 19.0456 19.8466 18.9642 16.3477H32.0358C31.9542 19.8466 31.2389 23.1031 30.0008 25.5795C29.5884 26.4042 29.1369 27.105 28.6572 27.6748C28.6252 27.7053 28.5963 27.739 28.571 27.7754C28.0876 28.3299 27.5762 28.7515 27.0479 29.0311ZM33.6561 24.6084C32.8016 25.8929 31.7643 26.7776 30.6436 27.2009C30.8385 26.8811 31.0264 26.5416 31.2061 26.1822C32.3344 23.9258 33.0562 21.0831 33.2994 18.0077H35.6381C35.5323 20.5094 34.838 22.8324 33.6561 24.6084Z" fill="#536271"/>
<rect x="257.5" y="0.5" width="110" height="51" rx="3.5" fill="#1D262F" stroke="#273542"/>
<path d="M342.056 19.856H334.016V24.632C334.352 24.184 334.848 23.808 335.504 23.504C336.176 23.2 336.888 23.048 337.64 23.048C338.984 23.048 340.072 23.336 340.904 23.912C341.752 24.488 342.352 25.216 342.704 26.096C343.072 26.976 343.256 27.904 343.256 28.88C343.256 30.064 343.024 31.12 342.56 32.048C342.112 32.96 341.432 33.68 340.52 34.208C339.624 34.736 338.52 35 337.208 35C335.464 35 334.064 34.568 333.008 33.704C331.952 32.84 331.32 31.696 331.112 30.272H333.776C333.952 31.024 334.344 31.624 334.952 32.072C335.56 32.504 336.32 32.72 337.232 32.72C338.368 32.72 339.216 32.376 339.776 31.688C340.352 31 340.64 30.088 340.64 28.952C340.64 27.8 340.352 26.92 339.776 26.312C339.2 25.688 338.352 25.376 337.232 25.376C336.448 25.376 335.784 25.576 335.24 25.976C334.712 26.36 334.328 26.888 334.088 27.56H331.496V17.456H342.056V19.856Z" fill="#B5C3CF"/>
<rect x="257.5" y="0.5" width="49" height="51" rx="3.5" fill="#1D262F" stroke="#273542"/>
<path d="M280.306 33.9289C280.078 33.92 279.849 33.8935 279.62 33.8498C279.957 33.6737 280.278 33.4271 280.504 33.0811C281.232 31.9691 280.632 30.3733 280.606 30.3057C280.53 30.1099 280.339 29.984 280.129 29.9933C280.056 29.9964 278.353 30.0843 277.625 31.1961C277.3 31.693 277.24 32.2863 277.275 32.7967C276.866 32.4996 276.477 32.1486 276.117 31.7494C275.882 31.4887 275.666 31.2152 275.47 30.9321C276.116 30.9163 276.954 30.77 277.548 30.2094C278.628 29.1905 278.389 27.2897 278.378 27.2094C278.351 27.0011 278.193 26.834 277.987 26.7943C277.907 26.7789 276.023 26.4296 274.943 27.4485C274.656 27.7196 274.462 28.053 274.332 28.398C274.257 28.0663 274.209 27.7343 274.19 27.4058C274.624 26.9885 275.591 25.9104 275.51 24.6659C275.408 23.0998 273.695 22.0107 273.622 21.9651C273.444 21.8539 273.215 21.8688 273.053 22.0021C272.986 22.0568 271.428 23.3588 271.53 24.9249C271.613 26.1891 272.745 27.1424 273.217 27.4871C273.249 28.0137 273.346 28.5472 273.502 29.0749C273.198 28.9254 272.858 28.8234 272.494 28.8234C272.489 28.8234 272.484 28.8234 272.479 28.8234C271.137 28.8338 270.132 30.2319 270.09 30.2914C269.968 30.4629 269.97 30.6926 270.094 30.8621C270.137 30.9207 271.157 32.2928 272.491 32.2928C272.496 32.2928 272.501 32.2928 272.506 32.2926C273.375 32.286 274.103 31.6968 274.519 31.2665C274.777 31.6634 275.068 32.0445 275.392 32.4033C275.526 32.5526 275.665 32.6962 275.807 32.8336C275.67 32.8494 275.532 32.8774 275.396 32.9201C273.983 33.3627 273.369 35.1714 273.343 35.2481C273.277 35.4474 273.346 35.6667 273.514 35.7926C273.568 35.8332 274.654 36.6353 275.836 36.6353C276.065 36.6353 276.298 36.605 276.528 36.5329C277.592 36.1996 278.203 35.0917 278.451 34.532C279.05 34.7537 279.662 34.8811 280.268 34.9047C280.274 34.9049 280.281 34.9051 280.287 34.9051C280.548 34.9051 280.764 34.6989 280.775 34.4359C280.785 34.1664 280.575 33.9394 280.306 33.9289V33.9289ZM278.442 31.7311C278.723 31.3023 279.352 31.0984 279.8 31.0155C279.903 31.4593 279.968 32.1175 279.687 32.5463C279.406 32.9751 278.777 33.179 278.329 33.2619C278.226 32.8179 278.162 32.1599 278.442 31.7311ZM275.613 28.1588C276.076 27.723 276.899 27.6734 277.433 27.7091C277.437 28.2443 277.34 29.0633 276.878 29.4991C276.416 29.935 275.592 29.9845 275.059 29.9487C275.054 29.4135 275.152 28.5947 275.613 28.1588ZM272.498 31.3161C272.496 31.3161 272.493 31.3161 272.491 31.3161C271.971 31.3161 271.448 30.8999 271.128 30.5699C271.418 30.2586 271.936 29.8041 272.486 29.7999H272.494C273.014 29.7999 273.538 30.2172 273.858 30.5472C273.542 30.8842 273.02 31.3121 272.498 31.3161V31.3161ZM272.505 24.8616C272.459 24.1616 273.003 23.4286 273.402 23.0122C273.808 23.3371 274.488 23.988 274.536 24.7294C274.581 25.4292 274.037 26.1622 273.638 26.5786C273.233 26.2538 272.553 25.6028 272.505 24.8616ZM276.236 35.6011C275.633 35.7899 274.875 35.4764 274.412 35.2122C274.641 34.7308 275.085 34.0409 275.688 33.8519C276.291 33.6629 277.049 33.9766 277.512 34.2408C277.282 34.7222 276.839 35.4121 276.236 35.6011Z" fill="#536271"/>
<path d="M294.91 30.2915C294.868 30.232 293.863 28.8339 292.521 28.8234H292.521C292.516 28.8234 292.511 28.8234 292.506 28.8234C292.142 28.8234 291.802 28.9255 291.498 29.075C291.654 28.5472 291.751 28.0138 291.783 27.4871C292.255 27.1425 293.387 26.1892 293.47 24.925C293.572 23.3589 292.014 22.0569 291.947 22.0022C291.785 21.8689 291.556 21.8538 291.378 21.9652C291.305 22.0108 289.592 23.0999 289.489 24.666C289.408 25.9107 290.376 26.9886 290.81 27.4061C290.791 27.7343 290.743 28.0664 290.667 28.3981C290.538 28.0531 290.344 27.7196 290.057 27.4486C288.977 26.4297 287.093 26.7789 287.013 26.7944C286.807 26.8341 286.649 27.0013 286.622 27.2094C286.611 27.2899 286.372 29.1906 287.452 30.2095C288.046 30.7701 288.883 30.9166 289.53 30.9322C289.334 31.2152 289.118 31.4888 288.883 31.7495C288.523 32.1487 288.133 32.4997 287.725 32.7968C287.76 32.2864 287.7 31.693 287.375 31.1964V31.1962C286.646 30.0844 284.944 29.9966 284.871 29.9934C284.662 29.9846 284.469 30.1099 284.394 30.306C284.368 30.3733 283.768 31.9694 284.496 33.0814C284.722 33.4272 285.043 33.6738 285.38 33.8499C285.151 33.8935 284.922 33.9201 284.694 33.929C284.425 33.9395 284.215 34.1665 284.225 34.436C284.236 34.6988 284.452 34.9052 284.713 34.9052C284.719 34.9052 284.726 34.905 284.732 34.9048C285.338 34.8812 285.95 34.7536 286.549 34.5321C286.797 35.0917 287.408 36.1995 288.472 36.5329C288.702 36.605 288.935 36.6354 289.164 36.6354C290.346 36.6354 291.432 35.8331 291.486 35.7925C291.654 35.6666 291.723 35.4475 291.657 35.2481C291.631 35.1713 291.017 33.3627 289.604 32.92C289.468 32.8773 289.33 32.8493 289.193 32.8336C289.335 32.6961 289.474 32.5527 289.608 32.4033C289.932 32.0446 290.223 31.6635 290.481 31.2666C290.897 31.6969 291.625 32.286 292.494 32.2927H292.509C293.843 32.2927 294.863 30.9207 294.906 30.862C295.03 30.6926 295.031 30.463 294.91 30.2915V30.2915ZM287.567 27.7092C288.101 27.6737 288.925 27.7231 289.386 28.1589C289.848 28.5947 289.946 29.4139 289.941 29.9488C289.407 29.9844 288.584 29.9348 288.122 29.4992C287.66 29.0632 287.563 28.244 287.567 27.7092ZM285.199 31.0173C285.613 31.0924 286.262 31.2795 286.558 31.7312C286.838 32.1596 286.774 32.8168 286.671 33.2603C286.258 33.185 285.609 32.998 285.313 32.5464C285.032 32.118 285.097 31.4605 285.199 31.0173ZM290.588 35.2121C290.125 35.4766 289.367 35.7898 288.764 35.601C288.162 35.4124 287.719 34.7238 287.489 34.243C287.909 34.0023 288.675 33.6525 289.312 33.852C289.915 34.041 290.359 34.7311 290.588 35.2121V35.2121ZM290.464 24.7295C290.51 24.0285 291.146 23.3713 291.596 23.0104C291.995 23.427 292.541 24.1607 292.495 24.8617C292.45 25.5624 291.813 26.2197 291.363 26.5806C290.964 26.164 290.418 25.4301 290.464 24.7295V24.7295ZM292.509 31.3161C292.507 31.3161 292.504 31.3161 292.502 31.3161C291.98 31.3121 291.459 30.8851 291.143 30.5486C291.437 30.2435 291.958 29.8 292.506 29.8H292.514C293.036 29.804 293.557 30.232 293.873 30.5687C293.553 30.8992 293.029 31.3161 292.509 31.3161Z" fill="#536271"/>
<path d="M282.5 35.2024C282.299 35.2024 282.115 35.0741 282.043 34.8862C281.971 34.6945 282.03 34.4694 282.188 34.3388C282.339 34.2136 282.557 34.1917 282.73 34.2838C282.912 34.3809 283.016 34.5902 282.981 34.7939C282.943 35.0268 282.736 35.2024 282.5 35.2024Z" fill="#536271"/>
<path d="M283.79 23.5845C283.678 23.5845 283.566 23.5626 283.459 23.5181L282.5 23.1206L281.541 23.5181C281.262 23.6335 280.951 23.5967 280.707 23.4195C280.463 23.2423 280.331 22.9572 280.355 22.6566L280.437 21.6216L279.762 20.8324C279.566 20.6031 279.505 20.2953 279.598 20.0084C279.692 19.7217 279.922 19.5087 280.215 19.4383L281.225 19.1961L281.767 18.3109C281.925 18.0537 282.198 17.9004 282.5 17.9004C282.801 17.9004 283.075 18.0537 283.233 18.3109L283.775 19.1961L284.785 19.4383C285.078 19.5087 285.308 19.7217 285.401 20.0084C285.495 20.2951 285.433 20.6031 285.238 20.8324L284.563 21.6216L284.645 22.6566C284.669 22.9572 284.537 23.2423 284.293 23.4195C284.143 23.5284 283.967 23.5845 283.79 23.5845V23.5845ZM280.629 20.3433L281.311 21.1412C281.395 21.2396 281.436 21.3676 281.426 21.4967L281.344 22.5429L282.313 22.141C282.433 22.0914 282.567 22.0914 282.687 22.141L283.656 22.5429L283.574 21.4967C283.564 21.3676 283.605 21.2396 283.689 21.1412L284.371 20.3433L283.351 20.0984C283.225 20.0683 283.116 19.9893 283.048 19.8787L282.5 18.984L281.952 19.8787C281.884 19.9893 281.775 20.0683 281.649 20.0984L280.629 20.3433Z" fill="#536271"/>
<path d="M282.5 27.0682C282.074 27.0682 281.724 26.8714 281.416 26.6978C281.25 26.6046 281.094 26.5164 280.962 26.4813C280.82 26.4432 280.634 26.4405 280.437 26.4378C280.088 26.4331 279.692 26.4275 279.336 26.2214C278.975 26.0123 278.772 25.6701 278.593 25.3684C278.494 25.2011 278.4 25.0432 278.3 24.9425C278.199 24.8418 278.041 24.7481 277.874 24.6489C277.572 24.47 277.23 24.2671 277.021 23.9062C276.815 23.5497 276.809 23.1543 276.804 22.8055C276.802 22.6085 276.799 22.4223 276.761 22.2798C276.726 22.1482 276.638 21.9918 276.544 21.8263C276.371 21.5178 276.174 21.1682 276.174 20.7421C276.174 20.316 276.371 19.9666 276.544 19.658C276.638 19.4924 276.726 19.336 276.761 19.2044C276.799 19.0619 276.802 18.8758 276.804 18.6788C276.809 18.3299 276.815 17.9345 277.021 17.5782C277.23 17.217 277.572 17.0142 277.874 16.8353C278.041 16.7361 278.199 16.6427 278.3 16.5418C278.4 16.441 278.494 16.2831 278.593 16.116C278.772 15.8141 278.975 15.4719 279.336 15.2631C279.692 15.0567 280.088 15.0514 280.437 15.0464C280.634 15.0437 280.82 15.0411 280.962 15.0031C281.094 14.9678 281.25 14.8797 281.416 14.7866C281.724 14.6129 282.074 14.416 282.5 14.416C282.926 14.416 283.276 14.6129 283.584 14.7866C283.75 14.8797 283.906 14.9678 284.038 15.0031C284.18 15.0411 284.366 15.0437 284.563 15.0464C284.912 15.0514 285.308 15.0567 285.664 15.2631C286.025 15.4719 286.228 15.8141 286.407 16.116C286.506 16.2831 286.599 16.441 286.7 16.5418C286.801 16.6427 286.959 16.7363 287.126 16.8353C287.428 17.0144 287.77 17.2171 287.979 17.5782C288.185 17.9345 288.191 18.3299 288.196 18.6789C288.198 18.8758 288.201 19.0619 288.239 19.2044C288.274 19.3362 288.362 19.4926 288.455 19.658C288.629 19.9666 288.826 20.3162 288.826 20.7421C288.826 21.168 288.629 21.5176 288.455 21.8263C288.362 21.9918 288.274 22.1482 288.239 22.2798C288.201 22.4225 288.198 22.6085 288.196 22.8055C288.191 23.1543 288.185 23.5497 287.979 23.906C287.77 24.2671 287.428 24.47 287.126 24.6489C286.959 24.7481 286.801 24.8416 286.7 24.9425C286.599 25.0432 286.506 25.2011 286.407 25.3684C286.228 25.6701 286.025 26.0123 285.664 26.2214C285.307 26.4275 284.912 26.4329 284.563 26.4378C284.366 26.4405 284.18 26.4432 284.038 26.4813C283.906 26.5164 283.75 26.6046 283.584 26.6978C283.276 26.8714 282.926 27.0682 282.5 27.0682V27.0682ZM282.5 15.3926C282.33 15.3926 282.119 15.5116 281.895 15.6377C281.684 15.7565 281.465 15.8795 281.214 15.9465C280.955 16.0161 280.687 16.0197 280.45 16.023C280.199 16.0266 279.961 16.0298 279.825 16.1084C279.685 16.1895 279.563 16.3957 279.433 16.614C279.314 16.8158 279.178 17.0447 278.99 17.2324C278.803 17.4201 278.574 17.5557 278.372 17.6755C278.153 17.8048 277.947 17.9271 277.866 18.0673C277.787 18.2031 277.784 18.4407 277.781 18.6925C277.778 18.929 277.774 19.1968 277.704 19.4568C277.637 19.7078 277.514 19.9262 277.395 20.1373C277.269 20.3608 277.15 20.5722 277.15 20.7423C277.15 20.9123 277.269 21.1236 277.395 21.3471C277.514 21.5585 277.637 21.7767 277.704 22.0277C277.774 22.2875 277.778 22.5554 277.781 22.7919C277.784 23.0435 277.787 23.2814 277.866 23.4172C277.947 23.5574 278.153 23.6796 278.372 23.8089C278.574 23.9285 278.803 24.0643 278.99 24.252C279.178 24.4397 279.314 24.6686 279.433 24.8704C279.563 25.0888 279.685 25.295 279.825 25.376C279.961 25.4546 280.199 25.4579 280.45 25.4613C280.687 25.4647 280.955 25.4683 281.214 25.5378C281.465 25.6049 281.684 25.7279 281.895 25.8468C282.119 25.9728 282.33 26.0917 282.5 26.0917C282.67 26.0917 282.881 25.9728 283.105 25.8468C283.316 25.7277 283.534 25.6049 283.785 25.5378C284.045 25.4683 284.313 25.4647 284.55 25.4613C284.801 25.4579 285.039 25.4546 285.175 25.376C285.315 25.295 285.437 25.0886 285.567 24.8704C285.687 24.6684 285.822 24.4395 286.01 24.2518C286.198 24.0642 286.426 23.9285 286.628 23.8089C286.847 23.6794 287.053 23.5572 287.134 23.4172C287.212 23.2814 287.216 23.0435 287.219 22.7919C287.223 22.5554 287.226 22.2875 287.296 22.0277C287.363 21.7767 287.486 21.5583 287.605 21.3471C287.73 21.1234 287.849 20.9121 287.849 20.7421C287.849 20.5722 287.73 20.3608 287.605 20.1371C287.486 19.926 287.363 19.7076 287.296 19.4566C287.226 19.1968 287.222 18.9288 287.219 18.6923C287.216 18.4407 287.212 18.2031 287.134 18.0673C287.053 17.9271 286.846 17.8048 286.628 17.6753C286.426 17.5557 286.197 17.4201 286.01 17.2324C285.822 17.0447 285.686 16.8158 285.567 16.6139C285.437 16.3955 285.315 16.1893 285.175 16.1082C285.039 16.0298 284.801 16.0264 284.55 16.023C284.313 16.0197 284.045 16.0159 283.785 15.9465C283.534 15.8793 283.316 15.7563 283.105 15.6375C282.881 15.5116 282.67 15.3926 282.5 15.3926Z" fill="#536271"/>
<rect x="121.5" y="0.5" width="125" height="51" rx="3.5" fill="#1D262F" stroke="#273542"/>
<circle cx="191.5" cy="25.5" r="9.5" fill="#E0073E"/>
<circle cx="191.5" cy="25.5" r="8.3125" fill="#8B1C38"/>
<path d="M187.44 20.6123V23.6098H195.062V20.6123L193.131 22.4413L191.251 20.6123L189.473 22.4413L187.44 20.6123Z" fill="white"/>
<path d="M190.895 24.3718V25.6928H188.812V26.4549L190.895 28.8935V31.0274L187.44 27.0137V24.3718H190.895Z" fill="white"/>
<path d="M191.606 24.3718V25.6928H193.689V26.4549L191.606 28.8935V31.0274L195.061 27.0137V24.3718H191.606Z" fill="white"/>
<path d="M207.952 31.28C209.488 29.952 210.696 28.864 211.576 28.016C212.472 27.152 213.216 26.256 213.808 25.328C214.4 24.4 214.696 23.472 214.696 22.544C214.696 21.584 214.464 20.832 214 20.288C213.552 19.744 212.84 19.472 211.864 19.472C210.92 19.472 210.184 19.776 209.656 20.384C209.144 20.976 208.872 21.776 208.84 22.784H206.2C206.248 20.96 206.792 19.568 207.832 18.608C208.888 17.632 210.224 17.144 211.84 17.144C213.584 17.144 214.944 17.624 215.92 18.584C216.912 19.544 217.408 20.824 217.408 22.424C217.408 23.576 217.112 24.688 216.52 25.76C215.944 26.816 215.248 27.768 214.432 28.616C213.632 29.448 212.608 30.416 211.36 31.52L210.28 32.48H217.888V34.76H206.224V32.768L207.952 31.28ZM231.572 19.856H223.532V24.632C223.868 24.184 224.364 23.808 225.02 23.504C225.692 23.2 226.404 23.048 227.156 23.048C228.5 23.048 229.588 23.336 230.42 23.912C231.268 24.488 231.868 25.216 232.22 26.096C232.588 26.976 232.772 27.904 232.772 28.88C232.772 30.064 232.54 31.12 232.076 32.048C231.628 32.96 230.948 33.68 230.036 34.208C229.14 34.736 228.036 35 226.724 35C224.98 35 223.58 34.568 222.524 33.704C221.468 32.84 220.836 31.696 220.628 30.272H223.292C223.468 31.024 223.86 31.624 224.468 32.072C225.076 32.504 225.836 32.72 226.748 32.72C227.884 32.72 228.732 32.376 229.292 31.688C229.868 31 230.156 30.088 230.156 28.952C230.156 27.8 229.868 26.92 229.292 26.312C228.716 25.688 227.868 25.376 226.748 25.376C225.964 25.376 225.3 25.576 224.756 25.976C224.228 26.36 223.844 26.888 223.604 27.56H221.012V17.456H231.572V19.856Z" fill="#B5C3CF"/>
<rect x="121.5" y="0.5" width="49" height="51" rx="3.5" fill="#1D262F" stroke="#273542"/>
<path d="M144.447 20.7708H138.061L134.712 31.6618C134.123 33.022 134.153 34.354 134.796 35.4142C135.542 36.6428 137.04 37.4199 138.908 37.5462C139.028 37.5542 139.149 37.5586 139.271 37.5586H143.533C143.655 37.5586 143.776 37.5542 143.897 37.5462C145.757 37.4203 147.258 36.6552 148.013 35.4469C148.674 34.388 148.727 33.0971 148.173 31.7378L144.447 20.7708ZM147.263 34.9787C146.66 35.9439 145.411 36.5584 143.837 36.6649C143.736 36.6715 143.635 36.6751 143.533 36.6751H139.271C139.169 36.6751 139.067 36.6715 138.967 36.6649C137.391 36.558 136.146 35.9355 135.551 34.9561C135.051 34.1304 135.044 33.106 135.532 31.9927L138.714 21.6543H143.814L147.346 32.0457C147.797 33.1559 147.768 34.1698 147.263 34.9787Z" fill="#536271"/>
<path d="M137.815 16.8085C137.995 17.3289 138.479 17.6788 139.021 17.6788H143.055C143.597 17.6788 144.082 17.3289 144.262 16.8085C144.4 16.4078 144.66 15.8498 145.112 15.4668C145.479 15.1567 145.65 14.6756 145.56 14.2117C145.472 13.7554 145.153 13.3949 144.708 13.2473C143.382 12.8082 142.206 12.9558 141.308 13.6745C141.147 13.8035 140.93 13.8035 140.768 13.6745C139.87 12.9562 138.695 12.8082 137.368 13.2473C136.923 13.3944 136.604 13.7549 136.516 14.2113C136.426 14.6756 136.598 15.1562 136.964 15.4668C137.417 15.8498 137.676 16.4078 137.815 16.8085ZM137.383 14.3796C137.399 14.297 137.455 14.149 137.646 14.0858C138.056 13.9497 138.439 13.8822 138.794 13.8822C139.339 13.8822 139.815 14.043 140.217 14.3641C140.7 14.7507 141.376 14.7507 141.86 14.3641C142.522 13.834 143.388 13.7403 144.431 14.0858C144.622 14.149 144.677 14.297 144.693 14.3796C144.723 14.5324 144.666 14.6871 144.542 14.7927C143.936 15.3056 143.601 16.0155 143.427 16.5204C143.37 16.6843 143.22 16.7948 143.055 16.7948H139.021C138.856 16.7948 138.707 16.6843 138.65 16.52C138.476 16.0146 138.141 15.3051 137.535 14.7922C137.411 14.6866 137.354 14.5324 137.383 14.3796Z" fill="#536271"/>
<path d="M144.572 19.6809V18.5619C144.572 18.318 144.374 18.1201 144.13 18.1201H138.387C138.143 18.1201 137.945 18.318 137.945 18.5619C137.945 18.8058 138.143 19.0037 138.387 19.0037H143.688V19.4454H138.387C138.143 19.4454 137.945 19.6434 137.945 19.8872C137.945 20.1311 138.143 20.329 138.387 20.329H143.977C144.384 20.6665 144.879 20.8454 145.38 20.8454C145.946 20.8454 146.511 20.6298 146.942 20.1995C147.114 20.0268 147.114 19.7476 146.942 19.5749C146.769 19.4021 146.49 19.4021 146.317 19.5749C145.84 20.0516 145.092 20.0829 144.572 19.6809Z" fill="#536271"/>
<path d="M138.387 34.4657C137.657 34.4657 137.062 33.6732 137.062 32.6986C137.062 32.4548 136.864 32.2568 136.62 32.2568C136.376 32.2568 136.178 32.4548 136.178 32.6986C136.178 34.1604 137.169 35.3493 138.387 35.3493C138.631 35.3493 138.829 35.1513 138.829 34.9075C138.829 34.6636 138.632 34.4657 138.387 34.4657Z" fill="#536271"/>
<path d="M154.291 32.2568C152.65 32.2568 149.873 32.5824 149.873 33.803V36.2328C149.873 37.3244 152.167 37.9999 154.291 37.9999C156.416 37.9999 158.709 37.3244 158.709 36.2328V33.803C158.709 32.5829 155.932 32.2568 154.291 32.2568ZM157.792 33.7995C157.783 33.8088 157.775 33.8181 157.762 33.8282C157.745 33.8419 157.725 33.8565 157.701 33.8715C157.672 33.8901 157.637 33.9095 157.598 33.929C157.567 33.9449 157.534 33.9612 157.497 33.9775C157.45 33.9983 157.395 34.0191 157.339 34.0403C157.294 34.0571 157.249 34.0739 157.197 34.0911C157.133 34.1123 157.059 34.1335 156.984 34.1543C156.926 34.1706 156.868 34.1874 156.804 34.2033C156.72 34.2241 156.625 34.2431 156.531 34.262C156.46 34.2766 156.393 34.2916 156.316 34.3053C156.21 34.3239 156.091 34.3398 155.974 34.3557C155.894 34.3667 155.82 34.3791 155.734 34.3888C155.595 34.4047 155.442 34.4158 155.289 34.4268C155.211 34.4326 155.141 34.4405 155.059 34.4454C154.818 34.4586 154.563 34.4666 154.29 34.4666C154.018 34.4666 153.762 34.4586 153.521 34.4454C153.44 34.441 153.369 34.433 153.291 34.4268C153.138 34.4153 152.985 34.4043 152.846 34.3888C152.761 34.3791 152.686 34.3667 152.606 34.3557C152.489 34.3398 152.371 34.3239 152.265 34.3053C152.188 34.2916 152.12 34.2766 152.049 34.262C151.955 34.2426 151.86 34.2236 151.776 34.2033C151.712 34.1874 151.655 34.171 151.596 34.1543C151.522 34.1335 151.448 34.1123 151.383 34.0911C151.332 34.0743 151.286 34.0571 151.241 34.0403C151.185 34.0191 151.13 33.9983 151.084 33.9775C151.046 33.9612 151.014 33.9449 150.982 33.929C150.944 33.9091 150.908 33.8896 150.879 33.8715C150.856 33.8565 150.835 33.8424 150.818 33.8282C150.805 33.8181 150.797 33.8092 150.788 33.7995C151.036 33.5716 152.203 33.1408 154.289 33.1408C156.374 33.1408 157.545 33.5711 157.792 33.7995ZM154.291 37.1164C152.206 37.1164 150.866 36.4749 150.757 36.2328V34.7939C150.769 34.7992 150.783 34.8032 150.796 34.8085C150.901 34.8536 151.012 34.896 151.129 34.9349C151.135 34.9371 151.142 34.9393 151.148 34.9411C151.268 34.9799 151.395 35.0148 151.525 35.0471C151.567 35.0577 151.611 35.0674 151.654 35.0771C151.749 35.0988 151.844 35.1195 151.942 35.1381C151.989 35.1474 152.036 35.1562 152.083 35.1646C152.191 35.1836 152.299 35.2004 152.408 35.2163C152.442 35.2211 152.476 35.2269 152.511 35.2317C152.653 35.2507 152.796 35.2675 152.938 35.2812C152.974 35.2848 153.009 35.2874 153.044 35.2905C153.153 35.3002 153.261 35.3091 153.368 35.3161C153.415 35.3192 153.46 35.3219 153.505 35.3245C153.604 35.3303 153.7 35.3347 153.796 35.3382C153.836 35.3395 153.876 35.3413 153.916 35.3426C154.045 35.3462 154.171 35.3484 154.291 35.3484C154.409 35.3484 154.536 35.3462 154.665 35.3426C154.705 35.3413 154.746 35.3395 154.787 35.3382C154.881 35.3347 154.977 35.3303 155.076 35.3245C155.122 35.3219 155.168 35.3192 155.214 35.3161C155.321 35.3091 155.429 35.3002 155.539 35.2901C155.574 35.287 155.608 35.2843 155.644 35.2808C155.786 35.2666 155.929 35.2503 156.071 35.2309C156.106 35.226 156.141 35.2203 156.176 35.2154C156.284 35.1999 156.392 35.1827 156.499 35.1637C156.547 35.1553 156.594 35.146 156.641 35.1372C156.739 35.1182 156.835 35.0979 156.93 35.0758C156.973 35.0656 157.016 35.0564 157.059 35.0458C157.191 35.0126 157.32 34.9773 157.442 34.9375C157.448 34.9353 157.454 34.9331 157.46 34.9313C157.575 34.8933 157.684 34.8514 157.788 34.8072C157.8 34.8019 157.815 34.7975 157.827 34.7922L157.83 36.2006C157.717 36.4753 156.376 37.1164 154.291 37.1164Z" fill="#536271"/>
<rect width="369" height="52" rx="4" fill="#212B34" fill-opacity="0.87"/>
<path fill-rule="evenodd" clip-rule="evenodd" d="M86.5204 27.5L92.5816 21.4389C93.1395 20.881 93.1395 19.9764 92.5816 19.4185C92.0236 18.8606 91.1191 18.8606 90.5612 19.4185L84.5 25.4797L78.4388 19.4185C77.8808 18.8605 76.9763 18.8605 76.4184 19.4185C75.8605 19.9764 75.8605 20.881 76.4184 21.4388L82.4796 27.5L76.4184 33.5612C75.8605 34.1191 75.8605 35.0237 76.4184 35.5816C76.9763 36.1395 77.8808 36.1395 78.4388 35.5816L84.5 29.5203L90.5612 35.5816C91.119 36.1395 92.0236 36.1395 92.5816 35.5816C93.1395 35.0236 93.1395 34.1191 92.5816 33.5612L86.5204 27.5Z" fill="#8A9BA9"/>
<path d="M105.776 22.27V23.572H101.646V26.442H104.866V27.744H101.646V32H100.05V22.27H105.776ZM106.723 28.108C106.723 27.3333 106.882 26.6473 107.199 26.05C107.526 25.4527 107.964 24.9907 108.515 24.664C109.075 24.328 109.691 24.16 110.363 24.16C110.97 24.16 111.497 24.2813 111.945 24.524C112.402 24.7573 112.766 25.0513 113.037 25.406V24.286H114.647V32H113.037V30.852C112.766 31.216 112.398 31.5193 111.931 31.762C111.464 32.0047 110.932 32.126 110.335 32.126C109.672 32.126 109.066 31.958 108.515 31.622C107.964 31.2767 107.526 30.8007 107.199 30.194C106.882 29.578 106.723 28.8827 106.723 28.108ZM113.037 28.136C113.037 27.604 112.925 27.142 112.701 26.75C112.486 26.358 112.202 26.0593 111.847 25.854C111.492 25.6487 111.11 25.546 110.699 25.546C110.288 25.546 109.906 25.6487 109.551 25.854C109.196 26.05 108.907 26.344 108.683 26.736C108.468 27.1187 108.361 27.576 108.361 28.108C108.361 28.64 108.468 29.1067 108.683 29.508C108.907 29.9093 109.196 30.2173 109.551 30.432C109.915 30.6373 110.298 30.74 110.699 30.74C111.11 30.74 111.492 30.6373 111.847 30.432C112.202 30.2267 112.486 29.928 112.701 29.536C112.925 29.1347 113.037 28.668 113.037 28.136ZM117.555 23.264C117.266 23.264 117.023 23.166 116.827 22.97C116.631 22.774 116.533 22.5313 116.533 22.242C116.533 21.9527 116.631 21.71 116.827 21.514C117.023 21.318 117.266 21.22 117.555 21.22C117.835 21.22 118.073 21.318 118.269 21.514C118.465 21.71 118.563 21.9527 118.563 22.242C118.563 22.5313 118.465 22.774 118.269 22.97C118.073 23.166 117.835 23.264 117.555 23.264ZM118.339 24.286V32H116.743V24.286H118.339ZM122.031 21.64V32H120.435V21.64H122.031ZM131.196 27.954C131.196 28.2433 131.178 28.5047 131.14 28.738H125.246C125.293 29.354 125.522 29.8487 125.932 30.222C126.343 30.5953 126.847 30.782 127.444 30.782C128.303 30.782 128.91 30.4227 129.264 29.704H130.986C130.753 30.4133 130.328 30.9967 129.712 31.454C129.106 31.902 128.35 32.126 127.444 32.126C126.707 32.126 126.044 31.9627 125.456 31.636C124.878 31.3 124.42 30.8333 124.084 30.236C123.758 29.6293 123.594 28.9293 123.594 28.136C123.594 27.3427 123.753 26.6473 124.07 26.05C124.397 25.4433 124.85 24.9767 125.428 24.65C126.016 24.3233 126.688 24.16 127.444 24.16C128.172 24.16 128.821 24.3187 129.39 24.636C129.96 24.9533 130.403 25.4013 130.72 25.98C131.038 26.5493 131.196 27.2073 131.196 27.954ZM129.53 27.45C129.521 26.862 129.311 26.3907 128.9 26.036C128.49 25.6813 127.981 25.504 127.374 25.504C126.824 25.504 126.352 25.6813 125.96 26.036C125.568 26.3813 125.335 26.8527 125.26 27.45H129.53ZM132.235 28.108C132.235 27.3333 132.393 26.6473 132.711 26.05C133.037 25.4527 133.476 24.9907 134.027 24.664C134.587 24.328 135.207 24.16 135.889 24.16C136.393 24.16 136.887 24.272 137.373 24.496C137.867 24.7107 138.259 25 138.549 25.364V21.64H140.159V32H138.549V30.838C138.287 31.2113 137.923 31.5193 137.457 31.762C136.999 32.0047 136.472 32.126 135.875 32.126C135.203 32.126 134.587 31.958 134.027 31.622C133.476 31.2767 133.037 30.8007 132.711 30.194C132.393 29.578 132.235 28.8827 132.235 28.108ZM138.549 28.136C138.549 27.604 138.437 27.142 138.213 26.75C137.998 26.358 137.713 26.0593 137.359 25.854C137.004 25.6487 136.621 25.546 136.211 25.546C135.8 25.546 135.417 25.6487 135.063 25.854C134.708 26.05 134.419 26.344 134.195 26.736C133.98 27.1187 133.873 27.576 133.873 28.108C133.873 28.64 133.98 29.1067 134.195 29.508C134.419 29.9093 134.708 30.2173 135.063 30.432C135.427 30.6373 135.809 30.74 136.211 30.74C136.621 30.74 137.004 30.6373 137.359 30.432C137.713 30.2267 137.998 29.928 138.213 29.536C138.437 29.1347 138.549 28.668 138.549 28.136ZM147.754 25.588V29.858C147.754 30.1473 147.819 30.3573 147.95 30.488C148.09 30.6093 148.323 30.67 148.65 30.67H149.63V32H148.37C147.651 32 147.1 31.832 146.718 31.496C146.335 31.16 146.144 30.614 146.144 29.858V25.588H145.234V24.286H146.144V22.368H147.754V24.286H149.63V25.588H147.754ZM154.447 32.126C153.719 32.126 153.061 31.9627 152.473 31.636C151.885 31.3 151.423 30.8333 151.087 30.236C150.751 29.6293 150.583 28.9293 150.583 28.136C150.583 27.352 150.755 26.6567 151.101 26.05C151.446 25.4433 151.917 24.9767 152.515 24.65C153.112 24.3233 153.779 24.16 154.517 24.16C155.254 24.16 155.921 24.3233 156.519 24.65C157.116 24.9767 157.587 25.4433 157.933 26.05C158.278 26.6567 158.451 27.352 158.451 28.136C158.451 28.92 158.273 29.6153 157.919 30.222C157.564 30.8287 157.079 31.3 156.463 31.636C155.856 31.9627 155.184 32.126 154.447 32.126ZM154.447 30.74C154.857 30.74 155.24 30.642 155.595 30.446C155.959 30.25 156.253 29.956 156.477 29.564C156.701 29.172 156.813 28.696 156.813 28.136C156.813 27.576 156.705 27.1047 156.491 26.722C156.276 26.33 155.991 26.036 155.637 25.84C155.282 25.644 154.899 25.546 154.489 25.546C154.078 25.546 153.695 25.644 153.341 25.84C152.995 26.036 152.72 26.33 152.515 26.722C152.309 27.1047 152.207 27.576 152.207 28.136C152.207 28.9667 152.417 29.6107 152.837 30.068C153.266 30.516 153.803 30.74 154.447 30.74ZM167.011 32.126C166.283 32.126 165.625 31.9627 165.037 31.636C164.449 31.3 163.987 30.8333 163.651 30.236C163.315 29.6293 163.147 28.9293 163.147 28.136C163.147 27.352 163.32 26.6567 163.665 26.05C164.011 25.4433 164.482 24.9767 165.079 24.65C165.677 24.3233 166.344 24.16 167.081 24.16C167.819 24.16 168.486 24.3233 169.083 24.65C169.681 24.9767 170.152 25.4433 170.497 26.05C170.843 26.6567 171.015 27.352 171.015 28.136C171.015 28.92 170.838 29.6153 170.483 30.222C170.129 30.8287 169.643 31.3 169.027 31.636C168.421 31.9627 167.749 32.126 167.011 32.126ZM167.011 30.74C167.422 30.74 167.805 30.642 168.159 30.446C168.523 30.25 168.817 29.956 169.041 29.564C169.265 29.172 169.377 28.696 169.377 28.136C169.377 27.576 169.27 27.1047 169.055 26.722C168.841 26.33 168.556 26.036 168.201 25.84C167.847 25.644 167.464 25.546 167.053 25.546C166.643 25.546 166.26 25.644 165.905 25.84C165.56 26.036 165.285 26.33 165.079 26.722C164.874 27.1047 164.771 27.576 164.771 28.136C164.771 28.9667 164.981 29.6107 165.401 30.068C165.831 30.516 166.367 30.74 167.011 30.74ZM174.189 25.434C174.46 25.0607 174.828 24.7573 175.295 24.524C175.771 24.2813 176.298 24.16 176.877 24.16C177.558 24.16 178.174 24.3233 178.725 24.65C179.276 24.9767 179.71 25.4433 180.027 26.05C180.344 26.6473 180.503 27.3333 180.503 28.108C180.503 28.8827 180.344 29.578 180.027 30.194C179.71 30.8007 179.271 31.2767 178.711 31.622C178.16 31.958 177.549 32.126 176.877 32.126C176.28 32.126 175.748 32.0093 175.281 31.776C174.824 31.5427 174.46 31.244 174.189 30.88V32H172.593V21.64H174.189V25.434ZM178.879 28.108C178.879 27.576 178.767 27.1187 178.543 26.736C178.328 26.344 178.039 26.05 177.675 25.854C177.32 25.6487 176.938 25.546 176.527 25.546C176.126 25.546 175.743 25.6487 175.379 25.854C175.024 26.0593 174.735 26.358 174.511 26.75C174.296 27.142 174.189 27.604 174.189 28.136C174.189 28.668 174.296 29.1347 174.511 29.536C174.735 29.928 175.024 30.2267 175.379 30.432C175.743 30.6373 176.126 30.74 176.527 30.74C176.938 30.74 177.32 30.6373 177.675 30.432C178.039 30.2173 178.328 29.9093 178.543 29.508C178.767 29.1067 178.879 28.64 178.879 28.108ZM183.677 25.406C183.911 25.014 184.219 24.7107 184.601 24.496C184.993 24.272 185.455 24.16 185.987 24.16V25.812H185.581C184.956 25.812 184.48 25.9707 184.153 26.288C183.836 26.6053 183.677 27.156 183.677 27.94V32H182.081V24.286H183.677V25.406ZM186.922 28.108C186.922 27.3333 187.081 26.6473 187.398 26.05C187.725 25.4527 188.164 24.9907 188.714 24.664C189.274 24.328 189.89 24.16 190.562 24.16C191.169 24.16 191.696 24.2813 192.144 24.524C192.602 24.7573 192.966 25.0513 193.236 25.406V24.286H194.846V32H193.236V30.852C192.966 31.216 192.597 31.5193 192.13 31.762C191.664 32.0047 191.132 32.126 190.534 32.126C189.872 32.126 189.265 31.958 188.714 31.622C188.164 31.2767 187.725 30.8007 187.398 30.194C187.081 29.578 186.922 28.8827 186.922 28.108ZM193.236 28.136C193.236 27.604 193.124 27.142 192.9 26.75C192.686 26.358 192.401 26.0593 192.046 25.854C191.692 25.6487 191.309 25.546 190.898 25.546C190.488 25.546 190.105 25.6487 189.75 25.854C189.396 26.05 189.106 26.344 188.882 26.736C188.668 27.1187 188.56 27.576 188.56 28.108C188.56 28.64 188.668 29.1067 188.882 29.508C189.106 29.9093 189.396 30.2173 189.75 30.432C190.114 30.6373 190.497 30.74 190.898 30.74C191.309 30.74 191.692 30.6373 192.046 30.432C192.401 30.2267 192.686 29.928 192.9 29.536C193.124 29.1347 193.236 28.668 193.236 28.136ZM197.755 23.264C197.465 23.264 197.223 23.166 197.027 22.97C196.831 22.774 196.733 22.5313 196.733 22.242C196.733 21.9527 196.831 21.71 197.027 21.514C197.223 21.318 197.465 21.22 197.755 21.22C198.035 21.22 198.273 21.318 198.469 21.514C198.665 21.71 198.763 21.9527 198.763 22.242C198.763 22.5313 198.665 22.774 198.469 22.97C198.273 23.166 198.035 23.264 197.755 23.264ZM198.539 24.286V32H196.943V24.286H198.539ZM204.526 24.16C205.133 24.16 205.674 24.286 206.15 24.538C206.635 24.79 207.013 25.1633 207.284 25.658C207.555 26.1527 207.69 26.75 207.69 27.45V32H206.108V27.688C206.108 26.9973 205.935 26.47 205.59 26.106C205.245 25.7327 204.773 25.546 204.176 25.546C203.579 25.546 203.103 25.7327 202.748 26.106C202.403 26.47 202.23 26.9973 202.23 27.688V32H200.634V24.286H202.23V25.168C202.491 24.8507 202.823 24.6033 203.224 24.426C203.635 24.2487 204.069 24.16 204.526 24.16ZM216.471 24.16C217.068 24.16 217.595 24.2813 218.053 24.524C218.519 24.7573 218.883 25.0513 219.145 25.406V24.286H220.755V32.126C220.755 32.8353 220.605 33.4653 220.307 34.016C220.008 34.576 219.574 35.0147 219.005 35.332C218.445 35.6493 217.773 35.808 216.989 35.808C215.943 35.808 215.075 35.5607 214.385 35.066C213.694 34.5807 213.302 33.918 213.209 33.078H214.791C214.912 33.4793 215.169 33.8013 215.561 34.044C215.962 34.296 216.438 34.422 216.989 34.422C217.633 34.422 218.151 34.226 218.543 33.834C218.944 33.442 219.145 32.8727 219.145 32.126V30.838C218.874 31.202 218.505 31.51 218.039 31.762C217.581 32.0047 217.059 32.126 216.471 32.126C215.799 32.126 215.183 31.958 214.623 31.622C214.072 31.2767 213.633 30.8007 213.307 30.194C212.989 29.578 212.831 28.8827 212.831 28.108C212.831 27.3333 212.989 26.6473 213.307 26.05C213.633 25.4527 214.072 24.9907 214.623 24.664C215.183 24.328 215.799 24.16 216.471 24.16ZM219.145 28.136C219.145 27.604 219.033 27.142 218.809 26.75C218.594 26.358 218.309 26.0593 217.955 25.854C217.6 25.6487 217.217 25.546 216.807 25.546C216.396 25.546 216.013 25.6487 215.659 25.854C215.304 26.05 215.015 26.344 214.791 26.736C214.576 27.1187 214.469 27.576 214.469 28.108C214.469 28.64 214.576 29.1067 214.791 29.508C215.015 29.9093 215.304 30.2173 215.659 30.432C216.023 30.6373 216.405 30.74 216.807 30.74C217.217 30.74 217.6 30.6373 217.955 30.432C218.309 30.2267 218.594 29.928 218.809 29.536C219.033 29.1347 219.145 28.668 219.145 28.136ZM222.319 28.108C222.319 27.3333 222.477 26.6473 222.795 26.05C223.121 25.4527 223.56 24.9907 224.111 24.664C224.671 24.328 225.287 24.16 225.959 24.16C226.565 24.16 227.093 24.2813 227.541 24.524C227.998 24.7573 228.362 25.0513 228.633 25.406V24.286H230.243V32H228.633V30.852C228.362 31.216 227.993 31.5193 227.527 31.762C227.06 32.0047 226.528 32.126 225.931 32.126C225.268 32.126 224.661 31.958 224.111 31.622C223.56 31.2767 223.121 30.8007 222.795 30.194C222.477 29.578 222.319 28.8827 222.319 28.108ZM228.633 28.136C228.633 27.604 228.521 27.142 228.297 26.75C228.082 26.358 227.797 26.0593 227.443 25.854C227.088 25.6487 226.705 25.546 226.295 25.546C225.884 25.546 225.501 25.6487 225.147 25.854C224.792 26.05 224.503 26.344 224.279 26.736C224.064 27.1187 223.957 27.576 223.957 28.108C223.957 28.64 224.064 29.1067 224.279 29.508C224.503 29.9093 224.792 30.2173 225.147 30.432C225.511 30.6373 225.893 30.74 226.295 30.74C226.705 30.74 227.088 30.6373 227.443 30.432C227.797 30.2267 228.082 29.928 228.297 29.536C228.521 29.1347 228.633 28.668 228.633 28.136ZM241.677 24.16C242.284 24.16 242.825 24.286 243.301 24.538C243.786 24.79 244.164 25.1633 244.435 25.658C244.715 26.1527 244.855 26.75 244.855 27.45V32H243.273V27.688C243.273 26.9973 243.1 26.47 242.755 26.106C242.41 25.7327 241.938 25.546 241.341 25.546C240.744 25.546 240.268 25.7327 239.913 26.106C239.568 26.47 239.395 26.9973 239.395 27.688V32H237.813V27.688C237.813 26.9973 237.64 26.47 237.295 26.106C236.95 25.7327 236.478 25.546 235.881 25.546C235.284 25.546 234.808 25.7327 234.453 26.106C234.108 26.47 233.935 26.9973 233.935 27.688V32H232.339V24.286H233.935V25.168C234.196 24.8507 234.528 24.6033 234.929 24.426C235.33 24.2487 235.76 24.16 236.217 24.16C236.833 24.16 237.384 24.2907 237.869 24.552C238.354 24.8133 238.728 25.1913 238.989 25.686C239.222 25.2193 239.586 24.8507 240.081 24.58C240.576 24.3 241.108 24.16 241.677 24.16ZM253.956 27.954C253.956 28.2433 253.937 28.5047 253.9 28.738H248.006C248.053 29.354 248.281 29.8487 248.692 30.222C249.103 30.5953 249.607 30.782 250.204 30.782C251.063 30.782 251.669 30.4227 252.024 29.704H253.746C253.513 30.4133 253.088 30.9967 252.472 31.454C251.865 31.902 251.109 32.126 250.204 32.126C249.467 32.126 248.804 31.9627 248.216 31.636C247.637 31.3 247.18 30.8333 246.844 30.236C246.517 29.6293 246.354 28.9293 246.354 28.136C246.354 27.3427 246.513 26.6473 246.83 26.05C247.157 25.4433 247.609 24.9767 248.188 24.65C248.776 24.3233 249.448 24.16 250.204 24.16C250.932 24.16 251.581 24.3187 252.15 24.636C252.719 24.9533 253.163 25.4013 253.48 25.98C253.797 26.5493 253.956 27.2073 253.956 27.954ZM252.29 27.45C252.281 26.862 252.071 26.3907 251.66 26.036C251.249 25.6813 250.741 25.504 250.134 25.504C249.583 25.504 249.112 25.6813 248.72 26.036C248.328 26.3813 248.095 26.8527 248.02 27.45H252.29ZM258.631 28.108C258.631 27.3333 258.79 26.6473 259.107 26.05C259.434 25.4527 259.873 24.9907 260.423 24.664C260.983 24.328 261.604 24.16 262.285 24.16C262.789 24.16 263.284 24.272 263.769 24.496C264.264 24.7107 264.656 25 264.945 25.364V21.64H266.555V32H264.945V30.838C264.684 31.2113 264.32 31.5193 263.853 31.762C263.396 32.0047 262.869 32.126 262.271 32.126C261.599 32.126 260.983 31.958 260.423 31.622C259.873 31.2767 259.434 30.8007 259.107 30.194C258.79 29.578 258.631 28.8827 258.631 28.108ZM264.945 28.136C264.945 27.604 264.833 27.142 264.609 26.75C264.395 26.358 264.11 26.0593 263.755 25.854C263.401 25.6487 263.018 25.546 262.607 25.546C262.197 25.546 261.814 25.6487 261.459 25.854C261.105 26.05 260.815 26.344 260.591 26.736C260.377 27.1187 260.269 27.576 260.269 28.108C260.269 28.64 260.377 29.1067 260.591 29.508C260.815 29.9093 261.105 30.2173 261.459 30.432C261.823 30.6373 262.206 30.74 262.607 30.74C263.018 30.74 263.401 30.6373 263.755 30.432C264.11 30.2267 264.395 29.928 264.609 29.536C264.833 29.1347 264.945 28.668 264.945 28.136ZM268.12 28.108C268.12 27.3333 268.278 26.6473 268.596 26.05C268.922 25.4527 269.361 24.9907 269.912 24.664C270.472 24.328 271.088 24.16 271.76 24.16C272.366 24.16 272.894 24.2813 273.342 24.524C273.799 24.7573 274.163 25.0513 274.434 25.406V24.286H276.044V32H274.434V30.852C274.163 31.216 273.794 31.5193 273.328 31.762C272.861 32.0047 272.329 32.126 271.732 32.126C271.069 32.126 270.462 31.958 269.912 31.622C269.361 31.2767 268.922 30.8007 268.596 30.194C268.278 29.578 268.12 28.8827 268.12 28.108ZM274.434 28.136C274.434 27.604 274.322 27.142 274.098 26.75C273.883 26.358 273.598 26.0593 273.244 25.854C272.889 25.6487 272.506 25.546 272.096 25.546C271.685 25.546 271.302 25.6487 270.948 25.854C270.593 26.05 270.304 26.344 270.08 26.736C269.865 27.1187 269.758 27.576 269.758 28.108C269.758 28.64 269.865 29.1067 270.08 29.508C270.304 29.9093 270.593 30.2173 270.948 30.432C271.312 30.6373 271.694 30.74 272.096 30.74C272.506 30.74 272.889 30.6373 273.244 30.432C273.598 30.2267 273.883 29.928 274.098 29.536C274.322 29.1347 274.434 28.668 274.434 28.136ZM280.002 25.588V29.858C280.002 30.1473 280.067 30.3573 280.198 30.488C280.338 30.6093 280.571 30.67 280.898 30.67H281.878V32H280.618C279.899 32 279.349 31.832 278.966 31.496C278.583 31.16 278.392 30.614 278.392 29.858V25.588H277.482V24.286H278.392V22.368H280.002V24.286H281.878V25.588H280.002ZM282.817 28.108C282.817 27.3333 282.975 26.6473 283.293 26.05C283.619 25.4527 284.058 24.9907 284.609 24.664C285.169 24.328 285.785 24.16 286.457 24.16C287.063 24.16 287.591 24.2813 288.039 24.524C288.496 24.7573 288.86 25.0513 289.131 25.406V24.286H290.741V32H289.131V30.852C288.86 31.216 288.491 31.5193 288.025 31.762C287.558 32.0047 287.026 32.126 286.429 32.126C285.766 32.126 285.159 31.958 284.609 31.622C284.058 31.2767 283.619 30.8007 283.293 30.194C282.975 29.578 282.817 28.8827 282.817 28.108ZM289.131 28.136C289.131 27.604 289.019 27.142 288.795 26.75C288.58 26.358 288.295 26.0593 287.941 25.854C287.586 25.6487 287.203 25.546 286.793 25.546C286.382 25.546 285.999 25.6487 285.645 25.854C285.29 26.05 285.001 26.344 284.777 26.736C284.562 27.1187 284.455 27.576 284.455 28.108C284.455 28.64 284.562 29.1067 284.777 29.508C285.001 29.9093 285.29 30.2173 285.645 30.432C286.009 30.6373 286.391 30.74 286.793 30.74C287.203 30.74 287.586 30.6373 287.941 30.432C288.295 30.2267 288.58 29.928 288.795 29.536C289.019 29.1347 289.131 28.668 289.131 28.136Z" fill="#8A9BA9"/>
</svg>
