<svg width="25" height="25" viewBox="0 0 25 25" fill="none" xmlns="http://www.w3.org/2000/svg">
<path d="M10.3056 20.9289C10.0782 20.92 9.84914 20.8935 9.62025 20.8498C9.9569 20.6737 10.2777 20.4271 10.5041 20.0811C11.2323 18.9691 10.6319 17.3733 10.606 17.3057C10.5304 17.1099 10.3386 16.984 10.1286 16.9933C10.0565 16.9964 8.35339 17.0843 7.62536 18.1961C7.29996 18.693 7.23988 19.2863 7.27517 19.7967C6.86642 19.4996 6.47694 19.1486 6.11703 18.7494C5.88204 18.4887 5.66594 18.2152 5.47005 17.9321C6.11645 17.9163 6.95397 17.77 7.54811 17.2094C8.62805 16.1905 8.38906 14.2897 8.37838 14.2094C8.35072 14.0011 8.19299 13.834 7.9868 13.7943C7.90707 13.7789 6.02338 13.4296 4.94343 14.4485C4.656 14.7196 4.46221 15.053 4.33232 15.398C4.25679 15.0663 4.20872 14.7343 4.19022 14.4058C4.62395 13.9885 5.59136 12.9104 5.51049 11.6659C5.40845 10.0998 3.69488 9.01068 3.62202 8.96509C3.44407 8.8539 3.2148 8.86877 3.05268 9.0021C2.9863 9.05684 1.42838 10.3588 1.53023 11.9249C1.61263 13.1891 2.74483 14.1424 3.21671 14.4871C3.24875 15.0137 3.34565 15.5472 3.50167 16.0749C3.19802 15.9254 2.85775 15.8234 2.49402 15.8234C2.48906 15.8234 2.48372 15.8234 2.47876 15.8234C1.13732 15.8338 0.131955 17.2319 0.0898027 17.2914C-0.0315047 17.4629 -0.0297881 17.6926 0.0941896 17.8621C0.137105 17.9207 1.15658 19.2928 2.49058 19.2928C2.49573 19.2928 2.50088 19.2928 2.50584 19.2926C3.37502 19.286 4.10306 18.6968 4.51943 18.2665C4.77654 18.6634 5.06837 19.0445 5.39166 19.4033C5.52632 19.5526 5.66498 19.6962 5.80708 19.8336C5.66975 19.8494 5.53242 19.8774 5.39605 19.9201C3.98308 20.3627 3.36854 22.1714 3.34317 22.2481C3.27698 22.4474 3.34565 22.6667 3.51369 22.7926C3.56785 22.8332 4.65409 23.6353 5.8355 23.6353C6.06496 23.6353 6.29822 23.605 6.52806 23.5329C7.59198 23.1996 8.20309 22.0917 8.45105 21.532C9.04977 21.7537 9.66183 21.8811 10.2676 21.9047C10.2741 21.9049 10.2806 21.9051 10.2871 21.9051C10.5478 21.9051 10.7643 21.6989 10.7746 21.4359C10.7849 21.1664 10.5751 20.9394 10.3056 20.9289ZM8.44228 18.7311C8.72304 18.3023 9.35246 18.0984 9.80012 18.0155C9.90311 18.4593 9.96796 19.1175 9.6872 19.5463C9.40625 19.9751 8.77682 20.179 8.32936 20.2619C8.22636 19.8179 8.16151 19.1599 8.44228 18.7311ZM5.61349 15.1588C6.07564 14.723 6.89885 14.6734 7.43272 14.7091C7.43729 15.2443 7.33983 16.0633 6.87787 16.4991C6.41591 16.935 5.59231 16.9845 5.05883 16.9487C5.05425 16.4135 5.15153 15.5947 5.61349 15.1588ZM2.49821 18.3161C2.49573 18.3161 2.49325 18.3161 2.49058 18.3161C1.9714 18.3161 1.44764 17.8999 1.12797 17.5699C1.41827 17.2586 1.93612 16.8041 2.48639 16.7999H2.49402C3.01377 16.7999 3.53829 17.2172 3.85796 17.5472C3.54172 17.8842 3.02044 18.3121 2.49821 18.3161ZM2.5047 11.8616C2.4593 11.1616 3.00309 10.4286 3.4023 10.0122C3.80761 10.3371 4.48758 10.988 4.53583 11.7294C4.58142 12.4292 4.03744 13.1622 3.63843 13.5786C3.23311 13.2538 2.55314 12.6028 2.5047 11.8616ZM6.23585 22.6011C5.63294 22.7899 4.87477 22.4764 4.41205 22.2122C4.64131 21.7308 5.08496 21.0409 5.68787 20.8519C6.29098 20.6629 7.04915 20.9766 7.51168 21.2408C7.28242 21.7222 6.83877 22.4121 6.23585 22.6011Z" fill="#536271"/>
<path d="M24.9102 17.2915C24.868 17.232 23.8627 15.8339 22.5212 15.8234H22.521C22.5161 15.8234 22.5111 15.8234 22.506 15.8234C22.1422 15.8234 21.8018 15.9255 21.4983 16.075C21.6543 15.5472 21.751 15.0138 21.7831 14.4871C22.2551 14.1425 23.3873 13.1892 23.4696 11.925C23.5716 10.3589 22.0137 9.05692 21.9473 9.00218C21.7852 8.86885 21.5559 8.85378 21.378 8.96517C21.3049 9.01076 19.5915 10.0999 19.4895 11.666C19.4084 12.9107 20.3758 13.9886 20.8098 14.4061C20.7913 14.7343 20.7432 15.0664 20.6675 15.3981C20.5378 15.0531 20.3438 14.7196 20.0565 14.4486C18.9766 13.4297 17.0929 13.7789 17.0132 13.7944C16.807 13.8341 16.6493 14.0013 16.6216 14.2094C16.6109 14.2899 16.3719 16.1906 17.4519 17.2095C18.046 17.7701 18.8833 17.9166 19.5299 17.9322C19.334 18.2152 19.1179 18.4888 18.8829 18.7495C18.523 19.1487 18.1334 19.4997 17.7246 19.7968C17.7601 19.2864 17.6998 18.693 17.3746 18.1964V18.1962C16.6464 17.0844 14.9435 16.9966 14.8714 16.9934C14.662 16.9846 14.4693 17.1099 14.394 17.306C14.3681 17.3733 13.7676 18.9694 14.4957 20.0814C14.7223 20.4272 15.0429 20.6738 15.3797 20.8499C15.1506 20.8935 14.9218 20.9201 14.6944 20.929C14.4249 20.9395 14.2149 21.1665 14.2254 21.436C14.2357 21.6988 14.452 21.9052 14.7129 21.9052C14.7194 21.9052 14.7259 21.905 14.7324 21.9048C15.3381 21.8812 15.9502 21.7536 16.5489 21.5321C16.7969 22.0917 17.4082 23.1995 18.4721 23.5329C18.7019 23.605 18.9348 23.6354 19.1645 23.6354C20.3459 23.6354 21.4321 22.8331 21.4863 22.7925C21.6543 22.6666 21.723 22.4475 21.657 22.2481C21.6314 22.1713 21.0169 20.3627 19.6041 19.92C19.4677 19.8773 19.3302 19.8493 19.1931 19.8336C19.3352 19.6961 19.4737 19.5527 19.6083 19.4033C19.9316 19.0446 20.2234 18.6635 20.4807 18.2666C20.8971 18.6968 21.625 19.286 22.4941 19.2927H22.5094C23.8434 19.2927 24.8629 17.9207 24.9058 17.862C25.0298 17.6926 25.0315 17.463 24.9102 17.2915ZM17.5673 14.7092C18.1013 14.6737 18.9245 14.7231 19.3865 15.1589C19.8484 15.5947 19.9459 16.4139 19.9413 16.9488C19.4073 16.9844 18.5841 16.9348 18.1221 16.4992C17.66 16.0632 17.5627 15.244 17.5673 14.7092ZM15.1995 18.0173C15.6128 18.0924 16.2619 18.2795 16.5577 18.7312C16.8383 19.1596 16.7738 19.8168 16.671 20.2603C16.2577 20.185 15.6086 19.998 15.3128 19.5464C15.0324 19.118 15.0967 18.4605 15.1995 18.0173ZM20.5879 22.2121C20.1248 22.4766 19.3668 22.7898 18.7639 22.601C18.1618 22.4124 17.7185 21.7238 17.4892 21.243C17.9092 21.0023 18.6754 20.6525 19.3121 20.852C19.915 21.041 20.3587 21.7311 20.5879 22.2121ZM20.4641 11.7295C20.5097 11.0285 21.1458 10.3713 21.5958 10.0104C21.9954 10.427 22.5409 11.1607 22.4951 11.8617C22.4495 12.5624 21.8134 13.2197 21.3635 13.5806C20.9639 13.164 20.4184 12.4301 20.4641 11.7295ZM22.5094 18.3161C22.5069 18.3161 22.5042 18.3161 22.5018 18.3161C21.9799 18.3121 21.4592 17.8851 21.1432 17.5486C21.4371 17.2435 21.9582 16.8 22.5058 16.8H22.5136C23.0358 16.804 23.5573 17.232 23.8733 17.5687C23.5533 17.8992 23.0291 18.3161 22.5094 18.3161Z" fill="#536271"/>
<path d="M12.5 22.2024C12.2988 22.2024 12.1146 22.0741 12.0434 21.8862C11.9709 21.6945 12.0297 21.4694 12.188 21.3388C12.3394 21.2136 12.5567 21.1917 12.7301 21.2838C12.9124 21.3809 13.0156 21.5902 12.9815 21.7939C12.9426 22.0268 12.7362 22.2024 12.5 22.2024Z" fill="#536271"/>
<path d="M13.7895 10.5845C13.6782 10.5845 13.5662 10.5626 13.459 10.5181L12.5 10.1206L11.541 10.5181C11.2625 10.6335 10.9506 10.5967 10.7067 10.4195C10.4627 10.2423 10.3313 9.95716 10.355 9.65656L10.4366 8.62163L9.76236 7.83237C9.56648 7.60311 9.50525 7.29526 9.59833 7.00839C9.6916 6.72172 9.9222 6.50867 10.2154 6.43829L11.2247 6.19605L11.767 5.31085C11.9245 5.05374 12.1984 4.90039 12.5 4.90039C12.8013 4.90039 13.0754 5.05374 13.2328 5.31085L13.775 6.19605L14.7846 6.43829C15.0778 6.50867 15.3084 6.72172 15.4014 7.00839C15.4947 7.29507 15.4333 7.60311 15.2376 7.83237L14.5632 8.62163L14.645 9.65656C14.6686 9.95716 14.5372 10.2423 14.2933 10.4195C14.1432 10.5284 13.9675 10.5845 13.7895 10.5845ZM10.6291 7.34332L11.3106 8.14117C11.3949 8.23959 11.4364 8.36757 11.4261 8.4967L11.3436 9.54288L12.3131 9.141C12.4327 9.09141 12.5673 9.09141 12.6869 9.141L13.6564 9.54288L13.5738 8.4967C13.5637 8.36757 13.6053 8.23959 13.6894 8.14117L14.3711 7.34332L13.3507 7.09842C13.2246 7.06828 13.1159 6.98932 13.0482 6.87869L12.5 5.98396L11.9518 6.87869C11.8841 6.98932 11.7754 7.06828 11.6493 7.09842L10.6291 7.34332Z" fill="#536271"/>
<path d="M12.4999 14.0682C12.0738 14.0682 11.7242 13.8714 11.4158 13.6978C11.2502 13.6046 11.0938 13.5164 10.9622 13.4813C10.8196 13.4432 10.6336 13.4405 10.4366 13.4378C10.0877 13.4331 9.69232 13.4275 9.33583 13.2214C8.97496 13.0123 8.77202 12.6701 8.59311 12.3684C8.49393 12.2011 8.40047 12.0432 8.29957 11.9425C8.19886 11.8418 8.04093 11.7481 7.87366 11.6489C7.57172 11.47 7.22974 11.2671 7.02069 10.9062C6.81451 10.5497 6.80898 10.1543 6.80421 9.80549C6.80154 9.60846 6.79887 9.42231 6.76072 9.27983C6.72562 9.14822 6.6375 8.99182 6.54443 8.82626C6.37067 8.51784 6.17383 8.16822 6.17383 7.74212C6.17383 7.31602 6.37067 6.96659 6.54443 6.65798C6.6375 6.49243 6.72562 6.33602 6.76072 6.20442C6.79887 6.06194 6.80154 5.87578 6.80421 5.67875C6.80898 5.3299 6.81451 4.9345 7.02069 4.57821C7.22974 4.21696 7.57192 4.01421 7.87385 3.8353C8.04093 3.73612 8.19886 3.64266 8.29976 3.54176C8.40047 3.44105 8.49393 3.28312 8.59311 3.11604C8.77202 2.8141 8.97496 2.47192 9.33602 2.26307C9.69232 2.05669 10.0879 2.05135 10.4368 2.04639C10.6336 2.04372 10.8198 2.04105 10.9622 2.0031C11.0938 1.96781 11.2502 1.87969 11.4158 1.78661C11.7242 1.61285 12.074 1.41602 12.4999 1.41602C12.926 1.41602 13.2757 1.61285 13.5841 1.78661C13.7496 1.87969 13.906 1.96781 14.0376 2.0031C14.1801 2.04105 14.3663 2.04372 14.5633 2.04639C14.9122 2.05135 15.3076 2.05669 15.6638 2.26307C16.0249 2.47192 16.2278 2.8141 16.4068 3.11604C16.5058 3.28312 16.5994 3.44105 16.7003 3.54176C16.801 3.64266 16.9589 3.73631 17.126 3.8353C17.428 4.0144 17.7701 4.21715 17.979 4.57821C18.1854 4.9345 18.1907 5.3299 18.1957 5.67894C18.1983 5.87578 18.201 6.06194 18.239 6.20442C18.2742 6.33621 18.3624 6.49262 18.4554 6.65798C18.6292 6.96659 18.826 7.31621 18.826 7.74212C18.826 8.16803 18.6292 8.51765 18.4554 8.82626C18.3624 8.99182 18.2742 9.14822 18.239 9.27983C18.2008 9.4225 18.1983 9.60846 18.1957 9.80549C18.1907 10.1543 18.1852 10.5497 17.979 10.906C17.7701 11.2671 17.428 11.47 17.126 11.6489C16.9589 11.7481 16.801 11.8416 16.7001 11.9425C16.5994 12.0432 16.5058 12.2011 16.4068 12.3684C16.2277 12.6701 16.0249 13.0123 15.6638 13.2214C15.3074 13.4275 14.912 13.4329 14.5631 13.4378C14.3663 13.4405 14.1801 13.4432 14.0376 13.4813C13.906 13.5164 13.7496 13.6046 13.5841 13.6978C13.2757 13.8714 12.926 14.0682 12.4999 14.0682ZM12.4999 2.39258C12.33 2.39258 12.1187 2.5116 11.8949 2.63767C11.6838 2.7565 11.4654 2.87952 11.2144 2.94647C10.9546 3.01609 10.6866 3.01971 10.4501 3.02296C10.1985 3.02658 9.96068 3.02982 9.82507 3.10841C9.68488 3.18947 9.56262 3.39565 9.43311 3.61405C9.31352 3.81584 9.17771 4.04472 8.99022 4.23241C8.80254 4.42009 8.57366 4.5557 8.37167 4.67548C8.15347 4.8048 7.94709 4.92706 7.86603 5.06725C7.78745 5.20306 7.7842 5.44071 7.78077 5.69248C7.77753 5.929 7.77371 6.19679 7.70429 6.45676C7.63715 6.70777 7.51431 6.92616 7.39529 7.1373C7.26941 7.36084 7.15039 7.57218 7.15039 7.74231C7.15039 7.91226 7.26941 8.12359 7.39529 8.34713C7.51431 8.55847 7.63715 8.77667 7.70429 9.02767C7.77371 9.28746 7.77753 9.55544 7.78077 9.79195C7.7842 10.0435 7.78745 10.2814 7.86603 10.4172C7.94728 10.5574 8.15347 10.6796 8.37167 10.8089C8.57366 10.9285 8.80254 11.0643 8.99022 11.252C9.1779 11.4397 9.31352 11.6686 9.4333 11.8704C9.56262 12.0888 9.68488 12.295 9.82507 12.376C9.96087 12.4546 10.1985 12.4579 10.4503 12.4613C10.6866 12.4647 10.9546 12.4683 11.2144 12.5378C11.4654 12.6049 11.6838 12.7279 11.8949 12.8468C12.1187 12.9728 12.33 13.0917 12.4999 13.0917C12.6699 13.0917 12.8812 12.9728 13.1049 12.8468C13.3161 12.7277 13.5345 12.6049 13.7855 12.5378C14.0453 12.4683 14.3133 12.4647 14.5498 12.4613C14.8013 12.4579 15.0392 12.4546 15.175 12.376C15.3152 12.295 15.4373 12.0886 15.5668 11.8704C15.6865 11.6684 15.8222 11.4395 16.0096 11.2518C16.1975 11.0642 16.4262 10.9285 16.6282 10.8089C16.8466 10.6794 17.0528 10.5572 17.1338 10.4172C17.2124 10.2814 17.2157 10.0435 17.2191 9.79195C17.2225 9.55544 17.2262 9.28746 17.2956 9.02767C17.3627 8.77667 17.4857 8.55828 17.6046 8.34713C17.7305 8.1234 17.8495 7.91207 17.8495 7.74212C17.8495 7.57218 17.7305 7.36084 17.6046 7.13711C17.4856 6.92597 17.3627 6.70757 17.2956 6.45657C17.2262 6.19679 17.2223 5.9288 17.2191 5.69229C17.2157 5.44071 17.2124 5.20306 17.1338 5.06725C17.0528 4.92706 16.8464 4.8048 16.628 4.67529C16.4262 4.5557 16.1973 4.42009 16.0096 4.23241C15.822 4.04472 15.6864 3.81584 15.5668 3.61385C15.4373 3.39546 15.315 3.18928 15.1748 3.10822C15.039 3.02982 14.8013 3.02639 14.5496 3.02296C14.3133 3.01971 14.0453 3.0159 13.7853 2.94647C13.5345 2.87933 13.3161 2.75631 13.1049 2.63748C12.8812 2.5116 12.6699 2.39258 12.4999 2.39258Z" fill="#536271"/>
</svg>
