<svg width="26" height="26" viewBox="0 0 26 26" fill="none" xmlns="http://www.w3.org/2000/svg">
<path d="M18.332 11.4766H7.66797V25.1875H18.332V11.4766ZM15.2852 22.1406H10.7148V20.6172H12.2383V18.6474L12.0151 18.8706L10.938 17.7935L13.7617 14.9698V20.6172H15.2852V22.1406Z" fill="#384653"/>
<path d="M13 5.38281C14.2621 5.38281 15.2852 4.35971 15.2852 3.09766C15.2852 1.8356 14.2621 0.8125 13 0.8125C11.7379 0.8125 10.7148 1.8356 10.7148 3.09766C10.7148 4.35971 11.7379 5.38281 13 5.38281Z" fill="#384653"/>
<path d="M16.8086 8.42969C16.8086 6.74929 15.4421 5.38281 13.7617 5.38281H12.2383C10.5579 5.38281 9.19141 6.74929 9.19141 8.42969V9.95312H16.8086V8.42969Z" fill="#384653"/>
<path d="M19.8555 16.0469H26V25.1875H19.8555V16.0469Z" fill="#384653"/>
<path d="M0 14.5234H6.14453V25.1875H0V14.5234Z" fill="#384653"/>
</svg>
