<svg width="16" height="16" viewBox="0 0 16 16" fill="none" xmlns="http://www.w3.org/2000/svg">
<g clip-path="url(#clip0)">
<path d="M15.3099 10.8775C15.6378 10.4592 15.7951 10.0109 15.775 9.54914C15.7549 9.04057 15.5274 8.64241 15.34 8.39816C15.5575 7.85613 15.6411 7.00293 14.9151 6.34044C14.3831 5.85529 13.4797 5.63781 12.2283 5.69803C11.3484 5.73818 10.6123 5.90213 10.5822 5.90882H10.5788C10.4115 5.93894 10.2342 5.97574 10.0535 6.01589C10.0401 5.80176 10.0769 5.26976 10.4718 4.07194C10.9402 2.64659 10.9134 1.55583 10.3848 0.826432C9.82935 0.0602259 8.94269 0 8.68171 0C8.43077 0 8.19991 0.103722 8.03596 0.294437C7.66456 0.726056 7.70806 1.52238 7.7549 1.89042C7.31325 3.07486 6.07527 5.97909 5.02801 6.78545C5.00794 6.79883 4.99121 6.81556 4.97448 6.83229C4.66666 7.15684 4.45921 7.50816 4.31868 7.81598C4.12128 7.70891 3.8971 7.64868 3.6562 7.64868H1.61521C0.845661 7.64868 0.223328 8.27436 0.223328 9.04057V14.4776C0.223328 15.2472 0.849007 15.8695 1.61521 15.8695H3.6562C3.95398 15.8695 4.23169 15.7758 4.45921 15.6152L5.24549 15.7089C5.36594 15.7256 7.50731 15.9967 9.70555 15.9532C10.1037 15.9833 10.4785 16 10.8264 16C11.4253 16 11.9473 15.9532 12.3823 15.8595C13.4061 15.642 14.1054 15.207 14.46 14.568C14.7311 14.0795 14.7311 13.5943 14.6876 13.2865C15.3534 12.6842 15.4705 12.0184 15.4471 11.55C15.4337 11.279 15.3735 11.0481 15.3099 10.8775ZM1.61521 14.9661C1.3442 14.9661 1.12672 14.7453 1.12672 14.4776V9.03722C1.12672 8.76621 1.34754 8.54872 1.61521 8.54872H3.6562C3.92722 8.54872 4.1447 8.76955 4.1447 9.03722V14.4743C4.1447 14.7453 3.92387 14.9628 3.6562 14.9628H1.61521V14.9661ZM14.4534 10.486C14.3128 10.6332 14.2861 10.8574 14.3931 11.0314C14.3931 11.0347 14.5303 11.2689 14.547 11.5901C14.5705 12.0284 14.3597 12.4166 13.918 12.7478C13.7608 12.8683 13.6972 13.0757 13.7641 13.2631C13.7641 13.2664 13.908 13.7081 13.6738 14.1263C13.4496 14.5278 12.9511 14.8156 12.1949 14.9762C11.5893 15.1066 10.7662 15.1301 9.75574 15.0498C9.74236 15.0498 9.72563 15.0498 9.7089 15.0498C7.5575 15.0966 5.38267 14.8156 5.35925 14.8122H5.35591L5.01797 14.7721C5.03805 14.6784 5.04809 14.578 5.04809 14.4776V9.03722C5.04809 8.89335 5.02467 8.75282 4.98451 8.62233C5.04474 8.39816 5.21203 7.89962 5.60685 7.4747C7.10915 6.28356 8.57799 2.26516 8.64156 2.09118C8.66833 2.02091 8.67502 1.94396 8.66164 1.867C8.60476 1.49226 8.62483 1.03388 8.70513 0.896696C8.88246 0.900042 9.36093 0.95023 9.64867 1.34839C9.98995 1.82016 9.97657 2.66332 9.60852 3.78084C9.04641 5.4839 8.99957 6.38059 9.44457 6.77541C9.6654 6.97281 9.95984 6.98285 10.174 6.9059C10.3781 6.85905 10.5721 6.8189 10.7562 6.78879C10.7695 6.78545 10.7863 6.7821 10.7997 6.77875C11.8268 6.55458 13.6671 6.4174 14.3061 6.99958C14.8482 7.49477 14.4634 8.15056 14.4199 8.22083C14.2961 8.4082 14.3329 8.65245 14.5002 8.80301C14.5035 8.80636 14.8549 9.1376 14.8716 9.5826C14.885 9.88038 14.7444 10.1849 14.4534 10.486Z" fill="#4C5C6A"/>
</g>
<defs>
<clipPath id="clip0">
<rect width="16" height="16" fill="white"/>
</clipPath>
</defs>
</svg>
