<svg width="20" height="20" viewBox="0 0 20 20" fill="none" xmlns="http://www.w3.org/2000/svg">
<path d="M9.9668 18.3057H2.49168C2.0332 18.3057 1.66113 17.9335 1.66113 17.4751V2.52492C1.66113 2.06644 2.03324 1.69437 2.49168 1.69437H9.9668C10.4261 1.69437 10.7973 1.32312 10.7973 0.863822C10.7973 0.404526 10.4261 0.0331974 9.9668 0.0331974H2.49168C1.11793 0.0331974 0 1.15117 0 2.52492V17.4751C0 18.8488 1.11793 19.9668 2.49168 19.9668H9.9668C10.4261 19.9668 10.7973 19.5955 10.7973 19.1362C10.7973 18.6769 10.4261 18.3057 9.9668 18.3057Z" fill="#536578"/>
<path d="M19.7525 9.40863L14.7026 4.42523C14.3771 4.10297 13.8505 4.10715 13.5282 4.43355C13.206 4.75996 13.2093 5.2857 13.5365 5.60797L17.1453 9.16941H7.47508C7.01578 9.16941 6.64453 9.54066 6.64453 9.99996C6.64453 10.4593 7.01578 10.8305 7.47508 10.8305H17.1453L13.5365 14.392C13.2093 14.7143 13.2068 15.24 13.5282 15.5664C13.691 15.7309 13.9053 15.8139 14.1196 15.8139C14.3306 15.8139 14.5415 15.7342 14.7026 15.5747L19.7525 10.5913C19.9103 10.4352 20 10.2225 20 9.99992C20 9.77742 19.9111 9.56562 19.7525 9.40863Z" fill="#536578"/>
</svg>
