<svg width="27" height="27" viewBox="0 0 27 27" fill="none" xmlns="http://www.w3.org/2000/svg">
<rect x="0.5" y="0.5" width="26" height="26" rx="4.5" fill="#E0263C" fill-opacity="0.33" stroke="#E0263C"/>
<path fill-rule="evenodd" clip-rule="evenodd" d="M14.8806 13.8375L18.0092 10.7089C18.2972 10.4209 18.2972 9.954 18.0092 9.66605C17.7212 9.37806 17.2543 9.37806 16.9663 9.66605L13.8377 12.7947L10.709 9.66601C10.421 9.37801 9.95415 9.37801 9.66616 9.66601C9.37821 9.954 9.37821 10.4209 9.66616 10.7089L12.7948 13.8375L9.66616 16.9661C9.37821 17.2541 9.37821 17.7211 9.66616 18.009C9.95415 18.297 10.421 18.297 10.709 18.009L13.8377 14.8804L16.9663 18.009C17.2543 18.297 17.7212 18.297 18.0092 18.009C18.2972 17.721 18.2972 17.2541 18.0092 16.9661L14.8806 13.8375Z" fill="#E0263C"/>
</svg>
