<svg width="27" height="26" viewBox="0 0 27 26" fill="none" xmlns="http://www.w3.org/2000/svg">
<g clip-path="url(#clip0)">
<path d="M13.4557 14.4185C17.4459 14.4185 20.6823 11.3228 20.6823 7.50612C20.6823 3.68948 17.4458 0.614899 13.4557 0.614899C9.4656 0.614899 6.22913 3.71066 6.22913 7.50612C6.22913 11.3016 9.46555 14.4185 13.4557 14.4185ZM13.4557 2.41722C16.3818 2.41722 18.7759 4.7072 18.7759 7.50612C18.7759 10.305 16.3818 12.595 13.4557 12.595C10.5296 12.595 8.13551 10.305 8.13551 7.50607C8.13551 4.70716 10.5296 2.41722 13.4557 2.41722Z" fill="white"/>
<path d="M0.953192 25.2112H26.0468C26.5788 25.2112 27 24.8083 27 24.2995C27 19.5286 22.9434 15.6271 17.9335 15.6271H9.06651C4.07882 15.6271 0 19.5074 0 24.2995C0 24.8083 0.421176 25.2112 0.953192 25.2112ZM9.06651 17.4506H17.9335C21.5689 17.4506 24.5616 20.0375 25.0271 23.3877H1.9729C2.4384 20.0587 5.43105 17.4506 9.06651 17.4506Z" fill="white"/>
</g>
<defs>
<clipPath id="clip0">
<rect width="27" height="25.8261" fill="white"/>
</clipPath>
</defs>
</svg>
