<svg width="21" height="21" viewBox="0 0 21 21" fill="none" xmlns="http://www.w3.org/2000/svg">
<path d="M17.9242 3.07576C15.94 1.09154 13.3062 0 10.5 0C7.69381 0 5.05997 1.09154 3.07576 3.07576C1.09154 5.05997 0 7.69381 0 10.5C0 13.3062 1.09154 15.94 3.07576 17.9242C5.05997 19.9085 7.69381 21 10.5 21C13.3062 21 15.94 19.9085 17.9242 17.9242C19.9085 15.94 21 13.3062 21 10.5C21 7.69381 19.9085 5.05997 17.9242 3.07576ZM17.0802 17.0802C15.3213 18.839 12.9836 19.8068 10.5 19.8068C8.01641 19.8068 5.67866 18.839 3.91982 17.0802C0.291667 13.452 0.291667 7.54798 3.91982 3.91982C5.67866 2.16098 8.01641 1.19318 10.5 1.19318C12.9836 1.19318 15.3213 2.16098 17.0802 3.91982C20.7083 7.54798 20.7083 13.452 17.0802 17.0802Z" fill="#4D5D6E"/>
<path d="M15.127 5.87305C14.8927 5.63883 14.5171 5.63883 14.2829 5.87305L10.5001 9.65588L6.71724 5.87305C6.48302 5.63883 6.10739 5.63883 5.87317 5.87305C5.63896 6.10727 5.63896 6.4829 5.87317 6.71712L9.656 10.4999L5.87317 14.2828C5.63896 14.517 5.63896 14.8926 5.87317 15.1268C5.98807 15.2417 6.14274 15.3036 6.293 15.3036C6.44325 15.3036 6.59792 15.2462 6.71282 15.1268L10.4956 11.344L14.2785 15.1268C14.3934 15.2417 14.548 15.3036 14.6983 15.3036C14.853 15.3036 15.0032 15.2462 15.1181 15.1268C15.3523 14.8926 15.3523 14.517 15.1181 14.2828L11.3441 10.4999L15.127 6.71712C15.3612 6.4829 15.3612 6.10727 15.127 5.87305Z" fill="#4D5D6E"/>
</svg>
