<svg width="25" height="25" viewBox="0 0 25 25" fill="none" xmlns="http://www.w3.org/2000/svg">
<path d="M10.447 7.77075H4.0612L0.712107 18.6618C0.123222 20.022 0.153263 21.354 0.796486 22.4142C1.54176 23.6428 3.04026 24.4199 4.90808 24.5462C5.0278 24.5542 5.14885 24.5586 5.27122 24.5586H9.53301C9.65494 24.5586 9.77599 24.5542 9.89659 24.5462C11.7573 24.4203 13.2576 23.6552 14.0126 22.4469C14.6744 21.388 14.727 20.0971 14.1734 18.7378L10.447 7.77075ZM13.2629 21.9787C12.6599 22.9439 11.411 23.5584 9.83695 23.6649C9.73623 23.6715 9.63462 23.6751 9.53257 23.6751H5.27078C5.16873 23.6751 5.06712 23.6715 4.96684 23.6649C3.39058 23.558 2.14566 22.9355 1.55148 21.9561C1.05095 21.1304 1.04388 20.106 1.5316 18.9927L4.7137 8.6543H9.81398L13.346 19.0457C13.797 20.1559 13.7683 21.1698 13.2629 21.9787Z" fill="#536271"/>
<path d="M3.81473 3.80847C3.99453 4.32888 4.47916 4.67876 5.02077 4.67876H9.0555C9.59711 4.67876 10.0817 4.32888 10.2615 3.80847C10.3998 3.40778 10.6596 2.84982 11.112 2.4668C11.4786 2.15668 11.65 1.67558 11.5604 1.21172C11.472 0.755368 11.1535 0.39488 10.7082 0.247328C9.38197 -0.191796 8.20597 -0.0442434 7.30784 0.674523C7.14659 0.803521 6.93012 0.803521 6.76843 0.674523C5.87031 -0.0438017 4.69475 -0.191796 3.36766 0.247328C2.92279 0.394438 2.60427 0.754926 2.51592 1.21128C2.42579 1.67558 2.59764 2.15623 2.96432 2.4668C3.41669 2.84982 3.67646 3.40778 3.81473 3.80847ZM3.38312 1.37959C3.39946 1.29698 3.45469 1.14899 3.64553 1.08581C4.05638 0.949749 4.4394 0.882157 4.7937 0.882157C5.33885 0.882157 5.81508 1.04296 6.21666 1.36413C6.69996 1.75069 7.37587 1.75069 7.85962 1.36413C8.52228 0.834004 9.38771 0.740348 10.4307 1.08581C10.6216 1.14899 10.6773 1.29698 10.6932 1.37959C10.7228 1.53245 10.6658 1.68707 10.5416 1.79265C9.93595 2.30555 9.60109 3.01548 9.42659 3.52043C9.3696 3.68433 9.22028 3.79477 9.0555 3.79477H5.02077C4.85555 3.79477 4.70667 3.68433 4.65013 3.51999C4.47563 3.0146 4.14076 2.30511 3.53509 1.79221C3.41051 1.68663 3.35396 1.53245 3.38312 1.37959Z" fill="#536271"/>
<path d="M10.572 6.68091V5.56189C10.572 5.31803 10.3741 5.12012 10.1303 5.12012H4.38721C4.14335 5.12012 3.94543 5.31803 3.94543 5.56189C3.94543 5.80575 4.14335 6.00367 4.38721 6.00367H9.6885V6.44544H4.38721C4.14335 6.44544 3.94543 6.64336 3.94543 6.88721C3.94543 7.13107 4.14335 7.32899 4.38721 7.32899H9.97654C10.3839 7.6665 10.8791 7.84542 11.3801 7.84542C11.9455 7.84542 12.5114 7.62984 12.9417 7.19955C13.1145 7.02682 13.1145 6.74761 12.9417 6.57488C12.769 6.40215 12.4898 6.40215 12.3171 6.57488C11.8399 7.05155 11.0916 7.08292 10.572 6.68091Z" fill="#536271"/>
<path d="M4.38721 21.4657C3.65652 21.4657 3.06189 20.6732 3.06189 19.6986C3.06189 19.4548 2.86398 19.2568 2.62012 19.2568C2.37626 19.2568 2.17834 19.4548 2.17834 19.6986C2.17834 21.1604 3.16924 22.3493 4.38721 22.3493C4.63107 22.3493 4.82899 22.1513 4.82899 21.9075C4.82899 21.6636 4.63152 21.4657 4.38721 21.4657Z" fill="#536271"/>
<path d="M20.291 19.2568C18.6503 19.2568 15.8733 19.5824 15.8733 20.803V23.2328C15.8733 24.3244 18.1665 24.9999 20.291 24.9999C22.4155 24.9999 24.7088 24.3244 24.7088 23.2328V20.803C24.7088 19.5829 21.9322 19.2568 20.291 19.2568ZM23.7921 20.7995C23.7828 20.8088 23.7753 20.8181 23.7625 20.8282C23.7453 20.8419 23.7245 20.8565 23.7011 20.8715C23.6719 20.8901 23.6366 20.9095 23.5982 20.929C23.5668 20.9449 23.5341 20.9612 23.4965 20.9775C23.4502 20.9983 23.3954 21.0191 23.3393 21.0403C23.2942 21.0571 23.2487 21.0739 23.1975 21.0911C23.133 21.1123 23.0587 21.1335 22.9841 21.1543C22.9258 21.1706 22.8683 21.1874 22.8038 21.2033C22.7199 21.2241 22.6254 21.2431 22.5313 21.262C22.4601 21.2766 22.3926 21.2916 22.3157 21.3053C22.2097 21.3239 22.0913 21.3398 21.9742 21.3557C21.8942 21.3667 21.8196 21.3791 21.7343 21.3888C21.5952 21.4047 21.4419 21.4158 21.289 21.4268C21.2112 21.4326 21.1406 21.4405 21.0593 21.4454C20.8181 21.4586 20.5627 21.4666 20.2901 21.4666C20.0176 21.4666 19.7622 21.4586 19.521 21.4454C19.4397 21.441 19.369 21.433 19.2913 21.4268C19.1384 21.4153 18.9851 21.4043 18.846 21.3888C18.7607 21.3791 18.6861 21.3667 18.6061 21.3557C18.489 21.3398 18.3706 21.3239 18.2646 21.3053C18.1877 21.2916 18.1202 21.2766 18.049 21.262C17.9549 21.2426 17.8604 21.2236 17.7765 21.2033C17.712 21.1874 17.655 21.171 17.5962 21.1543C17.5216 21.1335 17.4478 21.1123 17.3828 21.0911C17.3316 21.0743 17.2861 21.0571 17.241 21.0403C17.1849 21.0191 17.1301 20.9983 17.0838 20.9775C17.0462 20.9612 17.0135 20.9449 16.9821 20.929C16.9437 20.9091 16.9084 20.8896 16.8792 20.8715C16.8558 20.8565 16.835 20.8424 16.8178 20.8282C16.805 20.8181 16.7975 20.8092 16.7882 20.7995C17.0356 20.5716 18.2032 20.1408 20.2888 20.1408C22.3744 20.1408 23.5447 20.5711 23.7921 20.7995ZM20.291 24.1164C18.2059 24.1164 16.8655 23.4749 16.7568 23.2328V21.7939C16.7688 21.7992 16.7833 21.8032 16.7957 21.8085C16.9013 21.8536 17.0117 21.896 17.1293 21.9349C17.1354 21.9371 17.1416 21.9393 17.1483 21.9411C17.2684 21.9799 17.3952 22.0148 17.5246 22.0471C17.5671 22.0577 17.6108 22.0674 17.6541 22.0771C17.7486 22.0988 17.844 22.1195 17.9417 22.1381C17.9889 22.1474 18.0358 22.1562 18.0835 22.1646C18.1908 22.1836 18.2986 22.2004 18.4077 22.2163C18.4422 22.2211 18.4762 22.2269 18.5107 22.2317C18.6534 22.2507 18.7961 22.2675 18.9379 22.2812C18.9737 22.2848 19.0086 22.2874 19.0443 22.2905C19.1535 22.3002 19.2613 22.3091 19.3682 22.3161C19.4146 22.3192 19.4596 22.3219 19.5051 22.3245C19.6041 22.3303 19.7004 22.3347 19.7958 22.3382C19.836 22.3395 19.8762 22.3413 19.9155 22.3426C20.045 22.3462 20.1713 22.3484 20.2906 22.3484C20.4094 22.3484 20.5358 22.3462 20.6652 22.3426C20.7054 22.3413 20.7461 22.3395 20.7867 22.3382C20.8812 22.3347 20.9771 22.3303 21.0756 22.3245C21.122 22.3219 21.1675 22.3192 21.2143 22.3161C21.3212 22.3091 21.4295 22.3002 21.5386 22.2901C21.5739 22.287 21.6084 22.2843 21.6437 22.2808C21.786 22.2666 21.9287 22.2503 22.0714 22.2309C22.1063 22.226 22.1407 22.2203 22.1756 22.2154C22.2843 22.1999 22.3921 22.1827 22.499 22.1637C22.5472 22.1553 22.594 22.146 22.6413 22.1372C22.7389 22.1182 22.8348 22.0979 22.9297 22.0758C22.973 22.0656 23.0163 22.0564 23.0587 22.0458C23.1908 22.0126 23.3198 21.9773 23.4422 21.9375C23.4484 21.9353 23.4537 21.9331 23.4599 21.9313C23.5752 21.8933 23.6843 21.8514 23.7881 21.8072C23.8005 21.8019 23.8151 21.7975 23.8274 21.7922L23.8301 23.2006C23.717 23.4753 22.3762 24.1164 20.291 24.1164Z" fill="#536271"/>
</svg>
