<svg width="18" height="20" viewBox="0 0 18 20" fill="none" xmlns="http://www.w3.org/2000/svg">
<path d="M17.88 0.0902827C17.8038 0.0215545 17.7032 -0.00971865 17.6015 0.00264515L6.66035 1.46121C6.48459 1.48485 6.35294 1.63867 6.35294 1.82158V4.00961V5.54126V14.7719C5.70847 13.9737 4.68459 13.4545 3.52941 13.4545C1.58329 13.4545 0 14.9225 0 16.7272C0 18.532 1.58329 20 3.52941 20C5.47553 20 7.05882 18.532 7.05882 16.7272C7.05882 16.6429 7.05212 16.56 7.04506 16.4774C7.04965 16.4538 7.05882 16.4323 7.05882 16.4076V5.8609L17.2941 4.49616V11.1352C16.6496 10.3373 15.6258 9.81805 14.4706 9.81805C12.5245 9.81805 10.9412 11.2861 10.9412 13.0908C10.9412 14.8956 12.5245 16.3636 14.4706 16.3636C16.3991 16.3636 17.9693 14.9214 17.9975 13.1392C17.9975 13.1345 18 13.1305 18 13.1257V4.08234V2.55104V0.363377C18 0.258649 17.9562 0.159011 17.88 0.0902827Z" fill="#89A4B9"/>
</svg>
