<svg width="21" height="23" viewBox="0 0 21 23" fill="none" xmlns="http://www.w3.org/2000/svg">
<path d="M9.35 23C10.56 23 11.55 22.01 11.55 20.8H7.15C7.15 22.01 8.14 23 9.35 23ZM16.5 16.4V10.35C16.5 6.94 14.19 4.19 11 3.42V2.65C11 1.77 10.23 1 9.35 1C8.47 1 7.7 1.77 7.7 2.65V3.42C4.51 4.19 2.2 6.94 2.2 10.35V16.4L0 18.6V19.7H18.7V18.6L16.5 16.4ZM14.3 17.5H4.4V10.35C4.4 7.6 6.6 5.4 9.35 5.4C12.1 5.4 14.3 7.6 14.3 10.35V17.5Z" fill="#556575"/>
<circle cx="16.5" cy="4.5" r="3.5" fill="#E0073E" stroke="#222D38" stroke-width="2"/>
</svg>
