<svg width="31" height="32" viewBox="0 0 31 32" fill="none" xmlns="http://www.w3.org/2000/svg">
<rect x="0.5" y="0.5" width="30" height="31" rx="3.5" fill="#25313D" stroke="#303F4E"/>
<path d="M21.4699 22.4547C21.447 22.4841 21.447 22.5234 21.4699 22.5529L22.2033 23.4467C22.2687 23.5253 22.2131 23.6431 22.1116 23.6431H19.4891V21.3448H22.1181C22.2196 21.3448 22.2753 21.4627 22.2098 21.538L21.4699 22.4547ZM7.80095 21.538L8.53433 22.4318C8.55724 22.4612 8.55724 22.5005 8.53433 22.53L7.7944 23.4467C7.7322 23.5253 7.78786 23.6399 7.88608 23.6399H10.5184V21.3415H7.8959C7.7944 21.3415 7.73875 21.4594 7.80095 21.538ZM19.5972 9.47002H22.7402V11.883C22.7402 13.6149 21.3291 15.026 19.5972 15.026H19.1879C18.5953 16.3356 17.4068 17.3178 15.9696 17.6255V19.5965H17.0991C17.4461 19.5965 17.7277 19.878 17.7277 20.2251V21.0501H18.6903V24H11.3139V21.0501H12.2765V20.2251C12.2765 19.878 12.5581 19.5965 12.9051 19.5965H14.0314V17.6255C12.5941 17.3178 11.4056 16.3356 10.813 15.026H10.4038C8.67183 15.026 7.26074 13.6149 7.26074 11.883V9.47002H10.4038V8H19.5906V9.47002H19.5972ZM10.4201 13.4348C10.4136 13.3366 10.4103 13.2351 10.4103 13.1336V11.0612H8.85845V11.883C8.85845 12.7375 9.55581 13.4348 10.4103 13.4348H10.4201ZM13.7269 21.2007V22.7821H16.2806V21.2007H13.7269ZM16.9419 11.6767L15.7109 11.5883L15.246 10.4457C15.1576 10.2296 14.8531 10.2296 14.7647 10.4457L14.2998 11.5883L13.0688 11.6767C12.8364 11.6931 12.7414 11.9844 12.9215 12.1318L13.8644 12.9274L13.5697 14.1256C13.5141 14.3515 13.7596 14.5316 13.9593 14.4072L15.007 13.7557L16.0547 14.4072C16.2511 14.5283 16.5 14.3515 16.4443 14.1256L16.1496 12.9274L17.0925 12.1318C17.2661 11.9812 17.1744 11.6931 16.9419 11.6767ZM19.5972 11.0612V13.1336C19.5972 13.2351 19.5939 13.3333 19.5873 13.4348H19.5972C20.4517 13.4348 21.149 12.7375 21.149 11.883V11.0612H19.5972Z" fill="#778BA0"/>
</svg>
