<svg width="31" height="32" viewBox="0 0 31 32" fill="none" xmlns="http://www.w3.org/2000/svg">
<rect x="0.5" y="0.5" width="30" height="31" rx="3.5" fill="#25313D" stroke="#303F4E"/>
<path d="M21.4768 16.1616H16.0713V23H21.4768V16.1616Z" fill="#778BA0"/>
<path d="M15.0852 16.1616H9.67969V23H15.0852V16.1616Z" fill="#778BA0"/>
<path d="M19.7928 10.6736C19.939 10.4057 20.0222 10.0987 20.0222 9.77261C20.0222 8.73231 19.1759 7.88599 18.1356 7.88599C17.3662 7.88599 16.5789 8.28356 15.9757 8.97676C15.8264 9.1483 15.6935 9.33265 15.5785 9.52464C15.4635 9.33265 15.3306 9.1483 15.1813 8.97676C14.5781 8.28356 13.7909 7.88599 13.0214 7.88599C11.9811 7.88599 11.1348 8.73234 11.1348 9.77261C11.1348 10.0987 11.218 10.4057 11.3642 10.6736H8.79492V15.1759H15.0856V10.6736H16.0713V15.1759H22.3621V10.6736H19.7928ZM13.0214 10.6736C12.5247 10.6736 12.1205 10.2694 12.1205 9.77261C12.1205 9.27582 12.5247 8.87167 13.0214 8.87167C13.9158 8.87167 14.7662 9.78657 15.0136 10.6735H13.0214V10.6736ZM18.1356 10.6736H16.1434C16.3908 9.78657 17.2412 8.8717 18.1356 8.8717C18.6324 8.8717 19.0365 9.27588 19.0365 9.77264C19.0365 10.2694 18.6324 10.6736 18.1356 10.6736Z" fill="#778BA0"/>
</svg>
