<svg width="31" height="32" viewBox="0 0 31 32" fill="none" xmlns="http://www.w3.org/2000/svg">
<rect x="0.5" y="0.5" width="30" height="31" rx="3.5" fill="#25313D" stroke="#303F4E"/>
<path d="M22.3991 7H9.50446C9.23701 7 9 7.21685 9 7.4843V20.9843C9 21.1612 9.10655 21.324 9.26177 21.4091L15.7141 24.9405C15.7865 24.9801 15.8691 25 15.9492 25C16.0293 25 16.1107 24.9801 16.1831 24.9405L22.621 21.4091C22.7762 21.3241 22.8632 21.1612 22.8632 20.9843V7.4843C22.8632 7.21685 22.6665 7 22.3991 7ZM21.8946 20.6974L15.9316 23.9635L9.96861 20.6974V7.96861H21.8946V20.6974Z" fill="#778BA0"/>
<path d="M19.9568 19.658V17.3823L15.9361 19.5011L11.9053 17.3823V19.6525L15.9361 21.852L19.9568 19.658Z" fill="#778BA0"/>
<path d="M19.9568 16.2888V14.0131L15.9361 16.1319L11.9053 14.0131V16.2833L15.9361 18.4829L19.9568 16.2888Z" fill="#778BA0"/>
<path d="M14.3631 14.0032L15.9822 12.8276L17.6015 14.0056L16.9831 12.1052L18.6022 10.935H16.6008L15.9822 9.03146L15.3637 10.935H13.3623L14.9815 12.1055L14.3631 14.0032Z" fill="#778BA0"/>
</svg>
