<svg width="114" height="114" viewBox="0 0 114 114" fill="none" xmlns="http://www.w3.org/2000/svg">
<path d="M71.4331 74.6704C71.6442 74.5937 71.8326 74.4649 71.9808 74.296C72.129 74.1271 72.2322 73.9236 72.2808 73.7042C72.3295 73.4849 72.322 73.2568 72.2591 73.0411C72.1963 72.8254 72.08 72.629 71.9211 72.4701L62.2325 62.7813C63.6104 60.882 64.2658 58.5536 64.0809 56.2144C63.8961 53.8753 62.883 51.6787 61.2238 50.0195C59.5646 48.3603 57.3681 47.3472 55.0289 47.1623C52.6898 46.9774 50.3613 47.6327 48.4621 49.0106L38.7721 39.3211C38.6132 39.1622 38.4168 39.0459 38.2011 38.9831C37.9854 38.9202 37.7574 38.9127 37.538 38.9614C37.3186 39.01 37.1151 39.1132 36.9462 39.2614C36.7773 39.4096 36.6485 39.598 36.5718 39.8091L28.5958 61.7439C25.9663 68.942 21.8015 75.4814 16.3907 80.9081C15.8708 81.4279 15.4585 82.045 15.1771 82.7242C14.8958 83.4034 14.751 84.1313 14.751 84.8664C14.751 85.6015 14.8958 86.3295 15.1771 87.0086C15.4585 87.6878 15.8708 88.3049 16.3907 88.8247L22.4177 94.8515C22.9375 95.3714 23.5546 95.7837 24.2337 96.0651C24.9129 96.3464 25.6408 96.4912 26.3759 96.4912C27.111 96.4912 27.8389 96.3464 28.5181 96.0651C29.1972 95.7837 29.8143 95.3714 30.3341 94.8515C30.3708 94.8148 30.4089 94.7796 30.4454 94.7429L42.9095 107.207C43.16 107.458 43.4998 107.598 43.8541 107.598C44.2084 107.598 44.5482 107.458 44.7987 107.207C46.6451 105.357 47.682 102.849 47.682 100.235C47.682 97.6213 46.6451 95.114 44.7987 93.2636L39.2452 87.7101C42.4684 85.6542 45.9064 83.9563 49.4981 82.6464L71.4331 74.6704ZM59.3337 51.9085C60.4914 53.0663 61.2192 54.5845 61.3967 56.2121C61.5742 57.8398 61.1907 59.4792 60.3098 60.8593L50.3843 50.9337C51.7647 50.0548 53.4033 49.6725 55.0301 49.8497C56.657 50.0268 58.1749 50.753 59.3337 51.9085ZM26.3759 93.8195C25.9915 93.8206 25.6107 93.7454 25.2556 93.5983C24.9005 93.4512 24.578 93.2351 24.307 92.9625L18.2801 86.9352C18.0084 86.6636 17.7929 86.341 17.6458 85.9861C17.4988 85.6311 17.4231 85.2506 17.4231 84.8664C17.4231 84.4822 17.4988 84.1017 17.6458 83.7468C17.7929 83.3918 18.0084 83.0693 18.2801 82.7976C19.3211 81.7565 20.3195 80.6724 21.2753 79.5455L31.6969 89.9671C30.5721 90.9226 29.4881 91.9211 28.445 92.9625C28.174 93.2351 27.8515 93.4512 27.4963 93.5983C27.1411 93.7454 26.7603 93.8206 26.3759 93.8195ZM42.9099 95.153C44.0939 96.3374 44.8274 97.8979 44.9839 99.5652C45.1404 101.233 44.7102 102.902 43.7674 104.286L32.3896 92.9086C33.8533 91.5986 35.3891 90.3716 36.9899 89.2333L42.9099 95.153ZM33.7886 88.2805L22.9619 77.4536C26.4161 72.9659 29.1629 67.9759 31.1067 62.6568L38.3653 42.6939L68.5485 72.8754L48.5854 80.134C43.2662 82.0783 38.2761 84.8257 33.7886 88.2805Z" fill="#2E3A45"/>
<path d="M68.7961 45.3107C66.7845 43.2949 64.2237 41.9163 61.4334 41.347C58.6431 40.7777 55.7469 41.043 53.1064 42.1098C52.9437 42.1754 52.7955 42.2724 52.6702 42.3953C52.5449 42.5181 52.4451 42.6645 52.3764 42.826C52.3077 42.9874 52.2715 43.1608 52.2698 43.3363C52.2682 43.5118 52.3011 43.6858 52.3667 43.8486C52.4323 44.0113 52.5293 44.1596 52.6522 44.2848C52.775 44.4101 52.9214 44.5099 53.0829 44.5786C53.2443 44.6473 53.4177 44.6835 53.5932 44.6852C53.7687 44.6869 53.9427 44.654 54.1055 44.5884C56.2601 43.7204 58.6224 43.5052 60.8984 43.9695C63.1745 44.4338 65.2637 45.5571 66.9062 47.1996C68.5487 48.8422 69.672 50.9315 70.1363 53.2075C70.6005 55.4835 70.3853 57.8458 69.5173 60.0004C69.4518 60.1631 69.4189 60.3372 69.4206 60.5126C69.4223 60.6881 69.4586 60.8614 69.5273 61.0229C69.596 61.1843 69.6958 61.3306 69.8211 61.4534C69.9463 61.5763 70.0946 61.6732 70.2573 61.7388C70.42 61.8044 70.5941 61.8372 70.7695 61.8355C70.945 61.8338 71.1183 61.7976 71.2798 61.7288C71.4412 61.6601 71.5875 61.5603 71.7103 61.435C71.8332 61.3098 71.9301 61.1615 71.9957 60.9988C73.0625 58.3587 73.328 55.4628 72.759 52.6728C72.1899 49.8827 70.8116 47.3221 68.7961 45.3107Z" fill="#2E3A45"/>
<path d="M76.7571 64.2224C76.9199 64.288 77.094 64.3208 77.2694 64.3191C77.4449 64.3174 77.6183 64.2812 77.7797 64.2125C77.9411 64.1437 78.0875 64.0439 78.2103 63.9186C78.3331 63.7933 78.4301 63.6451 78.4956 63.4823C80.0659 59.5856 80.4555 55.3131 79.616 51.1966C78.7765 47.0801 76.745 43.3014 73.7743 40.3307C70.8035 37.36 67.0248 35.3285 62.9083 34.4891C58.7918 33.6496 54.5194 34.0393 50.6227 35.6095C50.4587 35.6742 50.3091 35.7707 50.1826 35.8934C50.0561 36.0161 49.9551 36.1627 49.8855 36.3246C49.8159 36.4866 49.779 36.6607 49.7769 36.8369C49.7749 37.0132 49.8078 37.1881 49.8737 37.3516C49.9396 37.5151 50.0371 37.6639 50.1608 37.7896C50.2845 37.9152 50.4318 38.0151 50.5942 38.0835C50.7567 38.1519 50.9311 38.1875 51.1073 38.1882C51.2836 38.1889 51.4583 38.1548 51.6213 38.0877C55.0319 36.7133 58.7715 36.3723 62.3745 37.107C65.9775 37.8418 69.2849 39.6199 71.8851 42.2201C74.4852 44.8202 76.2633 48.1276 76.998 51.7307C77.7327 55.3337 77.3917 59.0732 76.0173 62.4839C75.9517 62.6466 75.9188 62.8207 75.9205 62.9961C75.9222 63.1716 75.9584 63.345 76.0271 63.5064C76.0958 63.6678 76.1957 63.8142 76.3209 63.937C76.4462 64.0599 76.5944 64.1568 76.7571 64.2224Z" fill="#2E3A45"/>
<path d="M91.6509 2.22656C87.671 2.22656 83.7805 3.40673 80.4714 5.61783C77.1623 7.82892 74.5831 10.9716 73.0601 14.6486C71.537 18.3255 71.1385 22.3714 71.915 26.2748C72.6914 30.1782 74.6079 33.7637 77.4221 36.5779C80.2363 39.3921 83.8218 41.3086 87.7252 42.085C91.6286 42.8615 95.6745 42.463 99.3515 40.9399C103.028 39.4169 106.171 36.8378 108.382 33.5286C110.593 30.2195 111.773 26.329 111.773 22.3491C111.767 17.0141 109.645 11.8994 105.873 8.12696C102.101 4.35455 96.9859 2.23257 91.6509 2.22656ZM91.6509 39.7998C88.1995 39.7998 84.8256 38.7763 81.9558 36.8588C79.0861 34.9413 76.8494 32.2159 75.5286 29.0272C74.2078 25.8385 73.8622 22.3298 74.5355 18.9447C75.2088 15.5596 76.8709 12.4501 79.3114 10.0096C81.7519 7.5691 84.8613 5.90709 88.2464 5.23375C91.6315 4.56041 95.1403 4.90599 98.329 6.22679C101.518 7.54759 104.243 9.78429 106.161 12.654C108.078 15.5238 109.102 18.8977 109.102 22.3491C109.096 26.9757 107.256 31.4113 103.985 34.6828C100.713 37.9543 96.2775 39.7946 91.6509 39.7998Z" fill="#2E3A45"/>
<path d="M98.8787 20.012C99.8659 20.0121 100.831 19.7198 101.652 19.1718C102.473 18.6239 103.114 17.845 103.493 16.9334C103.871 16.0217 103.972 15.0183 103.781 14.0498C103.59 13.0813 103.116 12.191 102.42 11.4914C101.723 10.7919 100.835 10.3143 99.8672 10.1191C98.8995 9.92395 97.8956 10.0198 96.9824 10.3947C96.0691 10.7695 95.2874 11.4066 94.7359 12.2253C94.1844 13.0441 93.8878 14.0079 93.8837 14.9951L87.6882 18.573C86.9698 17.9507 86.0888 17.5462 85.1486 17.4071C84.2083 17.268 83.2479 17.4001 82.3801 17.7877C81.5123 18.1754 80.7731 18.8025 80.2492 19.5956C79.7254 20.3887 79.4386 21.3148 79.4227 22.2651C79.4068 23.2154 79.6623 24.1506 80.1592 24.9608C80.6562 25.771 81.3739 26.4226 82.2283 26.8391C83.0826 27.2557 84.038 27.4198 84.9824 27.3123C85.9268 27.2049 86.8209 26.8302 87.5598 26.2323L93.9117 30.2123C94.0383 31.4059 94.5902 32.5141 95.4663 33.3344C96.3425 34.1548 97.4846 34.6325 98.6839 34.6804C99.8832 34.7283 101.06 34.3431 101.999 33.5952C102.937 32.8473 103.576 31.7866 103.797 30.607C104.018 29.4273 103.808 28.2073 103.204 27.17C102.601 26.1326 101.644 25.3471 100.509 24.9569C99.3735 24.5667 98.1359 24.5979 97.022 25.0447C95.908 25.4916 94.9919 26.3244 94.4412 27.3908L89.1179 24.0554C89.4992 23.0071 89.5183 21.8613 89.172 20.8009L94.6345 17.6463C95.0821 18.3692 95.7069 18.9659 96.4496 19.3798C97.1923 19.7938 98.0284 20.0114 98.8787 20.012ZM98.8787 12.6926C99.3384 12.6926 99.7877 12.8288 100.17 13.0841C100.552 13.3395 100.85 13.7024 101.026 14.127C101.202 14.5516 101.248 15.0189 101.158 15.4697C101.069 15.9205 100.847 16.3346 100.522 16.6596C100.197 16.9846 99.7832 17.206 99.3324 17.2957C98.8816 17.3854 98.4143 17.3393 97.9897 17.1635C97.5651 16.9876 97.2021 16.6897 96.9467 16.3076C96.6914 15.9254 96.5551 15.4761 96.5551 15.0165C96.5558 14.4004 96.8008 13.8098 97.2364 13.3741C97.672 12.9385 98.2627 12.6934 98.8787 12.6926ZM84.423 24.6728C83.9634 24.6728 83.5141 24.5366 83.1319 24.2812C82.7498 24.0259 82.4519 23.6629 82.276 23.2383C82.1001 22.8137 82.0541 22.3464 82.1438 21.8956C82.2335 21.4448 82.4548 21.0308 82.7798 20.7058C83.1048 20.3808 83.5188 20.1594 83.9696 20.0698C84.4204 19.9801 84.8877 20.0261 85.3123 20.202C85.7369 20.3779 86.0999 20.6758 86.3552 21.0579C86.6106 21.4401 86.7469 21.8894 86.7469 22.349C86.7462 22.9651 86.5011 23.5558 86.0654 23.9914C85.6298 24.4271 85.0391 24.6721 84.423 24.6728ZM98.8787 27.3579C99.3384 27.3578 99.7877 27.4941 100.17 27.7494C100.552 28.0047 100.85 28.3677 101.026 28.7923C101.202 29.217 101.248 29.6842 101.158 30.135C101.069 30.5858 100.847 30.9999 100.522 31.3249C100.197 31.65 99.7831 31.8713 99.3323 31.9609C98.8815 32.0506 98.4142 32.0046 97.9895 31.8287C97.5649 31.6527 97.202 31.3548 96.9466 30.9727C96.6913 30.5905 96.555 30.1411 96.5551 29.6815C96.5558 29.0655 96.8008 28.4748 97.2365 28.0392C97.6721 27.6036 98.2627 27.3586 98.8787 27.3579Z" fill="#2E3A45"/>
<path d="M91.6509 71.5283C87.671 71.5283 83.7805 72.7085 80.4714 74.9196C77.1623 77.1307 74.5831 80.2734 73.0601 83.9503C71.537 87.6272 71.1385 91.6732 71.915 95.5766C72.6914 99.48 74.6079 103.065 77.4221 105.88C80.2363 108.694 83.8218 110.61 87.7252 111.387C91.6286 112.163 95.6745 111.765 99.3515 110.242C103.028 108.719 106.171 106.14 108.382 102.83C110.593 99.5212 111.773 95.6307 111.773 91.6509C111.767 86.3159 109.645 81.2011 105.873 77.4287C102.101 73.6563 96.9859 71.5343 91.6509 71.5283ZM91.6509 109.102C88.1995 109.102 84.8256 108.078 81.9558 106.161C79.0861 104.243 76.8494 101.518 75.5286 98.329C74.2078 95.1403 73.8622 91.6315 74.5355 88.2464C75.2088 84.8613 76.8709 81.7519 79.3114 79.3114C81.7519 76.8709 84.8613 75.2088 88.2464 74.5355C91.6315 73.8622 95.1403 74.2077 98.329 75.5285C101.518 76.8494 104.243 79.086 106.161 81.9558C108.078 84.8255 109.102 88.1995 109.102 91.6509C109.096 96.2775 107.256 100.713 103.985 103.985C100.713 107.256 96.2775 109.096 91.6509 109.102Z" fill="#2E3A45"/>
<path d="M99.9127 90.5146L88.9692 83.7459C88.7669 83.6208 88.5348 83.5519 88.297 83.5465C88.0592 83.5411 87.8242 83.5992 87.6164 83.715C87.4086 83.8307 87.2354 83.9999 87.1149 84.205C86.9943 84.41 86.9307 84.6435 86.9305 84.8814V98.4189C86.9307 98.6568 86.9943 98.8903 87.1149 99.0954C87.2354 99.3005 87.4086 99.4696 87.6164 99.5854C87.8242 99.7011 88.0592 99.7593 88.297 99.7539C88.5348 99.7484 88.7669 99.6796 88.9692 99.5545L99.9127 92.7857C100.106 92.666 100.266 92.4988 100.377 92.2999C100.488 92.101 100.546 91.8772 100.546 91.6495C100.546 91.4219 100.488 91.198 100.377 90.9991C100.266 90.8003 100.106 90.633 99.9127 90.5133V90.5146ZM89.6024 96.0225V87.2792L96.6704 91.6508L89.6024 96.0225Z" fill="#2E3A45"/>
<path d="M22.3491 42.4717C26.329 42.4717 30.2195 41.2915 33.5286 39.0804C36.8378 36.8693 39.4169 33.7266 40.9399 30.0497C42.463 26.3728 42.8615 22.3268 42.085 18.4234C41.3086 14.52 39.3921 10.9345 36.5779 8.12033C33.7637 5.30614 30.1782 3.38965 26.2748 2.61322C22.3714 1.83679 18.3255 2.23528 14.6486 3.75831C10.9716 5.28134 7.82892 7.8605 5.61783 11.1696C3.40673 14.4788 2.22656 18.3693 2.22656 22.3491C2.23257 27.6841 4.35455 32.7989 8.12696 36.5713C11.8994 40.3437 17.0141 42.4657 22.3491 42.4717ZM22.3491 4.89845C25.8005 4.89845 29.1745 5.92191 32.0442 7.83942C34.914 9.75692 37.1507 12.4823 38.4715 15.671C39.7923 18.8597 40.1378 22.3685 39.4645 25.7536C38.7912 29.1387 37.1291 32.2481 34.6886 34.6886C32.2481 37.1291 29.1387 38.7912 25.7536 39.4645C22.3685 40.1378 18.8597 39.7923 15.671 38.4715C12.4823 37.1507 9.75691 34.914 7.83941 32.0442C5.9219 29.1745 4.89844 25.8005 4.89844 22.3491C4.90368 17.7225 6.74392 13.2869 10.0154 10.0154C13.2869 6.74392 17.7225 4.90369 22.3491 4.89845Z" fill="#2E3A45"/>
<path d="M14.1387 30.3386H23.6993C24.6438 30.3375 25.5493 29.9618 26.2172 29.294C26.8851 28.6261 27.2607 27.7206 27.2618 26.7761V26.5641L32.1435 29.2427C32.347 29.3543 32.576 29.411 32.808 29.4072C33.04 29.4034 33.267 29.3392 33.4666 29.221C33.6663 29.1028 33.8318 28.9347 33.9467 28.7331C34.0616 28.5315 34.1221 28.3035 34.1221 28.0715V16.627C34.122 16.3949 34.0616 16.1669 33.9466 15.9653C33.8317 15.7637 33.6662 15.5956 33.4665 15.4774C33.2668 15.3592 33.0398 15.2951 32.8077 15.2914C32.5757 15.2876 32.3467 15.3443 32.1433 15.456L27.2618 18.1352V17.9224C27.2607 16.9779 26.8851 16.0723 26.2172 15.4045C25.5493 14.7366 24.6438 14.3609 23.6993 14.3599H14.1387C13.1941 14.3609 12.2886 14.7365 11.6207 15.4044C10.9528 16.0723 10.5772 16.9778 10.5762 17.9224V26.7761C10.5772 27.7206 10.9528 28.6261 11.6207 29.294C12.2886 29.9619 13.1941 30.3376 14.1387 30.3386ZM31.4502 18.8842V25.8144L27.2618 23.5164V21.1832L31.4502 18.8842ZM13.248 17.9224C13.248 17.6862 13.3419 17.4596 13.5089 17.2926C13.6759 17.1256 13.9025 17.0317 14.1387 17.0317H23.6993C23.9355 17.0317 24.1621 17.1256 24.3291 17.2926C24.4961 17.4596 24.5899 17.6862 24.5899 17.9224V26.7761C24.5899 27.0123 24.4961 27.2388 24.3291 27.4058C24.1621 27.5729 23.9355 27.6667 23.6993 27.6667H14.1387C13.9025 27.6667 13.6759 27.5729 13.5089 27.4058C13.3419 27.2388 13.248 27.0123 13.248 26.7761V17.9224Z" fill="#2E3A45"/>
</svg>
