<svg width="23" height="23" viewBox="0 0 23 23" fill="none" xmlns="http://www.w3.org/2000/svg">
<g clip-path="url(#clip0)">
<path d="M10.9772 10.9756C10.9772 11.2649 11.2116 11.4978 11.4999 11.4978C11.7881 11.4978 12.0225 11.2634 12.0225 10.9756C12.023 10.364 12.2403 9.7694 12.6347 9.30158C13.5121 8.26122 14.1698 7.13326 14.5862 5.94903C14.6425 5.78901 14.618 5.61187 14.5201 5.47338C14.4218 5.3349 14.2632 5.25269 14.0934 5.25269H8.90581C8.73601 5.25269 8.57697 5.3349 8.47861 5.47338C8.38074 5.61187 8.35627 5.78901 8.41255 5.94903C8.82996 7.13326 9.48667 8.26122 10.3641 9.30158C10.759 9.7694 10.9767 10.3644 10.9772 10.9756Z" fill="#384653"/>
<path d="M12.0225 13.0706C12.0225 12.7819 11.7881 12.5484 11.4999 12.5484C11.2117 12.5484 10.9773 12.7828 10.9773 13.0706C10.9768 13.8251 10.5261 14.5714 9.70838 15.1767C7.95944 16.4681 6.65042 17.8711 5.81755 19.346C5.72604 19.5085 5.72751 19.7062 5.82195 19.8657C5.91493 20.0267 6.08718 20.1251 6.27313 20.1251H16.7276C16.9131 20.1251 17.0849 20.0267 17.1788 19.8657C17.2723 19.7062 17.2737 19.5085 17.1827 19.346C16.3503 17.8711 15.0408 16.4681 13.2924 15.1767C12.4737 14.5714 12.023 13.8251 12.0225 13.0706Z" fill="#384653"/>
<path d="M20.6468 20.9095H20.3341C19.9749 16.8415 17.5927 13.7185 15.741 11.5002C17.5932 9.28251 19.9744 6.15898 20.3351 2.091H20.6478C21.2252 2.091 21.693 1.62269 21.693 1.04525C21.693 0.46782 21.2252 0 20.6478 0H2.35238C1.77495 0 1.30713 0.468309 1.30713 1.04525C1.30713 1.62269 1.77495 2.091 2.35238 2.091H2.66508C3.02475 6.15947 5.40594 9.283 7.25813 11.5002C5.40642 13.718 3.02475 16.841 2.66459 20.9095H2.35238C1.77495 20.9095 1.30713 21.3768 1.30713 21.9543C1.30713 22.5322 1.77495 23.0005 2.35238 23.0005H3.65944H19.3402H20.6478C21.2252 23.0005 21.693 22.5322 21.693 21.9543C21.693 21.3768 21.2247 20.9095 20.6468 20.9095ZM4.76048 20.9095C5.15343 17.234 7.54293 14.4036 9.32858 12.2886L9.424 12.1756C9.75284 11.7865 9.75284 11.2169 9.424 10.8274L9.32907 10.7148C7.54391 8.59937 5.15343 5.76896 4.76048 2.09296H18.2392C17.8462 5.76896 15.4557 8.59937 13.6706 10.7148L13.5761 10.8274C13.2473 11.2164 13.2473 11.786 13.5761 12.1756L13.6716 12.2886C15.4567 14.4036 17.8462 17.234 18.2392 20.9095H4.76048Z" fill="#384653"/>
</g>
<defs>
<clipPath id="clip0">
<rect width="23" height="23" fill="white"/>
</clipPath>
</defs>
</svg>
