<svg width="21" height="21" viewBox="0 0 21 21" fill="none" xmlns="http://www.w3.org/2000/svg">
<g clip-path="url(#clip0)">
<path d="M7.90778 11.4818C7.90778 11.0942 7.59248 10.7791 7.20491 10.7791C6.8175 10.7791 6.5022 11.0942 6.5022 11.4818C6.5022 11.8692 6.8175 12.1845 7.20491 12.1845C7.59248 12.1845 7.90778 11.8692 7.90778 11.4818Z" fill="#56636E"/>
<path d="M13.795 10.7791C13.4075 10.7791 13.0922 11.0942 13.0922 11.4818C13.0922 11.8692 13.4075 12.1845 13.795 12.1845C14.1824 12.1845 14.4977 11.8692 14.4977 11.4818C14.4977 11.0942 14.1824 10.7791 13.795 10.7791Z" fill="#56636E"/>
<path d="M21 10.1639C21 8.73443 19.8371 7.57173 18.408 7.57173C17.8503 7.57173 17.3132 7.75117 16.872 8.07625C15.3916 7.06368 13.4647 6.43307 11.4188 6.28663L12.8312 2.9916L15.8316 3.8172C15.9516 4.76873 16.7653 5.50733 17.7489 5.50733C18.8148 5.50733 19.6821 4.64007 19.6821 3.57399C19.6821 2.5079 18.8148 1.64065 17.7489 1.64065C17.0346 1.64065 16.4099 2.0303 16.0752 2.60804L12.6402 1.66276C12.3438 1.58121 12.0326 1.73101 11.9114 2.01363L10.0914 6.26035C7.85722 6.33117 5.73081 6.97989 4.12768 8.07641C3.68644 7.75133 3.14955 7.57157 2.59232 7.57157C1.16302 7.57173 0 8.73443 0 10.1639C0 11.1231 0.518623 11.9796 1.33237 12.429C1.32275 12.5526 1.31795 12.6763 1.31795 12.7996C1.31795 14.5918 2.30312 16.2608 4.09211 17.4993C5.81204 18.69 8.08777 19.3459 10.5 19.3459C12.9122 19.3459 15.188 18.6902 16.9079 17.4993C18.6967 16.2608 19.6821 14.5918 19.6821 12.7996C19.6821 12.6769 19.6772 12.5538 19.6676 12.4308C20.4812 11.9812 21 11.1242 21 10.1639ZM5.27179 11.4818C5.27179 10.4159 6.13921 9.54865 7.20497 9.54865C8.27106 9.54865 9.13831 10.4159 9.13831 11.4818C9.13831 12.5478 8.27106 13.415 7.20497 13.415C6.13921 13.415 5.27179 12.5478 5.27179 11.4818ZM14.1904 15.5962C13.2522 16.3085 11.9072 16.7173 10.5 16.7173C9.09281 16.7173 7.74779 16.3085 6.80956 15.5962C6.53911 15.3907 6.48624 15.0047 6.6918 14.7341C6.89719 14.4636 7.28316 14.4108 7.55392 14.6162C8.28243 15.1694 9.35605 15.4868 10.5 15.4868C11.644 15.4868 12.7177 15.1696 13.4462 14.6162C13.7168 14.4108 14.1028 14.4635 14.3082 14.7341C14.5138 15.0047 14.4609 15.3907 14.1904 15.5962ZM13.795 13.415C12.7289 13.415 11.8617 12.5478 11.8617 11.4818C11.8617 10.4157 12.7289 9.54865 13.795 9.54865C14.861 9.54865 15.7282 10.4157 15.7282 11.4818C15.7282 12.5478 14.861 13.415 13.795 13.415Z" fill="#56636E"/>
</g>
<defs>
<clipPath id="clip0">
<rect width="21" height="21" fill="white"/>
</clipPath>
</defs>
</svg>
