<svg width="15" height="15" viewBox="0 0 15 15" fill="none" xmlns="http://www.w3.org/2000/svg">
<path d="M6.18334 12.5574C6.04693 12.552 5.90948 12.5361 5.77215 12.5099C5.97414 12.4042 6.16663 12.2563 6.30247 12.0487C6.73941 11.3815 6.37915 10.424 6.36358 10.3834C6.31826 10.2659 6.20314 10.1904 6.07714 10.196C6.03388 10.1978 5.01204 10.2506 4.57521 10.9177C4.37998 11.2158 4.34393 11.5718 4.3651 11.878C4.11985 11.6997 3.88617 11.4892 3.67022 11.2496C3.52922 11.0932 3.39956 10.9291 3.28203 10.7593C3.66987 10.7498 4.17238 10.662 4.52887 10.3256C5.17683 9.71431 5.03344 8.57379 5.02703 8.52561C5.01043 8.40064 4.91579 8.30039 4.79208 8.27658C4.74424 8.26731 3.61403 8.05777 2.96606 8.66912C2.7936 8.83174 2.67733 9.03178 2.59939 9.2388C2.55407 9.03979 2.52523 8.84055 2.51413 8.64348C2.77437 8.39309 3.35482 7.74626 3.30629 6.99954C3.24507 6.05986 2.21693 5.40641 2.17321 5.37905C2.06644 5.31233 1.92888 5.32126 1.83161 5.40126C1.79178 5.4341 0.857028 6.21527 0.91814 7.15495C0.967578 7.91346 1.6469 8.48544 1.93003 8.69223C1.94925 9.00821 2.00739 9.3283 2.101 9.64496C1.91881 9.55523 1.71465 9.49401 1.49641 9.49401C1.49343 9.49401 1.49023 9.49401 1.48725 9.49401C0.682391 9.5003 0.0791731 10.3392 0.0538816 10.3749C-0.0189028 10.4777 -0.0178729 10.6155 0.0565138 10.7173C0.082263 10.7524 0.69395 11.5757 1.49435 11.5757C1.49744 11.5757 1.50053 11.5757 1.50351 11.5756C2.02501 11.5716 2.46183 11.2181 2.71166 10.9599C2.86592 11.198 3.04102 11.4267 3.235 11.642C3.31579 11.7316 3.39899 11.8177 3.48425 11.9001C3.40185 11.9096 3.31945 11.9265 3.23763 11.9521C2.38985 12.2176 2.02112 13.3028 2.0059 13.3488C1.96619 13.4684 2.00739 13.6 2.10821 13.6756C2.14071 13.6999 2.79245 14.1812 3.5013 14.1812C3.63897 14.1812 3.77893 14.163 3.91684 14.1197C4.55519 13.9198 4.92186 13.255 5.07063 12.9192C5.42986 13.0522 5.7971 13.1287 6.16057 13.1428C6.16446 13.143 6.16835 13.1431 6.17224 13.1431C6.32868 13.1431 6.45857 13.0194 6.46475 12.8615C6.47093 12.6998 6.34504 12.5637 6.18334 12.5574ZM5.06537 11.2387C5.23382 10.9814 5.61148 10.8591 5.88007 10.8093C5.94187 11.0756 5.98078 11.4705 5.81232 11.7278C5.64375 11.985 5.26609 12.1074 4.99762 12.1572C4.93582 11.8907 4.89691 11.4959 5.06537 11.2387ZM3.36809 9.0953C3.64538 8.8338 4.13931 8.80404 4.45963 8.82544C4.46238 9.14656 4.4039 9.63797 4.12672 9.89947C3.84954 10.161 3.35539 10.1907 3.0353 10.1692C3.03255 9.84809 3.09092 9.35679 3.36809 9.0953ZM1.49893 10.9896C1.49744 10.9896 1.49595 10.9896 1.49435 10.9896C1.18284 10.9896 0.868587 10.7399 0.676784 10.5419C0.850963 10.3552 1.16167 10.0825 1.49183 10.0799H1.49641C1.80826 10.0799 2.12297 10.3303 2.31478 10.5283C2.12503 10.7305 1.81227 10.9872 1.49893 10.9896ZM1.50282 7.11695C1.47558 6.69696 1.80185 6.25716 2.04138 6.00733C2.28456 6.20223 2.69255 6.59281 2.7215 7.03765C2.74885 7.45753 2.42247 7.89733 2.18306 8.14715C1.93987 7.95226 1.53189 7.56167 1.50282 7.11695ZM3.74151 13.5607C3.37976 13.674 2.92486 13.4858 2.64723 13.3273C2.78479 13.0385 3.05098 12.6245 3.41272 12.5111C3.77459 12.3977 4.22949 12.586 4.50701 12.7445C4.36945 13.0333 4.10326 13.4473 3.74151 13.5607Z" fill="#536271"/>
<path d="M14.946 10.3749C14.9207 10.3392 14.3175 9.50032 13.5126 9.49402H13.5125C13.5095 9.49402 13.5066 9.49402 13.5035 9.49402C13.2852 9.49402 13.081 9.55525 12.8989 9.64497C12.9925 9.32831 13.0505 9.00822 13.0697 8.69225C13.353 8.48546 14.0323 7.91348 14.0816 7.15496C14.1429 6.21529 13.2081 5.43412 13.1683 5.40127C13.071 5.32128 12.9334 5.31224 12.8267 5.37907C12.7828 5.40642 11.7548 6.05988 11.6936 6.99955C11.645 7.7464 12.2254 8.3931 12.4858 8.64361C12.4747 8.84057 12.4458 9.03981 12.4004 9.23882C12.3226 9.0318 12.2062 8.83175 12.0338 8.66913C11.3859 8.05779 10.2556 8.26733 10.2078 8.2766C10.0841 8.3004 9.98945 8.40077 9.97286 8.52562C9.96645 8.57392 9.82306 9.71432 10.471 10.3257C10.8275 10.662 11.3299 10.7499 11.7179 10.7593C11.6003 10.9291 11.4707 11.0932 11.3297 11.2497C11.1137 11.4892 10.8799 11.6998 10.6347 11.8781C10.656 11.5718 10.6198 11.2158 10.4247 10.9178V10.9177C9.98774 10.2506 8.96601 10.1979 8.92275 10.196C8.79709 10.1907 8.68151 10.2659 8.6363 10.3836C8.62074 10.424 8.26048 11.3816 8.6973 12.0488C8.83326 12.2563 9.02563 12.4043 9.22773 12.5099C9.09029 12.5361 8.95296 12.552 8.81655 12.5574C8.65484 12.5637 8.52884 12.6999 8.53514 12.8616C8.54132 13.0193 8.67109 13.1431 8.82765 13.1431C8.83154 13.1431 8.83543 13.143 8.83932 13.1429C9.20279 13.1287 9.57003 13.0521 9.92926 12.9192C10.078 13.255 10.4448 13.9197 11.0832 14.1197C11.2211 14.163 11.3608 14.1812 11.4986 14.1812C12.2074 14.1812 12.8592 13.6998 12.8917 13.6755C12.9925 13.5999 13.0337 13.4684 12.9941 13.3489C12.9788 13.3027 12.61 12.2176 11.7624 11.952C11.6805 11.9264 11.598 11.9095 11.5158 11.9001C11.601 11.8176 11.6841 11.7316 11.7649 11.642C11.9589 11.4267 12.134 11.198 12.2883 10.9599C12.5382 11.2181 12.9749 11.5716 13.4964 11.5756H13.5055C14.3059 11.5756 14.9176 10.7524 14.9434 10.7172C15.0178 10.6155 15.0188 10.4778 14.946 10.3749ZM10.5403 8.82546C10.8607 8.80417 11.3546 8.83381 11.6318 9.09531C11.909 9.35681 11.9674 9.84833 11.9647 10.1692C11.6443 10.1906 11.1503 10.1609 10.8732 9.89949C10.5959 9.63788 10.5375 9.14635 10.5403 8.82546ZM9.11959 10.8103C9.36758 10.8554 9.75702 10.9677 9.93452 11.2387C10.1029 11.4957 10.0642 11.8901 10.0025 12.1561C9.75451 12.1109 9.36506 11.9988 9.18756 11.7278C9.01934 11.4708 9.0579 11.0763 9.11959 10.8103ZM12.3527 13.3272C12.0748 13.486 11.62 13.6739 11.2583 13.5606C10.897 13.4474 10.631 13.0343 10.4935 12.7457C10.7454 12.6013 11.2052 12.3914 11.5872 12.5111C11.9489 12.6246 12.2151 13.0386 12.3527 13.3272ZM12.2784 7.03766C12.3057 6.61709 12.6874 6.22273 12.9574 6.00621C13.1971 6.25615 13.5244 6.6964 13.497 7.11697C13.4696 7.53743 13.0879 7.93179 12.818 8.14831C12.5782 7.89837 12.2509 7.458 12.2784 7.03766ZM13.5055 10.9897C13.504 10.9897 13.5024 10.9897 13.501 10.9897C13.1878 10.9872 12.8754 10.731 12.6858 10.5291C12.8621 10.346 13.1748 10.08 13.5034 10.08H13.5081C13.8214 10.0824 14.1343 10.3392 14.3239 10.5412C14.1319 10.7395 13.8174 10.9897 13.5055 10.9897Z" fill="#536271"/>
<path d="M7.49993 13.3214C7.37919 13.3214 7.26864 13.2444 7.22596 13.1317C7.18247 13.0167 7.21772 12.8816 7.3127 12.8032C7.40357 12.7282 7.53392 12.715 7.63795 12.7703C7.74735 12.8285 7.80927 12.9541 7.78878 13.0763C7.76544 13.216 7.64161 13.3214 7.49993 13.3214Z" fill="#536271"/>
<path d="M8.27372 6.35064C8.20689 6.35064 8.13971 6.33748 8.0754 6.31082L7.49999 6.07232L6.92458 6.31082C6.7575 6.38005 6.57038 6.35797 6.42401 6.25165C6.27764 6.14533 6.19879 5.97425 6.21298 5.79389L6.26197 5.17293L5.85742 4.69937C5.73989 4.56181 5.70315 4.37711 5.759 4.20499C5.81496 4.03298 5.95332 3.90515 6.12921 3.86292L6.73484 3.71758L7.06019 3.18646C7.15472 3.0322 7.31906 2.94019 7.49999 2.94019C7.68081 2.94019 7.84526 3.0322 7.93967 3.18646L8.26503 3.71758L8.87076 3.86292C9.04666 3.90515 9.18502 4.03298 9.24087 4.20499C9.29683 4.37699 9.25998 4.56181 9.14256 4.69937L8.7379 5.17293L8.78699 5.79389C8.80118 5.97425 8.72233 6.14533 8.57596 6.25165C8.4859 6.317 8.3805 6.35064 8.27372 6.35064ZM6.37744 4.40595L6.78633 4.88465C6.83692 4.9437 6.86187 5.02049 6.85569 5.09797L6.80613 5.72568L7.38784 5.48455C7.45959 5.4548 7.54039 5.4548 7.61214 5.48455L8.19384 5.72568L8.14429 5.09797C8.13823 5.02049 8.16317 4.9437 8.21364 4.88465L8.62266 4.40595L8.0104 4.259C7.93475 4.24092 7.86952 4.19354 7.82889 4.12717L7.49999 3.59032L7.17109 4.12717C7.13046 4.19354 7.06523 4.24092 6.98958 4.259L6.37744 4.40595Z" fill="#536271"/>
<path d="M7.49977 8.44089C7.2441 8.44089 7.03433 8.32279 6.84928 8.21865C6.74995 8.16269 6.65611 8.10981 6.57714 8.08876C6.49154 8.06587 6.37996 8.06427 6.26174 8.06266C6.05243 8.0598 5.81519 8.05648 5.6013 7.93277C5.38478 7.80735 5.26302 7.60204 5.15567 7.42099C5.09616 7.32063 5.04009 7.22587 4.97955 7.16545C4.91912 7.10502 4.82436 7.04883 4.724 6.98932C4.54284 6.88198 4.33765 6.76021 4.21222 6.54369C4.08851 6.3298 4.08519 6.09256 4.08233 5.88325C4.08073 5.76503 4.07912 5.65334 4.05624 5.56785C4.03518 5.48889 3.98231 5.39504 3.92646 5.29571C3.8222 5.11066 3.7041 4.90089 3.7041 4.64523C3.7041 4.38957 3.8222 4.17991 3.92646 3.99475C3.98231 3.89541 4.03518 3.80157 4.05624 3.7226C4.07912 3.63712 4.08073 3.52542 4.08233 3.4072C4.08519 3.19789 4.08851 2.96066 4.21222 2.74688C4.33765 2.53013 4.54295 2.40848 4.72411 2.30113C4.82436 2.24162 4.91912 2.18555 4.97966 2.12501C5.04009 2.06458 5.09616 1.96983 5.15567 1.86958C5.26302 1.68842 5.38478 1.48311 5.60142 1.3578C5.81519 1.23397 6.05255 1.23077 6.26186 1.22779C6.37996 1.22619 6.49166 1.22459 6.57714 1.20181C6.65611 1.18064 6.74995 1.12777 6.84928 1.07192C7.03433 0.967667 7.24422 0.849564 7.49977 0.849564C7.75543 0.849564 7.9652 0.967667 8.15025 1.07192C8.24958 1.12777 8.34342 1.18064 8.42239 1.20181C8.50788 1.22459 8.61957 1.22619 8.73779 1.22779C8.9471 1.23077 9.18434 1.23397 9.39811 1.3578C9.61475 1.48311 9.73652 1.68842 9.84386 1.86958C9.90326 1.96983 9.95945 2.06458 10.02 2.12501C10.0804 2.18555 10.1752 2.24174 10.2754 2.30113C10.4566 2.40859 10.6619 2.53024 10.7872 2.74688C10.911 2.96066 10.9142 3.19789 10.9172 3.40732C10.9188 3.52542 10.9204 3.63712 10.9432 3.7226C10.9644 3.80168 11.0172 3.89552 11.0731 3.99475C11.1773 4.17991 11.2954 4.38968 11.2954 4.64523C11.2954 4.90077 11.1773 5.11054 11.0731 5.29571C11.0172 5.39504 10.9644 5.48889 10.9432 5.56785C10.9203 5.65345 10.9188 5.76503 10.9172 5.88325C10.9142 6.09256 10.9109 6.3298 10.7872 6.54357C10.6619 6.76021 10.4566 6.88198 10.2754 6.98932C10.1752 7.04883 10.0804 7.10491 10.0199 7.16545C9.95945 7.22587 9.90326 7.32063 9.84386 7.42099C9.7364 7.60204 9.61475 7.80735 9.39811 7.93277C9.18422 8.05648 8.94699 8.05969 8.73767 8.06266C8.61957 8.06427 8.50788 8.06587 8.42239 8.08876C8.34342 8.10981 8.24958 8.16269 8.15025 8.21865C7.9652 8.32279 7.75543 8.44089 7.49977 8.44089ZM7.49977 1.4355C7.3978 1.4355 7.271 1.50691 7.13676 1.58256C7.01007 1.65385 6.87904 1.72767 6.72843 1.76784C6.57257 1.80961 6.41178 1.81178 6.26987 1.81373C6.11892 1.8159 5.97621 1.81785 5.89485 1.865C5.81073 1.91364 5.73737 2.03735 5.65967 2.16838C5.58791 2.28946 5.50643 2.42679 5.39394 2.5394C5.28133 2.65201 5.144 2.73338 5.02281 2.80525C4.89188 2.88284 4.76806 2.95619 4.71942 3.04031C4.67227 3.12179 4.67033 3.26438 4.66827 3.41544C4.66632 3.55735 4.66403 3.71803 4.62238 3.87401C4.58209 4.02461 4.50839 4.15565 4.43698 4.28234C4.36145 4.41646 4.29004 4.54326 4.29004 4.64534C4.29004 4.74731 4.36145 4.87411 4.43698 5.00823C4.50839 5.13504 4.58209 5.26596 4.62238 5.41656C4.66403 5.57243 4.66632 5.73322 4.66827 5.87512C4.67033 6.02607 4.67227 6.16878 4.71942 6.25026C4.76817 6.33438 4.89188 6.40773 5.02281 6.48532C5.144 6.55708 5.28133 6.63856 5.39394 6.75117C5.50655 6.86378 5.58791 7.00111 5.65978 7.12219C5.73737 7.25322 5.81073 7.37693 5.89485 7.42557C5.97633 7.47272 6.11892 7.47467 6.26998 7.47673C6.41178 7.47879 6.57257 7.48096 6.72843 7.52262C6.87904 7.5629 7.01007 7.63671 7.13676 7.70801C7.271 7.78366 7.3978 7.85495 7.49977 7.85495C7.60173 7.85495 7.72853 7.78366 7.86277 7.70801C7.98946 7.6366 8.12049 7.5629 8.2711 7.52262C8.42697 7.48096 8.58776 7.47879 8.72966 7.47673C8.88061 7.47467 9.02332 7.47272 9.1048 7.42557C9.18891 7.37693 9.26216 7.25311 9.33986 7.12219C9.41173 7.001 9.4931 6.86367 9.60559 6.75106C9.71832 6.63845 9.85553 6.55708 9.97673 6.48532C10.1078 6.40762 10.2315 6.33426 10.2801 6.25026C10.3273 6.16878 10.3292 6.02607 10.3313 5.87512C10.3333 5.73322 10.3355 5.57243 10.3772 5.41656C10.4174 5.26596 10.4913 5.13492 10.5626 5.00823C10.6381 4.87399 10.7095 4.74719 10.7095 4.64523C10.7095 4.54326 10.6381 4.41646 10.5626 4.28222C10.4911 4.15553 10.4174 4.0245 10.3772 3.8739C10.3355 3.71803 10.3332 3.55724 10.3313 3.41533C10.3292 3.26438 10.3273 3.12179 10.2801 3.04031C10.2315 2.95619 10.1076 2.88284 9.97661 2.80513C9.85553 2.73338 9.7182 2.65201 9.60559 2.5394C9.49298 2.42679 9.41162 2.28946 9.33986 2.16827C9.26216 2.03723 9.1888 1.91352 9.10469 1.86488C9.0232 1.81785 8.88061 1.81579 8.72955 1.81373C8.58776 1.81178 8.42697 1.80949 8.27098 1.76784C8.12049 1.72755 7.98946 1.65374 7.86277 1.58244C7.72853 1.50691 7.60173 1.4355 7.49977 1.4355Z" fill="#536271"/>
</svg>
