<svg width="12" height="13" viewBox="0 0 12 13" fill="none" xmlns="http://www.w3.org/2000/svg">
<path d="M11.8175 11.8409L8.85934 8.623C9.61995 7.67732 10.0367 6.48745 10.0367 5.24874C10.0367 2.35463 7.78542 0 5.01834 0C2.25127 0 0 2.35463 0 5.24874C0 8.14286 2.25127 10.4975 5.01834 10.4975C6.05714 10.4975 7.04707 10.1698 7.89342 9.5477L10.8741 12.7901C10.9987 12.9254 11.1663 13 11.3458 13C11.5158 13 11.677 12.9322 11.7994 12.809C12.0595 12.5472 12.0678 12.1132 11.8175 11.8409ZM5.01834 1.36924C7.06365 1.36924 8.72756 3.10954 8.72756 5.24874C8.72756 7.38795 7.06365 9.12825 5.01834 9.12825C2.97304 9.12825 1.30913 7.38795 1.30913 5.24874C1.30913 3.10954 2.97304 1.36924 5.01834 1.36924Z" fill="#475460"/>
</svg>
