<svg width="34" height="33" viewBox="0 0 34 33" fill="none" xmlns="http://www.w3.org/2000/svg">
<path d="M22.8477 3.85165H18.3046V6.47314H22.8477V3.85165Z" fill="#C6C6C6"/>
<path d="M18.1854 3.85164H22.9668C23.847 3.85164 24.5605 3.13809 24.5605 2.25787C24.5605 1.37764 23.847 0.664093 22.9668 0.664093H18.1854C17.3052 0.664093 16.5917 1.37764 16.5917 2.25787C16.5917 3.13809 17.3052 3.85164 18.1854 3.85164Z" fill="#C6C6C6"/>
<path d="M20.5863 31.9735C27.628 31.9735 33.3365 26.265 33.3365 19.2233C33.3365 12.1816 27.628 6.47314 20.5863 6.47314C13.5446 6.47314 7.83612 12.1816 7.83612 19.2233C7.83612 26.265 13.5446 31.9735 20.5863 31.9735Z" fill="#E0073E"/>
<path d="M20.5863 28.8609C25.909 28.8609 30.2239 24.546 30.2239 19.2233C30.2239 13.9006 25.909 9.58569 20.5863 9.58569C15.2636 9.58569 10.9487 13.9006 10.9487 19.2233C10.9487 24.546 15.2636 28.8609 20.5863 28.8609Z" fill="white"/>
<path d="M20.5863 20.6227C21.3592 20.6227 21.9857 19.9962 21.9857 19.2233C21.9857 18.4504 21.3592 17.8239 20.5863 17.8239C19.8134 17.8239 19.1868 18.4504 19.1868 19.2233C19.1868 19.9962 19.8134 20.6227 20.5863 20.6227Z" fill="#C6C6C6"/>
<path d="M33.9344 17.889C33.6291 14.8185 32.2574 11.9237 30.0716 9.73795C28.2037 7.87012 25.9175 6.66981 23.5118 6.13609V4.44882C24.4944 4.20437 25.2247 3.31498 25.2247 2.25784C25.2247 1.01284 24.2119 0 22.9669 0H18.1855C16.9405 0 15.9277 1.01284 15.9277 2.25784C15.9277 3.31491 16.658 4.20431 17.6405 4.44882V6.14081C15.2422 6.67678 12.9635 7.87543 11.101 9.73802C10.6934 10.1456 10.3175 10.5732 9.97343 11.0176C9.95676 11.0164 9.94009 11.0151 9.92309 11.0151H5.19085C4.82415 11.0151 4.52678 11.3124 4.52678 11.6792C4.52678 12.0459 4.82415 12.3432 5.19085 12.3432H9.06983C8.58293 13.1584 8.19033 14.0144 7.8915 14.8957H0.664072C0.297371 14.8957 0 15.193 0 15.5597C0 15.9265 0.297371 16.2238 0.664072 16.2238H7.51623C7.32485 17.0639 7.21501 17.9189 7.18665 18.7763H4.25006C3.88336 18.7763 3.58599 19.0736 3.58599 19.4404C3.58599 19.8071 3.88336 20.1044 4.25006 20.1044H7.20784C7.26388 20.964 7.40208 21.8191 7.62248 22.6569H3.32036C2.95366 22.6569 2.65629 22.9542 2.65629 23.321C2.65629 23.6878 2.95366 23.9851 3.32036 23.9851H8.04629C8.69775 25.7084 9.71584 27.3236 11.101 28.7088C13.2888 30.8966 16.1866 32.2687 19.2603 32.5724C19.699 32.6157 20.138 32.6371 20.5764 32.6371C23.1677 32.6371 25.7261 31.8872 27.897 30.4735C28.2043 30.2734 28.2913 29.862 28.0911 29.5547C27.891 29.2473 27.4796 29.1604 27.1722 29.3605C22.4203 32.4549 16.0563 31.7859 12.0401 27.7696C7.3277 23.0572 7.3277 15.3897 12.0401 10.6772C16.7524 5.96489 24.42 5.96489 29.1324 10.6772C33.1434 14.6882 33.8161 21.0468 30.7319 25.7963C30.5322 26.1039 30.6196 26.5153 30.9272 26.7149C31.2349 26.9147 31.6461 26.8272 31.8458 26.5196C33.4936 23.9819 34.2354 20.9169 33.9344 17.889ZM17.2558 2.25791C17.2558 1.74525 17.6729 1.32821 18.1855 1.32821H22.9669C23.4795 1.32821 23.8966 1.74525 23.8966 2.25791C23.8966 2.77057 23.4795 3.18761 22.9669 3.18761H22.8477H18.3046H18.1855C17.6729 3.18761 17.2558 2.77051 17.2558 2.25791ZM18.9687 5.9125V4.51576H22.1837V5.91011C21.1161 5.78314 20.036 5.78393 18.9687 5.9125Z" fill="#384654"/>
<path d="M29.6023 27.5748C29.427 27.5748 29.2563 27.6459 29.1329 27.7694C29.0087 27.8929 28.9382 28.0642 28.9382 28.2389C28.9382 28.4135 29.0087 28.5848 29.1329 28.7084C29.2563 28.8325 29.427 28.9029 29.6023 28.9029C29.7769 28.9029 29.9476 28.8325 30.0718 28.7084C30.1953 28.5848 30.2664 28.4135 30.2664 28.2389C30.2664 28.0642 30.1954 27.8929 30.0718 27.7694C29.9476 27.6459 29.7769 27.5748 29.6023 27.5748Z" fill="#384654"/>
<path d="M20.5863 8.9216C14.906 8.9216 10.2847 13.5429 10.2847 19.2233C10.2847 24.9037 14.906 29.525 20.5863 29.525C26.2667 29.525 30.888 24.9037 30.888 19.2233C30.888 13.5429 26.2667 8.9216 20.5863 8.9216ZM20.5863 28.1968C15.6383 28.1968 11.6128 24.1713 11.6128 19.2233C11.6128 14.2753 15.6383 10.2497 20.5863 10.2497C25.5344 10.2497 29.5599 14.2753 29.5599 19.2233C29.5599 24.1713 25.5344 28.1968 20.5863 28.1968Z" fill="black"/>
<path d="M24.787 14.0835L21.4978 17.3726C21.2228 17.2366 20.9134 17.1597 20.5863 17.1597C20.2592 17.1597 19.9499 17.2366 19.6748 17.3726L18.2028 15.9005C17.9434 15.6412 17.523 15.6412 17.2636 15.9005C17.0043 16.1599 17.0043 16.5803 17.2636 16.8397L18.7356 18.3117C18.5996 18.5868 18.5228 18.8962 18.5228 19.2232C18.5228 20.361 19.4484 21.2868 20.5863 21.2868C21.7242 21.2868 22.6499 20.361 22.6499 19.2232C22.6499 18.8962 22.573 18.5868 22.437 18.3117L25.6296 15.1191L25.7261 15.0226C25.9854 14.7633 25.9854 14.3428 25.7261 14.0835C25.4668 13.8242 25.0464 13.8242 24.787 14.0835ZM20.5863 19.9587C20.1808 19.9587 19.8509 19.6288 19.8509 19.2233C19.8509 18.8178 20.1808 18.4879 20.5863 18.4879C20.9918 18.4879 21.3217 18.8178 21.3217 19.2233C21.3217 19.6288 20.9918 19.9587 20.5863 19.9587Z" fill="black"/>
<path d="M27.6864 18.5673H27.0712C26.7045 18.5673 26.4071 18.8646 26.4071 19.2314C26.4071 19.5981 26.7045 19.8954 27.0712 19.8954H27.6864C28.0531 19.8954 28.3505 19.5981 28.3505 19.2314C28.3505 18.8646 28.0531 18.5673 27.6864 18.5673Z" fill="black"/>
<path d="M14.1013 18.5511H13.4861C13.1194 18.5511 12.822 18.8484 12.822 19.2152C12.822 19.5819 13.1194 19.8792 13.4861 19.8792H14.1013C14.468 19.8792 14.7653 19.5819 14.7653 19.2152C14.7653 18.8484 14.468 18.5511 14.1013 18.5511Z" fill="black"/>
<path d="M20.5944 13.4024C20.9611 13.4024 21.2585 13.1051 21.2585 12.7383V12.1231C21.2585 11.7563 20.9611 11.459 20.5944 11.459C20.2277 11.459 19.9304 11.7563 19.9304 12.1231V12.7383C19.9304 13.1051 20.2277 13.4024 20.5944 13.4024Z" fill="black"/>
<path d="M20.5782 25.0442C20.2116 25.0442 19.9142 25.3415 19.9142 25.7083V26.3235C19.9142 26.6902 20.2116 26.9875 20.5782 26.9875C20.9449 26.9875 21.2423 26.6902 21.2423 26.3235V25.7083C21.2423 25.3415 20.9449 25.0442 20.5782 25.0442Z" fill="black"/>
<path d="M0.664062 22.6567C0.489413 22.6567 0.318085 22.7277 0.19457 22.8512C0.0710546 22.9748 0 23.1461 0 23.3207C0 23.4961 0.0709882 23.6667 0.19457 23.7902C0.318152 23.9137 0.489413 23.9848 0.664062 23.9848C0.83871 23.9848 1.01004 23.9137 1.13349 23.7902C1.257 23.6667 1.32812 23.4954 1.32812 23.3207C1.32812 23.1461 1.25707 22.9748 1.13349 22.8512C1.01004 22.7277 0.83871 22.6567 0.664062 22.6567Z" fill="#2F3F4D"/>
</svg>
