<svg width="19" height="19" viewBox="0 0 19 19" fill="none" xmlns="http://www.w3.org/2000/svg">
<path fill-rule="evenodd" clip-rule="evenodd" d="M18.9405 8.44514C18.9105 8.17805 18.5991 7.97735 18.3298 7.97735C17.4592 7.97735 16.6866 7.46617 16.3626 6.6756C16.0316 5.86587 16.2451 4.92155 16.8939 4.32637C17.0982 4.13967 17.123 3.82714 16.9517 3.61003C16.5061 3.0442 15.9996 2.53309 15.4466 2.09012C15.2301 1.91635 14.9124 1.94053 14.7246 2.14844C14.1583 2.77557 13.1412 3.00864 12.3552 2.68069C11.5372 2.33663 11.0214 1.50781 11.0719 0.618133C11.0885 0.33868 10.8843 0.0957055 10.6057 0.0632571C9.89604 -0.0188184 9.18018 -0.0213634 8.46842 0.0576016C8.19299 0.0879999 7.98875 0.325248 7.99801 0.601166C8.02898 1.48208 7.50696 2.2964 6.69714 2.6281C5.92055 2.9453 4.91053 2.7142 4.34539 2.09266C4.15861 1.88793 3.84606 1.86277 3.62846 2.03236C3.05908 2.47908 2.54124 2.99062 2.09154 3.55178C1.91615 3.76994 1.94195 4.08616 2.14824 4.27385C2.80945 4.87263 3.02295 5.82515 2.67945 6.64421C2.35149 7.42509 1.54061 7.92836 0.612309 7.92836C0.311075 7.91868 0.0965142 8.12086 0.0635701 8.39473C-0.019992 9.10845 -0.0209818 9.83568 0.0594697 10.5552C0.0893032 10.8234 0.41019 11.0223 0.682439 11.0223C1.50972 11.0012 2.30398 11.5134 2.63717 12.3242C2.9693 13.1339 2.7558 14.0777 2.10596 14.6733C1.90271 14.86 1.87691 15.1721 2.04821 15.3892C2.48963 15.9514 2.99616 16.463 3.55112 16.9097C3.76879 17.085 4.08551 17.0603 4.2742 16.8524C4.84259 16.2237 5.85968 15.9911 6.64257 16.3196C7.46256 16.6627 7.97836 17.4914 7.92788 18.3816C7.91141 18.6612 8.11664 18.9046 8.39412 18.9365C8.75714 18.9789 9.12235 19 9.48855 19C9.83617 19 10.1838 18.9809 10.5315 18.9422C10.807 18.9118 11.0111 18.6746 11.0018 18.3982C10.9699 17.5178 11.4928 16.7034 12.3016 16.3723C13.0834 16.053 14.0892 16.2867 14.6544 16.9076C14.8423 17.1119 15.1526 17.1366 15.3714 16.9676C15.9397 16.5219 16.4565 16.0108 16.9083 15.4481C17.0837 15.2304 17.0589 14.9137 16.8516 14.7261C16.1903 14.1273 15.9758 13.1746 16.3193 12.3561C16.6422 11.5856 17.423 11.0683 18.2628 11.0683L18.3803 11.0713C18.6527 11.0935 18.9033 10.8836 18.9363 10.6056C19.02 9.89125 19.021 9.16466 18.9405 8.44514ZM9.51507 12.6889C7.76761 12.6889 6.34621 11.2675 6.34621 9.52011C6.34621 7.77277 7.76761 6.35133 9.51507 6.35133C11.2624 6.35133 12.6839 7.77277 12.6839 9.52011C12.6839 11.2675 11.2624 12.6889 9.51507 12.6889Z" fill="#66788D"/>
</svg>
