<svg width="12" height="11" viewBox="0 0 12 11" fill="none" xmlns="http://www.w3.org/2000/svg">
<path d="M11.8648 7.96094L9.61487 6.08596C9.50313 5.99222 9.34713 5.97347 9.21588 6.03421C9.08388 6.09646 8.99988 6.22846 8.99988 6.37396V7.49895H8.37214C7.85165 7.49895 7.37615 7.23495 7.10016 6.79395L4.67169 2.909C4.12045 2.02627 3.16946 1.49902 2.12772 1.49902H0V2.999H2.12772C2.64822 2.999 3.12371 3.263 3.39971 3.70399L5.82817 7.58894C6.38017 8.47168 7.33115 8.99893 8.37214 8.99893H8.99988V10.1239C8.99988 10.2694 9.08388 10.4014 9.21588 10.4637C9.26613 10.4869 9.32088 10.4989 9.37488 10.4989C9.46113 10.4989 9.54663 10.4697 9.61487 10.4119L11.8648 8.53693C11.9511 8.46568 11.9998 8.35993 11.9998 8.24894C11.9998 8.13794 11.9511 8.03219 11.8648 7.96094Z" fill="#859CB1"/>
<path d="M11.8649 1.96142L9.61495 0.0864413C9.50321 -0.00655749 9.34721 -0.0260573 9.21596 0.0354419C9.08396 0.0961911 8.99996 0.228939 8.99996 0.374438V1.49942H8.37222C7.33048 1.49942 6.3795 2.02667 5.82825 2.9094L5.6925 3.1269L6.57674 4.54213L7.10024 3.70439C7.37623 3.2634 7.85173 2.9994 8.37222 2.9994H8.99996V4.12439C8.99996 4.26989 9.08396 4.40263 9.21596 4.46413C9.26621 4.48738 9.32096 4.49938 9.37496 4.49938C9.46121 4.49938 9.5467 4.46938 9.61495 4.41238L11.8649 2.53741C11.9512 2.46616 11.9999 2.36041 11.9999 2.24941C11.9999 2.13841 11.9512 2.03267 11.8649 1.96142Z" fill="#859CB1"/>
<path d="M3.9232 5.95654L3.40046 6.79428C3.12446 7.23528 2.64822 7.49927 2.12772 7.49927H0V8.99925H2.12772C3.16871 8.99925 4.1197 8.47201 4.67169 7.58927L4.80744 7.37177L3.9232 5.95654Z" fill="#859CB1"/>
</svg>
