<svg width="15" height="15" viewBox="0 0 15 15" fill="none" xmlns="http://www.w3.org/2000/svg">
<path d="M1.58641 14.7279L4.54339 11.771L5.52895 12.7566C5.79471 13.0224 6.19441 13.1018 6.54164 12.9581C6.88887 12.8142 7.11523 12.4754 7.11523 12.0995V8.8142C7.11523 8.301 6.69918 7.88495 6.18599 7.88495L2.90061 7.88489C2.90017 7.88495 2.89986 7.88495 2.89943 7.88489C2.38618 7.88489 1.97018 8.30094 1.97018 8.81413C1.97018 9.08529 2.08634 9.32931 2.27157 9.49924L3.22919 10.4569L0.272329 13.4137C-0.0905728 13.7766 -0.0905728 14.3649 0.272329 14.7278C0.635107 15.0908 1.22357 15.0907 1.58641 14.7279Z" fill="#8FA0B1"/>
<path d="M8.81429 7.11499H12.0997C12.4755 7.11499 12.8143 6.88856 12.9582 6.54134C13.102 6.19411 13.0225 5.79441 12.7567 5.52864L11.771 4.54296L14.7278 1.5861C15.0907 1.2232 15.0907 0.634862 14.7278 0.271961C14.5464 0.0905099 14.3085 -0.000184059 14.0708 -0.000184059C13.833 -0.000184059 13.5951 0.0905099 13.4137 0.272023L10.4569 3.22888L9.47133 2.24326C9.29359 2.06547 9.05589 1.97106 8.8141 1.97106C8.69435 1.97106 8.57361 1.99416 8.4587 2.0418C8.11147 2.18565 7.88504 2.52452 7.88504 2.9003V6.18574C7.88504 6.69894 8.3011 7.11499 8.81429 7.11499Z" fill="#8FA0B1"/>
</svg>
