<svg width="16" height="14" viewBox="0 0 16 14" fill="none" xmlns="http://www.w3.org/2000/svg">
<path d="M14.904 3.31569C14.7447 3.15646 14.5514 3.07678 14.3238 3.07678H11.866V2.25757C11.866 1.88209 11.7325 1.56074 11.465 1.29328C11.1976 1.02591 10.876 0.892242 10.5006 0.892242H5.58513C5.20965 0.892242 4.88815 1.02588 4.62075 1.29328C4.35332 1.56071 4.21968 1.88206 4.21968 2.25757V3.07681H1.76186C1.53434 3.07681 1.34092 3.1564 1.18157 3.31572C1.02222 3.47503 0.942627 3.66848 0.942627 3.89607V4.98838C0.942627 5.39226 1.06066 5.79907 1.2968 6.20874C1.53287 6.61833 1.85141 6.98825 2.2526 7.31809C2.65364 7.64808 3.14575 7.92546 3.72894 8.15021C4.31216 8.37495 4.92512 8.50157 5.56806 8.5299C5.80707 8.8373 6.07722 9.10742 6.37875 9.34056C6.59501 9.53398 6.74425 9.74007 6.82677 9.95941C6.90921 10.1783 6.95046 10.4329 6.95046 10.7231C6.95046 11.0304 6.86378 11.2892 6.69018 11.4995C6.51675 11.7102 6.23937 11.8154 5.85821 11.8154C5.43146 11.8154 5.05177 11.9448 4.71891 12.2036C4.38611 12.4626 4.21968 12.7883 4.21968 13.1809V13.7269C4.21968 13.8067 4.24524 13.8722 4.29644 13.9233C4.34767 13.9745 4.41304 14 4.49273 14H11.593C11.6728 14 11.7381 13.9745 11.7894 13.9233C11.8403 13.8722 11.8659 13.8067 11.8659 13.7269V13.1809C11.8659 12.7883 11.6996 12.4627 11.3665 12.2036C11.0337 11.9448 10.654 11.8154 10.2272 11.8154C9.8462 11.8154 9.5687 11.7102 9.39543 11.4995C9.22194 11.2892 9.13541 11.0304 9.13541 10.7231C9.13541 10.4328 9.17654 10.1783 9.25898 9.95941C9.34166 9.74007 9.49099 9.5341 9.707 9.34056C10.0086 9.10733 10.2788 8.83706 10.5175 8.5299C11.1608 8.50157 11.7736 8.37492 12.3569 8.15021C12.9399 7.92546 13.4322 7.64808 13.8332 7.31809C14.2343 6.98813 14.5529 6.61833 14.789 6.20874C15.025 5.79907 15.1431 5.39229 15.1431 4.98838V3.89607C15.143 3.6686 15.0633 3.47509 14.904 3.31569ZM2.84141 6.37078C2.30377 5.89292 2.035 5.43207 2.035 4.98829V4.16906H4.21965C4.21965 5.35821 4.43008 6.41352 4.85111 7.33516C4.04904 7.17023 3.37911 6.84863 2.84141 6.37078ZM14.0506 4.98838C14.0506 5.43216 13.782 5.89313 13.2444 6.37096C12.7065 6.84881 12.0366 7.17031 11.2346 7.33525C11.6556 6.41364 11.866 5.3583 11.866 4.16915H14.0506V4.98838Z" fill="#647280"/>
</svg>
