<svg width="22" height="22" viewBox="0 0 22 22" fill="none" xmlns="http://www.w3.org/2000/svg">
<g clip-path="url(#clip0)">
<path d="M22 4.17923C21.1903 4.53803 20.3215 4.78136 19.4086 4.88999C20.3407 4.33183 21.0542 3.44651 21.3924 2.39482C20.518 2.91172 19.553 3.28705 18.5246 3.49051C17.7012 2.61206 16.5299 2.0649 15.2307 2.0649C12.7383 2.0649 10.7175 4.08577 10.7175 6.57681C10.7175 6.9301 10.7573 7.27516 10.8343 7.60513C7.08406 7.41676 3.75857 5.61998 1.53287 2.88972C1.14381 3.55511 0.922479 4.33043 0.922479 5.15806C0.922479 6.7239 1.71984 8.10552 2.92962 8.91384C2.19 8.88911 1.49437 8.68565 0.885381 8.34745V8.40381C0.885381 10.5897 2.44159 12.4139 4.50506 12.8291C4.127 12.9309 3.72834 12.9872 3.31591 12.9872C3.02449 12.9872 2.74266 12.9584 2.46633 12.9034C3.04095 14.6974 4.70716 16.002 6.6813 16.0378C5.13746 17.2476 3.19082 17.9666 1.07648 17.9666C0.712185 17.9666 0.353355 17.9446 6.10352e-05 17.9047C1.99757 19.1873 4.369 19.9352 6.91777 19.9352C15.2198 19.9352 19.7579 13.0587 19.7579 7.0951L19.7427 6.51084C20.6294 5.87841 21.3965 5.08382 22 4.17923Z" fill="#56636E"/>
</g>
<defs>
<clipPath id="clip0">
<rect width="22" height="22" fill="white"/>
</clipPath>
</defs>
</svg>
