<svg width="18" height="18" viewBox="0 0 18 18" fill="none" xmlns="http://www.w3.org/2000/svg">
<path d="M6.784 7.43704C7.46698 7.43704 8.02065 6.88337 8.02065 6.20039C8.02065 5.51741 7.46698 4.96375 6.784 4.96375C6.10103 4.96375 5.54736 5.51741 5.54736 6.20039C5.54736 6.88337 6.10103 7.43704 6.784 7.43704Z" fill="#596A77"/>
<path d="M16.9351 10.7519C16.3511 10.2023 15.6126 9.84159 14.8053 9.73853V3.45227C14.8053 2.78243 14.5305 2.18128 14.1011 1.73472C13.6546 1.28815 13.0534 1.03052 12.3836 1.03052H2.42176C1.75191 1.03052 1.15076 1.30533 0.704198 1.73472C0.257634 2.18128 0 2.78243 0 3.45227V11.3702V12.1088V13.7061C0 14.3759 0.274809 14.9771 0.704198 15.4236C1.15076 15.8702 1.75191 16.1278 2.42176 16.1278H12.0573C12.6927 16.6431 13.4828 16.9694 14.3588 16.9694C15.3721 16.9694 16.2824 16.5572 16.9351 15.9046C17.5878 15.2519 18 14.3416 18 13.3282C18 12.3149 17.5878 11.4046 16.9351 10.7519ZM0.910305 3.45227C0.910305 3.04006 1.08206 2.6622 1.35687 2.38739C1.63168 2.11258 2.00954 1.94082 2.42176 1.94082H12.3836C12.7958 1.94082 13.1737 2.11258 13.4485 2.38739C13.7233 2.6622 13.895 3.04006 13.895 3.45227V8.81105L11.3531 6.28624C11.1813 6.11449 10.8893 6.09731 10.7004 6.28624L6.87023 10.1336L4.27672 7.52288C4.10496 7.35113 3.81298 7.33395 3.62405 7.52288L0.910305 10.271V3.45227V3.45227ZM2.40458 15.2347V15.2175C1.99237 15.2175 1.6145 15.0458 1.33969 14.771C1.08206 14.4962 0.910305 14.1183 0.910305 13.7061V12.1088V11.5591L3.96756 8.50189L6.56107 11.0954C6.73282 11.2672 7.02481 11.2672 7.21374 11.0954L11.0439 7.24808L13.5515 9.77288C13.5 9.79006 13.4485 9.80724 13.3969 9.82441C13.3282 9.84159 13.2595 9.85876 13.1737 9.89311C13.105 9.91029 13.0363 9.94464 12.9676 9.96182C12.916 9.97899 12.8817 9.99617 12.8302 10.0305C12.7614 10.0649 12.7099 10.082 12.6584 10.1164C12.5725 10.1679 12.4866 10.2194 12.4008 10.271C12.3492 10.3053 12.3149 10.3225 12.2634 10.3569C12.229 10.374 12.2118 10.3912 12.1775 10.4084C12.0229 10.5114 11.8855 10.6317 11.7653 10.7691C11.1126 11.4217 10.7004 12.332 10.7004 13.3454C10.7004 13.603 10.7347 13.8435 10.7863 14.1011C10.8034 14.1698 10.8206 14.2214 10.8378 14.2901C10.8893 14.4618 10.9408 14.6336 11.0095 14.8053V14.8225C11.0782 14.9599 11.1469 15.1145 11.2328 15.2347H2.40458V15.2347ZM16.2653 15.2519C15.7672 15.75 15.0973 16.042 14.3416 16.042C13.6202 16.042 12.9504 15.75 12.4695 15.2862C12.4008 15.2175 12.3321 15.1317 12.2634 15.063C12.2118 15.0114 12.1603 14.9427 12.1088 14.8912C12.0401 14.8053 11.9885 14.7023 11.937 14.5992C11.9027 14.5305 11.8683 14.479 11.834 14.4103C11.7996 14.3244 11.7653 14.2214 11.7481 14.1183C11.7309 14.0496 11.6966 13.9637 11.6794 13.895C11.645 13.7233 11.6279 13.5343 11.6279 13.3454C11.6279 12.5897 11.937 11.9198 12.4179 11.4217C12.916 10.9236 13.5859 10.6317 14.3416 10.6317C15.0973 10.6317 15.7672 10.9408 16.2653 11.4217C16.7634 11.9027 17.0553 12.5897 17.0553 13.3454C17.0553 14.084 16.7462 14.7538 16.2653 15.2519Z" fill="#596A77"/>
<path d="M15.8358 12.8645H14.7881V11.8168C14.7881 11.5591 14.5819 11.353 14.3243 11.353C14.0667 11.353 13.8606 11.5591 13.8606 11.8168V12.8645H12.8129C12.5552 12.8645 12.3491 13.0706 12.3491 13.3282C12.3491 13.5859 12.5552 13.792 12.8129 13.792H13.8606V14.8397C13.8606 15.0973 14.0667 15.3034 14.3243 15.3034C14.5819 15.3034 14.7881 15.0973 14.7881 14.8397V13.792H15.8358C16.0934 13.792 16.2995 13.5859 16.2995 13.3282C16.2995 13.0706 16.0934 12.8645 15.8358 12.8645Z" fill="#596A77"/>
</svg>
