<svg width="102" height="102" viewBox="0 0 102 102" fill="none" xmlns="http://www.w3.org/2000/svg">
<path d="M99.1145 30.918C97.3481 29.8258 95.0766 29.7264 93.2226 30.6547L77.873 38.2977V30.0229C77.873 26.7154 75.2727 24.1116 71.9652 24.1116H36.04L22.63 8.22514C20.4952 5.70143 16.7196 5.36306 14.19 7.50232C11.6663 9.63882 11.3505 13.4089 13.4882 15.934L79.3698 93.7892C80.5542 95.1886 82.2417 95.9071 83.9437 95.9071C85.3093 95.9071 86.684 95.4408 87.8099 94.4889C90.3336 92.3526 90.6102 88.5721 88.4725 86.0468L77.873 73.5663V69.6623L93.1996 77.3052C94.0449 77.7277 94.9842 77.9368 95.8995 77.9368C96.9932 77.9368 98.1425 77.6371 99.1046 77.042C100.868 75.9512 102 74.024 102 71.9477V36.0123C102 33.9358 100.878 32.0088 99.1145 30.918Z" fill="#212D38"/>
<path d="M0 30.023V77.937C0 81.2445 2.77322 83.9387 6.08077 83.9387H57.2291L5.86088 24.0576C2.6369 24.152 0 26.7747 0 30.023Z" fill="#212D38"/>
</svg>
