<svg width="25" height="25" viewBox="0 0 25 25" fill="none" xmlns="http://www.w3.org/2000/svg">
<path d="M10.3056 20.9289C10.0782 20.92 9.84914 20.8935 9.62025 20.8498C9.9569 20.6737 10.2777 20.4271 10.5041 20.0811C11.2323 18.9691 10.6319 17.3732 10.606 17.3057C10.5304 17.1098 10.3386 16.984 10.1286 16.9933C10.0565 16.9964 8.35339 17.0843 7.62536 18.1961C7.29996 18.6929 7.23988 19.2863 7.27517 19.7967C6.86642 19.4996 6.47694 19.1486 6.11703 18.7494C5.88204 18.4887 5.66594 18.2152 5.47005 17.9321C6.11645 17.9163 6.95397 17.77 7.54811 17.2094C8.62805 16.1905 8.38906 14.2896 8.37838 14.2093C8.35072 14.0011 8.19299 13.834 7.9868 13.7943C7.90707 13.7788 6.02338 13.4296 4.94343 14.4485C4.656 14.7196 4.46221 15.053 4.33232 15.398C4.25679 15.0663 4.20872 14.7342 4.19022 14.4058C4.62395 13.9885 5.59136 12.9104 5.51049 11.6659C5.40845 10.0998 3.69488 9.01066 3.62202 8.96508C3.44407 8.85388 3.2148 8.86876 3.05268 9.00208C2.9863 9.05682 1.42838 10.3588 1.53023 11.9249C1.61263 13.1891 2.74483 14.1424 3.21671 14.487C3.24875 15.0137 3.34565 15.5472 3.50167 16.0749C3.19802 15.9254 2.85775 15.8233 2.49402 15.8233C2.48906 15.8233 2.48372 15.8233 2.47876 15.8233C1.13732 15.8338 0.131955 17.2319 0.0898027 17.2914C-0.0315047 17.4629 -0.0297881 17.6925 0.0941896 17.8621C0.137105 17.9207 1.15658 19.2928 2.49058 19.2928C2.49573 19.2928 2.50088 19.2928 2.50584 19.2926C3.37502 19.2859 4.10306 18.6968 4.51943 18.2665C4.77654 18.6634 5.06837 19.0445 5.39166 19.4032C5.52632 19.5526 5.66498 19.6962 5.80708 19.8335C5.66975 19.8494 5.53242 19.8774 5.39605 19.9201C3.98308 20.3626 3.36854 22.1714 3.34317 22.2481C3.27698 22.4474 3.34565 22.6667 3.51369 22.7926C3.56785 22.8332 4.65409 23.6353 5.8355 23.6353C6.06496 23.6353 6.29822 23.6049 6.52806 23.5328C7.59198 23.1996 8.20309 22.0917 8.45105 21.532C9.04977 21.7537 9.66183 21.8811 10.2676 21.9047C10.2741 21.9049 10.2806 21.9051 10.2871 21.9051C10.5478 21.9051 10.7643 21.6989 10.7746 21.4359C10.7849 21.1664 10.5751 20.9394 10.3056 20.9289ZM8.44228 18.7311C8.72304 18.3023 9.35246 18.0984 9.80012 18.0155C9.90311 18.4593 9.96796 19.1175 9.6872 19.5463C9.40625 19.9751 8.77682 20.179 8.32936 20.2619C8.22636 19.8179 8.16151 19.1599 8.44228 18.7311ZM5.61349 15.1588C6.07564 14.723 6.89885 14.6734 7.43272 14.7091C7.43729 15.2443 7.33983 16.0633 6.87787 16.4991C6.41591 16.9349 5.59231 16.9845 5.05883 16.9487C5.05425 16.4135 5.15153 15.5946 5.61349 15.1588ZM2.49821 18.3161C2.49573 18.3161 2.49325 18.3161 2.49058 18.3161C1.9714 18.3161 1.44764 17.8999 1.12797 17.5699C1.41827 17.2586 1.93612 16.8041 2.48639 16.7999H2.49402C3.01377 16.7999 3.53829 17.2172 3.85796 17.5472C3.54172 17.8842 3.02044 18.312 2.49821 18.3161ZM2.5047 11.8616C2.4593 11.1616 3.00309 10.4286 3.4023 10.0122C3.80761 10.337 4.48758 10.988 4.53583 11.7294C4.58142 12.4292 4.03744 13.1622 3.63843 13.5786C3.23311 13.2538 2.55314 12.6028 2.5047 11.8616ZM6.23585 22.6011C5.63294 22.7899 4.87477 22.4764 4.41205 22.2122C4.64131 21.7308 5.08496 21.0409 5.68787 20.8519C6.29098 20.6629 7.04915 20.9766 7.51168 21.2408C7.28242 21.7222 6.83877 22.4121 6.23585 22.6011Z" fill="#536271"/>
<path d="M24.9102 17.2915C24.868 17.232 23.8627 15.8339 22.5212 15.8234H22.521C22.5161 15.8234 22.5111 15.8234 22.506 15.8234C22.1422 15.8234 21.8018 15.9254 21.4983 16.075C21.6543 15.5472 21.751 15.0137 21.7831 14.4871C22.2551 14.1424 23.3873 13.1891 23.4696 11.925C23.5716 10.3588 22.0137 9.05687 21.9473 9.00213C21.7852 8.86881 21.5559 8.85374 21.378 8.96513C21.3049 9.01071 19.5915 10.0998 19.4895 11.6659C19.4084 12.9107 20.3758 13.9885 20.8098 14.406C20.7913 14.7343 20.7432 15.0664 20.6675 15.398C20.5378 15.053 20.3438 14.7196 20.0565 14.4486C18.9766 13.4297 17.0929 13.7789 17.0132 13.7943C16.807 13.834 16.6493 14.0013 16.6216 14.2094C16.6109 14.2899 16.3719 16.1905 17.4519 17.2095C18.046 17.77 18.8833 17.9165 19.5299 17.9321C19.334 18.2152 19.1179 18.4887 18.8829 18.7494C18.523 19.1487 18.1334 19.4996 17.7246 19.7968C17.7601 19.2864 17.6998 18.693 17.3746 18.1963V18.1961C16.6464 17.0843 14.9435 16.9966 14.8714 16.9934C14.662 16.9846 14.4693 17.1099 14.394 17.306C14.3681 17.3733 13.7676 18.9694 14.4957 20.0813C14.7223 20.4272 15.0429 20.6738 15.3797 20.8498C15.1506 20.8935 14.9218 20.92 14.6944 20.929C14.4249 20.9395 14.2149 21.1664 14.2254 21.4359C14.2357 21.6988 14.452 21.9052 14.7129 21.9052C14.7194 21.9052 14.7259 21.905 14.7324 21.9048C15.3381 21.8811 15.9502 21.7535 16.5489 21.5321C16.7969 22.0917 17.4082 23.1995 18.4721 23.5329C18.7019 23.605 18.9348 23.6353 19.1645 23.6353C20.3459 23.6353 21.4321 22.8331 21.4863 22.7925C21.6543 22.6666 21.723 22.4474 21.657 22.2481C21.6314 22.1712 21.0169 20.3627 19.6041 19.92C19.4677 19.8773 19.3302 19.8492 19.1931 19.8336C19.3352 19.6961 19.4737 19.5526 19.6083 19.4033C19.9316 19.0445 20.2234 18.6634 20.4807 18.2665C20.8971 18.6968 21.625 19.286 22.4941 19.2927H22.5094C23.8434 19.2927 24.8629 17.9207 24.9058 17.862C25.0298 17.6926 25.0315 17.4629 24.9102 17.2915ZM17.5673 14.7091C18.1013 14.6736 18.9245 14.723 19.3865 15.1589C19.8484 15.5947 19.9459 16.4139 19.9413 16.9487C19.4073 16.9844 18.5841 16.9348 18.1221 16.4992C17.66 16.0631 17.5627 15.2439 17.5673 14.7091ZM15.1995 18.0172C15.6128 18.0924 16.2619 18.2795 16.5577 18.7311C16.8383 19.1595 16.7738 19.8168 16.671 20.2603C16.2577 20.1849 15.6086 19.998 15.3128 19.5463C15.0324 19.1179 15.0967 18.4605 15.1995 18.0172ZM20.5879 22.212C20.1248 22.4766 19.3668 22.7898 18.7639 22.601C18.1618 22.4123 17.7185 21.7238 17.4892 21.2429C17.9092 21.0022 18.6754 20.6524 19.3121 20.8519C19.915 21.0409 20.3587 21.731 20.5879 22.212ZM20.4641 11.7294C20.5097 11.0285 21.1458 10.3712 21.5958 10.0104C21.9954 10.4269 22.5409 11.1607 22.4951 11.8616C22.4495 12.5624 21.8134 13.2197 21.3635 13.5805C20.9639 13.164 20.4184 12.43 20.4641 11.7294ZM22.5094 18.3161C22.5069 18.3161 22.5042 18.3161 22.5018 18.3161C21.9799 18.3121 21.4592 17.885 21.1432 17.5486C21.4371 17.2434 21.9582 16.7999 22.5058 16.7999H22.5136C23.0358 16.804 23.5573 17.232 23.8733 17.5686C23.5533 17.8992 23.0291 18.3161 22.5094 18.3161Z" fill="#536271"/>
<path d="M12.5 22.2024C12.2988 22.2024 12.1146 22.074 12.0434 21.8861C11.9709 21.6944 12.0297 21.4694 12.188 21.3387C12.3394 21.2136 12.5567 21.1917 12.7301 21.2838C12.9124 21.3809 13.0156 21.5901 12.9815 21.7938C12.9426 22.0267 12.7362 22.2024 12.5 22.2024Z" fill="#536271"/>
<path d="M13.7895 10.5844C13.6782 10.5844 13.5662 10.5625 13.459 10.518L12.5 10.1205L11.541 10.518C11.2625 10.6334 10.9506 10.5966 10.7067 10.4194C10.4627 10.2422 10.3313 9.95708 10.355 9.65648L10.4366 8.62155L9.76236 7.83229C9.56648 7.60303 9.50525 7.29518 9.59833 7.00832C9.6916 6.72164 9.9222 6.50859 10.2154 6.43821L11.2247 6.19598L11.767 5.31078C11.9245 5.05367 12.1984 4.90031 12.5 4.90031C12.8013 4.90031 13.0754 5.05367 13.2328 5.31078L13.775 6.19598L14.7846 6.43821C15.0778 6.50859 15.3084 6.72164 15.4014 7.00832C15.4947 7.29499 15.4333 7.60303 15.2376 7.83229L14.5632 8.62155L14.645 9.65648C14.6686 9.95708 14.5372 10.2422 14.2933 10.4194C14.1432 10.5283 13.9675 10.5844 13.7895 10.5844ZM10.6291 7.34325L11.3106 8.14109C11.3949 8.23951 11.4364 8.3675 11.4261 8.49662L11.3436 9.5428L12.3131 9.14093C12.4327 9.09133 12.5673 9.09133 12.6869 9.14093L13.6564 9.5428L13.5738 8.49662C13.5637 8.3675 13.6053 8.23951 13.6894 8.14109L14.3711 7.34325L13.3507 7.09834C13.2246 7.06821 13.1159 6.98924 13.0482 6.87862L12.5 5.98388L11.9518 6.87862C11.8841 6.98924 11.7754 7.06821 11.6493 7.09834L10.6291 7.34325Z" fill="#536271"/>
<path d="M12.4999 14.0682C12.0738 14.0682 11.7242 13.8713 11.4158 13.6978C11.2502 13.6045 11.0938 13.5164 10.9622 13.4813C10.8196 13.4431 10.6336 13.4405 10.4366 13.4378C10.0877 13.433 9.69232 13.4275 9.33583 13.2213C8.97496 13.0123 8.77202 12.6701 8.59311 12.3683C8.49393 12.2011 8.40047 12.0431 8.29957 11.9424C8.19886 11.8417 8.04093 11.7481 7.87366 11.6489C7.57172 11.47 7.22974 11.267 7.02069 10.9062C6.81451 10.5497 6.80898 10.1543 6.80421 9.80543C6.80154 9.6084 6.79887 9.42224 6.76072 9.27977C6.72562 9.14816 6.6375 8.99176 6.54443 8.8262C6.37067 8.51778 6.17383 8.16816 6.17383 7.74206C6.17383 7.31596 6.37067 6.96653 6.54443 6.65792C6.6375 6.49236 6.72562 6.33596 6.76072 6.20436C6.79887 6.06188 6.80154 5.87572 6.80421 5.67869C6.80898 5.32984 6.81451 4.93444 7.02069 4.57815C7.22974 4.2169 7.57192 4.01415 7.87385 3.83524C8.04093 3.73605 8.19886 3.64259 8.29976 3.5417C8.40047 3.44099 8.49393 3.28306 8.59311 3.11598C8.77202 2.81404 8.97496 2.47186 9.33602 2.26301C9.69232 2.05663 10.0879 2.05129 10.4368 2.04633C10.6336 2.04366 10.8198 2.04099 10.9622 2.00304C11.0938 1.96775 11.2502 1.87963 11.4158 1.78655C11.7242 1.61279 12.074 1.41595 12.4999 1.41595C12.926 1.41595 13.2757 1.61279 13.5841 1.78655C13.7496 1.87963 13.906 1.96775 14.0376 2.00304C14.1801 2.04099 14.3663 2.04366 14.5633 2.04633C14.9122 2.05129 15.3076 2.05663 15.6638 2.26301C16.0249 2.47186 16.2278 2.81404 16.4068 3.11598C16.5058 3.28306 16.5994 3.44099 16.7003 3.5417C16.801 3.64259 16.9589 3.73625 17.126 3.83524C17.428 4.01434 17.7701 4.21709 17.979 4.57815C18.1854 4.93444 18.1907 5.32984 18.1957 5.67888C18.1983 5.87572 18.201 6.06188 18.239 6.20436C18.2742 6.33615 18.3624 6.49256 18.4554 6.65792C18.6292 6.96653 18.826 7.31615 18.826 7.74206C18.826 8.16797 18.6292 8.51759 18.4554 8.8262C18.3624 8.99176 18.2742 9.14816 18.239 9.27977C18.2008 9.42243 18.1983 9.6084 18.1957 9.80543C18.1907 10.1543 18.1852 10.5497 17.979 10.906C17.7701 11.267 17.428 11.47 17.126 11.6489C16.9589 11.7481 16.801 11.8415 16.7001 11.9424C16.5994 12.0431 16.5058 12.2011 16.4068 12.3683C16.2277 12.6701 16.0249 13.0123 15.6638 13.2213C15.3074 13.4275 14.912 13.4328 14.5631 13.4378C14.3663 13.4405 14.1801 13.4431 14.0376 13.4813C13.906 13.5164 13.7496 13.6045 13.5841 13.6978C13.2757 13.8713 12.926 14.0682 12.4999 14.0682ZM12.4999 2.39252C12.33 2.39252 12.1187 2.51154 11.8949 2.63761C11.6838 2.75644 11.4654 2.87946 11.2144 2.94641C10.9546 3.01603 10.6866 3.01965 10.4501 3.0229C10.1985 3.02652 9.96068 3.02976 9.82507 3.10835C9.68488 3.18941 9.56262 3.39559 9.43311 3.61398C9.31352 3.81578 9.17771 4.04466 8.99022 4.23235C8.80254 4.42003 8.57366 4.55564 8.37167 4.67542C8.15347 4.80474 7.94709 4.927 7.86603 5.06719C7.78745 5.203 7.7842 5.44065 7.78077 5.69242C7.77753 5.92893 7.77371 6.19673 7.70429 6.4567C7.63715 6.7077 7.51431 6.9261 7.39529 7.13724C7.26941 7.36078 7.15039 7.57212 7.15039 7.74225C7.15039 7.9122 7.26941 8.12353 7.39529 8.34707C7.51431 8.55841 7.63715 8.77661 7.70429 9.02761C7.77371 9.28739 7.77753 9.55538 7.78077 9.79189C7.7842 10.0435 7.78745 10.2813 7.86603 10.4171C7.94728 10.5573 8.15347 10.6796 8.37167 10.8089C8.57366 10.9285 8.80254 11.0643 8.99022 11.252C9.1779 11.4396 9.31352 11.6685 9.4333 11.8703C9.56262 12.0887 9.68488 12.2949 9.82507 12.376C9.96087 12.4545 10.1985 12.4578 10.4503 12.4612C10.6866 12.4647 10.9546 12.4683 11.2144 12.5377C11.4654 12.6048 11.6838 12.7279 11.8949 12.8467C12.1187 12.9728 12.33 13.0916 12.4999 13.0916C12.6699 13.0916 12.8812 12.9728 13.1049 12.8467C13.3161 12.7277 13.5345 12.6048 13.7855 12.5377C14.0453 12.4683 14.3133 12.4647 14.5498 12.4612C14.8013 12.4578 15.0392 12.4545 15.175 12.376C15.3152 12.2949 15.4373 12.0885 15.5668 11.8703C15.6865 11.6683 15.8222 11.4395 16.0096 11.2518C16.1975 11.0641 16.4262 10.9285 16.6282 10.8089C16.8466 10.6794 17.0528 10.5571 17.1338 10.4171C17.2124 10.2813 17.2157 10.0435 17.2191 9.79189C17.2225 9.55538 17.2262 9.28739 17.2956 9.02761C17.3627 8.77661 17.4857 8.55822 17.6046 8.34707C17.7305 8.12334 17.8495 7.912 17.8495 7.74206C17.8495 7.57212 17.7305 7.36078 17.6046 7.13705C17.4856 6.92591 17.3627 6.70751 17.2956 6.45651C17.2262 6.19673 17.2223 5.92874 17.2191 5.69223C17.2157 5.44065 17.2124 5.203 17.1338 5.06719C17.0528 4.927 16.8464 4.80474 16.628 4.67523C16.4262 4.55564 16.1973 4.42003 16.0096 4.23235C15.822 4.04466 15.6864 3.81578 15.5668 3.61379C15.4373 3.3954 15.315 3.18922 15.1748 3.10815C15.039 3.02976 14.8013 3.02633 14.5496 3.0229C14.3133 3.01965 14.0453 3.01584 13.7853 2.94641C13.5345 2.87927 13.3161 2.75625 13.1049 2.63742C12.8812 2.51154 12.6699 2.39252 12.4999 2.39252Z" fill="#536271"/>
</svg>
