<svg width="23" height="22" viewBox="0 0 23 22" fill="none" xmlns="http://www.w3.org/2000/svg">
<g clip-path="url(#clip0)">
<path d="M22.3081 1.80469H21.1054V0.645009C21.1054 0.0714178 20.4322 -0.215356 20.0289 0.189324L17.2946 2.92356C17.1738 3.04443 17.1144 3.20806 17.1144 3.37924V4.93588L16.6917 5.35053C14.1484 7.89385 12.4136 9.62867 10.029 12.0132C9.77727 12.265 9.77727 12.6729 10.029 12.9247C10.2808 13.1765 10.6886 13.1765 10.9405 12.9247C11.6587 12.2065 17.0321 6.83248 17.7504 6.11425L18.0172 5.83878H19.5732C19.7444 5.83878 19.9081 5.7794 20.0289 5.65853L22.7638 2.9236C23.1682 2.51927 22.8822 1.80469 22.3081 1.80469Z" fill="#556575"/>
<path d="M13.795 11.893L11.9841 13.704C11.9208 13.7672 11.8477 13.8144 11.7697 13.8458C10.8826 14.5203 9.87557 14.3299 9.24913 13.7046L9.24849 13.7039C8.49563 12.9493 8.49563 11.7231 9.24913 10.9696C9.2542 10.9646 9.26151 10.9633 9.26662 10.9583C9.27126 10.9534 9.27268 10.9467 9.27749 10.9419L11.0611 9.15834C9.9674 9.00744 9.01529 9.38002 8.33772 10.0576C7.08136 11.314 7.08136 13.359 8.33772 14.6154C9.59348 15.8711 11.6385 15.8724 12.8955 14.6154C13.6364 13.8741 13.9283 12.8594 13.795 11.893Z" fill="#556575"/>
<path d="M15.8339 9.85422L14.8541 10.834C15.4136 12.4218 15.0744 14.2589 13.8069 15.5268C12.0476 17.2862 9.185 17.2856 7.42628 15.5268C5.66701 13.7676 5.66701 10.9055 7.42628 9.14618C8.69408 7.87886 10.5322 7.53923 12.1204 8.09907L13.0997 7.11977C10.7113 5.98655 8.14691 6.60277 6.51487 8.23477C4.25123 10.4971 4.25106 14.1758 6.51487 16.4383C8.77722 18.702 12.4559 18.7022 14.7184 16.4383C16.4982 14.6585 16.8553 12.0085 15.8339 9.85422Z" fill="#556575"/>
<path d="M18.6828 7.00529L16.7838 8.90417C18.2814 11.6009 17.9171 15.0624 15.6298 17.3497C12.8637 20.1171 8.37002 20.1176 5.60339 17.3497C2.83589 14.5835 2.83546 10.0899 5.60339 7.32326C7.89135 5.0353 11.353 4.67178 14.0497 6.16972L15.9486 4.27084C12.2479 1.81633 7.12569 2.15463 3.77992 5.50039C0.0107787 9.26953 0.0107787 15.4035 3.77992 19.1732C5.66509 21.0577 8.1407 22 10.6163 22C13.0926 22 15.5682 21.0577 17.4528 19.1732C20.7913 15.8346 21.1425 10.7144 18.6828 7.00529Z" fill="#556575"/>
</g>
<defs>
<clipPath id="clip0">
<rect width="22" height="22" fill="white" transform="translate(0.953125)"/>
</clipPath>
</defs>
</svg>
