<svg width="22" height="22" viewBox="0 0 22 22" fill="none" xmlns="http://www.w3.org/2000/svg">
<g clip-path="url(#clip0)">
<path d="M21.3551 1.80469H20.1524V0.645009C20.1524 0.0714178 19.4792 -0.215356 19.0759 0.189324L16.3416 2.92356C16.2208 3.04443 16.1614 3.20806 16.1614 3.37924V4.93588L15.7387 5.35053C13.1954 7.89385 11.4606 9.62867 9.07602 12.0132C8.82427 12.265 8.82427 12.6729 9.07602 12.9247C9.32782 13.1765 9.73564 13.1765 9.98748 12.9247C10.7057 12.2065 16.0791 6.83248 16.7974 6.11425L17.0642 5.83878H18.6202C18.7914 5.83878 18.9551 5.7794 19.0759 5.65853L21.8108 2.9236C22.2152 2.51927 21.9292 1.80469 21.3551 1.80469Z" fill="#E0073E"/>
<path d="M12.8419 11.893L11.031 13.704C10.9678 13.7672 10.8946 13.8144 10.8166 13.8458C9.92957 14.5203 8.92251 14.3299 8.29607 13.7046L8.29542 13.7039C7.54257 12.9493 7.54257 11.7231 8.29607 10.9696C8.30114 10.9646 8.30844 10.9633 8.31355 10.9583C8.3182 10.9534 8.31961 10.9467 8.32443 10.9419L10.108 9.15834C9.01433 9.00744 8.06223 9.38002 7.38466 10.0576C6.12829 11.314 6.12829 13.359 7.38466 14.6154C8.64042 15.8711 10.6854 15.8724 11.9424 14.6154C12.6833 13.8741 12.9752 12.8594 12.8419 11.893Z" fill="#E0073E"/>
<path d="M14.8806 9.85422L13.9008 10.834C14.4603 12.4218 14.1211 14.2589 12.8536 15.5268C11.0943 17.2862 8.23169 17.2856 6.47298 15.5268C4.7137 13.7676 4.7137 10.9055 6.47298 9.14618C7.74077 7.87886 9.57889 7.53923 11.1671 8.09907L12.1464 7.11977C9.75799 5.98655 7.19361 6.60277 5.56156 8.23477C3.29792 10.4971 3.29775 14.1758 5.56156 16.4383C7.82392 18.702 11.5026 18.7022 13.7651 16.4383C15.5449 14.6585 15.902 12.0085 14.8806 9.85422Z" fill="#E0073E"/>
<path d="M17.7297 7.00529L15.8308 8.90417C17.3284 11.6009 16.964 15.0624 14.6768 17.3497C11.9106 20.1171 7.41696 20.1176 4.65032 17.3497C1.88283 14.5835 1.8824 10.0899 4.65032 7.32326C6.93829 5.0353 10.4 4.67178 13.0966 6.16972L14.9955 4.27084C11.2949 1.81633 6.17262 2.15463 2.82686 5.50039C-0.942285 9.26953 -0.942285 15.4035 2.82686 19.1732C4.71203 21.0577 7.18763 22 9.66328 22C12.1395 22 14.6151 21.0577 16.4997 19.1732C19.8383 15.8346 20.1894 10.7144 17.7297 7.00529Z" fill="#E0073E"/>
</g>
<defs>
<clipPath id="clip0">
<rect width="22" height="22" fill="white"/>
</clipPath>
</defs>
</svg>
