<svg width="22" height="20" viewBox="0 0 22 20" fill="none" xmlns="http://www.w3.org/2000/svg">
<path d="M21.7244 9.75807C22.1232 9.34621 22.0847 8.71494 21.6384 8.34847L11.8063 0.269892C11.36 -0.0965818 10.6445 -0.0889048 10.2077 0.287199L0.342162 8.77919C-0.0947202 9.15529 -0.116163 9.78575 0.294687 10.1868L0.542029 10.4287C0.952378 10.8297 1.61566 10.8775 2.02257 10.5351L2.75986 9.91511V18.9922C2.75986 19.5491 3.24042 20 3.83306 20H7.67866C8.2713 20 8.75186 19.5491 8.75186 18.9922V12.6419H13.657V18.9922C13.6484 19.5487 14.0725 19.9996 14.6651 19.9996H18.7405C19.3331 19.9996 19.8137 19.5487 19.8137 18.9918V10.0429C19.8137 10.0429 20.0174 10.2105 20.2686 10.4178C20.5194 10.6248 21.0461 10.4588 21.4449 10.0466L21.7244 9.75807Z" fill="#E0073E"/>
</svg>
