<svg width="20" height="20" viewBox="0 0 20 20" fill="none" xmlns="http://www.w3.org/2000/svg">
<path d="M18.0869 18.0683C18.0582 18.1052 18.0582 18.1543 18.0869 18.1911L19.0036 19.3084C19.0854 19.4066 19.0159 19.5539 18.889 19.5539H15.6109V16.681H18.8972C19.024 16.681 19.0936 16.8283 19.0118 16.9224L18.0869 18.0683ZM1.0007 16.9224L1.91742 18.0397C1.94607 18.0765 1.94607 18.1256 1.91742 18.1625L0.992516 19.3084C0.914758 19.4066 0.984331 19.5498 1.10711 19.5498H4.39747V16.6769H1.11938C0.992516 16.6769 0.922943 16.8242 1.0007 16.9224ZM15.746 1.83753H19.6747V4.85369C19.6747 7.01862 17.9109 8.78248 15.746 8.78248H15.2344C14.4936 10.4195 13.0081 11.6472 11.2115 12.0319V14.4956H12.6234C13.0572 14.4956 13.4091 14.8476 13.4091 15.2814V16.3127H14.6123V20H5.39195V16.3127H6.59514V15.2814C6.59514 14.8476 6.94709 14.4956 7.3809 14.4956H8.78871V12.0319C6.99211 11.6472 5.50654 10.4195 4.76579 8.78248H4.25423C2.0893 8.78248 0.325439 7.01862 0.325439 4.85369V1.83753H4.25423V0H15.7378V1.83753H15.746ZM4.27469 6.79353C4.26651 6.67076 4.26242 6.54389 4.26242 6.41703V3.82648H2.32258V4.85369C2.32258 5.92183 3.19428 6.79353 4.26242 6.79353H4.27469ZM8.40811 16.5009V18.4776H11.6003V16.5009H8.40811ZM12.4269 4.59587L10.8882 4.48537L10.307 3.05709C10.1965 2.78699 9.81593 2.78699 9.70543 3.05709L9.1243 4.48537L7.58552 4.59587C7.29495 4.61633 7.17627 4.98056 7.40136 5.16472L8.58 6.1592L8.21167 7.65705C8.1421 7.93943 8.44904 8.16452 8.69868 8.009L10.0083 7.1946L11.3179 8.009C11.5634 8.16043 11.8745 7.93943 11.8049 7.65705L11.4366 6.1592L12.6152 5.16472C12.8321 4.97647 12.7175 4.61633 12.4269 4.59587ZM15.746 3.82648V6.41703C15.746 6.54389 15.7419 6.66667 15.7337 6.79353H15.746C16.8141 6.79353 17.6858 5.92183 17.6858 4.85369V3.82648H15.746Z" fill="#E0073E"/>
</svg>
