<svg width="20" height="20" viewBox="0 0 20 20" fill="none" xmlns="http://www.w3.org/2000/svg">
<path d="M18.0868 18.0683C18.0581 18.1052 18.0581 18.1543 18.0868 18.1911L19.0035 19.3084C19.0854 19.4066 19.0158 19.5539 18.8889 19.5539H15.6108V16.681H18.8971C19.024 16.681 19.0935 16.8283 19.0117 16.9224L18.0868 18.0683ZM1.00064 16.9224L1.91736 18.0397C1.94601 18.0765 1.94601 18.1256 1.91736 18.1625L0.992455 19.3084C0.914697 19.4066 0.98427 19.5498 1.10704 19.5498H4.39741V16.6769H1.11932C0.992455 16.6769 0.922882 16.8242 1.00064 16.9224ZM15.7459 1.83753H19.6747V4.85369C19.6747 7.01862 17.9108 8.78248 15.7459 8.78248H15.2343C14.4936 10.4195 13.008 11.6472 11.2114 12.0319V14.4956H12.6233C13.0571 14.4956 13.4091 14.8476 13.4091 15.2814V16.3127H14.6123V20H5.39188V16.3127H6.59508V15.2814C6.59508 14.8476 6.94703 14.4956 7.38084 14.4956H8.78865V12.0319C6.99205 11.6472 5.50647 10.4195 4.76573 8.78248H4.25417C2.08924 8.78248 0.325378 7.01862 0.325378 4.85369V1.83753H4.25417V0H15.7377V1.83753H15.7459ZM4.27463 6.79353C4.26645 6.67076 4.26236 6.54389 4.26236 6.41703V3.82648H2.32251V4.85369C2.32251 5.92183 3.19422 6.79353 4.26236 6.79353H4.27463ZM8.40805 16.5009V18.4776H11.6002V16.5009H8.40805ZM12.4269 4.59587L10.8881 4.48537L10.307 3.05709C10.1965 2.78699 9.81587 2.78699 9.70537 3.05709L9.12424 4.48537L7.58546 4.59587C7.29489 4.61633 7.17621 4.98056 7.4013 5.16472L8.57994 6.1592L8.21161 7.65705C8.14204 7.93943 8.44898 8.16452 8.69862 8.009L10.0082 7.1946L11.3178 8.009C11.5634 8.16043 11.8744 7.93943 11.8048 7.65705L11.4365 6.1592L12.6151 5.16472C12.832 4.97647 12.7174 4.61633 12.4269 4.59587ZM15.7459 3.82648V6.41703C15.7459 6.54389 15.7418 6.66667 15.7336 6.79353H15.7459C16.814 6.79353 17.6857 5.92183 17.6857 4.85369V3.82648H15.7459Z" fill="#556575"/>
</svg>
