<svg width="19" height="22" viewBox="0 0 19 22" fill="none" xmlns="http://www.w3.org/2000/svg">
<path d="M17.7166 11.5609H10.1651V21.114H17.7166V11.5609Z" fill="#556575"/>
<path d="M8.78799 11.5609H1.23651V21.114H8.78799V11.5609Z" fill="#556575"/>
<path d="M15.3638 3.89422C15.5681 3.51998 15.6843 3.09114 15.6843 2.63558C15.6844 1.1823 14.502 0 13.0488 0C11.9739 0 10.8741 0.555398 10.0315 1.5238C9.82292 1.76343 9.63719 2.02097 9.47656 2.28918C9.31594 2.02097 9.1302 1.76343 8.92166 1.5238C8.07904 0.555398 6.97925 0 5.90434 0C4.4511 0 3.26875 1.18234 3.26875 2.63558C3.26875 3.0911 3.38496 3.51998 3.58926 3.89422H0V10.1838H8.78805V3.89422H10.165V10.1838H18.9531V3.89422H15.3638ZM5.90434 3.89422C5.21038 3.89422 4.64574 3.32958 4.64574 2.63558C4.64574 1.94158 5.21038 1.37699 5.90434 1.37699C7.15382 1.37699 8.34177 2.65509 8.68747 3.89417H5.90434V3.89422ZM13.0488 3.89422H10.2657C10.6114 2.65509 11.7993 1.37703 13.0488 1.37703C13.7427 1.37703 14.3074 1.94166 14.3074 2.63562C14.3073 3.32962 13.7427 3.89422 13.0488 3.89422Z" fill="#556575"/>
</svg>
