<svg width="22" height="21" viewBox="0 0 22 21" fill="none" xmlns="http://www.w3.org/2000/svg">
<path fill-rule="evenodd" clip-rule="evenodd" d="M21.8876 9.33416C21.8544 9.03896 21.5102 8.81714 21.2126 8.81714C20.2504 8.81714 19.3965 8.25214 19.0384 7.37835C18.6726 6.48339 18.9085 5.43966 19.6256 4.78184C19.8513 4.57549 19.8788 4.23005 19.6894 3.9901C19.197 3.3647 18.6372 2.79979 18.026 2.31019C17.7867 2.11814 17.4356 2.14486 17.228 2.37465C16.6022 3.06779 15.478 3.3254 14.6092 2.96293C13.7052 2.58265 13.1351 1.66659 13.1909 0.68326C13.2093 0.374392 12.9836 0.105841 12.6756 0.0699767C11.8913 -0.0207383 11.1001 -0.0235511 10.3135 0.0637259C10.009 0.0973241 9.7833 0.359546 9.79354 0.664508C9.82776 1.63815 9.25081 2.53819 8.35577 2.9048C7.49746 3.25539 6.38114 2.99997 5.75653 2.313C5.5501 2.08672 5.20466 2.05891 4.96416 2.24636C4.33486 2.74009 3.76252 3.30548 3.2655 3.92572C3.07165 4.16684 3.10017 4.51634 3.32817 4.72379C4.05897 5.38559 4.29493 6.43839 3.91527 7.34366C3.55281 8.20674 2.6566 8.76299 1.6306 8.76299C1.29767 8.75228 1.06053 8.97575 1.02412 9.27845C0.931762 10.0673 0.930668 10.8711 1.01959 11.6663C1.05256 11.9628 1.40721 12.1827 1.70811 12.1827C2.62245 12.1593 3.5003 12.7254 3.86855 13.6215C4.23563 14.5165 3.99966 15.5596 3.28144 16.2179C3.0568 16.4243 3.02828 16.7692 3.21761 17.0091C3.70548 17.6306 4.26532 18.196 4.87868 18.6897C5.11926 18.8835 5.46931 18.8562 5.67785 18.6264C6.30605 17.9315 7.43019 17.6744 8.29545 18.0376C9.20174 18.4167 9.77182 19.3327 9.71603 20.3165C9.69782 20.6256 9.92465 20.8946 10.2313 20.9299C10.6326 20.9767 11.0362 21.0001 11.4409 21.0001C11.8251 21.0001 12.2094 20.979 12.5936 20.9362C12.8981 20.9026 13.1237 20.6404 13.1134 20.3349C13.0782 19.3618 13.6562 18.4618 14.55 18.0958C15.4141 17.7428 16.5257 18.0012 17.1504 18.6874C17.358 18.9132 17.7011 18.9405 17.9429 18.7537C18.571 18.2611 19.1422 17.6962 19.6415 17.0742C19.8353 16.8337 19.808 16.4836 19.5788 16.2762C18.848 15.6144 18.6109 14.5615 18.9905 13.6568C19.3474 12.8052 20.2104 12.2334 21.1385 12.2334L21.2684 12.2368C21.5694 12.2613 21.8464 12.0294 21.8829 11.722C21.9754 10.9325 21.9765 10.1294 21.8876 9.33416ZM11.4702 14.0246C9.5389 14.0246 7.96791 12.4536 7.96791 10.5223C7.96791 8.59101 9.5389 7.01995 11.4702 7.01995C13.4015 7.01995 14.9725 8.59101 14.9725 10.5223C14.9725 12.4536 13.4015 14.0246 11.4702 14.0246Z" fill="#E0073E"/>
</svg>
