<svg width="46" height="40" viewBox="0 0 46 40" fill="none" xmlns="http://www.w3.org/2000/svg">
<path d="M44.7631 28.5887L42.6638 26.5065C42.3264 26.1718 41.7818 26.1742 41.4473 26.5115C41.1126 26.8488 41.1149 27.3935 41.4522 27.728L43.5515 29.8102C43.7192 29.9767 43.9382 30.0597 44.1572 30.0597C44.3785 30.0597 44.5998 29.9748 44.7679 29.8052C45.1027 29.4679 45.1004 28.9233 44.7631 28.5887Z" fill="#7D8D9C"/>
<path d="M40.5247 24.376C40.1887 24.0401 39.6443 24.0401 39.3081 24.376L39.3067 24.3775C38.9707 24.7134 38.9715 25.2574 39.3075 25.5933C39.4752 25.7611 39.6953 25.845 39.9153 25.845C40.1358 25.845 40.3565 25.7608 40.5246 25.5926C40.8605 25.2567 40.8605 24.712 40.5247 24.376Z" fill="#7D8D9C"/>
<path d="M33.1911 28.3425L41.5361 19.9977C42.7999 18.7337 42.7999 16.6771 41.536 15.4132C41.0903 14.9675 40.546 14.6797 39.9727 14.5484C40.1693 14.1258 40.2733 13.662 40.2733 13.182C40.2733 12.3161 39.9361 11.502 39.3239 10.8898C38.8438 10.4096 38.2392 10.0994 37.5831 9.98771C37.9525 8.86224 37.6914 7.57327 36.798 6.68002C36.3069 6.18892 35.696 5.88962 35.0584 5.78022C35.1652 5.45607 35.2215 5.11377 35.2215 4.76252C35.2215 3.89661 34.8843 3.08257 34.2721 2.47038C33.6599 1.85819 32.8458 1.52096 31.98 1.52096C31.4302 1.52096 30.9015 1.65737 30.4318 1.91349L30.3488 1.8243C29.2701 0.66512 27.7433 0.00038147 26.16 0.00038147H19.4051C18.9301 0.00038147 18.5449 0.385601 18.5449 0.860611V1.98866C18.5449 2.44011 18.6212 2.87959 18.7673 3.29285C18.3782 3.13125 17.9572 3.04636 17.5232 3.04636C16.6573 3.04636 15.8433 3.38359 15.231 3.99578C14.3372 4.88955 14.0764 6.17946 14.4466 7.30528C13.8085 7.41442 13.1968 7.71389 12.7052 8.20541C12.093 8.81769 11.7557 9.63173 11.7557 10.4976C11.7557 10.8481 11.8119 11.1899 11.9183 11.5134C11.2629 11.6254 10.659 11.9354 10.1793 12.4152C9.19218 13.4023 8.97604 14.873 9.53087 16.0718C8.94336 16.2061 8.40376 16.502 7.96702 16.9386C6.70317 18.2025 6.70317 20.259 7.96702 21.523L9.68318 23.239L1.2345 31.6876C0.898559 32.0235 0.898559 32.5682 1.2345 32.9042C1.40247 33.0721 1.62264 33.1562 1.84273 33.1562C2.06282 33.1562 2.28299 33.0722 2.45096 32.9042L10.9812 24.374C11.4641 24.6495 12.0121 24.7969 12.5833 24.7969C13.4491 24.7969 14.2632 24.4597 14.8754 23.8474C15.5406 23.1824 15.8552 22.2976 15.8202 21.4245C15.8638 21.4263 15.9074 21.4276 15.951 21.4276C16.781 21.4275 17.6114 21.1115 18.2432 20.4797C18.8553 19.8674 19.1926 19.0534 19.1926 18.1876C19.1926 18.1438 19.1911 18.1003 19.1894 18.0568C19.2325 18.0585 19.2756 18.0599 19.3187 18.0599C20.1488 18.0599 20.979 17.7439 21.6109 17.112C22.2231 16.4997 22.5603 15.6857 22.5603 14.8199C22.5603 14.7761 22.5588 14.7326 22.5571 14.689C22.6002 14.6908 22.6433 14.6921 22.6865 14.6921C23.5166 14.6921 24.3467 14.3762 24.9786 13.7443C26.1662 12.5567 26.2376 10.6695 25.1936 9.39737L30.9039 3.6871C31.1912 3.39967 31.5731 3.24151 31.9795 3.24151C32.3859 3.24151 32.7678 3.39967 33.0551 3.6871C33.3425 3.97445 33.5007 4.35631 33.5007 4.76269C33.5007 5.16898 33.3425 5.55102 33.0551 5.83828L32.2132 6.68019L29.1584 9.73494C28.8225 10.0709 28.8225 10.6156 29.1584 10.9516C29.3264 11.1195 29.5465 11.2036 29.7666 11.2036C29.9867 11.2036 30.2069 11.1195 30.3749 10.9516L33.4296 7.89682C34.0226 7.30373 34.9877 7.30364 35.5809 7.89674C36.174 8.48992 36.174 9.4549 35.5809 10.0481L34.7389 10.8901L32.5261 13.1028C32.1902 13.4388 32.1902 13.9834 32.5261 14.3195C32.6941 14.4874 32.9143 14.5715 33.1344 14.5715C33.3544 14.5715 33.5746 14.4874 33.7426 14.3195L35.9553 12.1067C36.2427 11.8193 36.6246 11.6611 37.0309 11.6611C37.4373 11.6611 37.8193 11.8193 38.1066 12.1067C38.394 12.3941 38.5521 12.7759 38.5521 13.1823C38.5521 13.5886 38.394 13.9706 38.1065 14.2579L36.9509 15.4136L35.8938 16.4706C35.5578 16.8066 35.5578 17.3513 35.8938 17.6873C36.0617 17.8552 36.2819 17.9393 36.502 17.9393C36.7221 17.9393 36.9423 17.8553 37.1102 17.6873L38.1681 16.6294C38.7613 16.0373 39.7257 16.0373 40.3186 16.6302C40.9118 17.2233 40.9118 18.1884 40.3186 18.7815L31.9736 27.1264C29.8782 29.2219 27.0932 30.435 24.1318 30.5426C23.9141 30.5505 23.7074 30.6407 23.5536 30.7952L15.8447 38.5326C15.5094 38.8691 15.5103 39.4138 15.847 39.7491C16.0148 39.9163 16.2344 40 16.4541 40C16.6747 40 16.8954 39.9156 17.0634 39.7469L22.7335 34.0559C24.1738 34.9798 25.8676 35.4192 27.5898 35.3053L32.0276 39.7431C32.1955 39.911 32.4157 39.9951 32.6358 39.9951C32.856 39.9951 33.076 39.9111 33.244 39.7431C33.58 39.4072 33.58 38.8625 33.244 38.5265L28.5257 33.8077C28.3471 33.6291 28.0989 33.5379 27.8472 33.5585L27.5744 33.5809C26.3156 33.6841 25.0712 33.4084 23.9848 32.7995L24.5377 32.2447C27.8072 32.043 30.8684 30.6654 33.1911 28.3425ZM13.659 22.631C13.3716 22.9184 12.9896 23.0766 12.5834 23.0766C12.177 23.0766 11.7951 22.9184 11.5078 22.631L9.1834 20.3067C8.59031 19.7136 8.59031 18.7485 9.1834 18.1553C9.47075 17.8679 9.85279 17.7097 10.2591 17.7097C10.6654 17.7097 11.0474 17.8679 11.3347 18.1553L13.6591 20.4796C14.2521 21.0727 14.2521 22.0378 13.659 22.631ZM17.0269 19.2631C16.4337 19.8562 15.4684 19.8562 14.8755 19.2631L12.5511 16.9387L11.3954 15.7829C10.8023 15.1898 10.8023 14.2248 11.3954 13.6317C11.6827 13.3443 12.0648 13.1861 12.471 13.1861C12.8773 13.1861 13.2593 13.3443 13.5466 13.6317L17.0266 17.1117C17.0266 17.1117 17.0266 17.1117 17.0267 17.1117C17.3141 17.3992 17.4723 17.7811 17.4723 18.1874C17.4723 18.5937 17.3141 18.9757 17.0269 19.2631ZM20.3946 15.8953C19.8014 16.4883 18.8363 16.4884 18.2432 15.8953L13.9212 11.5732C13.6339 11.2859 13.4757 10.904 13.4757 10.4976C13.4757 10.0913 13.6339 9.70931 13.9213 9.42205C14.2178 9.1255 14.6074 8.97723 14.9969 8.97723C15.3861 8.97723 15.7753 9.12533 16.0718 9.42136L18.0416 11.3912L20.3944 13.744H20.3945C20.6818 14.0314 20.8399 14.4132 20.8399 14.8196C20.8401 15.226 20.6819 15.608 20.3946 15.8953ZM23.7624 12.5275C23.1693 13.1206 22.2042 13.1206 21.6111 12.5275L17.2891 8.20541C17.2887 8.20498 17.2882 8.20455 17.2876 8.20404L16.4471 7.3635C15.854 6.77032 15.854 5.80534 16.4471 5.21216C16.7436 4.91552 17.1333 4.76725 17.5228 4.76725C17.9123 4.76725 18.3019 4.91552 18.5984 5.21216L23.7622 10.376C24.0497 10.6634 24.2078 11.0453 24.2078 11.4516C24.2079 11.8581 24.0498 12.2402 23.7624 12.5275ZM23.9886 8.16938L21.6259 5.80663C21.8938 5.86382 22.1692 5.89418 22.4496 5.89409C22.4559 5.89409 22.4623 5.89409 22.4686 5.89409L24.8293 5.883C25.3043 5.88076 25.6877 5.49382 25.6855 5.01873C25.6833 4.54501 25.2985 4.16254 24.8253 4.16254C24.824 4.16254 24.8226 4.16254 24.8212 4.16254L22.4605 4.17364C22.4569 4.17364 22.4535 4.17364 22.4499 4.17364C21.8682 4.17364 21.3211 3.94787 20.9086 3.53737C20.4936 3.12419 20.2651 2.57427 20.2651 1.98858V1.72075H26.1597C27.267 1.72075 28.3348 2.18561 29.0893 2.9963L29.1243 3.03389L23.9886 8.16938Z" fill="#7D8D9C"/>
</svg>
