<svg width="41" height="40" viewBox="0 0 41 40" fill="none" xmlns="http://www.w3.org/2000/svg">
<path d="M9.57213 16.244C8.72715 17.9103 8.81419 19.897 9.80165 21.483C10.7891 23.069 12.5335 24.0239 14.4016 24.0009C14.563 23.9802 14.725 24.0342 14.8417 24.1476C15.0417 24.3476 14.9937 24.407 14.9937 26.0024C14.9937 27.107 15.8891 28.0024 16.9937 28.0024H24.994C26.0986 28.0024 26.9941 27.107 26.9941 26.0024V24.5096C26.9945 24.3705 27.0517 24.2376 27.1523 24.1416C27.253 24.0456 27.3885 23.9948 27.5275 24.0009C29.4057 24.0444 31.1687 23.0977 32.1698 21.5079C33.171 19.9181 33.2631 17.9191 32.4123 16.244C32.3415 16.0833 32.3358 15.9014 32.3963 15.7366C34.015 10.7897 32.2601 5.36336 28.0513 2.30104C23.8424 -0.761276 18.1393 -0.761276 13.9305 2.30104C9.72171 5.36336 7.96682 10.7897 9.58547 15.7366C9.64646 15.9012 9.64168 16.0829 9.57213 16.244V16.244ZM10.3762 10.9625C11.2035 2.26681 21.8386 -1.89735 28.3315 4.25755C31.3303 7.0905 32.4215 11.4015 31.1316 15.32C30.9563 15.8232 30.9909 16.3759 31.2276 16.8533C31.8706 18.115 31.7986 19.6227 31.0383 20.8174C30.278 22.0121 28.9427 22.7158 27.5275 22.6676C27.0347 22.6611 26.5599 22.8524 26.2091 23.1985C25.8584 23.5446 25.6609 24.0168 25.6607 24.5096V26.001C25.6607 26.3692 25.3622 26.6677 24.994 26.6677H24.3273V25.3343C24.3273 24.9661 24.0289 24.6676 23.6607 24.6676C23.2925 24.6676 22.994 24.9661 22.994 25.3343V26.6677H21.6606V25.3343C21.6606 24.9661 21.3621 24.6676 20.9939 24.6676C20.6257 24.6676 20.3272 24.9661 20.3272 25.3343V26.6677H18.9938V25.3343C18.9938 24.9661 18.6953 24.6676 18.3271 24.6676C17.9589 24.6676 17.6604 24.9661 17.6604 25.3343V26.6677H16.9937C16.6255 26.6677 16.327 26.3692 16.327 26.001V24.5096C16.327 24.0132 16.1267 23.5378 15.7714 23.191C15.4161 22.8443 14.9359 22.6555 14.4396 22.6676C13.0286 22.7058 11.7016 21.9984 10.9467 20.8057C10.1918 19.613 10.1205 18.111 10.7588 16.852C11.4835 15.434 10.0215 14.6906 10.3762 10.9625V10.9625Z" fill="#7D8D9C"/>
<path d="M18.3271 21.0008C18.3271 22.4362 19.4732 23.7289 21.0119 23.2096C22.3146 23.7249 23.6607 22.5949 23.6607 21.0008C23.6607 19.5655 22.5146 18.2727 20.9759 18.7921C19.6732 18.2767 18.3271 19.4068 18.3271 21.0008V21.0008ZM20.4839 20.0308C20.8114 20.1615 21.1765 20.1615 21.5039 20.0308C21.8606 19.8908 22.3273 20.3128 22.3273 21.0008C22.3273 21.6889 21.8606 22.1109 21.5039 21.9709C21.1764 21.8405 20.8114 21.8405 20.4839 21.9709C20.1319 22.1129 19.6605 21.6895 19.6605 21.0008C19.6605 20.3121 20.1319 19.8908 20.4839 20.0308Z" fill="#7D8D9C"/>
<path d="M14.8909 18.6674C15.1063 18.6674 15.0909 18.6594 17.5837 18.3534C18.8509 18.1043 19.7384 16.9564 19.6604 15.6673C19.7383 14.3785 18.8507 13.231 17.5837 12.9825L15.1643 12.6852C12.5995 12.3778 11.2688 16.228 13.3422 18.0621C13.7662 18.4478 14.3177 18.6634 14.8909 18.6674V18.6674ZM14.2242 14.2726C14.431 14.0742 14.7145 13.9767 14.9996 14.0059L17.4197 14.3032C18.0109 14.4804 18.3922 15.0535 18.3271 15.6673C18.3916 16.2797 18.0114 16.8514 17.4217 17.0287L15.0016 17.326C13.7769 17.488 13.1229 15.2486 14.2262 14.2726H14.2242Z" fill="#7D8D9C"/>
<path d="M24.4039 18.3534C27.0353 18.6768 26.904 18.6674 27.0967 18.6674C28.5621 18.6674 29.6608 17.2747 29.6608 15.6673C29.6608 13.9626 28.4141 12.4925 26.8233 12.6839L24.4039 12.9812C23.1366 13.23 22.2489 14.3782 22.3272 15.6673C22.2486 16.9566 23.1364 18.1049 24.4039 18.3534ZM24.5666 14.3046C27.07 14.0006 27.01 14.0006 27.0967 14.0006C27.8234 14.0006 28.3274 14.8446 28.3274 15.6673C28.3274 16.522 27.764 17.428 26.986 17.3274L24.5666 17.03C23.9762 16.8527 23.5957 16.2803 23.6605 15.6673C23.5951 15.0542 23.9759 14.4815 24.5666 14.3046Z" fill="#7D8D9C"/>
<path d="M4.88323 36.0094C4.61723 36.0538 4.4042 36.2541 4.3435 36.5169C4.28279 36.7797 4.38637 37.0531 4.60593 37.2097C4.82548 37.3663 5.11776 37.3753 5.34645 37.2323C5.57514 37.0894 5.69518 36.8227 5.65059 36.5567C5.58974 36.1938 5.24625 35.9488 4.88323 36.0094V36.0094Z" fill="#7D8D9C"/>
<path d="M7.54995 35.3427C7.28395 35.3871 7.07092 35.5875 7.01021 35.8502C6.94951 36.113 7.05309 36.3864 7.27265 36.543C7.4922 36.6996 7.78448 36.7086 8.01317 36.5656C8.24186 36.4227 8.3619 36.156 8.31731 35.8901C8.25646 35.5271 7.91297 35.2821 7.54995 35.3427V35.3427Z" fill="#7D8D9C"/>
<path d="M39.7779 33.788C41.5213 32.5313 41.3439 29.3372 39.5112 28.0418C39.0069 27.6692 38.3748 27.5132 37.7551 27.6084L20.9865 30.4085C11.0748 28.7525 4.14589 27.5811 4.23189 27.6084C2.92985 27.3831 1.39312 28.4398 1.04978 30.4572C0.786009 31.6974 1.23236 32.9815 2.20849 33.7907C0.437087 35.0467 0.669762 38.2575 2.46583 39.5355C2.9704 39.9108 3.6044 40.0681 4.22589 39.9722L20.9885 37.1721L37.7605 39.9722C38.3805 40.0686 39.0133 39.9122 39.5172 39.5382C41.3046 38.2682 41.5573 35.054 39.7779 33.788ZM12.4209 37.2481C11.237 36.2863 10.9595 34.5911 11.7748 33.302L35.8871 29.2731C35.3695 30.6093 35.6215 32.1212 36.5444 33.2173L12.4209 37.2481ZM39.6219 30.6745C39.7992 31.7452 39.3485 32.7493 38.6385 32.8673C37.9285 32.9853 37.1678 32.1839 36.9944 31.1166C36.8318 30.1345 37.2324 28.9111 38.1278 28.9111C38.8878 28.9111 39.4812 29.8432 39.6219 30.6745V30.6745ZM5.64661 32.9746C6.40235 31.8932 6.5729 30.5075 6.10196 29.2751L16.9437 31.0865L5.64661 32.9746ZM2.36516 30.6772C2.49316 29.9225 3.13652 28.7498 4.02389 28.9278C4.72658 29.0551 5.17193 30.0518 4.99325 31.1166C4.81458 32.1813 4.06655 32.9893 3.34919 32.868C2.63183 32.7466 2.18848 31.7452 2.36516 30.6772ZM4.00322 38.6542C3.19652 38.7875 2.51716 37.8068 2.36716 36.9001C2.21715 35.9934 2.5445 34.842 3.35319 34.7094L10.1588 33.576C9.75823 34.9217 10.0018 36.3769 10.8188 37.5188L4.00322 38.6542ZM30.6042 35.5614C30.4801 36.2341 30.1092 36.8361 29.5642 37.2495L25.0307 36.4921L30.6042 35.5614ZM39.6152 36.9048C39.4672 37.8048 38.7818 38.7975 37.9831 38.6555L31.1676 37.5168C31.6309 36.8738 31.9149 36.119 31.9902 35.33L37.1831 34.4633L38.6385 34.712C39.4412 34.844 39.7712 35.9934 39.6165 36.9048H39.6152Z" fill="#7D8D9C"/>
<path d="M37.1045 36.0094C36.8385 35.9647 36.5718 36.0848 36.4288 36.3136C36.2859 36.5423 36.2949 36.8347 36.4516 37.0542C36.6083 37.2738 36.8819 37.3773 37.1447 37.3164C37.4075 37.2554 37.6077 37.0422 37.6519 36.7761C37.7121 36.4133 37.4672 36.0702 37.1045 36.0094V36.0094Z" fill="#7D8D9C"/>
</svg>
