<svg width="15" height="17" viewBox="0 0 15 17" fill="none" xmlns="http://www.w3.org/2000/svg">
<path d="M14.0214 9.14951H8.04498V16.7101H14.0214V9.14951Z" fill="#556575"/>
<path d="M6.95495 9.14951H0.978516V16.7101H6.95495V9.14951Z" fill="#556575"/>
<path d="M12.1593 3.08198C12.321 2.7858 12.413 2.44641 12.413 2.08587C12.413 0.935705 11.4773 0 10.3272 0C9.47647 0 8.60604 0.439556 7.93917 1.20597C7.77412 1.39563 7.62712 1.59945 7.5 1.81172C7.37288 1.59945 7.22588 1.39563 7.06084 1.20597C6.39396 0.439556 5.52356 0 4.67285 0C3.52272 0 2.58698 0.935738 2.58698 2.08587C2.58698 2.44638 2.67895 2.7858 2.84063 3.08198H0V8.05976H6.95509V3.08198H8.04488V8.05976H15V3.08198H12.1593ZM4.67285 3.08198C4.12363 3.08198 3.67676 2.63512 3.67676 2.08587C3.67676 1.53662 4.12363 1.08978 4.67285 1.08978C5.66172 1.08978 6.60189 2.10131 6.87549 3.08195H4.67285V3.08198ZM10.3272 3.08198H8.12451C8.39811 2.10131 9.33828 1.08982 10.3272 1.08982C10.8764 1.08982 11.3232 1.53668 11.3232 2.0859C11.3232 2.63515 10.8764 3.08198 10.3272 3.08198Z" fill="#556575"/>
</svg>
