<svg width="36" height="36" viewBox="0 0 36 36" fill="none" xmlns="http://www.w3.org/2000/svg">
<path d="M16.6116 18.4415L15.3893 19.6638C15.1798 19.8733 15.1798 20.213 15.3893 20.4225C15.4941 20.5273 15.6313 20.5797 15.7687 20.5797C15.9061 20.5797 16.0433 20.5273 16.1481 20.4225L17.3703 19.2003C17.5799 18.9907 17.5799 18.6511 17.3703 18.4415C17.1608 18.232 16.8212 18.232 16.6116 18.4415Z" fill="#7D8D9C"/>
<path d="M26.6125 8.44061L18.2785 16.7747C18.0689 16.9842 18.0689 17.3239 18.2785 17.5335C18.3832 17.6382 18.5205 17.6906 18.6579 17.6906C18.7952 17.6906 18.9325 17.6382 19.0372 17.5335L27.3713 9.19939C27.5809 8.98984 27.5809 8.65015 27.3713 8.44061C27.1618 8.23106 26.8221 8.23106 26.6125 8.44061Z" fill="#7D8D9C"/>
<path d="M30.835 4.21798L28.3903 6.66269C28.1807 6.87224 28.1807 7.21193 28.3903 7.42147C28.495 7.52625 28.6323 7.57863 28.7696 7.57863C28.907 7.57863 29.0443 7.52625 29.149 7.42147L31.5938 4.97676C31.8033 4.76721 31.8033 4.42753 31.5938 4.21798C31.3841 4.00843 31.0445 4.00843 30.835 4.21798Z" fill="#7D8D9C"/>
<path d="M14.7085 13.0851L8.78236 7.15895C8.57282 6.94951 8.23313 6.94941 8.02358 7.15895C7.81404 7.3685 7.81404 7.70819 8.02358 7.91773L13.9497 13.8439C14.0545 13.9486 14.1918 14.001 14.3291 14.001C14.4665 14.001 14.6037 13.9486 14.7085 13.8439C14.918 13.6343 14.918 13.2946 14.7085 13.0851Z" fill="#7D8D9C"/>
<path d="M5.84148 4.21796C5.63193 4.00841 5.29224 4.00851 5.0827 4.21796C4.87315 4.42751 4.87315 4.76719 5.0827 4.97674L6.48719 6.38123C6.59196 6.486 6.72922 6.53839 6.86658 6.53839C7.00393 6.53839 7.14119 6.486 7.24597 6.38123C7.45551 6.17168 7.45551 5.832 7.24597 5.62245L5.84148 4.21796Z" fill="#7D8D9C"/>
<path d="M35.3819 31.5359C35.1561 31.3101 34.8755 31.1377 34.5691 31.0334C34.467 30.7271 34.2955 30.4495 34.0632 30.2173C33.8311 29.9852 33.5544 29.8135 33.2497 29.7107C33.147 29.406 32.9756 29.1295 32.7438 28.8978C32.5121 28.6661 32.2356 28.4947 31.9309 28.3918C31.8282 28.0872 31.6568 27.8108 31.425 27.579C31.1924 27.3463 30.9145 27.1748 30.608 27.0724C30.5037 26.766 30.3313 26.4853 30.1055 26.2595C30.0802 26.2342 30.0539 26.21 30.0274 26.1861C31.1311 25.3984 32.3665 24.7801 33.6989 24.3702C33.8349 24.3283 33.9488 24.2342 34.0154 24.1084C34.082 23.9827 34.0959 23.8356 34.054 23.6996L33.2581 21.1124C33.171 20.8292 32.8706 20.6702 32.5875 20.7574C31.3205 21.1472 30.1215 21.6828 29.0073 22.3431L24.6271 17.6865L34.6103 8.33115C34.7102 8.23749 34.7706 8.10911 34.7789 7.97244L35.1947 1.18538C35.2041 1.03193 35.1473 0.881893 35.0385 0.773218C34.9298 0.664444 34.779 0.607668 34.6263 0.617033L27.8392 1.03281C27.7025 1.0412 27.5742 1.10149 27.4805 1.20148L18.321 10.9757L9.83692 1.84271C9.75322 1.75257 9.64113 1.69403 9.51938 1.67667L2.09256 0.62113C1.92545 0.597425 1.75698 0.653616 1.63767 0.772925C1.51836 0.892234 1.46217 1.06071 1.48587 1.22782L2.54141 8.65464C2.55868 8.77638 2.61731 8.88847 2.70745 8.97218L12.0573 17.66L7.66887 22.3428C6.5548 21.6826 5.35595 21.1471 4.08911 20.7573C3.80611 20.6702 3.50564 20.8291 3.41852 21.1123L2.62258 23.6995C2.58073 23.8355 2.59458 23.9826 2.66121 24.1083C2.72784 24.2341 2.84169 24.3282 2.97768 24.3701C4.31007 24.78 5.5455 25.3982 6.64923 26.186C6.6227 26.2099 6.59636 26.2341 6.57099 26.2595C6.34516 26.4853 6.17278 26.766 6.06849 27.0724C5.76207 27.1747 5.48414 27.3463 5.25147 27.579C5.01978 27.8108 4.84838 28.0872 4.74556 28.3918C4.44089 28.4946 4.16443 28.666 3.93273 28.8978C3.70104 29.1295 3.52954 29.406 3.42682 29.7107C3.12206 29.8135 2.84539 29.9852 2.61331 30.2173C2.38103 30.4496 2.20953 30.7272 2.10739 31.0335C1.80097 31.1378 1.52031 31.3102 1.29447 31.536C0.902011 31.9286 0.676758 32.472 0.676758 33.0275C0.677733 33.5825 0.902889 34.1255 1.29467 34.5173C1.68645 34.909 2.22943 35.1342 2.78627 35.1352C3.34126 35.1342 3.88425 34.909 4.27603 34.5173C4.50187 34.2914 4.67424 34.0108 4.77853 33.7045C5.08485 33.6023 5.36249 33.4308 5.59467 33.1985C5.82675 32.9665 5.99845 32.6897 6.10127 32.3849C6.40593 32.2822 6.6824 32.1108 6.91419 31.879C7.14588 31.6472 7.31729 31.3709 7.42011 31.0662C7.72477 30.9635 8.00124 30.7921 8.23293 30.5604C8.46501 30.3283 8.63651 30.0506 8.73904 29.7438C9.04517 29.6399 9.32603 29.4673 9.55236 29.2409C9.57762 29.2156 9.60181 29.1892 9.62572 29.1626C10.4135 30.2663 11.0318 31.5018 11.4417 32.8342C11.5127 33.0649 11.725 33.2131 11.9543 33.2131C12.0066 33.2131 12.0598 33.2054 12.1123 33.1892L14.6994 32.3932C14.8354 32.3514 14.9493 32.2572 15.0159 32.1315C15.0825 32.0057 15.0964 31.8586 15.0545 31.7226C14.6648 30.4558 14.1292 29.257 13.4691 28.1429L18.3479 23.5709L23.2078 28.1425C22.5476 29.2567 22.0119 30.4556 21.6222 31.7225C21.5803 31.8585 21.5942 32.0056 21.6608 32.1314C21.7274 32.2571 21.8413 32.3513 21.9773 32.3931L24.5644 33.1891C24.617 33.2053 24.6701 33.213 24.7224 33.213C24.9517 33.213 25.164 33.0647 25.235 32.8341C25.6449 31.5017 26.2632 30.2663 27.051 29.1625C27.0749 29.1891 27.0991 29.2154 27.1244 29.2408C27.3509 29.4672 27.6316 29.6397 27.9377 29.7437C28.0403 30.0505 28.2118 30.3282 28.4439 30.5603C28.6756 30.792 28.952 30.9634 29.2567 31.0661C29.3594 31.3708 29.5308 31.6472 29.7626 31.8789C29.9943 32.1106 30.2709 32.2821 30.5755 32.3848C30.6783 32.6896 30.8499 32.9663 31.082 33.1983C31.3143 33.4306 31.5919 33.6021 31.8983 33.7043C32.0025 34.0107 32.1749 34.2912 32.4008 34.5171C32.7925 34.9088 33.3355 35.134 33.8924 35.135C34.4474 35.134 34.9903 34.9088 35.3821 34.5171C35.7739 34.1253 35.9991 33.5823 36 33.0265C35.9998 32.472 35.7747 31.9286 35.3819 31.5359ZM3.57695 8.31554L2.64872 1.78408L9.18009 2.7124L17.5857 11.7605L12.7909 16.877L3.57695 8.31554ZM2.78637 34.0621C2.51312 34.0616 2.24602 33.9509 2.05354 33.7585C1.86107 33.566 1.75044 33.2989 1.74995 33.0267C1.74995 32.7545 1.86058 32.4878 2.05354 32.2948C2.14837 32.2 2.26397 32.1244 2.39118 32.0725L3.73977 33.4211C3.68777 33.5482 3.61227 33.6638 3.51735 33.7586C3.32477 33.9509 3.05767 34.0616 2.78637 34.0621ZM4.49982 32.6635L3.14849 31.3121C3.19951 31.1871 3.27492 31.0733 3.37219 30.976C3.46994 30.8782 3.58378 30.8024 3.70846 30.7509L5.06095 32.1034C5.00944 32.2281 4.93364 32.3419 4.83579 32.4398C4.73853 32.537 4.62478 32.6124 4.49982 32.6635ZM5.81983 31.3446L4.46723 29.992C4.51855 29.8675 4.59415 29.7539 4.69161 29.6565C4.78907 29.5591 4.90262 29.4836 5.0271 29.4322L6.37969 30.7848C6.32838 30.9092 6.25277 31.0229 6.15532 31.1202C6.05796 31.2177 5.94431 31.2933 5.81983 31.3446ZM7.13857 30.026L5.78597 28.6734C5.83729 28.5489 5.91289 28.4353 6.01035 28.3379C6.108 28.2402 6.22204 28.1646 6.3473 28.1134L7.69833 29.4645C7.64712 29.5901 7.57151 29.7042 7.47415 29.8016C7.3766 29.8991 7.26305 29.9746 7.13857 30.026ZM8.79358 28.4821C8.69846 28.5772 8.58296 28.6528 8.45623 28.7047L7.10745 27.3559C7.15944 27.2288 7.23495 27.1132 7.32977 27.0184C7.38743 26.9607 7.4524 26.9106 7.52225 26.8681C8.03265 27.3039 8.50784 27.7791 8.94362 28.2895C8.90108 28.3596 8.85104 28.4246 8.79358 28.4821ZM12.2998 32.009C10.9057 28.0294 7.78252 24.9061 3.80299 23.5122L4.28373 21.9496C6.5271 22.7253 8.52911 23.9921 10.1654 25.6252C10.1689 25.6289 10.1713 25.6333 10.1749 25.6369C10.1786 25.6405 10.1829 25.643 10.1867 25.6465C11.8197 27.2827 13.0866 29.2848 13.8623 31.5281L12.2998 32.009ZM11.3079 25.2628L14.3702 22.2006C14.5797 21.991 14.5797 21.6513 14.3702 21.4418C14.1606 21.2322 13.8209 21.2322 13.6114 21.4418L10.5492 24.504C9.93818 23.9314 9.2832 23.405 8.58969 22.9296L28.118 2.09088L34.0867 1.72525L33.7211 7.69402L12.8825 27.2222C12.407 26.5287 11.8806 25.8738 11.3079 25.2628ZM19.1324 22.8358L23.8443 18.4203L28.0862 22.93C27.393 23.4053 26.7383 23.9315 26.1275 24.5039L23.0653 21.4417C22.8558 21.2321 22.5161 21.2321 22.3065 21.4417C22.097 21.6512 22.097 21.9909 22.3065 22.2005L25.3688 25.2627C24.7963 25.8735 24.27 26.5282 23.7947 27.2215L19.1324 22.8358ZM24.3769 32.009L22.8144 31.5283C23.59 29.285 24.857 27.2829 26.49 25.6467C26.4937 25.6431 26.4981 25.6407 26.5017 25.6371C26.5054 25.6335 26.5078 25.6291 26.5113 25.6254C28.1476 23.9923 30.1496 22.7255 32.393 21.9498L32.8737 23.5124C28.8942 24.9061 25.7709 28.0294 24.3769 32.009ZM27.8831 28.4822C27.8257 28.4246 27.7755 28.3596 27.7331 28.2896C28.1689 27.7792 28.644 27.304 29.1544 26.8682C29.2243 26.9107 29.2893 26.9607 29.3469 27.0184C29.4417 27.1132 29.5174 27.2288 29.5693 27.3559L28.2206 28.7047C28.0936 28.6529 27.9782 28.5772 27.8831 28.4822ZM29.2025 29.8016C29.1052 29.7042 29.0296 29.5901 28.9784 29.4645L30.3294 28.1134C30.4547 28.1645 30.5687 28.2401 30.6663 28.3379C30.7638 28.4354 30.8393 28.5489 30.8907 28.6734L29.5381 30.026C29.4136 29.9746 29.3 29.8991 29.2025 29.8016ZM30.5213 31.1202C30.4238 31.0228 30.3483 30.9092 30.2969 30.7848L31.6495 29.4322C31.774 29.4835 31.8875 29.5591 31.985 29.6565C32.0824 29.754 32.158 29.8675 32.2094 29.992L30.8568 31.3446C30.7323 31.2933 30.6187 31.2177 30.5213 31.1202ZM31.8407 32.4397C31.743 32.3419 31.6672 32.2281 31.6156 32.1034L32.9681 30.7509C33.0928 30.8024 33.2067 30.8782 33.3045 30.976C33.4018 31.0732 33.4772 31.1871 33.5282 31.3121L32.1769 32.6635C32.0518 32.6124 31.9381 32.537 31.8407 32.4397ZM34.6233 33.7584C34.4307 33.9509 34.1636 34.0616 33.8923 34.0621C33.619 34.0616 33.3519 33.951 33.1594 33.7584C33.0646 33.6636 32.989 33.548 32.937 33.4209L34.2856 32.0723C34.4128 32.1243 34.5283 32.1998 34.6232 32.2946C34.8161 32.4876 34.9267 32.7544 34.9267 33.0256C34.9264 33.2988 34.8156 33.5659 34.6233 33.7584Z" fill="#7D8D9C"/>
</svg>
