<svg width="19" height="24" viewBox="0 0 19 24" fill="none" xmlns="http://www.w3.org/2000/svg">
<path d="M12.312 15.1812C12.75 14.4492 13.394 14.0742 14.248 14.0642C15.102 14.0542 15.533 13.6192 15.547 12.7632C15.559 11.9112 15.93 11.2672 16.662 10.8312C17.396 10.3932 17.555 9.80421 17.137 9.05821C16.721 8.31421 16.721 7.57021 17.137 6.82421C17.555 6.08021 17.397 5.49221 16.662 5.05421C15.93 4.61521 15.558 3.97221 15.547 3.11621C15.533 2.26421 15.102 1.82921 14.248 1.81921C13.394 1.80721 12.75 1.43421 12.312 0.702206C11.874 -0.031794 11.285 -0.190794 10.541 0.227206C9.79701 0.643206 9.05101 0.643206 8.30701 0.227206C7.56201 -0.189794 6.97301 -0.031794 6.53501 0.702206C6.09801 1.43521 5.45301 1.80821 4.60001 1.81921C3.74801 1.82921 3.31501 2.26421 3.30301 3.11621C3.28901 3.97221 2.91801 4.61421 2.18601 5.05421C1.45201 5.49221 1.29101 6.07921 1.71101 6.82421C2.12901 7.57021 2.12901 8.31421 1.71101 9.05821C1.29101 9.80421 1.45101 10.3942 2.18601 10.8312C2.91801 11.2672 3.29001 11.9112 3.30301 12.7632C3.31501 13.6182 3.74801 14.0542 4.60001 14.0642C5.45401 14.0742 6.09801 14.4492 6.53601 15.1812C6.97401 15.9152 7.56301 16.0742 8.30701 15.6542C9.05101 15.2422 9.79701 15.2422 10.541 15.6542C11.285 16.0732 11.875 15.9152 12.312 15.1812ZM9.42601 12.6142C6.84401 12.6142 4.75201 10.5222 4.75201 7.94021C4.75201 5.36021 6.84401 3.26821 9.42601 3.26821C12.006 3.26821 14.098 5.36021 14.098 7.94021C14.098 10.5222 12.006 12.6142 9.42601 12.6142Z" fill="#E4EBF2"/>
<path d="M4.525 14.7492C3.627 14.7492 3.507 14.3312 3.507 14.3312L0 21.2242L2.812 20.9082L4.367 23.2482C4.367 23.2482 7.607 16.4882 7.607 16.5332C5.928 16.4912 6.596 14.7942 4.525 14.7492Z" fill="#E4EBF2"/>
<path d="M15.295 14.6012C12.733 14.8692 13.254 15.5052 12.668 15.9992C11.994 16.7182 11.152 16.5772 11.152 16.5772L15.107 23.3822L16.08 20.8622L18.846 21.2232L15.295 14.6012Z" fill="#E4EBF2"/>
<path d="M10.402 6.90921L9.42401 4.92921L8.44501 6.90921L6.25601 7.22921L7.83801 8.77221L7.46501 10.9542L9.42401 9.92521L11.383 10.9542L11.01 8.77221L12.592 7.22921L10.402 6.90921Z" fill="#E4EBF2"/>
</svg>
