<svg width="17" height="16" viewBox="0 0 17 16" fill="none" xmlns="http://www.w3.org/2000/svg">
<path d="M16.7138 2.90123C16.5232 2.71061 16.2917 2.61521 16.0193 2.61521H13.0769V1.6345C13.0769 1.18499 12.9171 0.80029 12.5968 0.480102C12.2768 0.160022 11.8918 0 11.4423 0H5.55777C5.10826 0 4.72338 0.159986 4.40326 0.480102C4.08311 0.800254 3.92312 1.18496 3.92312 1.6345V2.61525H0.980744C0.708363 2.61525 0.47681 2.71054 0.28605 2.90126C0.0952905 3.09199 0 3.32357 0 3.59603V4.90369C0 5.38719 0.141308 5.8742 0.423994 6.36464C0.70661 6.85498 1.08795 7.29783 1.56823 7.6927C2.04833 8.08774 2.63747 8.41981 3.33563 8.68886C4.03383 8.95792 4.76764 9.10949 5.53733 9.14342C5.82346 9.51141 6.14686 9.83478 6.50785 10.1139C6.76674 10.3454 6.9454 10.5922 7.0442 10.8547C7.14289 11.1168 7.19227 11.4216 7.19227 11.769C7.19227 12.1369 7.0885 12.4467 6.88067 12.6984C6.67306 12.9507 6.34099 13.0766 5.88468 13.0766C5.37381 13.0766 4.91925 13.2316 4.52077 13.5414C4.12236 13.8515 3.92312 14.2414 3.92312 14.7113V15.365C3.92312 15.4605 3.95372 15.5389 4.01501 15.6001C4.07634 15.6614 4.1546 15.6919 4.25 15.6919H12.7501C12.8456 15.6919 12.9237 15.6614 12.9852 15.6001C13.0462 15.5389 13.0768 15.4605 13.0768 15.365V14.7113C13.0768 14.2413 12.8777 13.8516 12.479 13.5414C12.0805 13.2316 11.6259 13.0766 11.1151 13.0766C10.6589 13.0766 10.3267 12.9507 10.1193 12.6984C9.91157 12.4467 9.80798 12.1369 9.80798 11.769C9.80798 11.4214 9.85722 11.1168 9.95591 10.8547C10.0549 10.5922 10.2337 10.3456 10.4923 10.1139C10.8533 9.83467 11.1768 9.51112 11.4626 9.14342C12.2326 9.10949 12.9662 8.95788 13.6646 8.68886C14.3625 8.41981 14.9518 8.08774 15.4319 7.6927C15.9122 7.29769 16.2935 6.85498 16.5761 6.36464C16.8587 5.8742 17.0001 5.38722 17.0001 4.90369V3.59603C16.9999 3.32372 16.9045 3.09206 16.7138 2.90123ZM2.27312 6.55862C1.62949 5.98656 1.30773 5.43485 1.30773 4.90358V3.92283H3.92309C3.92309 5.34643 4.175 6.60979 4.67904 7.71313C3.71884 7.51568 2.91683 7.13069 2.27312 6.55862ZM15.6922 4.90369C15.6922 5.43496 15.3706 5.98681 14.727 6.55884C14.0831 7.1309 13.2812 7.51578 12.321 7.71324C12.825 6.60993 13.0769 5.34654 13.0769 3.92294H15.6922V4.90369V4.90369Z" fill="#506172"/>
</svg>
