<svg width="34" height="24" viewBox="0 0 34 24" fill="none" xmlns="http://www.w3.org/2000/svg">
<path d="M32.1142 24H1.88583C0.843552 24 0 23.1771 0 22.1617V1.83829C0 0.822857 0.843552 0 1.88583 0H32.1142C33.1559 0 34 0.822857 34 1.83829V22.1617C34 23.1771 33.1559 24 32.1142 24Z" fill="#CCB375"/>
<path d="M8.79322 16H3.51736C3.19319 16 2.93115 16.256 2.93115 16.5714C2.93115 16.8869 3.19319 17.1429 3.51736 17.1429H8.79322C9.11739 17.1429 9.37943 16.8869 9.37943 16.5714C9.37943 16.256 9.11739 16 8.79322 16Z" fill="#7A693C"/>
<path d="M17 16.5714C17 16.256 16.738 16 16.4138 16H11.138C10.8138 16 10.5518 16.256 10.5518 16.5714C10.5518 16.8869 10.8138 17.1429 11.138 17.1429H16.4138C16.738 17.1429 17 16.8869 17 16.5714Z" fill="#7A693C"/>
<path d="M4.10357 18.8569H3.51736C3.19319 18.8569 2.93115 19.1129 2.93115 19.4284C2.93115 19.7438 3.19319 19.9998 3.51736 19.9998H4.10357C4.42774 19.9998 4.68977 19.7438 4.68977 19.4284C4.68977 19.1129 4.42774 18.8569 4.10357 18.8569Z" fill="#7A693C"/>
<path d="M7.62093 18.8569H6.44851C6.12434 18.8569 5.8623 19.1129 5.8623 19.4284C5.8623 19.7438 6.12434 19.9998 6.44851 19.9998H7.62093C7.9451 19.9998 8.20713 19.7438 8.20713 19.4284C8.20713 19.1129 7.9451 18.8569 7.62093 18.8569Z" fill="#7A693C"/>
<path d="M10.5518 18.8569H9.9656C9.64143 18.8569 9.37939 19.1129 9.37939 19.4284C9.37939 19.7438 9.64143 19.9998 9.9656 19.9998H10.5518C10.876 19.9998 11.138 19.7438 11.138 19.4284C11.138 19.1129 10.876 18.8569 10.5518 18.8569Z" fill="#7A693C"/>
<path d="M14.0692 18.8569H12.8968C12.5726 18.8569 12.3105 19.1129 12.3105 19.4284C12.3105 19.7438 12.5726 19.9998 12.8968 19.9998H14.0692C14.3933 19.9998 14.6554 19.7438 14.6554 19.4284C14.6554 19.1129 14.3933 18.8569 14.0692 18.8569Z" fill="#7A693C"/>
<path d="M15.9976 19.0231C15.8915 19.1316 15.8276 19.2802 15.8276 19.4288C15.8276 19.5774 15.8915 19.7259 15.9976 19.8345C16.1084 19.9374 16.2614 20.0002 16.4138 20.0002C16.5663 20.0002 16.7181 19.9374 16.8301 19.8345C16.9356 19.7259 17.0001 19.5774 17.0001 19.4288C17.0001 19.2802 16.9356 19.1316 16.8301 19.0231C16.6073 18.8116 16.2075 18.8116 15.9976 19.0231Z" fill="#7A693C"/>
<path d="M26.9656 17.7145C26.9656 19.6082 25.3911 21.143 23.4484 21.143C21.5057 21.143 19.9312 19.6082 19.9312 17.7145C19.9312 15.8207 21.5057 14.2859 23.4484 14.2859C25.3911 14.2859 26.9656 15.8207 26.9656 17.7145Z" fill="#E74C3D"/>
<path d="M31.0692 17.7145C31.0692 19.6082 29.4946 21.143 27.5519 21.143C25.6092 21.143 24.0347 19.6082 24.0347 17.7145C24.0347 15.8207 25.6092 14.2859 27.5519 14.2859C29.4946 14.2859 31.0692 15.8207 31.0692 17.7145Z" fill="#F0C41B"/>
<path d="M12.1607 11.4287H4.25278C3.84712 11.4287 3.51709 11.1075 3.51709 10.7115V5.28868C3.51709 4.89268 3.84712 4.57153 4.25278 4.57153H12.1607C12.567 4.57153 12.8964 4.89268 12.8964 5.28868V10.7115C12.8964 11.1075 12.567 11.4287 12.1607 11.4287Z" fill="#F0C41B"/>
<path d="M12.161 12H4.25305C3.52439 12 2.93115 11.4217 2.93115 10.7114V5.28857C2.93115 4.57829 3.52439 4 4.25305 4H12.161C12.8896 4 13.4829 4.57829 13.4829 5.28857V10.7114C13.4829 11.4217 12.8896 12 12.161 12ZM4.25305 5.14286C4.16981 5.14286 4.10357 5.208 4.10357 5.28857V10.7114C4.10357 10.792 4.16981 10.8571 4.25305 10.8571H12.161C12.2436 10.8571 12.3105 10.792 12.3105 10.7114V5.28857C12.3105 5.208 12.2436 5.14286 12.161 5.14286H4.25305Z" fill="#F3D55C"/>
<path d="M12.8967 5.28868C12.8967 4.89268 12.5673 4.57153 12.161 4.57153H9.3795H7.77036C7.36353 4.57153 7.03467 4.89268 7.03467 5.28868V6.85725V10.7115C7.03467 11.1075 7.36353 11.4287 7.77036 11.4287H8.64381C9.05005 11.4287 9.3795 11.1075 9.3795 10.7115V7.57439C9.3795 7.17839 9.70894 6.85725 10.1152 6.85725H12.161C12.5673 6.85725 12.8967 6.53611 12.8967 6.14011V5.28868Z" fill="#F0C41B"/>
<path d="M8.64359 12H7.77014C7.04148 12 6.44824 11.4217 6.44824 10.7114V5.28857C6.44824 4.57829 7.04148 4 7.77014 4H12.1608C12.8895 4 13.4827 4.57829 13.4827 5.28857V6.14C13.4827 6.85029 12.8895 7.42857 12.1608 7.42857H10.115C10.0317 7.42857 9.96548 7.49371 9.96548 7.57429V10.7114C9.96548 11.4217 9.37224 12 8.64359 12ZM7.77014 5.14286C7.6869 5.14286 7.62066 5.208 7.62066 5.28857V10.7114C7.62066 10.792 7.6869 10.8571 7.77014 10.8571H8.64359C8.72624 10.8571 8.79307 10.792 8.79307 10.7114V7.57429C8.79307 6.864 9.38631 6.28571 10.115 6.28571H12.1608C12.2435 6.28571 12.3103 6.22057 12.3103 6.14V5.28857C12.3103 5.208 12.2435 5.14286 12.1608 5.14286H7.77014Z" fill="#F3D55C"/>
<path d="M12.8964 9.71439H9.37918C9.055 9.71439 8.79297 9.45839 8.79297 9.14296C8.79297 8.82753 9.055 8.57153 9.37918 8.57153H12.8964C13.2206 8.57153 13.4826 8.82753 13.4826 9.14296C13.4826 9.45839 13.2206 9.71439 12.8964 9.71439Z" fill="#F3D55C"/>
<path d="M7.0346 7.4285H3.51736C3.19319 7.4285 2.93115 7.1725 2.93115 6.85707C2.93115 6.54164 3.19319 6.28564 3.51736 6.28564H7.0346C7.35877 6.28564 7.62081 6.54164 7.62081 6.85707C7.62081 7.1725 7.35877 7.4285 7.0346 7.4285Z" fill="#F3D55C"/>
<path d="M7.0346 9.71439H3.51736C3.19319 9.71439 2.93115 9.45839 2.93115 9.14296C2.93115 8.82753 3.19319 8.57153 3.51736 8.57153H7.0346C7.35877 8.57153 7.62081 8.82753 7.62081 9.14296C7.62081 9.45839 7.35877 9.71439 7.0346 9.71439Z" fill="#F3D55C"/>
</svg>
