<svg width="333" height="592" viewBox="0 0 333 592" fill="none" xmlns="http://www.w3.org/2000/svg">
<path d="M332.083 203.037C330.477 199.563 327.019 197.334 323.21 197.334H207.15L321.691 15.1457C323.601 12.1071 323.718 8.25911 321.995 5.11179C320.271 1.95407 316.98 0 313.415 0H156.71C152.998 0 149.608 2.11132 147.944 5.45635L1.03275 301.457C-0.485716 304.506 -0.319293 308.137 1.46316 311.047C3.25594 313.957 6.39961 315.733 9.79809 315.733H110.511L0.767619 578.305C-1.10321 582.795 0.562175 588.004 4.68488 590.55C6.27106 591.527 8.034 592 9.78776 592C12.5986 592 15.3704 590.786 17.2906 588.498L330.702 213.563C333.159 210.624 333.689 206.519 332.083 203.037Z" fill="#131A22" fill-opacity="0.6"/>
</svg>
