<svg width="36" height="36" viewBox="0 0 36 36" fill="none" xmlns="http://www.w3.org/2000/svg">
<g clip-path="url(#clip0)">
<path d="M15.6333 5.69604H21.7915L18.9589 9.17237L15.6333 5.69604Z" fill="#FCC69D"/>
<path d="M23.9592 4.12089L23.4929 3.61992C22.741 2.81196 21.6869 2.35303 20.5831 2.35303H15.0608V3.27525C15.0608 4.65492 16.1827 5.77155 17.5624 5.76501L22.1865 5.75587L23.9592 4.12089Z" fill="#FCC69D"/>
<path d="M17.7046 28.5737C18.8653 29.4848 20.3272 29.9242 21.7979 29.8038L22.0209 29.7855L25.8785 33.643L35.2971 25.5209L29.9552 20.2024L17.7046 28.5737Z" fill="#FCC69D"/>
<path d="M8.10742 20.6483L0.703369 28.0523L12.6493 33.6471L18.9516 27.3215C21.5422 27.2276 24.0013 26.1564 25.8344 24.3233L32.6567 17.501C33.417 16.7407 33.417 15.5081 32.6567 14.7477C31.8964 13.9874 30.6637 13.9874 29.9034 14.7477L29.0392 15.6119L30.8482 13.8029C31.6085 13.0427 31.6085 11.81 30.8482 11.0496C30.0879 10.2894 28.8552 10.2894 28.0949 11.0496L26.2859 12.8586L28.7832 10.3614C29.5434 9.60107 29.5434 8.36842 28.7832 7.60806C28.0229 6.84778 26.7902 6.84778 26.0299 7.60806L23.5326 10.1054L26.7182 6.9197C27.4785 6.15942 27.4785 4.92677 26.7182 4.16641C25.9579 3.40612 24.7253 3.40612 23.9649 4.16641L18.959 9.17238" fill="#FCC69D"/>
<path d="M10.8607 17.895L8.96047 15.9948C8.20018 15.2345 6.96754 15.2345 6.20718 15.9948C5.44689 16.7551 5.44689 17.9877 6.20718 18.7481L8.10744 20.6483C8.86773 21.4086 10.1004 21.4086 10.8607 20.6483C11.621 19.8881 11.621 18.6553 10.8607 17.895Z" fill="#FCC69D"/>
<path d="M13.6141 15.1418L10.7691 12.2968C10.0088 11.5365 8.77614 11.5365 8.01577 12.2968C7.25548 13.0571 7.25548 14.2897 8.01577 15.0501L10.8608 17.8951C11.6211 18.6554 12.8538 18.6554 13.6141 17.8951C14.3744 17.1348 14.3744 15.9021 13.6141 15.1418Z" fill="#FCC69D"/>
<path d="M16.3674 12.3885L12.834 8.85513C12.0737 8.09484 10.8411 8.09484 10.0807 8.85513C9.32043 9.61542 9.32043 10.8481 10.0807 11.6084L13.6141 15.1418C14.3743 15.9021 15.607 15.9021 16.3674 15.1418C17.1276 14.3816 17.1276 13.1488 16.3674 12.3885Z" fill="#FCC69D"/>
<path d="M19.1207 9.63494L14.899 5.41323C14.1387 4.65295 12.906 4.65295 12.1457 5.41323C11.3854 6.17352 11.3854 7.40617 12.1457 8.16653L16.3674 12.3882C17.1277 13.1485 18.3603 13.1485 19.1207 12.3882C19.881 11.6279 19.881 10.3952 19.1207 9.63494Z" fill="#FCC69D"/>
<path d="M35.7923 25.0217L34.076 23.3195C33.8002 23.0459 33.3549 23.0478 33.0814 23.3235C32.8078 23.5993 32.8097 24.0446 33.0855 24.3181L34.8017 26.0204C34.9388 26.1564 35.1179 26.2243 35.2969 26.2243C35.4778 26.2243 35.6587 26.1549 35.7962 26.0163C36.0699 25.7405 36.068 25.2952 35.7923 25.0217Z" fill="#323C45"/>
<path d="M31.3323 21.5776L31.3312 21.5788C31.0565 21.8534 31.0571 22.2981 31.3318 22.5728C31.4689 22.7099 31.6488 22.7785 31.8287 22.7785C32.009 22.7785 32.1894 22.7097 32.3269 22.5722C32.6015 22.2976 32.6015 21.8523 32.3269 21.5776C32.0523 21.3029 31.6071 21.3029 31.3323 21.5776Z" fill="#323C45"/>
<path d="M22.5181 29.2881C22.3721 29.1421 22.1691 29.0675 21.9633 29.0844L21.7404 29.1027C20.7112 29.1871 19.6939 28.9616 18.8057 28.4639L19.2577 28.0103C21.93 27.8456 24.4326 26.7192 26.3315 24.8203L33.1538 17.9981C34.187 16.9648 34.187 15.2835 33.1537 14.2501C32.7894 13.8858 32.3443 13.6505 31.8756 13.5432C32.0363 13.1976 32.1214 12.8184 32.1214 12.426C32.1214 11.7181 31.8457 11.0526 31.3452 10.5521C30.9527 10.1595 30.4584 9.90596 29.922 9.81463C30.224 8.89452 30.0105 7.84074 29.2802 7.11048C28.8786 6.70899 28.3792 6.46431 27.858 6.37487C27.9453 6.10986 27.9914 5.82995 27.9914 5.54286C27.9914 4.83495 27.7157 4.16945 27.2152 3.66896C26.7146 3.16848 26.0491 2.89278 25.3413 2.89278C24.8918 2.89278 24.4596 3.0043 24.0756 3.21369L24.0077 3.14078C23.1259 2.1931 21.8776 1.64966 20.5832 1.64966H15.0609C14.6726 1.64966 14.3576 1.96459 14.3576 2.35292V3.27514C14.3576 3.64421 14.4201 4.00351 14.5394 4.34136C14.2213 4.20924 13.8771 4.13985 13.5223 4.13985C12.8144 4.13985 12.1489 4.41554 11.6484 4.91603C10.9177 5.64671 10.7044 6.70126 11.0071 7.62165C10.4855 7.71088 9.98532 7.9557 9.58342 8.35754C9.08293 8.8581 8.80724 9.5236 8.80724 10.2314C8.80724 10.518 8.85315 10.7975 8.94013 11.0619C8.40435 11.1535 7.91061 11.4069 7.51841 11.7992C6.71143 12.6062 6.53474 13.8085 6.98832 14.7886C6.50802 14.8984 6.06688 15.1402 5.70983 15.4972C4.67659 16.5305 4.67659 18.2118 5.70983 19.2451L7.11285 20.648L0.20598 27.555C-0.0686602 27.8296 -0.0686602 28.2749 0.20598 28.5496C0.343301 28.6868 0.523301 28.7556 0.703231 28.7556C0.88316 28.7556 1.06316 28.6869 1.20048 28.5496L8.17422 21.5759C8.56902 21.8011 9.01705 21.9217 9.484 21.9217C10.1918 21.9217 10.8573 21.646 11.3579 21.1454C11.9016 20.6017 12.1589 19.8784 12.1303 19.1646C12.1659 19.166 12.2016 19.1671 12.2372 19.1671C12.9157 19.167 13.5946 18.9087 14.1111 18.3922C14.6116 17.8916 14.8873 17.2261 14.8873 16.5183C14.8873 16.4825 14.8861 16.4469 14.8847 16.4113C14.9199 16.4128 14.9552 16.4139 14.9904 16.4139C15.669 16.4139 16.3478 16.1555 16.8643 15.639C17.3648 15.1384 17.6405 14.4729 17.6405 13.7651C17.6405 13.7293 17.6393 13.6937 17.6379 13.6581C17.6732 13.6595 17.7084 13.6606 17.7437 13.6606C18.4223 13.6606 19.101 13.4023 19.6176 12.8857C20.5884 11.9149 20.6469 10.372 19.7934 9.332L24.4617 4.66367C24.6966 4.42869 25.0088 4.29938 25.341 4.29938C25.6732 4.29938 25.9855 4.42869 26.2204 4.66367C26.4553 4.89859 26.5846 5.21085 26.5846 5.543C26.5846 5.87516 26.4553 6.18749 26.2203 6.42233L25.5321 7.11062L23.0347 9.60798C22.76 9.88262 22.76 10.3279 23.0347 10.6026C23.172 10.7399 23.352 10.8086 23.5319 10.8086C23.7119 10.8086 23.8919 10.7399 24.0292 10.6026L26.5266 8.10526C27.0114 7.62038 27.8003 7.62031 28.2853 8.10519C28.7702 8.59013 28.7702 9.37911 28.2853 9.86399L27.5969 10.5523L25.7879 12.3613C25.5133 12.636 25.5133 13.0813 25.7879 13.356C25.9252 13.4932 26.1052 13.562 26.2852 13.562C26.4651 13.562 26.6451 13.4933 26.7824 13.356L28.5914 11.547C28.8263 11.312 29.1387 11.1827 29.4707 11.1827C29.803 11.1827 30.1152 11.312 30.3501 11.547C30.5851 11.7819 30.7144 12.0942 30.7144 12.4263C30.7144 12.7585 30.5851 13.0708 30.3501 13.3056L29.4053 14.2504L28.5411 15.1146C28.2664 15.3893 28.2664 15.8346 28.5411 16.1093C28.6784 16.2465 28.8584 16.3153 29.0383 16.3153C29.2183 16.3153 29.3983 16.2466 29.5356 16.1093L30.4004 15.2444C30.8854 14.7603 31.6738 14.7604 32.1585 15.2451C32.6435 15.7299 32.6435 16.5189 32.1585 17.0039L25.3362 23.8261C23.6231 25.5392 21.3463 26.531 18.9253 26.6189C18.7473 26.6254 18.5783 26.6991 18.4526 26.8254L12.1503 33.151C11.8762 33.4261 11.8769 33.8714 12.1521 34.1456C12.2893 34.2822 12.4689 34.3507 12.6485 34.3507C12.8288 34.3507 13.0093 34.2817 13.1466 34.1437L17.7821 29.4912C18.9596 30.2465 20.3443 30.6057 21.7523 30.5126L25.3803 34.1406C25.5176 34.2779 25.6976 34.3467 25.8776 34.3467C26.0575 34.3467 26.2375 34.278 26.3748 34.1406C26.6495 33.866 26.6495 33.4207 26.3748 33.146L22.5181 29.2881ZM15.764 3.05612H20.5831C21.4884 3.05612 22.3613 3.43616 22.9781 4.09892L23.0067 4.12965L18.8082 8.32815L16.8766 6.39652C17.0956 6.44328 17.3208 6.4681 17.55 6.46803C17.5552 6.46803 17.5604 6.46803 17.5656 6.46803L19.4955 6.45896C19.8838 6.45713 20.1973 6.1408 20.1955 5.75239C20.1936 5.36511 19.8791 5.05243 19.4923 5.05243C19.4912 5.05243 19.49 5.05243 19.4889 5.05243L17.559 5.0615C17.556 5.0615 17.5532 5.0615 17.5502 5.0615C17.0747 5.0615 16.6275 4.87693 16.2902 4.54133C15.9509 4.20355 15.7641 3.75397 15.7641 3.27514L15.764 3.05612ZM10.3634 20.1509C10.1285 20.3859 9.81615 20.5152 9.48407 20.5152C9.15184 20.5152 8.83958 20.3859 8.60474 20.1509L6.70447 18.2507C6.2196 17.7658 6.2196 16.9768 6.70447 16.4919C6.93939 16.2569 7.25172 16.1276 7.58387 16.1276C7.91603 16.1276 8.22836 16.2569 8.4632 16.4919L10.3635 18.3921C10.8483 18.877 10.8483 19.666 10.3634 20.1509ZM13.481 16.5182C13.481 16.8504 13.3517 17.1627 13.1168 17.3975C12.6318 17.8824 11.8428 17.8824 11.358 17.3975L9.4577 15.4973L8.51284 14.5524C8.02796 14.0675 8.02796 13.2786 8.51284 12.7937C8.74775 12.5587 9.06008 12.4294 9.39217 12.4294C9.72439 12.4294 10.0367 12.5587 10.2715 12.7937L13.1166 15.6388C13.1166 15.6388 13.1166 15.6388 13.1166 15.6388C13.3516 15.8737 13.481 16.1861 13.481 16.5182ZM16.2342 13.7649C16.2342 14.0971 16.1049 14.4094 15.87 14.6442C15.385 15.1291 14.5961 15.1291 14.1112 14.6442L10.5778 11.1108C10.3429 10.8759 10.2136 10.5637 10.2136 10.2315C10.2136 9.89935 10.3429 9.58702 10.5778 9.35218C10.8203 9.10974 11.1388 8.98852 11.4572 8.98852C11.7754 8.98852 12.0936 9.1096 12.3359 9.35162L13.9464 10.9621L15.8698 12.8855H15.8699C16.1049 13.1204 16.2342 13.4327 16.2342 13.7649ZM18.6233 11.891C18.1384 12.3758 17.3494 12.3758 16.8646 11.891L13.3311 8.35754C13.3308 8.35719 13.3304 8.35684 13.3299 8.35642L12.6428 7.66925C12.1579 7.18431 12.1579 6.39533 12.6428 5.91045C12.8852 5.66795 13.2037 5.54673 13.5222 5.54673C13.8406 5.54673 14.1591 5.66795 14.4015 5.91045L18.6231 10.1321C18.8581 10.367 18.9874 10.6793 18.9874 11.0114C18.9875 11.3437 18.8583 11.6561 18.6233 11.891Z" fill="#323C45"/>
</g>
<defs>
<clipPath id="clip0">
<rect width="36" height="36" fill="white"/>
</clipPath>
</defs>
</svg>
