<svg width="40" height="36" viewBox="0 0 40 36" fill="none" xmlns="http://www.w3.org/2000/svg">
<path d="M31.947 18.6057H8.05273V34.7985H31.947V18.6057Z" fill="#FF4397"/>
<path d="M14.9491 18.6057H12.7207V34.7985H14.9491V18.6057Z" fill="#FCC24C"/>
<path d="M27.2792 18.6057H25.0508V34.7985H27.2792V18.6057Z" fill="#FCC24C"/>
<path d="M31.9471 18.6057H30.4614V34.7985H31.9471V18.6057Z" fill="#E12579"/>
<path d="M9.53836 18.6057H8.05273V34.7985H9.53836V18.6057Z" fill="#FF61B5"/>
<path d="M31.947 35.111H8.05273C7.88023 35.111 7.74023 34.971 7.74023 34.7985V18.6057C7.74023 18.4332 7.88023 18.2932 8.05273 18.2932H31.947C32.1195 18.2932 32.2595 18.4332 32.2595 18.6057V34.7985C32.2595 34.971 32.1195 35.111 31.947 35.111ZM8.36523 34.486H31.6345V18.9182H8.36523V34.486Z" fill="#690589"/>
<path d="M20 35.111C19.8275 35.111 19.6875 34.971 19.6875 34.7985V18.7542C19.6875 18.5817 19.8275 18.4417 20 18.4417C20.1725 18.4417 20.3125 18.5817 20.3125 18.7542V34.7985C20.3125 34.971 20.1725 35.111 20 35.111Z" fill="#690589"/>
<path d="M14.9491 35.111H12.7207C12.5482 35.111 12.4082 34.971 12.4082 34.7985V18.6057C12.4082 18.4332 12.5482 18.2932 12.7207 18.2932H14.9491C15.1216 18.2932 15.2616 18.4332 15.2616 18.6057V34.7985C15.2616 34.971 15.1216 35.111 14.9491 35.111ZM13.0332 34.486H14.6366V18.9182H13.0332V34.486Z" fill="#690589"/>
<path d="M27.2792 35.111H25.0508C24.8783 35.111 24.7383 34.971 24.7383 34.7985V18.6057C24.7383 18.4332 24.8783 18.2932 25.0508 18.2932H27.2792C27.4517 18.2932 27.5917 18.4332 27.5917 18.6057V34.7985C27.5917 34.971 27.4517 35.111 27.2792 35.111ZM25.3633 34.486H26.9667V18.9182H25.3633V34.486Z" fill="#690589"/>
<path d="M11.9782 14.7433L10.8916 14.149L11.9782 13.5548L12.5724 12.4683L13.1666 13.5548L14.253 14.149L13.1666 14.7433L12.5724 15.8297L11.9782 14.7433Z" fill="#FCC24C"/>
<path d="M26.8335 14.7433L25.7471 14.149L26.8335 13.5548L27.4277 12.4683L28.0219 13.5548L29.1085 14.149L28.0219 14.7433L27.4277 15.8297L26.8335 14.7433Z" fill="#FCC24C"/>
<path d="M19.6542 11.5897L16.966 13.003C16.421 13.2894 15.7842 12.8267 15.8882 12.22L16.4017 9.22671C16.4431 8.98577 16.3631 8.73983 16.1881 8.56921L14.0132 6.44937C13.5723 6.01968 13.8157 5.27093 14.4249 5.18233L17.4304 4.74562C17.6723 4.71046 17.8815 4.55858 17.9896 4.33936L19.3337 1.61593C19.6062 1.0639 20.3934 1.0639 20.6659 1.61593L22.01 4.33936C22.1181 4.55858 22.3273 4.71061 22.5692 4.74562L25.5746 5.18233C26.1839 5.27093 26.4271 6.01952 25.9864 6.44937L23.8115 8.56921C23.6365 8.73983 23.5565 8.98577 23.5979 9.22671L24.1114 12.22C24.2154 12.8267 23.5786 13.2895 23.0335 13.003L20.3454 11.5897C20.129 11.4759 19.8706 11.4759 19.6542 11.5897Z" fill="#FCC24C"/>
<path d="M9.16772 10.318L8.83287 11.3951C8.76506 11.6133 8.47631 11.6591 8.34428 11.4724L7.69303 10.5516C7.64053 10.4776 7.55506 10.434 7.46428 10.4351L6.33647 10.4494C6.10787 10.4524 5.97522 10.1919 6.11194 10.0087L6.78647 9.10475C6.84084 9.03193 6.85584 8.93709 6.82662 8.85115L6.46444 7.78303C6.391 7.56647 6.59772 7.35975 6.81428 7.43319L7.8824 7.79537C7.96834 7.82459 8.06318 7.80943 8.136 7.75522L9.0399 7.08069C9.22318 6.94397 9.48365 7.07662 9.48068 7.30522L9.46631 8.43303C9.46522 8.52381 9.50865 8.60943 9.58287 8.66178L10.5037 9.31303C10.6904 9.44506 10.6446 9.73381 10.4263 9.80162L9.34928 10.1365C9.26256 10.1633 9.19459 10.2313 9.16772 10.318Z" fill="#FCC24C"/>
<path d="M30.8325 10.318L31.1673 11.3951C31.2352 11.6133 31.5239 11.6591 31.6559 11.4724L32.3072 10.5516C32.3595 10.4776 32.4452 10.434 32.5359 10.4351L33.6637 10.4494C33.8923 10.4524 34.0252 10.1919 33.8883 10.0087L33.2137 9.10475C33.1594 9.03193 33.1444 8.93709 33.1736 8.85115L33.5358 7.78303C33.6092 7.56647 33.4025 7.35975 33.1859 7.43319L32.1178 7.79537C32.0319 7.82459 31.937 7.80943 31.8642 7.75522L30.9603 7.08069C30.777 6.94397 30.5166 7.07662 30.5195 7.30522L30.5339 8.43303C30.535 8.52381 30.4916 8.60943 30.4173 8.66178L29.4966 9.31303C29.3099 9.44506 29.3556 9.73381 29.5739 9.80162L30.6509 10.1365C30.7377 10.1633 30.8056 10.2313 30.8325 10.318Z" fill="#FCC24C"/>
<path d="M12.5722 25.1423H0.625L8.05281 18.6057H20L12.5722 25.1423Z" fill="#7BAC51"/>
<path d="M23.3802 13.4018C23.2125 13.4018 23.0439 13.3613 22.8882 13.2796L20.2 11.8663C20.0744 11.8003 19.9247 11.8004 19.7996 11.8663L17.1114 13.2796C16.7532 13.4676 16.3272 13.4371 16 13.1992C15.6727 12.9613 15.5119 12.5657 15.5802 12.1671L16.0935 9.17385C16.1174 9.034 16.0711 8.89166 15.9697 8.79291L13.795 6.67307C13.5053 6.39057 13.403 5.97604 13.528 5.59119C13.653 5.20635 13.9796 4.93104 14.3799 4.87291L17.3853 4.43619C17.5255 4.41588 17.6466 4.32791 17.7093 4.20088L19.0533 1.47744C19.2324 1.11463 19.595 0.88916 19.9997 0.88916C19.9997 0.88916 19.9997 0.88916 19.9999 0.88916C20.4046 0.88916 20.7671 1.11447 20.9461 1.47744L22.2903 4.20088C22.3528 4.32791 22.4741 4.41588 22.6141 4.43619L25.6196 4.87291C26.02 4.93104 26.3464 5.20635 26.4714 5.59119C26.5966 5.97604 26.4943 6.39057 26.2046 6.67307L24.0297 8.79291C23.9283 8.89182 23.8819 9.03416 23.9058 9.17385L24.4194 12.1671C24.4879 12.5659 24.3269 12.9613 23.9996 13.1992C23.8146 13.3337 23.598 13.4018 23.3802 13.4018ZM19.9997 11.1918C20.1685 11.1918 20.3371 11.2323 20.491 11.3132L23.1789 12.7263C23.3272 12.8045 23.4966 12.7921 23.6322 12.6935C23.7677 12.5951 23.8316 12.4378 23.8033 12.2728L23.2899 9.27947C23.2311 8.93713 23.3447 8.58791 23.5935 8.34525L25.7682 6.22541C25.8882 6.10854 25.9288 5.94369 25.8771 5.78447C25.8254 5.62525 25.6955 5.51572 25.5297 5.49166L22.5243 5.05494C22.1805 5.0051 21.8833 4.78916 21.7296 4.4776L20.3855 1.75416C20.3113 1.604 20.1672 1.51447 19.9997 1.51447C19.8322 1.51447 19.688 1.604 19.6138 1.75432L18.2697 4.4776C18.116 4.78932 17.8189 5.0051 17.4752 5.05494L14.4697 5.49166C14.3039 5.51572 14.1741 5.6251 14.1224 5.78447C14.0707 5.94385 14.1113 6.10854 14.2313 6.22541L16.406 8.34525C16.6547 8.5876 16.7682 8.93682 16.7094 9.27947L16.196 12.2728C16.1677 12.4379 16.2317 12.5951 16.3671 12.6935C16.5027 12.7921 16.6724 12.8043 16.8202 12.7263L19.5083 11.3131C19.6624 11.2323 19.831 11.1918 19.9997 11.1918ZM19.6541 11.5898H19.6557H19.6541Z" fill="#690589"/>
<path d="M17.6008 6.23429C17.448 6.23429 17.3145 6.12226 17.2919 5.96663C17.267 5.79585 17.3853 5.63741 17.5561 5.61241C18.0834 5.53585 18.5392 5.20491 18.775 4.72694C18.8514 4.57226 19.0387 4.50882 19.1934 4.58491C19.3483 4.66132 19.4117 4.84866 19.3355 5.00351C19.0086 5.66585 18.377 6.12492 17.6459 6.23101C17.6309 6.2332 17.6158 6.23429 17.6008 6.23429Z" fill="#690589"/>
<path d="M8.56782 11.9017C8.3786 11.9017 8.20095 11.8112 8.08907 11.6528L7.44892 10.7478L6.34048 10.762C6.33798 10.762 6.33532 10.762 6.33282 10.762C6.11032 10.762 5.91017 10.6395 5.80892 10.4408C5.70642 10.2398 5.72673 10.0025 5.86157 9.8217L6.52454 8.93326L6.1686 7.88341C6.0961 7.66982 6.15017 7.43794 6.3097 7.27841C6.46923 7.11888 6.70095 7.06482 6.9147 7.13716L7.96454 7.49326L8.85298 6.83029C9.03376 6.69544 9.27095 6.67529 9.47188 6.77747C9.67298 6.87982 9.79595 7.08372 9.79313 7.30919L9.77892 8.41779L10.6839 9.05795C10.8681 9.18826 10.9606 9.40748 10.9253 9.63029C10.89 9.8531 10.7342 10.0331 10.5188 10.1001L9.46032 10.429L9.1311 11.4876C9.06423 11.7031 8.88423 11.8589 8.66142 11.8942C8.63001 11.8992 8.59876 11.9017 8.56782 11.9017ZM7.46813 10.1226C7.65876 10.1226 7.83767 10.2151 7.94813 10.3714L8.55642 11.2314L8.86923 10.2254C8.92673 10.0406 9.07126 9.89592 9.2561 9.83826L10.2624 9.52545L9.4022 8.91701C9.24392 8.80482 9.1511 8.62248 9.1536 8.42888L9.16704 7.3756L8.32267 8.00576C8.16767 8.12169 7.96564 8.15388 7.78189 8.09154L6.78407 7.7531L7.12251 8.75091C7.18485 8.9342 7.15282 9.13654 7.03688 9.29185L6.40673 10.1361L7.46017 10.1226C7.46282 10.1226 7.46548 10.1226 7.46813 10.1226ZM9.16767 10.3181H9.16923H9.16767Z" fill="#690589"/>
<path d="M31.4325 11.9017C31.4015 11.9017 31.3703 11.8992 31.3387 11.8944C31.1159 11.8591 30.9359 11.7033 30.8689 11.4878L30.54 10.4292L29.4814 10.1003C29.2659 10.0333 29.1103 9.85331 29.0748 9.63049C29.0395 9.40768 29.132 9.18846 29.3162 9.05815L30.2215 8.41799L30.2071 7.3094C30.2042 7.08393 30.3275 6.88018 30.5284 6.77768C30.7296 6.67549 30.9668 6.69581 31.1475 6.83034L32.0361 7.49346L33.0857 7.13752C33.2995 7.06456 33.5314 7.11909 33.6907 7.27862C33.8503 7.43815 33.9043 7.66987 33.832 7.88346L33.4759 8.93346L34.1389 9.8219C34.2739 10.0027 34.294 10.24 34.1917 10.441C34.0904 10.6396 33.89 10.7622 33.6676 10.7622C33.6651 10.7622 33.6626 10.7622 33.66 10.7622L32.5514 10.748L31.9114 11.653C31.7993 11.8113 31.6217 11.9017 31.4325 11.9017ZM31.1311 10.2256L31.4437 11.2316L32.0521 10.3714C32.1626 10.2152 32.3417 10.1227 32.5323 10.1227C32.535 10.1227 32.5375 10.1227 32.5403 10.1227L33.5936 10.1361L32.9636 9.2919C32.8476 9.13659 32.8156 8.9344 32.8778 8.75096L33.2161 7.75315L32.2184 8.09143C32.0348 8.15362 31.8326 8.12174 31.6775 8.00581L30.8331 7.37565L30.8467 8.42924C30.849 8.62299 30.7561 8.80518 30.5981 8.91706L29.7378 9.52549L30.7439 9.83815C30.9292 9.89596 31.0739 10.0408 31.1311 10.2256Z" fill="#690589"/>
<path d="M12.5722 16.1423C12.458 16.1423 12.3529 16.0799 12.298 15.9798L11.7479 14.9737L10.7416 14.4234C10.6414 14.3684 10.5791 14.2635 10.5791 14.1491C10.5791 14.0348 10.6414 13.9298 10.7418 13.8749L11.7479 13.3248L12.298 12.3185C12.3529 12.2183 12.458 12.156 12.5722 12.156C12.6864 12.156 12.7916 12.2182 12.8464 12.3185L13.3968 13.3248L14.4029 13.8749C14.5032 13.9298 14.5655 14.0348 14.5655 14.1491C14.5655 14.2635 14.5032 14.3684 14.403 14.4234L13.3968 14.9737L12.8464 15.9798C12.7916 16.0801 12.6864 16.1423 12.5722 16.1423ZM11.5429 14.1491L12.1282 14.4693C12.1805 14.498 12.2236 14.5412 12.2524 14.5935L12.5724 15.1787L12.8924 14.5935C12.9211 14.5412 12.9641 14.498 13.0166 14.4693L13.6019 14.1491L13.0168 13.8291C12.9643 13.8004 12.9211 13.7573 12.8925 13.7049L12.5725 13.1196L12.2525 13.7049C12.2238 13.7573 12.1808 13.8004 12.1283 13.8291L11.5429 14.1491Z" fill="#690589"/>
<path d="M27.4277 16.1423C27.3135 16.1423 27.2083 16.0799 27.1535 15.9798L26.6033 14.9737L25.5971 14.4234C25.4968 14.3685 25.4346 14.2635 25.4346 14.1491C25.4346 14.0348 25.4969 13.9298 25.5971 13.8749L26.6033 13.3248L27.1535 12.3185C27.2083 12.2183 27.3133 12.156 27.4277 12.156C27.5421 12.156 27.6471 12.2182 27.7019 12.3185L28.2522 13.3248L29.2583 13.8749C29.3585 13.9298 29.4208 14.0348 29.4208 14.1491C29.4208 14.2632 29.3586 14.3684 29.2583 14.4234L28.2522 14.9737L27.7019 15.9798C27.6469 16.0801 27.5421 16.1423 27.4277 16.1423ZM26.3982 14.1491L26.9835 14.4693C27.0358 14.498 27.0789 14.5412 27.1077 14.5935L27.4277 15.1787L27.7479 14.5935C27.7766 14.5412 27.8197 14.498 27.8721 14.4693L28.4572 14.1491L27.8721 13.8291C27.8197 13.8004 27.7766 13.7573 27.7479 13.7049L27.4277 13.1196L27.1077 13.7049C27.0789 13.7573 27.0358 13.8004 26.9835 13.8291L26.3982 14.1491Z" fill="#690589"/>
<path d="M22.0796 17.2841C21.9071 17.2841 21.7671 17.1441 21.7671 16.9716V15.0405C21.7671 14.868 21.9071 14.728 22.0796 14.728C22.2521 14.728 22.3921 14.868 22.3921 15.0405V16.9716C22.3921 17.1441 22.2521 17.2841 22.0796 17.2841Z" fill="#690589"/>
<path d="M20 17.2839C19.8275 17.2839 19.6875 17.1439 19.6875 16.9714V13.5547C19.6875 13.3822 19.8275 13.2422 20 13.2422C20.1725 13.2422 20.3125 13.3822 20.3125 13.5547V16.9714C20.3125 17.1439 20.1725 17.2839 20 17.2839Z" fill="#690589"/>
<path d="M17.9204 17.2841C17.7479 17.2841 17.6079 17.1441 17.6079 16.9716V15.0405C17.6079 14.868 17.7479 14.728 17.9204 14.728C18.0929 14.728 18.2329 14.868 18.2329 15.0405V16.9716C18.2329 17.1441 18.0931 17.2841 17.9204 17.2841Z" fill="#690589"/>
<path d="M8.93262 17.2839C8.76012 17.2839 8.62012 17.1439 8.62012 16.9714V13.5547C8.62012 13.3822 8.76012 13.2422 8.93262 13.2422C9.10512 13.2422 9.24512 13.3822 9.24512 13.5547V16.9714C9.24512 17.1439 9.10512 17.2839 8.93262 17.2839Z" fill="#690589"/>
<path d="M10.7153 17.284C10.5428 17.284 10.4028 17.1441 10.4028 16.9716V15.6345C10.4028 15.462 10.5428 15.322 10.7153 15.322C10.8878 15.322 11.0278 15.462 11.0278 15.6345V16.9716C11.0278 17.1441 10.888 17.284 10.7153 17.284Z" fill="#690589"/>
<path d="M14.2808 17.284C14.1083 17.284 13.9683 17.1441 13.9683 16.9716V15.6345C13.9683 15.462 14.1083 15.322 14.2808 15.322C14.4533 15.322 14.5933 15.462 14.5933 15.6345V16.9716C14.5933 17.1441 14.4533 17.284 14.2808 17.284Z" fill="#690589"/>
<path d="M31.0674 17.2839C30.8949 17.2839 30.7549 17.1439 30.7549 16.9714V13.5547C30.7549 13.3822 30.8949 13.2422 31.0674 13.2422C31.2399 13.2422 31.3799 13.3822 31.3799 13.5547V16.9714C31.3799 17.1439 31.24 17.2839 31.0674 17.2839Z" fill="#690589"/>
<path d="M29.2847 17.284C29.1122 17.284 28.9722 17.1441 28.9722 16.9716V15.6345C28.9722 15.462 29.1122 15.322 29.2847 15.322C29.4572 15.322 29.5972 15.462 29.5972 15.6345V16.9716C29.5972 17.1441 29.4572 17.284 29.2847 17.284Z" fill="#690589"/>
<path d="M25.7192 17.284C25.5467 17.284 25.4067 17.1441 25.4067 16.9716V15.6345C25.4067 15.462 25.5467 15.322 25.7192 15.322C25.8917 15.322 26.0317 15.462 26.0317 15.6345V16.9716C26.0317 17.1441 25.8919 17.284 25.7192 17.284Z" fill="#690589"/>
<path d="M39.375 25.1423H27.4278L20 18.6057H31.9472L39.375 25.1423Z" fill="#7BAC51"/>
<path d="M31.9468 18.6057H28.9756L36.4036 25.1423H39.3747L31.9468 18.6057Z" fill="#5D8E33"/>
<path d="M8.05281 18.6057H11.0241L3.59609 25.1423H0.625L8.05281 18.6057Z" fill="#99CA6F"/>
<path d="M39.375 25.4548H27.4278C27.3519 25.4548 27.2784 25.427 27.2214 25.3768L19.7936 18.8402C19.6959 18.7543 19.6617 18.617 19.7077 18.4954C19.7534 18.3738 19.87 18.2932 20 18.2932H31.9472C32.0231 18.2932 32.0966 18.321 32.1536 18.3712L39.5814 24.9077C39.6791 24.9937 39.7133 25.131 39.6673 25.2526C39.6214 25.3741 39.505 25.4548 39.375 25.4548ZM27.5458 24.8298H38.5469L31.8292 18.9182H20.8281L27.5458 24.8298Z" fill="#690589"/>
<path d="M12.572 25.4548H0.625001C0.495001 25.4548 0.378438 25.3741 0.332657 25.2526C0.28672 25.131 0.320938 24.9937 0.418595 24.9077L7.84656 18.3712C7.90359 18.321 7.97703 18.2932 8.05297 18.2932H20C20.13 18.2932 20.2464 18.3738 20.2923 18.4954C20.3383 18.617 20.3041 18.7543 20.2064 18.8402L12.7784 25.3768C12.7214 25.427 12.6481 25.4548 12.572 25.4548ZM1.45313 24.8298H12.4541L19.1717 18.9182H8.17078L1.45313 24.8298Z" fill="#690589"/>
</svg>
