<svg width="32" height="32" viewBox="0 0 32 32" fill="none" xmlns="http://www.w3.org/2000/svg">
<g clip-path="url(#clip0)">
<path d="M10.0554 0L3.73096 10.1543L8.53174 13.3936L14.3525 13.145L14.4792 7.48608L10.0554 0Z" fill="#9BFCFF"/>
<path d="M14.3525 13.145L3.73096 10.1543L9.41773 31.1301L11.2891 31.9397H16.0798L16.8474 19.8821L14.3525 13.145Z" fill="#76E2F8"/>
<path d="M17.9641 9.02173L14.3525 13.145L16.0798 31.9397L20.9993 28.1826L22.6855 7.94922L17.9641 9.02173Z" fill="#28C7F7"/>
<path d="M14.3525 13.145L22.6855 7.94922L10.0554 0L14.3525 13.145Z" fill="#76E2F8"/>
<path d="M26.3855 3.74292H28.2571V9.35742H26.3855V3.74292Z" fill="#EFE2DD"/>
<path d="M24.5142 5.6145H30.1284V7.48584H24.5142V5.6145Z" fill="#EFE2DD"/>
<path d="M1.93188 0H3.80322V5.6145H1.93188V0Z" fill="#FFF5F5"/>
<path d="M0.0603027 1.87158H5.67481V3.74292H0.0603027V1.87158Z" fill="#FFF5F5"/>
<path d="M0.0603027 7.48584H1.93188V9.35742H0.0603027V7.48584Z" fill="#FFF5F5"/>
<path d="M18.8997 1.87158H20.7712V3.74292H18.8997V1.87158Z" fill="#EFE2DD"/>
<path d="M30.1284 1.87158H32V3.74292H30.1284V1.87158Z" fill="#EFE2DD"/>
<path d="M11.2891 19.072L7.08789 19.8857L6.61035 24.4644L4.73901 27.6431L6.61035 31.9397H11.2891V19.072Z" fill="#28C7F7"/>
<path d="M0 21.551L4.10571 31.9397H6.61035V24.4644L3.73096 21.324L0 21.551Z" fill="#76E2F8"/>
<path d="M0 21.551L6.61035 24.4644L11.2891 19.072L2.32104 14.5879L0 21.551Z" fill="#9BFCFF"/>
<path d="M32 23.7808L28.3333 21.1426L24.6667 22.2473L20.4224 27.1362L20.0227 31.9397H23.9658L32 23.7808Z" fill="#28C7F7"/>
<path d="M24.6667 22.2473L32 23.7808V10.9656L26.1733 17.0503L24.6667 22.2473Z" fill="#76E2F8"/>
<path d="M32 10.9656L22.8701 13.2483L21.9966 18.2468L24.6667 22.2473L32 10.9656Z" fill="#9BFCFF"/>
<path d="M22.8701 13.2483L16.0798 31.9397H20.0227L24.6667 22.2473L22.8701 13.2483Z" fill="#76E2F8"/>
</g>
<defs>
<clipPath id="clip0">
<rect width="32" height="32" fill="white"/>
</clipPath>
</defs>
</svg>
