<svg width="40" height="40" viewBox="0 0 40 40" fill="none" xmlns="http://www.w3.org/2000/svg">
<path d="M29.604 35.1021V37.5797C29.604 37.8113 29.7935 38.0008 30.0251 38.0008H32.9354C33.167 38.0008 33.3565 37.8113 33.3565 37.5797V35.1021H29.604Z" fill="#5A482E"/>
<path d="M4.53467 37.5797C4.53467 37.8113 4.72412 38.0008 4.95576 38.0008H7.86623C8.09779 38.0008 8.28732 37.8113 8.28732 37.5797V35.1021H4.53467V37.5797Z" fill="#5A482E"/>
<path d="M22.7159 5.06421H15.175C14.9435 5.06421 14.7539 5.25366 14.7539 5.4853V7.46444C14.7539 7.69593 14.9434 7.88554 15.175 7.88554H22.7158C22.9473 7.88554 23.1369 7.69608 23.1369 7.46444V5.4853C23.1369 5.25366 22.9473 5.06421 22.7159 5.06421Z" fill="#BF953E"/>
<path opacity="0.1" d="M31.3685 37.5797V35.1021H29.604V37.5797C29.604 37.8113 29.7935 38.0008 30.0251 38.0008H31.7895C31.5578 38.0007 31.3685 37.8113 31.3685 37.5797Z" fill="black"/>
<path opacity="0.1" d="M6.27381 37.5797V35.1021H4.53467V37.5797C4.53467 37.8113 4.72412 38.0008 4.95576 38.0008H6.69506C6.46342 38.0007 6.27381 37.8113 6.27381 37.5797Z" fill="black"/>
<path opacity="0.1" d="M16.5013 7.46437V5.4853C16.5013 5.25374 16.6908 5.06421 16.9224 5.06421H15.175C14.9435 5.06421 14.7539 5.25366 14.7539 5.4853V7.46444C14.7539 7.69593 14.9434 7.88554 15.175 7.88554H16.9223C16.6908 7.88546 16.5013 7.69593 16.5013 7.46437Z" fill="black"/>
<path d="M32.9301 20.9353C32.9301 21.1668 32.7407 21.3564 32.5091 21.3564H5.38154C5.14998 21.3564 4.96045 21.1669 4.96045 20.9353V7.46699C4.96045 7.23543 5.1499 7.0459 5.38154 7.0459H32.509C32.7405 7.0459 32.9301 7.23535 32.9301 7.46699V20.9353H32.9301V20.9353Z" fill="#EFBA50"/>
<path opacity="0.1" d="M7.6092 20.9353V7.46699C7.6092 7.23543 7.79865 7.0459 8.03029 7.0459H5.38154C5.14998 7.0459 4.96045 7.23535 4.96045 7.46699V20.9354C4.96045 21.1669 5.1499 21.3565 5.38154 21.3565H8.03021C7.79865 21.3564 7.6092 21.1669 7.6092 20.9353Z" fill="black"/>
<path d="M12.0925 21.7252C11.982 21.8356 11.8274 21.8906 11.671 21.8749L4.1528 21.1237C3.92241 21.1006 3.73265 20.93 3.68507 20.7032L3.04398 17.6471C3.00757 17.4736 3.06069 17.2942 3.18515 17.1697L7.53702 12.8178C7.66147 12.6933 7.84085 12.6402 8.01452 12.6765L11.0706 13.3177C11.2975 13.3653 11.468 13.5551 11.491 13.7854L12.2423 21.3036C12.258 21.46 12.203 21.6146 12.0925 21.7252Z" fill="#D69EF0"/>
<path d="M9.07891 15.771L11.3617 13.4881C11.2873 13.4032 11.1864 13.3417 11.0706 13.3175L8.01437 12.6764C7.92383 12.6573 7.83195 12.6633 7.7468 12.6906L8.51187 16.338L6.70578 18.1442L3.05844 17.3791C3.03125 17.4642 3.02523 17.5561 3.0443 17.6467L3.68539 20.703C3.70969 20.8187 3.77109 20.9196 3.85601 20.994L6.14773 18.7023L12.0934 21.7258L9.07891 15.771Z" fill="#BC81E2"/>
<path d="M5.35889 14.9959L6.13842 18.7115L9.07881 15.7711L5.36326 14.9917L5.35889 14.9959Z" fill="#EFC7FF"/>
<path opacity="0.1" d="M5.1394 20.137C4.90901 20.114 4.71924 19.9433 4.67166 19.7166L4.03057 16.6605C3.99416 16.4871 4.04729 16.3076 4.17174 16.1831L3.18518 17.1697C3.06072 17.2941 3.00752 17.4736 3.04401 17.6471L3.6851 20.7033C3.73268 20.9301 3.92252 21.1008 4.15283 21.1237L11.671 21.875C11.8274 21.8906 5.1394 20.137 5.1394 20.137Z" fill="black"/>
<path d="M20.2515 19.1674C20.1257 19.1674 20.0002 19.1195 19.9043 19.0236L15.9308 15.0468C15.8387 14.9547 15.7871 14.8297 15.7871 14.6995C15.7871 14.5693 15.8387 14.4444 15.9308 14.3522L19.9043 10.3754C20.0001 10.2796 20.1257 10.2317 20.2515 10.2317C20.377 10.2317 20.5024 10.2795 20.5982 10.3754L24.572 14.3522C24.6638 14.4444 24.7156 14.5693 24.7156 14.6995C24.7156 14.8297 24.6637 14.9547 24.572 15.0468L20.5982 19.0236C20.5024 19.1195 20.377 19.1674 20.2515 19.1674Z" fill="#F5BFB6"/>
<path d="M24.5725 14.3523L20.5987 10.3755C20.5073 10.2839 20.3884 10.2366 20.2686 10.2324V14.6828H24.7153C24.7111 14.5587 24.6604 14.4405 24.5725 14.3523Z" fill="#E8A09C"/>
<path d="M15.9313 15.0467L19.9049 19.0235C19.9933 19.1119 20.1068 19.1591 20.2224 19.166V14.729H15.7891C15.7962 14.8485 15.8463 14.9616 15.9313 15.0467Z" fill="#E8A09C"/>
<path d="M20.2518 16.4745C20.1887 16.4745 20.126 16.4506 20.078 16.4028L18.5497 14.8733C18.5038 14.8272 18.478 14.7646 18.478 14.6996C18.478 14.6344 18.5038 14.572 18.5497 14.526L20.078 12.9964C20.1259 12.9486 20.1887 12.9246 20.2518 12.9246C20.3144 12.9246 20.3772 12.9485 20.4251 12.9964L21.9535 14.526C21.9993 14.5721 22.0251 14.6346 22.0251 14.6996C22.0251 14.7646 21.9994 14.8271 21.9535 14.8733L20.4251 16.4028C20.3772 16.4507 20.3145 16.4745 20.2518 16.4745Z" fill="#E28883"/>
<path d="M36.2069 16.4712L34.0926 13.2177C33.9724 13.033 33.7689 12.9219 33.5508 12.9219H25.9298C25.7118 12.9219 25.5082 13.033 25.3882 13.2177L23.2736 16.4712C23.1167 16.7127 23.1335 17.0298 23.3151 17.2528L26.682 21.3879H32.7985L36.1654 17.2527C36.3471 17.0297 36.3639 16.7126 36.2069 16.4712Z" fill="#37C4B3"/>
<path d="M25.3885 13.2175L23.2738 16.4709C23.1938 16.5942 23.1592 16.737 23.1685 16.8772H28.159L25.6353 12.9944C25.5368 13.0453 25.4511 13.121 25.3885 13.2175Z" fill="#53E7D3"/>
<path d="M36.2069 16.4711L34.0923 13.2177C34.0297 13.1212 33.944 13.0455 33.8456 12.9946L31.3218 16.8774H36.3126C36.3218 16.7371 36.2872 16.5942 36.2069 16.4711Z" fill="#53E7D3"/>
<path opacity="0.1" d="M26.6816 21.3877H28.2225L24.8556 17.2526C24.674 17.0295 24.6573 16.7124 24.8142 16.4709L26.9288 13.2175C27.0487 13.0328 27.2523 12.9216 27.4704 12.9216H25.9293C25.7113 12.9216 25.5077 13.0328 25.3877 13.2175L23.2731 16.4709C23.1163 16.7124 23.133 17.0295 23.3146 17.2526L26.6816 21.3877Z" fill="black"/>
<path d="M32.315 16.8281H32.2832L32.3045 16.8609L32.315 16.8281Z" fill="#53E7D3"/>
<path d="M27.1975 16.8281H27.1655L27.1762 16.8609L27.1975 16.8281Z" fill="#53E7D3"/>
<path d="M27.1816 16.8772L28.6438 21.3877H30.8369L32.2991 16.8772H27.1816Z" fill="#53E7D3"/>
<path d="M29.7365 12.9219L27.1655 16.8774H32.3149L29.744 12.9219H29.7365Z" fill="#B9F5ED"/>
<path d="M13.0172 22.5852C14.1105 22.5852 14.9968 21.6989 14.9968 20.6056C14.9968 19.5123 14.1105 18.626 13.0172 18.626C11.9239 18.626 11.0376 19.5123 11.0376 20.6056C11.0376 21.6989 11.9239 22.5852 13.0172 22.5852Z" fill="white"/>
<path d="M20.9015 17.0959C19.8272 16.8934 18.7921 17.5997 18.5894 18.6739C18.3865 19.7479 19.093 20.783 20.1671 20.9856C21.2412 21.1886 22.2765 20.4822 22.4792 19.408C22.6819 18.334 21.9757 17.2987 20.9015 17.0959Z" fill="white"/>
<path d="M16.6237 21.0669C17.717 21.0669 18.6033 20.1806 18.6033 19.0873C18.6033 17.994 17.717 17.1077 16.6237 17.1077C15.5303 17.1077 14.644 17.994 14.644 19.0873C14.644 20.1806 15.5303 21.0669 16.6237 21.0669Z" fill="white"/>
<path d="M25.2469 18.8085C24.3277 18.2169 23.103 18.4827 22.5112 19.402C21.9199 20.3212 22.1855 21.546 23.1048 22.1374C24.0241 22.729 25.2487 22.4633 25.8404 21.544C26.4318 20.6247 26.1663 19.3998 25.2469 18.8085Z" fill="white"/>
<path d="M34.9953 35.5063C34.9953 35.7379 34.8058 35.9274 34.5742 35.9274H3.31709C3.08561 35.9274 2.896 35.7379 2.896 35.5063V20.9455C2.896 20.7139 3.08545 20.5244 3.31709 20.5244H34.5742C34.8058 20.5244 34.9953 20.7139 34.9953 20.9455V35.5063Z" fill="#BF953E"/>
<path opacity="0.1" d="M5.51607 35.5063V20.9455C5.51607 20.7139 5.70552 20.5244 5.93717 20.5244H3.31709C3.08561 20.5244 2.896 20.7139 2.896 20.9455V35.5063C2.896 35.7379 3.08545 35.9274 3.31709 35.9274H5.93709C5.7056 35.9273 5.51607 35.7379 5.51607 35.5063Z" fill="black"/>
<path d="M5.7707 33.4587C5.53914 33.4587 5.34961 33.2692 5.34961 33.0376V23.4138C5.34961 23.1822 5.53906 22.9927 5.7707 22.9927H32.1197C32.3512 22.9927 32.5408 23.1821 32.5408 23.4138V33.0377C32.5408 33.2692 32.3513 33.4588 32.1197 33.4588H5.7707V33.4587Z" fill="#EFBA50"/>
<path opacity="0.1" d="M7.96664 33.0377V23.4138C7.96664 23.1822 8.15609 22.9927 8.38773 22.9927H5.7707C5.53914 22.9927 5.34961 23.1821 5.34961 23.4138V33.0377C5.34961 33.2692 5.53906 33.4588 5.7707 33.4588H8.38766C8.15609 33.4587 7.96664 33.2692 7.96664 33.0377Z" fill="black"/>
<path d="M15.4116 20.5244V28.4129C15.4116 28.6445 15.6011 28.834 15.8327 28.834H22.0583C22.2899 28.834 22.4794 28.6446 22.4794 28.4129V20.5244H15.4116Z" fill="#A87B2C"/>
<path d="M13.7399 13.4315C13.5945 13.4315 13.4676 13.3348 13.4289 13.1955C13.1225 12.0885 12.9263 11.8933 11.8161 11.5876C11.6761 11.5491 11.5791 11.4223 11.5791 11.2779C11.5791 11.1331 11.6761 11.0065 11.8161 10.9681C12.9263 10.6624 13.1225 10.4672 13.4289 9.36021C13.4676 9.22092 13.5945 9.12451 13.7399 9.12451C13.885 9.12451 14.0121 9.22092 14.0507 9.36021C14.3572 10.4672 14.5531 10.6624 15.6639 10.9681C15.8036 11.0065 15.9002 11.1332 15.9002 11.2779C15.9002 11.4223 15.8036 11.5491 15.6639 11.5876C14.5531 11.8933 14.3571 12.0885 14.0507 13.1955C14.0121 13.3348 13.885 13.4315 13.7399 13.4315Z" fill="#FDF276"/>
<path d="M39.7394 10.6501C38.516 10.3135 38.3002 10.0984 37.9627 8.87915C37.9202 8.72556 37.7802 8.61938 37.6203 8.61938C37.4602 8.61938 37.3203 8.72548 37.2779 8.87915C36.9402 10.0984 36.7242 10.3135 35.5013 10.6501C35.3472 10.6925 35.2402 10.832 35.2402 10.9914C35.2402 11.1507 35.3473 11.2902 35.5013 11.3327C36.7242 11.6693 36.9402 11.8844 37.2779 13.1036C37.3203 13.257 37.4602 13.3635 37.6203 13.3635C37.7802 13.3635 37.9202 13.257 37.9627 13.1036C38.3003 11.8843 38.5159 11.6692 39.7394 11.3327C39.8934 11.2903 39.9998 11.1507 39.9998 10.9914C39.9998 10.8321 39.8933 10.6926 39.7394 10.6501Z" fill="#FFC753"/>
<path d="M4.49922 4.02997C3.27586 3.69349 3.06031 3.47833 2.72258 2.25911C2.68 2.10552 2.54 1.99927 2.38016 1.99927C2.22 1.99927 2.08016 2.10544 2.03758 2.25911C1.7 3.47841 1.48406 3.69349 0.261094 4.02997C0.106953 4.07247 0 4.212 0 4.3713C0 4.53052 0.106953 4.66997 0.261016 4.71255C1.48398 5.04919 1.69992 5.26427 2.0375 6.48348C2.08008 6.63692 2.21984 6.74341 2.38008 6.74341C2.53992 6.74341 2.67992 6.63692 2.7225 6.48348C3.06016 5.26419 3.27578 5.04911 4.49914 4.71255C4.65313 4.67005 4.75945 4.53059 4.75945 4.3713C4.75953 4.212 4.65312 4.07247 4.49922 4.02997Z" fill="#FFC753"/>
<path d="M20.2345 23.4793C20.2345 22.7633 19.6576 22.1829 18.9456 22.1829C18.234 22.1829 17.6567 22.7633 17.6567 23.4793C17.6567 23.9723 17.9306 24.401 18.3333 24.62V26.5715C18.3333 26.9096 18.6074 27.1837 18.9456 27.1837C19.2837 27.1837 19.5578 26.9096 19.5578 26.5715V24.6202C19.9607 24.4011 20.2345 23.9724 20.2345 23.4793Z" fill="#5A482E"/>
<path opacity="0.1" d="M15.4116 20.5244V28.4129C15.4116 28.6445 15.6011 28.834 15.8327 28.834H17.564C17.3324 28.834 17.1429 28.6446 17.1429 28.4129V20.5244H15.4116Z" fill="black"/>
</svg>
