<svg width="34" height="34" viewBox="0 0 34 34" fill="none" xmlns="http://www.w3.org/2000/svg">
<path d="M3.1875 17.5312H18.0625V29.2188H3.1875V17.5312Z" fill="#AAE1F9"/>
<path d="M1.59375 29.2188H19.6562V30.2813C19.6562 30.8448 19.4324 31.3853 19.0339 31.7839C18.6353 32.1824 18.0948 32.4063 17.5312 32.4063H3.71875C3.15516 32.4063 2.61466 32.1824 2.21615 31.7839C1.81763 31.3853 1.59375 30.8448 1.59375 30.2813V29.2188Z" fill="#F9E109"/>
<path d="M5.3125 21.7812V17.5312H3.1875V29.2188H18.0625V27.0938H10.625C9.21604 27.0938 7.86478 26.534 6.8685 25.5378C5.87221 24.5415 5.3125 23.1902 5.3125 21.7812Z" fill="#57B7EB"/>
<path d="M4.78125 30.8125C4.35856 30.8125 3.95318 30.6446 3.6543 30.3457C3.35541 30.0468 3.1875 29.6414 3.1875 29.2188H1.59375V30.2813C1.59375 30.8448 1.81763 31.3853 2.21615 31.7839C2.61466 32.1824 3.15516 32.4063 3.71875 32.4063H17.5312C18.0012 32.4047 18.4573 32.2475 18.8284 31.9591C19.1994 31.6707 19.4644 31.2675 19.5819 30.8125H4.78125Z" fill="#FCBC04"/>
<path d="M31.3438 18.0625H24.9688C24.3819 18.0625 23.9062 18.5382 23.9062 19.125V25.5C23.9062 26.0868 24.3819 26.5625 24.9688 26.5625H31.3438C31.9306 26.5625 32.4062 26.0868 32.4062 25.5V19.125C32.4062 18.5382 31.9306 18.0625 31.3438 18.0625Z" fill="#C4F236"/>
<path d="M28.1562 23.9062C29.0365 23.9062 29.75 23.1927 29.75 22.3125C29.75 21.4323 29.0365 20.7188 28.1562 20.7188C27.276 20.7188 26.5625 21.4323 26.5625 22.3125C26.5625 23.1927 27.276 23.9062 28.1562 23.9062Z" fill="#57B7EB"/>
<path d="M25.5 20.7188V18.0625H24.9688C24.687 18.0625 24.4167 18.1744 24.2174 18.3737C24.0182 18.573 23.9062 18.8432 23.9062 19.125V25.5C23.9062 25.7818 24.0182 26.052 24.2174 26.2513C24.4167 26.4506 24.687 26.5625 24.9688 26.5625H31.3438C31.6255 26.5625 31.8958 26.4506 32.0951 26.2513C32.2943 26.052 32.4062 25.7818 32.4062 25.5V24.9688H29.75C28.6228 24.9688 27.5418 24.521 26.7448 23.724C25.9478 22.9269 25.5 21.8459 25.5 20.7188Z" fill="#A1D51C"/>
<path d="M28.6875 22.3125C28.9809 22.3125 29.2188 22.0747 29.2188 21.7812C29.2188 21.4878 28.9809 21.25 28.6875 21.25C28.3941 21.25 28.1562 21.4878 28.1562 21.7812C28.1562 22.0747 28.3941 22.3125 28.6875 22.3125Z" fill="#AAE1F9"/>
<path d="M1.59375 6.375H7.96875V14.875H1.59375V6.375Z" fill="#C4F236"/>
<path d="M14.3438 9.5625C16.691 9.5625 18.5938 7.65971 18.5938 5.3125C18.5938 2.96529 16.691 1.0625 14.3438 1.0625C11.9965 1.0625 10.0938 2.96529 10.0938 5.3125C10.0938 7.65971 11.9965 9.5625 14.3438 9.5625Z" fill="#F89C8D"/>
<path d="M13.2812 6.90625V3.71875L16.4688 5.3125L13.2812 6.90625Z" fill="#AAE1F9"/>
<path d="M15.9374 7.9688C14.8102 7.9688 13.7292 7.52103 12.9322 6.724C12.1352 5.92697 11.6874 4.84597 11.6874 3.7188C11.6861 2.9825 11.8784 2.2588 12.2452 1.62036C11.6855 1.94919 11.2085 2.40188 10.8509 2.94369C10.4933 3.48551 10.2646 4.10204 10.1822 4.74599C10.0999 5.38994 10.1662 6.04419 10.3761 6.65853C10.5859 7.27287 10.9337 7.83098 11.3927 8.29002C11.8518 8.74907 12.4099 9.09685 13.0242 9.30669C13.6386 9.51652 14.2928 9.58283 14.9368 9.50052C15.5807 9.41822 16.1973 9.18949 16.7391 8.83188C17.2809 8.47427 17.7336 7.9973 18.0624 7.43755C17.4136 7.79961 16.6803 7.98294 15.9374 7.9688Z" fill="#F8664F"/>
<path d="M31.3438 1.59375H24.9688C24.3819 1.59375 23.9062 2.06945 23.9062 2.65625V9.03125C23.9062 9.61805 24.3819 10.0938 24.9688 10.0938H31.3438C31.9306 10.0938 32.4062 9.61805 32.4062 9.03125V2.65625C32.4062 2.06945 31.9306 1.59375 31.3438 1.59375Z" fill="#AAE1F9"/>
<path d="M25.5 4.25V1.59375H24.9688C24.687 1.59375 24.4167 1.70569 24.2174 1.90495C24.0182 2.10421 23.9062 2.37446 23.9062 2.65625V9.03125C23.9062 9.31304 24.0182 9.58329 24.2174 9.78255C24.4167 9.98181 24.687 10.0938 24.9688 10.0938H31.3438C31.6255 10.0938 31.8958 9.98181 32.0951 9.78255C32.2943 9.58329 32.4062 9.31304 32.4062 9.03125V8.5H29.75C28.6228 8.5 27.5418 8.05223 26.7448 7.2552C25.9478 6.45817 25.5 5.37717 25.5 4.25Z" fill="#57B7EB"/>
<path d="M3.1875 10.0938V6.375H1.59375V14.875H7.96875V13.2812H6.375C5.52962 13.2812 4.71887 12.9454 4.1211 12.3477C3.52333 11.7499 3.1875 10.9391 3.1875 10.0938Z" fill="#A1D51C"/>
<path d="M10.127 22.9316L11.9672 21.8691L14.0922 25.5496C14.2331 25.7937 14.2713 26.0837 14.1983 26.3559C14.1254 26.6281 13.9474 26.8601 13.7033 27.001C13.4593 27.1419 13.1693 27.1801 12.8971 27.1072C12.6249 27.0342 12.3928 26.8562 12.252 26.6121L10.127 22.9316Z" fill="#F8664F"/>
<path d="M13.313 24.1984L11.9689 21.8662L10.1255 22.9287L11.3846 25.1068L12.3036 24.5756L13.313 24.1984Z" fill="#CC5144"/>
<path d="M21.3828 20.1131L12.3037 23.5131L9.64746 18.9125L17.1328 12.75L21.3828 20.1131Z" fill="#C4F236"/>
<path d="M7.34943 20.2415L9.64974 18.9133L12.306 23.514L10.0057 24.8421C9.63962 25.0534 9.20461 25.1107 8.79633 25.0013C8.38806 24.8919 8.03996 24.6248 7.82861 24.2588L6.76611 22.4185C6.55477 22.0525 6.49749 21.6175 6.60689 21.2092C6.71628 20.8009 6.98338 20.4528 7.34943 20.2415Z" fill="#F89C8D"/>
<path d="M5.842 22.9485L6.76213 22.4172L7.82463 24.2575L6.9045 24.7887C6.66047 24.9296 6.37046 24.9678 6.09828 24.8949C5.82609 24.822 5.59402 24.6439 5.45313 24.3999C5.31223 24.1558 5.27404 23.8658 5.34697 23.5936C5.4199 23.3214 5.59797 23.0894 5.842 22.9485Z" fill="#CC5144"/>
<path d="M12.9202 21.8875C12.8651 21.908 12.8119 21.9329 12.7608 21.9618L11.7461 22.5462L12.3039 23.5131L21.383 20.1131L20.7189 18.9656L12.9202 21.8875Z" fill="#A1D51C"/>
<path d="M11.4535 22.7161C11.0307 22.958 10.5496 23.079 10.0627 23.0659C9.57581 23.0528 9.10191 22.906 8.6928 22.6417C8.2837 22.3773 7.95515 22.0056 7.74308 21.5672C7.53101 21.1287 7.44358 20.6403 7.49035 20.1555L7.34691 20.2405C7.16544 20.3451 7.00635 20.4844 6.87875 20.6505C6.75115 20.8166 6.65754 21.0062 6.60327 21.2085C6.54899 21.4107 6.53513 21.6217 6.56245 21.8294C6.58978 22.0371 6.65777 22.2373 6.76254 22.4186L7.82504 24.2568C7.9296 24.4382 8.06891 24.5973 8.235 24.7249C8.40108 24.8525 8.59069 24.9461 8.79298 25.0004C8.99527 25.0547 9.20627 25.0685 9.41392 25.0412C9.62158 25.0139 9.82181 24.9459 10.0032 24.8411L12.3035 23.513L11.7457 22.5461L11.4535 22.7161Z" fill="#F8664F"/>
<path d="M19.6562 28.6875H18.5938V23.4813C18.5938 23.3404 18.5378 23.2052 18.4382 23.1056C18.3385 23.006 18.2034 22.95 18.0625 22.95C17.9216 22.95 17.7865 23.006 17.6868 23.1056C17.5872 23.2052 17.5312 23.3404 17.5312 23.4813V28.6875H3.71875V18.0625H8.13875C8.27965 18.0625 8.41477 18.0065 8.5144 17.9069C8.61403 17.8073 8.67 17.6721 8.67 17.5313C8.67 17.3904 8.61403 17.2552 8.5144 17.1556C8.41477 17.056 8.27965 17 8.13875 17H3.1875C3.0466 17 2.91148 17.056 2.81185 17.1556C2.71222 17.2552 2.65625 17.3904 2.65625 17.5313V28.6875H1.59375C1.45285 28.6875 1.31773 28.7435 1.2181 28.8431C1.11847 28.9427 1.0625 29.0779 1.0625 29.2188V30.2813C1.0625 30.9857 1.34235 31.6614 1.8405 32.1595C2.33864 32.6576 3.01427 32.9375 3.71875 32.9375H17.5312C18.2357 32.9375 18.9114 32.6576 19.4095 32.1595C19.9076 31.6614 20.1875 30.9857 20.1875 30.2813V29.2188C20.1875 29.0779 20.1315 28.9427 20.0319 28.8431C19.9323 28.7435 19.7971 28.6875 19.6562 28.6875ZM19.125 30.2813C19.125 30.7039 18.9571 31.1093 18.6582 31.4082C18.3593 31.7071 17.9539 31.875 17.5312 31.875H16.4688V31.3438C16.4688 31.2029 16.4128 31.0677 16.3132 30.9681C16.2135 30.8685 16.0784 30.8125 15.9375 30.8125C15.7966 30.8125 15.6615 30.8685 15.5618 30.9681C15.4622 31.0677 15.4062 31.2029 15.4062 31.3438V31.875H5.84375V31.3438C5.84375 31.2029 5.78778 31.0677 5.68815 30.9681C5.58852 30.8685 5.4534 30.8125 5.3125 30.8125C5.1716 30.8125 5.03648 30.8685 4.93685 30.9681C4.83722 31.0677 4.78125 31.2029 4.78125 31.3438V31.875H3.71875C3.29606 31.875 2.89068 31.7071 2.5918 31.4082C2.29291 31.1093 2.125 30.7039 2.125 30.2813V29.75H19.125V30.2813Z" fill="#39519D"/>
<path d="M28.6875 4.25H29.75C29.8909 4.25 30.026 4.19403 30.1257 4.0944C30.2253 3.99477 30.2812 3.85965 30.2812 3.71875C30.2812 3.57785 30.2253 3.44273 30.1257 3.3431C30.026 3.24347 29.8909 3.1875 29.75 3.1875H28.6875C28.2648 3.1875 27.8594 3.35541 27.5605 3.6543C27.2617 3.95318 27.0938 4.35856 27.0938 4.78125V5.3125H26.5625C26.4216 5.3125 26.2865 5.36847 26.1868 5.4681C26.0872 5.56773 26.0312 5.70285 26.0312 5.84375C26.0312 5.98465 26.0872 6.11977 26.1868 6.2194C26.2865 6.31903 26.4216 6.375 26.5625 6.375H27.0938V7.96875C27.0938 8.10965 27.1497 8.24477 27.2493 8.3444C27.349 8.44403 27.4841 8.5 27.625 8.5C27.7659 8.5 27.901 8.44403 28.0007 8.3444C28.1003 8.24477 28.1562 8.10965 28.1562 7.96875V6.375H28.6875C28.8284 6.375 28.9635 6.31903 29.0632 6.2194C29.1628 6.11977 29.2188 5.98465 29.2188 5.84375C29.2188 5.70285 29.1628 5.56773 29.0632 5.4681C28.9635 5.36847 28.8284 5.3125 28.6875 5.3125H28.1562V4.78125C28.1562 4.64035 28.2122 4.50523 28.3118 4.4056C28.4115 4.30597 28.5466 4.25 28.6875 4.25Z" fill="#39519D"/>
<path d="M31.3438 1.0625H24.9688C24.5461 1.0625 24.1407 1.23041 23.8418 1.5293C23.5429 1.82818 23.375 2.23356 23.375 2.65625V3.71875C23.375 3.85965 23.431 3.99477 23.5306 4.0944C23.6302 4.19403 23.7654 4.25 23.9062 4.25C24.0471 4.25 24.1823 4.19403 24.2819 4.0944C24.3815 3.99477 24.4375 3.85965 24.4375 3.71875V2.65625C24.4375 2.51535 24.4935 2.38023 24.5931 2.2806C24.6927 2.18097 24.8279 2.125 24.9688 2.125H31.3438C31.4846 2.125 31.6198 2.18097 31.7194 2.2806C31.819 2.38023 31.875 2.51535 31.875 2.65625V9.03125C31.875 9.17215 31.819 9.30727 31.7194 9.4069C31.6198 9.50653 31.4846 9.5625 31.3438 9.5625H24.9688C24.8279 9.5625 24.6927 9.50653 24.5931 9.4069C24.4935 9.30727 24.4375 9.17215 24.4375 9.03125V5.84375C24.4375 5.70285 24.3815 5.56773 24.2819 5.4681C24.1823 5.36847 24.0471 5.3125 23.9062 5.3125C23.7654 5.3125 23.6302 5.36847 23.5306 5.4681C23.431 5.56773 23.375 5.70285 23.375 5.84375V9.03125C23.375 9.45394 23.5429 9.85932 23.8418 10.1582C24.1407 10.4571 24.5461 10.625 24.9688 10.625H31.3438C31.7664 10.625 32.1718 10.4571 32.4707 10.1582C32.7696 9.85932 32.9375 9.45394 32.9375 9.03125V2.65625C32.9375 2.23356 32.7696 1.82818 32.4707 1.5293C32.1718 1.23041 31.7664 1.0625 31.3438 1.0625Z" fill="#39519D"/>
<path d="M26.0312 22.3125C26.0312 22.7328 26.1559 23.1436 26.3894 23.4931C26.6229 23.8426 26.9548 24.1149 27.3431 24.2758C27.7313 24.4366 28.1586 24.4787 28.5708 24.3967C28.983 24.3147 29.3617 24.1123 29.6589 23.8151C29.9561 23.5179 30.1584 23.1393 30.2404 22.7271C30.3224 22.3149 30.2803 21.8876 30.1195 21.4993C29.9587 21.111 29.6863 20.7791 29.3368 20.5456C28.9874 20.3121 28.5765 20.1875 28.1563 20.1875C27.5927 20.1875 27.0522 20.4114 26.6537 20.8099C26.2551 21.2084 26.0312 21.7489 26.0312 22.3125ZM29.2188 22.3125C29.2188 22.5227 29.1564 22.7281 29.0397 22.9028C28.9229 23.0775 28.757 23.2137 28.5629 23.2941C28.3687 23.3746 28.1551 23.3956 27.949 23.3546C27.7429 23.3136 27.5535 23.2124 27.405 23.0638C27.2564 22.9152 27.1552 22.7259 27.1142 22.5198C27.0732 22.3137 27.0942 22.1001 27.1746 21.9059C27.2551 21.7118 27.3912 21.5458 27.566 21.4291C27.7407 21.3123 27.9461 21.25 28.1563 21.25C28.4381 21.25 28.7083 21.3619 28.9076 21.5612C29.1068 21.7605 29.2188 22.0307 29.2188 22.3125Z" fill="#39519D"/>
<path d="M31.3438 17.5312H24.9688C24.5461 17.5312 24.1407 17.6992 23.8418 17.998C23.5429 18.2969 23.375 18.7023 23.375 19.125V25.5C23.375 25.9227 23.5429 26.3281 23.8418 26.627C24.1407 26.9258 24.5461 27.0938 24.9688 27.0938H31.3438C31.7664 27.0938 32.1718 26.9258 32.4707 26.627C32.7696 26.3281 32.9375 25.9227 32.9375 25.5V24.4375C32.9375 24.2966 32.8815 24.1615 32.7819 24.0618C32.6823 23.9622 32.5471 23.9062 32.4062 23.9062C32.2654 23.9062 32.1302 23.9622 32.0306 24.0618C31.931 24.1615 31.875 24.2966 31.875 24.4375V25.5C31.875 25.6409 31.819 25.776 31.7194 25.8757C31.6198 25.9753 31.4846 26.0312 31.3438 26.0312H24.9688C24.8279 26.0312 24.6927 25.9753 24.5931 25.8757C24.4935 25.776 24.4375 25.6409 24.4375 25.5V19.125C24.4375 18.9841 24.4935 18.849 24.5931 18.7493C24.6927 18.6497 24.8279 18.5938 24.9688 18.5938H31.3438C31.4846 18.5938 31.6198 18.6497 31.7194 18.7493C31.819 18.849 31.875 18.9841 31.875 19.125V22.3125C31.875 22.4534 31.931 22.5885 32.0306 22.6882C32.1302 22.7878 32.2654 22.8438 32.4062 22.8438C32.5471 22.8438 32.6823 22.7878 32.7819 22.6882C32.8815 22.5885 32.9375 22.4534 32.9375 22.3125V19.125C32.9375 18.7023 32.7696 18.2969 32.4707 17.998C32.1718 17.6992 31.7664 17.5312 31.3438 17.5312Z" fill="#39519D"/>
<path d="M12.9997 7.35767C13.0842 7.41007 13.1818 7.43768 13.2813 7.43736C13.3644 7.43686 13.4463 7.41685 13.5203 7.37892L16.7078 5.78517C16.7948 5.74059 16.8679 5.67286 16.9189 5.58944C16.9699 5.50601 16.9968 5.41013 16.9968 5.31236C16.9968 5.21458 16.9699 5.11871 16.9189 5.03528C16.8679 4.95186 16.7948 4.88413 16.7078 4.83955L13.5203 3.24579C13.4394 3.20504 13.3495 3.18564 13.259 3.18943C13.1685 3.19322 13.0805 3.22008 13.0033 3.26745C12.9262 3.31482 12.8624 3.38114 12.818 3.4601C12.7737 3.53906 12.7503 3.62805 12.75 3.71861V6.90611C12.7498 6.99639 12.7727 7.08523 12.8163 7.16424C12.86 7.24325 12.9231 7.30982 12.9997 7.35767ZM13.8125 4.57923L15.2788 5.31236L13.8125 6.04548V4.57923Z" fill="#39519D"/>
<path d="M14.3438 10.0938C15.2894 10.0938 16.2138 9.81334 17.0001 9.28797C17.7863 8.7626 18.3992 8.01587 18.761 7.14221C19.1229 6.26855 19.2176 5.3072 19.0331 4.37973C18.8486 3.45226 18.3933 2.60032 17.7246 1.93165C17.0559 1.26298 16.204 0.807608 15.2765 0.623123C14.3491 0.438637 13.3877 0.533322 12.514 0.895203C11.6404 1.25708 10.8937 1.86991 10.3683 2.65618C9.84292 3.44245 9.5625 4.36686 9.5625 5.3125C9.5625 6.58057 10.0662 7.7967 10.9629 8.69336C11.8596 9.59001 13.0757 10.0938 14.3438 10.0938ZM14.3438 1.59375C15.0792 1.59375 15.7982 1.81185 16.4098 2.22047C17.0213 2.6291 17.498 3.20989 17.7794 3.8894C18.0609 4.56891 18.1345 5.31663 17.991 6.03799C17.8476 6.75936 17.4934 7.42198 16.9733 7.94206C16.4532 8.46213 15.7906 8.81631 15.0692 8.9598C14.3479 9.10329 13.6002 9.02964 12.9206 8.74818C12.2411 8.46672 11.6603 7.99007 11.2517 7.37853C10.8431 6.76698 10.625 6.048 10.625 5.3125C10.625 4.32623 11.0168 3.38035 11.7142 2.68295C12.4116 1.98555 13.3575 1.59375 14.3438 1.59375Z" fill="#39519D"/>
<path d="M19.6562 12.2188C19.7387 12.2188 19.8201 12.1996 19.8938 12.1627C19.9676 12.1258 20.0318 12.0722 20.0812 12.0063L21.675 9.88125C21.7595 9.76854 21.7958 9.62685 21.7759 9.48737C21.756 9.34789 21.6815 9.22204 21.5687 9.1375C21.456 9.05297 21.3143 9.01667 21.1749 9.03659C21.0354 9.05652 20.9095 9.13104 20.825 9.24375L19.2313 11.3688C19.1467 11.4815 19.1104 11.6232 19.1303 11.7626C19.1503 11.9021 19.2248 12.028 19.3375 12.1125C19.4295 12.1815 19.5413 12.2188 19.6562 12.2188Z" fill="#39519D"/>
<path d="M20.825 14.1313C20.8745 14.1972 20.9387 14.2508 21.0124 14.2877C21.0862 14.3246 21.1675 14.3438 21.25 14.3438C21.3649 14.3438 21.4768 14.3065 21.5687 14.2375L23.6937 12.6438C23.8065 12.5592 23.881 12.4334 23.9009 12.2939C23.9208 12.1544 23.8845 12.0127 23.8 11.9C23.7154 11.7873 23.5896 11.7128 23.4501 11.6928C23.3106 11.6729 23.169 11.7092 23.0562 11.7938L20.9313 13.3875C20.8185 13.472 20.744 13.5979 20.7241 13.7374C20.7042 13.8769 20.7405 14.0185 20.825 14.1313Z" fill="#39519D"/>
<path d="M26.0314 15.3001C26.0187 15.2296 25.992 15.1625 25.9528 15.1026C25.9136 15.0428 25.8627 14.9915 25.8031 14.9518C25.7436 14.9121 25.6767 14.8848 25.6063 14.8716C25.536 14.8585 25.4637 14.8596 25.3939 14.8751L22.7376 15.4063C22.6678 15.4133 22.6001 15.4339 22.5384 15.4671C22.4766 15.5002 22.4219 15.5452 22.3775 15.5995C22.2879 15.7091 22.2454 15.8498 22.2595 15.9907C22.2736 16.1316 22.3431 16.2611 22.4527 16.3508C22.5622 16.4404 22.703 16.4829 22.8439 16.4688H22.9501L25.6064 15.9376C25.6768 15.9249 25.7439 15.8982 25.8038 15.859C25.8636 15.8198 25.915 15.7689 25.9546 15.7093C25.9943 15.6498 26.0216 15.5828 26.0348 15.5125C26.048 15.4422 26.0468 15.3699 26.0314 15.3001Z" fill="#39519D"/>
<path d="M1.59375 15.4062H7.96875C8.10965 15.4062 8.24477 15.3503 8.3444 15.2507C8.44403 15.151 8.5 15.0159 8.5 14.875V6.375C8.5 6.2341 8.44403 6.09898 8.3444 5.99935C8.24477 5.89972 8.10965 5.84375 7.96875 5.84375H1.59375C1.45285 5.84375 1.31773 5.89972 1.2181 5.99935C1.11847 6.09898 1.0625 6.2341 1.0625 6.375V14.875C1.0625 15.0159 1.11847 15.151 1.2181 15.2507C1.31773 15.3503 1.45285 15.4062 1.59375 15.4062ZM2.125 6.90625H7.4375V14.3438H2.125V6.90625Z" fill="#39519D"/>
<path d="M5.84375 7.96875H4.78125C4.64035 7.96875 4.50523 8.02472 4.4056 8.12435C4.30597 8.22398 4.25 8.3591 4.25 8.5C4.25 8.6409 4.30597 8.77602 4.4056 8.87565C4.50523 8.97528 4.64035 9.03125 4.78125 9.03125H5.84375C5.98465 9.03125 6.11977 8.97528 6.2194 8.87565C6.31903 8.77602 6.375 8.6409 6.375 8.5C6.375 8.3591 6.31903 8.22398 6.2194 8.12435C6.11977 8.02472 5.98465 7.96875 5.84375 7.96875Z" fill="#39519D"/>
<path d="M5.84375 10.0938H3.71875C3.57785 10.0938 3.44273 10.1497 3.3431 10.2493C3.24347 10.349 3.1875 10.4841 3.1875 10.625C3.1875 10.7659 3.24347 10.901 3.3431 11.0007C3.44273 11.1003 3.57785 11.1562 3.71875 11.1562H5.84375C5.98465 11.1562 6.11977 11.1003 6.2194 11.0007C6.31903 10.901 6.375 10.7659 6.375 10.625C6.375 10.4841 6.31903 10.349 6.2194 10.2493C6.11977 10.1497 5.98465 10.0938 5.84375 10.0938Z" fill="#39519D"/>
<path d="M5.84375 12.2188H3.71875C3.57785 12.2188 3.44273 12.2747 3.3431 12.3743C3.24347 12.474 3.1875 12.6091 3.1875 12.75C3.1875 12.8909 3.24347 13.026 3.3431 13.1257C3.44273 13.2253 3.57785 13.2812 3.71875 13.2812H5.84375C5.98465 13.2812 6.11977 13.2253 6.2194 13.1257C6.31903 13.026 6.375 12.8909 6.375 12.75C6.375 12.6091 6.31903 12.474 6.2194 12.3743C6.11977 12.2747 5.98465 12.2188 5.84375 12.2188Z" fill="#39519D"/>
<path d="M19.1888 15.2469C19.1539 15.1862 19.1074 15.133 19.0519 15.0903C18.9965 15.0475 18.9332 15.0161 18.8656 14.9979C18.798 14.9796 18.7275 14.9749 18.6581 14.9839C18.5886 14.9929 18.5217 15.0155 18.461 15.0503C18.4003 15.0852 18.347 15.1317 18.3043 15.1872C18.2616 15.2426 18.2302 15.306 18.2119 15.3735C18.1937 15.4411 18.1889 15.5116 18.1979 15.5811C18.2069 15.6505 18.2295 15.7175 18.2644 15.7782L20.6072 19.8316L12.1072 23.0191C12.1072 23.0191 12.1072 23.0191 12.07 23.0191H12.0275L10.6463 23.816L9.72721 24.3472C9.60622 24.4172 9.47261 24.4626 9.33405 24.4808C9.19549 24.499 9.05469 24.4897 8.91971 24.4535C8.64856 24.3802 8.41745 24.2026 8.2769 23.9594L7.2144 22.1213C7.0894 21.8808 7.06103 21.6016 7.1351 21.3409C7.20917 21.0802 7.38007 20.8576 7.61284 20.7188L9.45096 19.6563L10.7791 21.9566C10.8259 22.0377 10.8933 22.1049 10.9745 22.1516C11.0556 22.1982 11.1477 22.2226 11.2413 22.2222C11.3347 22.2226 11.4266 22.1983 11.5076 22.1518C11.5887 22.1054 11.6561 22.0383 11.7029 21.9575C11.7498 21.8767 11.7745 21.7849 11.7746 21.6915C11.7747 21.5981 11.7502 21.5063 11.7035 21.4253L10.3328 19.056L17 13.5575L17.2178 13.9347C17.2527 13.9954 17.2992 14.0486 17.3547 14.0914C17.4101 14.1341 17.4735 14.1655 17.541 14.1837C17.6086 14.202 17.6791 14.2068 17.7486 14.1978C17.818 14.1888 17.885 14.1662 17.9457 14.1313C18.0063 14.0964 18.0596 14.0499 18.1023 13.9945C18.145 13.939 18.1764 13.8757 18.1947 13.8081C18.2129 13.7405 18.2177 13.67 18.2087 13.6006C18.1997 13.5311 18.1771 13.4642 18.1422 13.4035L17.611 12.4844C17.572 12.4178 17.5191 12.3606 17.4558 12.3165C17.3925 12.2725 17.3203 12.2428 17.2444 12.2294C17.168 12.215 17.0895 12.2175 17.0142 12.2368C16.9389 12.2561 16.8688 12.2916 16.8088 12.341L9.37128 18.4716L7.10815 19.7785C6.70202 20.015 6.38577 20.3796 6.20889 20.815C6.03202 21.2505 6.00451 21.7323 6.13065 22.185L5.5994 22.4878C5.32568 22.645 5.10479 22.88 4.96475 23.1628C4.82472 23.4457 4.77183 23.7638 4.8128 24.0768C4.85377 24.3898 4.98676 24.6835 5.19489 24.9208C5.40303 25.1581 5.67694 25.3283 5.9819 25.4097C6.1171 25.4455 6.25642 25.4634 6.39628 25.4628C6.67575 25.4617 6.95021 25.3885 7.19315 25.2503L7.7244 24.9475C7.9796 25.2112 8.30054 25.4019 8.65409 25.5C8.83563 25.5508 9.0234 25.5758 9.2119 25.5744C9.58532 25.5753 9.95217 25.4762 10.2744 25.2875L10.7366 25.0219L11.7991 26.8653C12.0102 27.2304 12.3575 27.4969 12.7648 27.6064C13.172 27.716 13.6061 27.6596 13.9719 27.4497C14.1534 27.3452 14.3125 27.2059 14.4401 27.0398C14.5677 26.8737 14.6613 26.6841 14.7155 26.4818C14.7698 26.2795 14.7837 26.0685 14.7564 25.8608C14.729 25.6532 14.661 25.453 14.5563 25.2716L13.5894 23.5875L21.5582 20.5966C21.6304 20.5694 21.6959 20.5268 21.75 20.4718C21.8042 20.4167 21.8456 20.3506 21.8716 20.2778C21.8974 20.206 21.9075 20.1294 21.9011 20.0533C21.8947 19.9772 21.8719 19.9034 21.8344 19.8369L19.1888 15.2469ZM6.64065 24.326C6.58015 24.3609 6.51335 24.3836 6.44407 24.3928C6.37479 24.4019 6.30439 24.3972 6.2369 24.3791C6.10079 24.3437 5.98426 24.2559 5.91284 24.1347C5.87787 24.0742 5.85517 24.0074 5.84605 23.9381C5.83694 23.8689 5.84158 23.7985 5.85971 23.731C5.87785 23.6631 5.90926 23.5996 5.95211 23.5439C5.99497 23.4883 6.04843 23.4417 6.1094 23.4069L6.57159 23.1413L7.10284 24.0603L6.64065 24.326ZM13.6319 25.8135C13.6669 25.874 13.6896 25.9408 13.6987 26.0101C13.7078 26.0793 13.7032 26.1497 13.685 26.2172C13.6471 26.3523 13.5574 26.4668 13.4353 26.536C13.314 26.6057 13.1701 26.6247 13.0348 26.5889C12.8995 26.5531 12.7838 26.4653 12.7128 26.3447L11.6503 24.5013L12.5322 23.9966H12.5747L13.6319 25.8135Z" fill="#39519D"/>
</svg>
