<svg width="24" height="24" viewBox="0 0 24 24" fill="none" xmlns="http://www.w3.org/2000/svg">
<path d="M20.1038 6.20062C20.1444 5.87039 20.1657 5.53416 20.1657 5.19295C20.1657 2.325 17.8407 0 14.9727 0H6.29416C5.74826 0 5.28218 0.394219 5.19162 0.932531L1.99381 19.9392C1.87906 20.6212 2.40481 21.2427 3.09635 21.2427H6.27031C6.81621 21.2427 7.29106 20.8488 7.38157 20.3104C7.38157 20.3104 7.38687 20.2789 7.39643 20.2221H7.39648L6.95416 22.8511C6.8531 23.4522 7.31646 24 7.92598 24H10.7027C11.1839 24 11.5947 23.6525 11.6745 23.178L12.4633 18.4896C12.5993 17.6814 13.299 17.0896 14.1185 17.0896H14.848C18.8104 17.0896 22.0224 13.8775 22.0224 9.91519C22.0224 8.38195 21.2645 7.02666 20.1038 6.20062Z" fill="#002987"/>
<path d="M20.1034 6.20068C19.6068 10.2403 16.1638 13.3684 11.99 13.3684H9.5682C9.02159 13.3684 8.54951 13.7324 8.40143 14.2472L6.95384 22.8511C6.85273 23.4522 7.31609 24.0001 7.92561 24.0001H10.7023C11.1835 24.0001 11.5943 23.6526 11.6741 23.1781L12.463 18.4897C12.599 17.6815 13.2987 17.0897 14.1182 17.0897H14.8476C18.81 17.0897 22.022 13.8776 22.022 9.91525C22.022 8.38202 21.2642 7.02672 20.1034 6.20068Z" fill="#0085CC"/>
<path d="M9.56867 13.3682H11.9905C16.1644 13.3682 19.6073 10.2402 20.1039 6.20063C19.3591 5.67066 18.449 5.35791 17.4653 5.35791H11.1442C10.4245 5.35791 9.81003 5.87761 9.69059 6.5873L8.40186 14.247C8.54993 13.7323 9.02206 13.3682 9.56867 13.3682Z" fill="#00186A"/>
</svg>
