<svg width="11" height="20" viewBox="0 0 11 20" fill="none" xmlns="http://www.w3.org/2000/svg">
<path d="M10.7703 6.58498C10.7182 6.47233 10.606 6.40003 10.4825 6.40003H6.71836L10.4332 0.491214C10.4952 0.392663 10.499 0.267863 10.4431 0.165788C10.3872 0.0633751 10.2804 0 10.1648 0H5.08247C4.96209 0 4.85217 0.0684751 4.79819 0.176963L0.0334947 9.77698C-0.015753 9.87587 -0.0103554 9.99362 0.0474537 10.088C0.105598 10.1824 0.207555 10.24 0.317776 10.24H3.58413L0.0248958 18.7558C-0.0357797 18.9015 0.0182327 19.0704 0.151942 19.153C0.203386 19.1847 0.260562 19.2 0.317441 19.2C0.408603 19.2 0.498499 19.1606 0.560775 19.0864L10.7255 6.92638C10.8052 6.83105 10.8223 6.69793 10.7703 6.58498Z" fill="#00C2FF"/>
</svg>
