<svg width="31" height="21" viewBox="0 0 31 21" fill="none" xmlns="http://www.w3.org/2000/svg">
<path d="M30.9834 14.4006C30.9062 12.6245 30.5973 10.6553 30.1339 8.80191C29.6706 7.02576 29.0914 5.36545 28.3964 4.09126C25.6936 -0.657996 22.7591 0.0756296 19.2454 1.00231C18.1256 1.2726 16.9287 1.58149 15.6931 1.69733H15.307C14.0714 1.58149 12.8744 1.2726 11.7547 1.00231C8.24102 0.114241 5.30652 -0.657995 2.60369 4.12987C1.90867 5.40407 1.29088 7.06437 0.866153 8.84052C0.402811 10.6939 0.0939165 12.6631 0.0166928 14.4392C-0.0605309 16.4084 0.132528 17.8371 0.557259 18.841C0.981989 19.7677 1.59978 20.3468 2.41063 20.5785C3.14425 20.7716 3.99371 20.6944 4.88179 20.3082C6.38765 19.6905 8.12518 18.3776 9.8241 16.7946C11.0211 15.6362 13.2606 15.057 15.5 15.057C17.7395 15.057 19.979 15.6362 21.176 16.7946C22.8749 18.3776 24.6124 19.6905 26.1183 20.3082C27.0064 20.6557 27.8558 20.7716 28.5895 20.5785C29.3617 20.3468 30.0181 19.8063 30.4428 18.8024C30.8676 17.8371 31.0606 16.4084 30.9834 14.4006ZM29.13 18.2618C28.8984 18.8024 28.5895 19.1113 28.2033 19.2271C27.7786 19.3429 27.238 19.2657 26.6203 19.034C25.2688 18.4935 23.6858 17.2965 22.1413 15.8293C20.674 14.362 18.087 13.6284 15.5 13.6284C12.913 13.6284 10.3261 14.362 8.82019 15.752C7.23711 17.2193 5.65402 18.4549 4.34122 18.9568C3.72343 19.1885 3.18286 19.3043 2.75813 19.1499C2.37202 19.034 2.06312 18.7252 1.83145 18.1846C1.52255 17.451 1.36811 16.254 1.44533 14.4779C1.52255 12.8175 1.79284 10.9256 2.25618 9.14941C2.68091 7.4891 3.22148 5.94463 3.87788 4.78627C6.00153 0.963702 8.47269 1.58149 11.4072 2.35373C12.6042 2.66262 13.8397 2.97152 15.1911 3.08735C15.2298 3.08735 15.2298 3.08735 15.2684 3.08735H15.6931C15.7317 3.08735 15.7317 3.08735 15.7703 3.08735C17.1604 2.97152 18.3959 2.66262 19.5929 2.35373C22.5274 1.6201 24.9986 0.963702 27.1222 4.78627C27.7786 5.94463 28.3192 7.45049 28.7439 9.14941C29.1686 10.9256 29.4775 12.7789 29.5548 14.4779C29.632 16.254 29.4775 17.451 29.13 18.2618Z" fill="#A3B6C8"/>
<path d="M11.9478 6.87129C11.5616 6.52378 11.0983 6.2535 10.5577 6.21488C10.5191 5.71293 10.2874 5.21098 9.93994 4.86347L9.90133 4.82486C9.47659 4.40013 8.93603 4.16846 8.31824 4.16846C7.70045 4.16846 7.12127 4.43874 6.73515 4.82486C6.38765 5.17236 6.11736 5.67432 6.07875 6.21488C5.53819 6.2535 5.07485 6.48517 4.68873 6.83267L4.65011 6.87129C4.22538 7.29602 3.99371 7.83658 3.99371 8.45437C3.99371 9.07216 4.264 9.65134 4.65011 10.0375C5.03623 10.4236 5.49958 10.6552 6.07875 10.6939C6.11736 11.2344 6.34904 11.7364 6.73515 12.0839C7.15988 12.5086 7.70045 12.7403 8.31824 12.7403C8.93603 12.7403 9.51521 12.47 9.90133 12.0839C10.2488 11.6978 10.5191 11.2344 10.5577 10.6939C11.0983 10.6552 11.6002 10.4236 11.9478 10.0375C12.3725 9.61273 12.6042 9.07216 12.6042 8.45437C12.6042 7.83658 12.3339 7.2574 11.9478 6.87129ZM10.9825 9.03355C10.828 9.188 10.635 9.26522 10.4033 9.26522H9.86271C9.47659 9.26522 9.12909 9.57411 9.12909 9.99885V10.5008C9.12909 10.7325 9.05186 10.9255 8.89742 11.08C8.74297 11.2344 8.54991 11.3116 8.31824 11.3116C8.08657 11.3116 7.89351 11.2344 7.73906 11.08C7.58461 10.9255 7.50739 10.7325 7.50739 10.5008V9.96023C7.50739 9.57412 7.1985 9.22661 6.77377 9.22661H6.2332C6.00153 9.22661 5.80847 9.14938 5.65402 8.99494C5.53819 8.8791 5.42235 8.68604 5.42235 8.45437C5.42235 8.2227 5.49958 8.02964 5.65402 7.87519C5.65402 7.87519 5.65402 7.87519 5.69263 7.83658C5.84708 7.72075 6.04014 7.64352 6.2332 7.64352H6.77377C7.15988 7.64352 7.50739 7.33463 7.50739 6.9099V6.36933C7.50739 6.13766 7.58461 5.9446 7.73906 5.79015C7.89351 5.63571 8.08657 5.55848 8.31824 5.55848C8.54991 5.55848 8.74297 5.63571 8.89742 5.79015C8.89742 5.79015 8.89742 5.79015 8.93603 5.82877C9.05186 5.98321 9.12909 6.17627 9.12909 6.36933V6.9099C9.12909 7.29602 9.43798 7.64352 9.86271 7.64352H10.4033C10.635 7.64352 10.828 7.72075 10.9825 7.87519C11.1369 8.02964 11.2141 8.2227 11.2141 8.45437C11.2141 8.68604 11.1369 8.8791 10.9825 9.03355Z" fill="#A3B6C8"/>
<path d="M22.2185 7.0644C22.9649 7.0644 23.5699 6.45935 23.5699 5.71299C23.5699 4.96662 22.9649 4.36157 22.2185 4.36157C21.4721 4.36157 20.8671 4.96662 20.8671 5.71299C20.8671 6.45935 21.4721 7.0644 22.2185 7.0644Z" fill="#A3B6C8"/>
<path d="M22.2185 12.5473C22.9649 12.5473 23.5699 11.9423 23.5699 11.1959C23.5699 10.4495 22.9649 9.84448 22.2185 9.84448C21.4721 9.84448 20.8671 10.4495 20.8671 11.1959C20.8671 11.9423 21.4721 12.5473 22.2185 12.5473Z" fill="#A3B6C8"/>
<path d="M19.4771 9.80586C20.2234 9.80586 20.8285 9.20081 20.8285 8.45444C20.8285 7.70808 20.2234 7.10303 19.4771 7.10303C18.7307 7.10303 18.1257 7.70808 18.1257 8.45444C18.1257 9.20081 18.7307 9.80586 19.4771 9.80586Z" fill="#A3B6C8"/>
<path d="M24.9599 9.80586C25.7063 9.80586 26.3113 9.20081 26.3113 8.45444C26.3113 7.70808 25.7063 7.10303 24.9599 7.10303C24.2136 7.10303 23.6085 7.70808 23.6085 8.45444C23.6085 9.20081 24.2136 9.80586 24.9599 9.80586Z" fill="#A3B6C8"/>
</svg>
