<svg width="26" height="26" viewBox="0 0 26 26" fill="none" xmlns="http://www.w3.org/2000/svg">
<path d="M5.76215 15.7122L4.85713 19.0908L1.54929 19.1607C0.560727 17.3272 0 15.2294 0 13.0001C0 10.8443 0.524266 8.81147 1.45356 7.02148H1.45427L4.39918 7.56139L5.68923 10.4886C5.41922 11.2758 5.27206 12.1208 5.27206 13.0001C5.27216 13.9543 5.44502 14.8687 5.76215 15.7122Z" fill="#FBBB00"/>
<path d="M25.7728 10.5714C25.9221 11.3578 26 12.17 26 13C26 13.9307 25.9021 14.8386 25.7157 15.7143C25.0829 18.6943 23.4293 21.2964 21.1386 23.1378L21.1379 23.1371L17.4286 22.9479L16.9036 19.6707C18.4236 18.7793 19.6115 17.3843 20.2372 15.7143H13.2858V10.5714H20.3386H25.7728Z" fill="#518EF8"/>
<path d="M21.1379 23.1371L21.1386 23.1378C18.9108 24.9285 16.0807 26 13 26C8.04932 26 3.74505 23.2329 1.54932 19.1607L5.76218 15.7122C6.86002 18.6421 9.68645 20.7279 13 20.7279C14.4243 20.7279 15.7586 20.3428 16.9036 19.6707L21.1379 23.1371Z" fill="#28B446"/>
<path d="M21.2978 2.99284L17.0864 6.44069C15.9014 5.69999 14.5007 5.27211 13 5.27211C9.61141 5.27211 6.73211 7.45352 5.68927 10.4886L1.45426 7.02142H1.45355C3.61714 2.85 7.97569 0 13 0C16.1543 0 19.0464 1.12359 21.2978 2.99284Z" fill="#F14336"/>
</svg>
