<svg width="36" height="25" viewBox="0 0 36 25" fill="none" xmlns="http://www.w3.org/2000/svg">
<path d="M32.04 11.5024C32.96 10.7576 33.52 9.62077 33.52 8.36637C33.52 6.09277 31.64 4.21117 29.28 4.21117C26.96 4.21117 25.04 6.05357 25.04 8.36637C25.04 9.62077 25.6 10.7576 26.52 11.5024C25.72 11.8944 25 12.4432 24.4 13.1488C23.52 12.2472 22.44 11.5416 21.28 11.0712C22.84 10.052 23.88 8.28797 23.88 6.28877C23.88 3.11357 21.24 0.526367 18 0.526367C14.76 0.526367 12.12 3.11357 12.12 6.28877C12.12 8.28797 13.16 10.0128 14.72 11.0712C13.52 11.5416 12.44 12.2472 11.6 13.1488C11.04 12.4824 10.32 11.8944 9.47999 11.5024C10.4 10.7576 10.96 9.62077 10.96 8.36637C10.96 6.09277 9.07999 4.21117 6.71999 4.21117C4.35999 4.21117 2.47999 6.05357 2.47999 8.36637C2.47999 9.62077 3.03999 10.7576 3.95999 11.5024C1.87999 12.5216 0.399994 14.6384 0.399994 17.0688V19.264L0.799994 19.4992C2.19999 20.44 4.35999 20.9496 6.71999 20.9496C7.51999 20.9496 8.31999 20.8712 9.03999 20.7536V22.2824L9.39999 22.5176C11.36 23.8504 14.56 24.6344 18 24.6344C21.44 24.6344 24.6 23.8504 26.6 22.5176L26.96 22.2824V20.7536C27.68 20.8712 28.48 20.9496 29.28 20.9496C31.64 20.9496 33.8 20.4008 35.2 19.4992L35.6 19.264V17.0688C35.6 14.6384 34.12 12.5216 32.04 11.5024ZM33.88 18.3624C32.76 18.9504 31.08 19.3032 29.28 19.3032C28.44 19.3032 27.68 19.2248 26.96 19.1072C26.92 17.4216 26.4 15.8144 25.52 14.4816C26.36 13.3056 27.72 12.5608 29.28 12.5608C31.8 12.5608 33.88 14.5992 33.88 17.0688V18.3624ZM18 22.988C15.12 22.988 12.48 22.4 10.72 21.42V19.2248C10.72 15.3048 13.96 12.0904 18 12.0904C22.04 12.0904 25.28 15.2656 25.28 19.2248V21.42C23.52 22.4 20.88 22.988 18 22.988ZM2.11999 17.0688C2.11999 14.5992 4.19999 12.5608 6.71999 12.5608C8.27999 12.5608 9.63999 13.3448 10.48 14.4816C9.59999 15.8144 9.07999 17.3824 9.03999 19.1072C8.31999 19.2248 7.51999 19.3032 6.71999 19.3032C4.91999 19.3032 3.23999 18.9504 2.11999 18.3624V17.0688ZM4.15999 8.36637C4.15999 6.99437 5.27999 5.89677 6.67999 5.89677C8.07999 5.89677 9.19999 6.99437 9.19999 8.36637C9.19999 9.73837 8.07999 10.836 6.67999 10.836C5.27999 10.836 4.15999 9.73837 4.15999 8.36637ZM22.2 6.28877C22.2 8.56237 20.32 10.4048 18 10.4048C15.68 10.4048 13.8 8.56237 13.8 6.28877C13.8 4.01517 15.68 2.21197 18 2.21197C20.32 2.21197 22.2 4.05437 22.2 6.28877ZM26.76 8.36637C26.76 6.99437 27.88 5.89677 29.28 5.89677C30.68 5.89677 31.8 6.99437 31.8 8.36637C31.8 9.73837 30.68 10.836 29.28 10.836C27.88 10.836 26.76 9.73837 26.76 8.36637Z" fill="#A3B6C8"/>
</svg>
