<svg width="8" height="16" viewBox="0 0 8 16" fill="none" xmlns="http://www.w3.org/2000/svg">
<path d="M6.14726 7.26813C5.54139 6.92115 4.89726 6.65679 4.2595 6.38252C3.8896 6.2239 3.53565 6.03884 3.22315 5.78109C2.60772 5.27219 2.7257 4.44606 3.44637 4.11891C3.65045 4.02639 3.86409 3.99665 4.08093 3.98343C4.91639 3.93716 5.7104 4.09578 6.46614 4.4725C6.84241 4.66086 6.96677 4.60137 7.09432 4.19492C7.22825 3.76533 7.33986 3.32913 7.46422 2.89624C7.54713 2.60544 7.44509 2.41378 7.18042 2.29151C6.69573 2.0701 6.19828 1.91149 5.67532 1.82557C4.99292 1.71652 4.99292 1.71322 4.98973 1.00274C4.98654 0.0014687 4.98654 0.00146868 4.01716 0.00146868C3.87685 0.00146868 3.73654 -0.00183585 3.59624 0.00146868C3.14343 0.0146868 3.0669 0.0973 3.05415 0.569848C3.04777 0.781338 3.05415 0.992828 3.05096 1.20762C3.04777 1.83548 3.04458 1.82557 2.46422 2.04367C1.06116 2.57239 0.193814 3.56375 0.10134 5.14993C0.0184316 6.55435 0.72634 7.50275 1.83922 8.1934C2.52481 8.61968 3.28374 8.87083 4.01078 9.20459C4.29458 9.33346 4.56563 9.48217 4.80159 9.68705C5.49994 10.2852 5.37239 11.2798 4.5433 11.6565C4.10006 11.8581 3.63131 11.9077 3.14981 11.8449C2.40682 11.7491 1.69573 11.5475 1.02608 11.1873C0.633865 10.9758 0.519069 11.032 0.385141 11.4715C0.270345 11.8515 0.168304 12.2348 0.0662633 12.6182C-0.0708541 13.1337 -0.019834 13.2559 0.455294 13.4972C1.06116 13.8012 1.70848 13.9565 2.36856 14.0655C2.88514 14.1515 2.90108 14.1746 2.90746 14.7298C2.91065 14.9809 2.91065 15.2354 2.91384 15.4865C2.91703 15.8037 3.06371 15.9888 3.3794 15.9954C3.73654 16.002 4.09687 16.002 4.45402 15.9921C4.74739 15.9855 4.89726 15.8203 4.89726 15.5129C4.89726 15.1693 4.9132 14.8223 4.90045 14.4786C4.8845 14.1283 5.03119 13.9499 5.35644 13.8574C6.1058 13.6459 6.74356 13.2295 7.23463 12.6083C8.59943 10.8899 8.07966 8.37515 6.14726 7.26813Z" fill="#506172"/>
</svg>
