<svg width="32" height="26" viewBox="0 0 32 26" fill="none" xmlns="http://www.w3.org/2000/svg">
<path d="M16.8955 10.1633H1.08716C0.540332 10.1633 0.092926 10.6207 0.092926 11.1797V13.4156C0.092926 13.7205 0.291773 13.9237 0.590043 13.9237H1.08716V24.2395C1.08716 24.7985 1.53457 25.2558 2.0814 25.2558C33.4495 25.2558 -15.4171 25.2558 15.8515 25.2558C16.3984 25.2558 16.8458 24.7985 16.8458 24.2395V13.9746H17.3926C17.6909 13.9746 17.8897 13.7713 17.8897 13.4664V11.2305C17.8897 10.6207 17.4423 10.1633 16.8955 10.1633ZM1.08716 11.1797H8.49421V12.9074C6.25718 12.9074 4.46756 12.9074 1.08716 12.9074V11.1797ZM12.2226 13.9746L13.5648 15.7023L12.8688 15.7531C12.6203 15.804 12.4711 15.9564 12.4214 16.2105L12.3717 16.6678L10.0353 13.9746H12.2226ZM7.89767 13.9746L5.56122 16.6678L5.46179 16.2105C5.41208 15.9564 5.26295 15.804 5.01439 15.7531L4.31842 15.7023L5.66064 13.9746H7.89767ZM2.0814 13.9746H4.41785L2.97621 15.7531C2.72765 16.058 2.9265 16.5154 3.32419 16.5662L4.51727 16.7187L4.66641 17.9382C4.71612 18.3956 5.26295 18.548 5.51151 18.2431L8.4445 14.8384V24.2903H2.0814V13.9746ZM15.8515 24.2395H9.48844V14.7876L12.4214 18.1923C12.7197 18.4972 13.2168 18.3448 13.2665 17.8874L13.4157 16.6678L14.6088 16.5154C15.0064 16.4646 15.2053 16.0072 14.9567 15.7023L13.5151 13.9746H15.8515V24.2395ZM16.8955 12.9582C14.7579 12.9582 12.8688 12.9582 9.48844 12.9582V11.2305H16.8955V12.9582Z" fill="#A3B6C8"/>
<path d="M26.0424 5.84387C25.7442 5.84387 25.5453 6.04714 25.5453 6.35204C25.5453 7.62245 24.5511 8.63878 23.3083 8.63878C23.01 8.63878 22.8112 8.84204 22.8112 9.14694C22.8112 9.45184 23.01 9.65511 23.3083 9.65511C25.0979 9.65511 26.5396 8.18143 26.5396 6.35204C26.5396 6.09795 26.291 5.84387 26.0424 5.84387Z" fill="#A3B6C8"/>
<path d="M30.4668 0.86388H28.876V0.508164C28.876 0.203266 28.6772 0 28.3789 0H18.4863C18.188 0 17.9891 0.203266 17.9891 0.508164V0.86388H16.3984C15.603 0.86388 15.0064 1.52449 15.0064 2.28674V3.50633C15.0064 5.33573 16.3487 6.86022 18.0886 7.06349C18.3371 9.35023 19.9279 11.2304 22.0655 11.7894V20.0725H21.2204C20.6736 20.0725 20.2262 20.5298 20.2262 21.0888V22.1052H19.6296C19.0828 22.1052 18.6354 22.5625 18.6354 23.1215V24.646C18.6354 24.9509 18.8342 25.1541 19.1325 25.1541H27.7824C28.0806 25.1541 28.2795 24.9509 28.2795 24.646V23.1215C28.2795 22.5625 27.8321 22.1052 27.2852 22.1052H26.6887V21.0888C26.6887 20.5298 26.2413 20.0725 25.6945 20.0725H24.8494V11.8402C26.987 11.2304 28.5777 9.40104 28.8263 7.1143C32.157 6.55532 32.9524 0.86388 30.4668 0.86388ZM15.951 3.55715V2.33756C15.951 2.08347 16.1498 1.93102 16.3487 1.93102H17.9891V6.14879C16.8458 5.84389 15.951 4.82756 15.951 3.55715ZM27.2355 24.2394H19.6296V23.2231C21.9661 23.2231 23.706 23.2231 26.1916 23.2231H27.2852V24.2394H27.2355ZM25.6945 22.2068H21.1707V21.1905C21.2204 21.1905 25.7442 21.1905 25.6945 21.1905V22.2068ZM23.8551 20.1741H23.01V12.0435C23.1592 12.0435 23.3083 12.0435 23.4077 12.0435C23.5569 12.0435 23.706 12.0435 23.8054 12.0435V20.1741H23.8551ZM23.4574 11.0272C21.0216 11.0272 19.0331 8.99451 19.0331 6.5045C19.0331 4.92919 19.0331 2.03266 19.0331 1.01633H27.8818C27.8818 2.03266 27.8818 4.87838 27.8818 6.5045C27.8818 8.99451 25.8933 11.0272 23.4574 11.0272ZM30.9142 3.0998C30.9142 4.3194 30.0194 5.74226 28.876 6.09797V1.93102H30.4668C31.0633 1.88021 30.8645 2.74409 30.9142 3.0998Z" fill="#A3B6C8"/>
</svg>
