<svg width="23" height="23" viewBox="0 0 23 23" fill="none" xmlns="http://www.w3.org/2000/svg">
<g clip-path="url(#clip0)">
<path d="M10.9772 10.9756C10.9772 11.2649 11.2116 11.4978 11.4998 11.4978C11.7881 11.4978 12.0225 11.2634 12.0225 10.9756C12.023 10.364 12.2402 9.7694 12.6346 9.30158C13.512 8.26122 14.1697 7.13326 14.5862 5.94903C14.6424 5.78901 14.618 5.61187 14.5201 5.47338C14.4218 5.3349 14.2632 5.25269 14.0934 5.25269H8.90578C8.73598 5.25269 8.57694 5.3349 8.47858 5.47338C8.38071 5.61187 8.35624 5.78901 8.41252 5.94903C8.82993 7.13326 9.48664 8.26122 10.3641 9.30158C10.759 9.7694 10.9767 10.3644 10.9772 10.9756Z" fill="#3C4C59"/>
<path d="M12.0225 13.0705C12.0225 12.7818 11.7881 12.5483 11.4998 12.5483C11.2116 12.5483 10.9772 12.7827 10.9772 13.0705C10.9767 13.8251 10.526 14.5713 9.70833 15.1766C7.95939 16.468 6.65038 17.871 5.8175 19.3459C5.72599 19.5084 5.72746 19.7061 5.82191 19.8656C5.91488 20.0266 6.08713 20.125 6.27309 20.125H16.7276C16.9131 20.125 17.0848 20.0266 17.1788 19.8656C17.2722 19.7061 17.2737 19.5084 17.1827 19.3459C16.3503 17.871 15.0408 16.468 13.2923 15.1766C12.4737 14.5713 12.023 13.8251 12.0225 13.0705Z" fill="#3C4C59"/>
<path d="M20.6468 20.9095H20.3341C19.9749 16.8415 17.5927 13.7185 15.741 11.5002C17.5932 9.28251 19.9744 6.15898 20.3351 2.091H20.6477C21.2252 2.091 21.693 1.62269 21.693 1.04525C21.693 0.46782 21.2252 0 20.6477 0H2.35237C1.77493 0 1.30711 0.468309 1.30711 1.04525C1.30711 1.62269 1.77493 2.091 2.35237 2.091H2.66506C3.02474 6.15947 5.40592 9.283 7.25811 11.5002C5.40641 13.718 3.02474 16.841 2.66457 20.9095H2.35237C1.77493 20.9095 1.30711 21.3768 1.30711 21.9543C1.30711 22.5322 1.77493 23.0005 2.35237 23.0005H3.65943H19.3402H20.6477C21.2252 23.0005 21.693 22.5322 21.693 21.9543C21.693 21.3768 21.2247 20.9095 20.6468 20.9095ZM4.76047 20.9095C5.15341 17.234 7.54292 14.4036 9.32856 12.2886L9.42398 12.1756C9.75283 11.7865 9.75283 11.2169 9.42398 10.8274L9.32905 10.7148C7.5439 8.59937 5.15341 5.76896 4.76047 2.09296H18.2392C17.8462 5.76896 15.4557 8.59937 13.6706 10.7148L13.5761 10.8274C13.2473 11.2164 13.2473 11.786 13.5761 12.1756L13.6716 12.2886C15.4567 14.4036 17.8462 17.234 18.2392 20.9095H4.76047Z" fill="#3C4C59"/>
</g>
<defs>
<clipPath id="clip0">
<rect width="23" height="23" fill="white"/>
</clipPath>
</defs>
</svg>
