<svg width="28" height="28" viewBox="0 0 28 28" fill="none" xmlns="http://www.w3.org/2000/svg">
<g clip-path="url(#clip0)">
<path d="M9.70703 20.5998C7.85983 19.0207 6.80944 16.7514 6.80944 14.303C6.80944 12.6588 7.28967 11.0698 8.19821 9.70821L8.19778 9.70778C8.27255 9.59585 8.32168 9.46489 8.3345 9.32198C8.34283 9.22863 8.52462 7.02105 7.21597 5.54726C5.9071 4.07454 3.69354 3.99508 3.59997 3.99251C3.16076 3.98034 2.78948 4.3106 2.74996 4.74724C2.74163 4.84038 2.5592 7.0486 3.86849 8.52218C4.54098 9.27883 5.45208 9.6672 6.19186 9.86672C6.01797 10.2156 5.86502 10.5734 5.73385 10.9389C5.47537 10.6024 5.15985 10.2846 4.77383 10.0274C3.13406 8.93468 0.972407 9.41982 0.881189 9.44097C0.454157 9.54009 0.177942 9.95452 0.250788 10.3869C0.266382 10.4792 0.650477 12.6603 2.29046 13.7538C3.14944 14.3263 4.15154 14.4656 4.92401 14.4656C5.00283 14.4656 5.07888 14.4641 5.15237 14.4615C5.1575 14.7931 5.17779 15.1218 5.21475 15.4468C4.88534 15.2829 4.52389 15.1528 4.13296 15.084C2.19134 14.7429 0.407587 16.0569 0.332605 16.1128C-0.0183772 16.3756 -0.104467 16.8661 0.136072 17.2324C0.187555 17.3108 1.41674 19.1531 3.35772 19.4945C3.57989 19.5336 3.79992 19.5509 4.01589 19.5509C4.91226 19.5509 5.73257 19.2522 6.31063 18.9679C6.40505 19.1456 6.50482 19.3204 6.61013 19.4921C6.56549 19.4932 6.52084 19.4941 6.47598 19.4968C4.5083 19.6156 3.07873 21.3082 3.01892 21.3801C2.73864 21.717 2.76876 22.2139 3.08792 22.5145C3.1535 22.5762 4.65804 23.9729 6.52362 23.9729C6.59731 23.9729 6.67208 23.9705 6.74685 23.9661C8.71411 23.8466 10.1437 22.155 10.2035 22.083C10.484 21.7461 10.4539 21.2492 10.1347 20.9484C10.1148 20.9298 9.96166 20.788 9.70703 20.5998V20.5998Z" fill="#3C4C59"/>
<path d="M27.6673 16.1132C27.5921 16.0571 25.8081 14.7431 23.8672 15.0844C23.476 15.153 23.1146 15.2831 22.7852 15.4472C22.8221 15.122 22.8424 14.7933 22.8475 14.4617C22.921 14.4643 22.9969 14.466 23.0757 14.466C23.8484 14.466 24.8505 14.3263 25.7097 13.754C27.3494 12.6607 27.7335 10.4794 27.7491 10.3871C27.822 9.95471 27.546 9.5405 27.1187 9.44116C27.0275 9.42001 24.8658 8.93487 23.2259 10.0278C22.8401 10.285 22.5245 10.6028 22.2663 10.9391C22.1349 10.5738 21.9821 10.2158 21.808 9.86713C22.5478 9.66739 23.4589 9.27902 24.1316 8.52237C25.4407 7.0488 25.2583 4.84057 25.2499 4.74743C25.2104 4.31079 24.837 3.9816 24.3999 3.9927C24.3064 3.99527 22.0928 4.07474 20.7835 5.54788C19.4755 7.02145 19.6571 9.22903 19.6654 9.32217C19.6782 9.46509 19.7274 9.59604 19.8021 9.70798L19.8017 9.7084C20.7102 11.07 21.1905 12.659 21.1905 14.3034C21.1905 16.7522 20.1396 19.0219 18.2918 20.601C18.0378 20.7886 17.8851 20.93 17.8652 20.9488C17.5461 21.2494 17.5161 21.7465 17.7964 22.0834C17.8564 22.1554 19.2858 23.847 21.2531 23.9665C21.328 23.9709 21.4024 23.9733 21.4763 23.9733C23.3419 23.9733 24.8466 22.5766 24.9122 22.5149C25.2311 22.2143 25.2613 21.7174 24.981 21.3806C24.9212 21.3086 23.4916 19.6158 21.5244 19.4973C21.4793 19.4945 21.4346 19.4936 21.3898 19.4926C21.4953 19.3208 21.5948 19.1458 21.6895 18.9683C22.2673 19.2524 23.0876 19.5513 23.9844 19.5513C24.2002 19.5513 24.4207 19.5338 24.6428 19.4949C26.5832 19.1535 27.8126 17.311 27.8638 17.2328C28.1044 16.8663 28.0183 16.3758 27.6673 16.1132V16.1132Z" fill="#3C4C59"/>
<path d="M18.569 13.5909C18.7361 13.3741 18.7854 13.0887 18.7008 12.8285C18.6162 12.5681 18.4086 12.3662 18.1461 12.2889L15.9675 11.6476L14.6845 9.77411C14.5298 9.54831 14.2737 9.41309 14.0001 9.41309C13.7264 9.41309 13.4703 9.5481 13.3156 9.77411L12.0326 11.6476L9.85405 12.2889C9.59151 12.3662 9.38408 12.5681 9.29948 12.8285C9.21489 13.0887 9.26402 13.3741 9.43108 13.5909L10.8166 15.39L10.7532 17.6602C10.7457 17.9337 10.8735 18.1934 11.095 18.3545C11.3163 18.5154 11.6028 18.5566 11.8608 18.4647L14.0001 17.7032L16.1395 18.4647C16.2299 18.497 16.3241 18.5128 16.4176 18.5128C16.5904 18.5128 16.7616 18.4587 16.9053 18.3545C17.1266 18.1934 17.2546 17.9337 17.2469 17.6602L17.1837 15.39L18.569 13.5909Z" fill="#3C4C59"/>
</g>
<defs>
<clipPath id="clip0">
<rect width="28" height="28" fill="white"/>
</clipPath>
</defs>
</svg>
