<svg width="13" height="13" viewBox="0 0 13 13" fill="none" xmlns="http://www.w3.org/2000/svg">
<g clip-path="url(#clip0)">
<path d="M7.81318 11.8407C7.70598 11.8674 7.59669 11.8911 7.48821 11.9111C7.20462 11.9638 7.01714 12.2366 7.06959 12.5204C7.09549 12.6601 7.1748 12.7764 7.28247 12.8523C7.39344 12.9304 7.53468 12.9657 7.67859 12.9389C7.80778 12.9149 7.93798 12.8867 8.06575 12.8548C8.34578 12.7851 8.51639 12.5014 8.44652 12.2215C8.37683 11.9414 8.09338 11.7709 7.81318 11.8407Z" fill="#A4A9AD"/>
<path d="M11.6779 4.83579C11.7145 4.94612 11.7844 5.03618 11.8726 5.09842C12.0035 5.19061 12.1748 5.22163 12.3383 5.16758C12.6123 5.07659 12.7608 4.7811 12.6701 4.50722C12.6288 4.38236 12.583 4.25711 12.5341 4.13516C12.4269 3.86717 12.123 3.73669 11.8548 3.84389C11.587 3.95103 11.4564 4.2551 11.5637 4.52317C11.6047 4.62567 11.6432 4.73089 11.6779 4.83579Z" fill="#A4A9AD"/>
<path d="M9.51136 11.0945C9.41917 11.1554 9.32401 11.2143 9.22816 11.2695C8.97808 11.4137 8.89243 11.7334 9.03663 11.9834C9.07578 12.0514 9.12792 12.1069 9.18798 12.1494C9.34919 12.2629 9.56814 12.2798 9.75042 12.1748C9.86438 12.1091 9.9777 12.0392 10.0875 11.9666C10.3282 11.8075 10.3945 11.4833 10.2354 11.2425C10.0763 11.0015 9.75216 10.9354 9.51136 11.0945Z" fill="#A4A9AD"/>
<path d="M12.995 6.29542C12.9837 6.00697 12.7407 5.78246 12.4522 5.79373C12.164 5.8051 11.9393 6.04814 11.9507 6.33647C11.955 6.44672 11.9561 6.55861 11.9536 6.66874C11.9495 6.84963 12.038 7.01087 12.1755 7.10778C12.2574 7.16546 12.3568 7.20036 12.4646 7.20282C12.753 7.20922 12.992 6.98044 12.9984 6.69185C13.0013 6.56026 13.0002 6.42693 12.995 6.29542Z" fill="#A4A9AD"/>
<path d="M11.5926 9.71971C11.3613 9.54618 11.034 9.59329 10.8608 9.82417C10.7944 9.91259 10.7246 9.99992 10.653 10.084C10.4661 10.3037 10.4925 10.6336 10.7122 10.8207C10.7247 10.8313 10.7373 10.841 10.7505 10.8502C10.9688 11.0041 11.2723 10.9688 11.4489 10.7616C11.5343 10.6613 11.6176 10.5569 11.6968 10.4513C11.8701 10.2205 11.8232 9.893 11.5926 9.71971Z" fill="#A4A9AD"/>
<path d="M12.3608 7.83054C12.0854 7.7442 11.7921 7.8975 11.7058 8.17289C11.6728 8.27811 11.6362 8.38382 11.5967 8.48736C11.5099 8.71527 11.593 8.96605 11.7836 9.10044C11.8186 9.125 11.8571 9.14582 11.8989 9.16163C12.1686 9.26453 12.4705 9.12925 12.5733 8.8595C12.6202 8.7364 12.6638 8.61062 12.7031 8.48554C12.7893 8.21009 12.6361 7.91689 12.3608 7.83054Z" fill="#A4A9AD"/>
<path d="M5.53306 11.9158C5.06582 11.8319 4.61762 11.689 4.1926 11.4898C4.18757 11.4872 4.18307 11.4842 4.17779 11.4818C4.07764 11.4346 3.97765 11.3841 3.88074 11.3314C3.8804 11.331 3.87978 11.3307 3.87925 11.3305C3.70144 11.2326 3.5279 11.1243 3.35931 11.0056C0.900935 9.27382 0.309843 5.86487 2.0417 3.40652C2.41829 2.87216 2.87402 2.42635 3.38209 2.07302C3.38834 2.06866 3.3946 2.06433 3.40081 2.05994C5.19116 0.826336 7.62218 0.7432 9.52324 2.01084L9.11494 2.60079C9.00143 2.76499 9.07126 2.88465 9.26998 2.86677L11.0436 2.70798C11.2425 2.6901 11.3615 2.51798 11.308 2.32583L10.8317 0.609846C10.7784 0.417473 10.6419 0.394447 10.5283 0.558623L10.119 1.14997C8.72391 0.213447 7.05059 -0.143662 5.38974 0.144339C5.22246 0.17329 5.05753 0.208724 4.89486 0.249971C4.8936 0.250195 4.89259 0.250334 4.89159 0.250558C4.8853 0.252095 4.87893 0.254135 4.87281 0.255839C3.44063 0.623623 2.19107 1.45893 1.29943 2.65072C1.29191 2.65964 1.28417 2.66836 1.27707 2.67805C1.24742 2.71799 1.218 2.75884 1.18919 2.7997C1.14207 2.86665 1.09563 2.93529 1.0512 3.00392C1.04563 3.01219 1.04139 3.0206 1.03652 3.02896C0.300733 4.16914 -0.0541679 5.48731 0.0066962 6.82928C0.00683592 6.83369 0.00658442 6.83814 0.0066962 6.84266C0.0125926 6.97375 0.0229881 7.10666 0.0371003 7.2375C0.0378548 7.24594 0.0397272 7.25393 0.0411523 7.26237C0.0557396 7.39394 0.0740436 7.52581 0.0969864 7.65765C0.330159 9.00287 0.964734 10.2134 1.91562 11.1552C1.91782 11.1575 1.92012 11.1599 1.92235 11.1621C1.92313 11.163 1.924 11.1635 1.92475 11.1643C2.18023 11.4163 2.45811 11.6493 2.75732 11.86C3.54034 12.4118 4.41225 12.7765 5.34863 12.9445C5.63274 12.9956 5.90415 12.8065 5.95512 12.5225C6.00606 12.2383 5.8171 11.9667 5.53306 11.9158Z" fill="#A4A9AD"/>
<path d="M6.17935 2.32496C5.94565 2.32496 5.75635 2.51443 5.75635 2.74779V6.96041L9.60913 8.95208C9.67114 8.98419 9.73754 8.99931 9.80288 8.99931C9.9559 8.99931 10.1037 8.91597 10.1788 8.77058C10.286 8.56306 10.2049 8.30812 9.9974 8.20095L6.60188 6.4455V2.74779C6.60185 2.51443 6.41278 2.32496 6.17935 2.32496Z" fill="#A4A9AD"/>
</g>
<defs>
<clipPath id="clip0">
<rect width="13" height="13" fill="white"/>
</clipPath>
</defs>
</svg>
