<svg width="13" height="13" viewBox="0 0 13 13" fill="none" xmlns="http://www.w3.org/2000/svg">
<path d="M6.5 0C2.9159 0 0 2.9159 0 6.5C0 10.0841 2.9159 13 6.5 13C10.0841 13 13 10.0841 13 6.5C13 2.9159 10.0841 0 6.5 0ZM6.5 11.6169C3.67856 11.6169 1.38296 9.32157 1.38296 6.5C1.38296 3.67843 3.67856 1.38309 6.5 1.38309C9.32144 1.38309 11.617 3.67843 11.617 6.5C11.617 9.32157 9.32144 11.6169 6.5 11.6169Z" fill="#5D6C7A"/>
<path d="M9.88752 6.29928H6.9664V2.78703C6.9664 2.49147 6.72676 2.25183 6.4312 2.25183C6.13563 2.25183 5.896 2.49147 5.896 2.78703V6.83448C5.896 7.13004 6.13563 7.36968 6.4312 7.36968H9.88752C10.1831 7.36968 10.4227 7.13004 10.4227 6.83448C10.4227 6.53891 10.1831 6.29928 9.88752 6.29928Z" fill="#5D6C7A"/>
</svg>
