<svg width="13" height="13" viewBox="0 0 13 13" fill="none" xmlns="http://www.w3.org/2000/svg">
<path d="M6.47868 7.25781C8.39987 7.25781 9.95815 5.69951 9.95815 3.77834C9.95815 1.85717 8.39985 0.309525 6.47868 0.309525C4.55751 0.309525 2.99921 1.86783 2.99921 3.77834C2.99921 5.68885 4.55749 7.25781 6.47868 7.25781ZM6.47868 1.21675C7.88754 1.21675 9.04026 2.36946 9.04026 3.77834C9.04026 5.18722 7.88754 6.3399 6.47868 6.3399C5.06982 6.3399 3.9171 5.1872 3.9171 3.77831C3.9171 2.36943 5.0698 1.21675 6.47868 1.21675Z" fill="#A4A9AD"/>
<path d="M0.458944 12.6905H12.5411C12.7972 12.6905 13 12.4877 13 12.2315C13 9.83005 11.0468 7.86617 8.63464 7.86617H4.36536C1.96388 7.86617 0 9.81937 0 12.2315C0 12.4877 0.202788 12.6905 0.458944 12.6905ZM4.36536 8.78406H8.63464C10.385 8.78406 11.8259 10.0862 12.0501 11.7726H0.949914C1.17404 10.0969 2.61495 8.78406 4.36536 8.78406Z" fill="#A4A9AD"/>
</svg>
