<svg width="33" height="33" viewBox="0 0 33 33" fill="none" xmlns="http://www.w3.org/2000/svg">
<g clip-path="url(#clip0)">
<path d="M32.5866 16.1136C33.1848 15.4557 33.1271 14.4473 32.4576 13.8619L17.7095 0.957186C17.0401 0.371783 15.9668 0.384046 15.3115 0.984832L0.513244 14.5499C-0.142081 15.1507 -0.174244 16.1578 0.442032 16.7984L0.813046 17.1848C1.42857 17.8253 2.4235 17.9017 3.03386 17.3548L4.1398 16.3644V30.8642C4.1398 31.7538 4.86064 32.474 5.74961 32.474H11.518C12.407 32.474 13.1278 31.7538 13.1278 30.8642V20.7202H20.4855V30.8642C20.4727 31.7532 21.1088 32.4733 21.9977 32.4733H28.1108C28.9998 32.4733 29.7206 31.7532 29.7206 30.8635V16.5686C29.7206 16.5686 30.0261 16.8362 30.4029 17.1674C30.7791 17.498 31.5692 17.233 32.1674 16.5744L32.5866 16.1136Z" fill="#E0073E"/>
</g>
<defs>
<clipPath id="clip0">
<rect width="33" height="33" fill="white"/>
</clipPath>
</defs>
</svg>
