<svg width="31" height="31" viewBox="0 0 31 31" fill="none" xmlns="http://www.w3.org/2000/svg">
<g clip-path="url(#clip0)">
<path d="M30.6117 15.137C31.1736 14.5189 31.1193 13.5717 30.4905 13.0218L16.6362 0.899166C16.0073 0.349242 14.9991 0.360762 14.3835 0.925137L0.482108 13.6681C-0.1335 14.2325 -0.163715 15.1785 0.415212 15.7803L0.76374 16.1432C1.34196 16.745 2.27659 16.8168 2.84996 16.303L3.88887 15.3726V28.9936C3.88887 29.8293 4.56602 30.5059 5.40111 30.5059H10.8199C11.655 30.5059 12.3322 29.8293 12.3322 28.9936V19.4644H19.2439V28.9936C19.2319 29.8287 19.8294 30.5053 20.6645 30.5053H26.4071C27.2422 30.5053 27.9193 29.8287 27.9193 28.993V15.5644C27.9193 15.5644 28.2063 15.8158 28.5603 16.127C28.9137 16.4375 29.6559 16.1885 30.2179 15.5699L30.6117 15.137Z" fill="#556575"/>
</g>
<defs>
<clipPath id="clip0">
<rect width="31" height="31" fill="white"/>
</clipPath>
</defs>
</svg>
