<svg width="31" height="31" viewBox="0 0 31 31" fill="none" xmlns="http://www.w3.org/2000/svg">
<path d="M28.0345 28.0059C27.9901 28.063 27.9901 28.1391 28.0345 28.1962L29.4554 29.928C29.5823 30.0802 29.4744 30.3086 29.2778 30.3086H24.1968V25.8555H29.2905C29.4871 25.8555 29.595 26.0839 29.4681 26.2298L28.0345 28.0059ZM1.55096 26.2298L2.97187 27.9615C3.01627 28.0186 3.01627 28.0947 2.97187 28.1518L1.53827 29.928C1.41775 30.0802 1.52558 30.3022 1.71589 30.3022H6.81595V25.8492H1.73492C1.53827 25.8492 1.43043 26.0776 1.55096 26.2298ZM24.4061 2.84817H30.4957V7.52322C30.4957 10.8789 27.7617 13.6129 24.4061 13.6129H23.6132C22.465 16.1502 20.1624 18.0532 17.3776 18.6495V22.4682H19.5661C20.2385 22.4682 20.784 23.0137 20.784 23.6861V25.2846H22.649V31H8.35739V25.2846H10.2223V23.6861C10.2223 23.0137 10.7679 22.4682 11.4403 22.4682H13.6224V18.6495C10.8376 18.0532 8.535 16.1502 7.38685 13.6129H6.59393C3.23829 13.6129 0.504303 10.8789 0.504303 7.52322V2.84817H6.59393V0H24.3934V2.84817H24.4061ZM6.62565 10.53C6.61296 10.3397 6.60662 10.143 6.60662 9.94639V5.93104H3.59986V7.52322C3.59986 9.17884 4.951 10.53 6.60662 10.53H6.62565ZM13.0324 25.5764V28.6403H17.9803V25.5764H13.0324ZM19.2616 7.12359L16.8765 6.95232L15.9758 4.73849C15.8045 4.31983 15.2146 4.31983 15.0433 4.73849L14.1425 6.95232L11.7574 7.12359C11.3071 7.15531 11.1231 7.71987 11.472 8.00532L13.2989 9.54676L12.728 11.8684C12.6201 12.3061 13.0959 12.655 13.4828 12.414L15.5127 11.1516L17.5426 12.414C17.9232 12.6487 18.4053 12.3061 18.2974 11.8684L17.7265 9.54676L19.5534 8.00532C19.8896 7.71352 19.712 7.15531 19.2616 7.12359ZM24.4061 5.93104V9.94639C24.4061 10.143 24.3998 10.3333 24.3871 10.53H24.4061C26.0617 10.53 27.4128 9.17884 27.4128 7.52322V5.93104H24.4061Z" fill="#E0073E"/>
</svg>
