<svg width="27" height="31" viewBox="0 0 27 31" fill="none" xmlns="http://www.w3.org/2000/svg">
<path d="M25.2385 16.4691H14.481V30.0783H25.2385V16.4691Z" fill="#556575"/>
<path d="M12.519 16.4691H1.76141V30.0783H12.519V16.4691Z" fill="#556575"/>
<path d="M21.8868 5.54757C22.1778 5.01445 22.3434 4.40354 22.3434 3.75456C22.3434 1.68427 20.6591 0 18.5889 0C17.0576 0 15.4909 0.791201 14.2905 2.17075C13.9934 2.51213 13.7288 2.879 13.5 3.26109C13.2712 2.879 13.0066 2.51213 12.7095 2.17075C11.5091 0.791201 9.94242 0 8.41112 0C6.34089 0 4.65656 1.68433 4.65656 3.75456C4.65656 4.40348 4.82211 5.01445 5.11314 5.54757H0V14.5076H12.5192V5.54757H14.4808V14.5076H27V5.54757H21.8868ZM8.41112 5.54757C7.42253 5.54757 6.61817 4.74321 6.61817 3.75456C6.61817 2.76591 7.42253 1.96161 8.41112 1.96161C10.1911 1.96161 11.8834 3.78235 12.3759 5.54751H8.41112V5.54757ZM18.5889 5.54757H14.6241C15.1166 3.78235 16.8089 1.96167 18.5889 1.96167C19.5775 1.96167 20.3818 2.76603 20.3818 3.75462C20.3818 4.74327 19.5775 5.54757 18.5889 5.54757Z" fill="#556575"/>
</svg>
