<svg width="28" height="28" viewBox="0 0 28 28" fill="none" xmlns="http://www.w3.org/2000/svg">
<g clip-path="url(#clip0)">
<path d="M9.70706 20.5998C7.85987 19.0207 6.80948 16.7514 6.80948 14.3031C6.80948 12.6588 7.28971 11.0699 8.19824 9.70827L8.19782 9.70785C8.27258 9.59591 8.32172 9.46496 8.33454 9.32204C8.34287 9.22869 8.52466 7.02111 7.21601 5.54732C5.90714 4.07461 3.69357 3.99514 3.60001 3.99257C3.1608 3.9804 2.78952 4.31066 2.75 4.7473C2.74167 4.84044 2.55924 7.04867 3.86853 8.52224C4.54102 9.27889 5.45212 9.66726 6.1919 9.86678C6.01801 10.2156 5.86505 10.5734 5.73389 10.939C5.4754 10.6025 5.15988 10.2846 4.77387 10.0274C3.1341 8.93474 0.972445 9.41988 0.881228 9.44103C0.454195 9.54015 0.177981 9.95458 0.250826 10.387C0.26642 10.4792 0.650515 12.6603 2.2905 13.7539C3.14948 14.3264 4.15158 14.4657 4.92404 14.4657C5.00287 14.4657 5.07892 14.4642 5.15241 14.4616C5.15753 14.7931 5.17783 15.1219 5.21478 15.4468C4.88538 15.283 4.52393 15.1529 4.133 15.0841C2.19138 14.7429 0.407625 16.0569 0.332644 16.1129C-0.0183391 16.3757 -0.104429 16.8661 0.13611 17.2325C0.187594 17.3109 1.41678 19.1532 3.35776 19.4946C3.57993 19.5336 3.79996 19.551 4.01593 19.551C4.91229 19.551 5.73261 19.2523 6.31067 18.968C6.40509 19.1457 6.50485 19.3205 6.61017 19.4922C6.56552 19.4933 6.52088 19.4941 6.47602 19.4969C4.50833 19.6157 3.07877 21.3082 3.01895 21.3802C2.73868 21.7171 2.7688 22.214 3.08795 22.5145C3.15354 22.5763 4.65808 23.9729 6.52365 23.9729C6.59735 23.9729 6.67212 23.9706 6.74689 23.9661C8.71414 23.8467 10.1437 22.155 10.2035 22.083C10.484 21.7461 10.4539 21.2493 10.1347 20.9485C10.1149 20.9299 9.9617 20.788 9.70706 20.5998Z" fill="#3C4C59"/>
<path d="M27.6673 16.1132C27.5921 16.057 25.8081 14.743 23.8671 15.0844C23.476 15.153 23.1145 15.2831 22.7851 15.4471C22.8221 15.122 22.8424 14.7932 22.8475 14.4617C22.921 14.4642 22.9968 14.466 23.0757 14.466C23.8483 14.466 24.8504 14.3262 25.7096 13.754C27.3494 12.6606 27.7335 10.4793 27.7491 10.387C27.8219 9.95466 27.5459 9.54045 27.1187 9.44111C27.0275 9.41997 24.8658 8.93483 23.2258 10.0277C22.84 10.2849 22.5245 10.6028 22.2663 10.939C22.1349 10.5737 21.9821 10.2157 21.808 9.86708C22.5478 9.66734 23.4589 9.27898 24.1316 8.52232C25.4407 7.04875 25.2583 4.84053 25.2499 4.74739C25.2104 4.31074 24.837 3.98155 24.3999 3.99266C24.3063 3.99522 22.0928 4.07469 20.7835 5.54783C19.4755 7.02141 19.6571 9.22899 19.6654 9.32213C19.6782 9.46504 19.7273 9.59599 19.8021 9.70793L19.8017 9.70836C20.7102 11.07 21.1904 12.6589 21.1904 14.3034C21.1904 16.7522 20.1396 19.0219 18.2918 20.601C18.0378 20.7886 17.8851 20.93 17.8652 20.9488C17.546 21.2493 17.5161 21.7464 17.7964 22.0833C17.8564 22.1553 19.2858 23.847 21.253 23.9664C21.328 23.9709 21.4024 23.9733 21.4763 23.9733C23.3418 23.9733 24.8466 22.5766 24.9122 22.5148C25.2311 22.2143 25.2612 21.7174 24.981 21.3805C24.9212 21.3085 23.4916 19.6158 21.5243 19.4972C21.4793 19.4944 21.4346 19.4936 21.3898 19.4925C21.4953 19.3208 21.5948 19.1458 21.6895 18.9683C22.2673 19.2524 23.0876 19.5513 23.9844 19.5513C24.2002 19.5513 24.4206 19.5337 24.6428 19.4949C26.5831 19.1535 27.8125 17.311 27.8638 17.2328C28.1043 16.8662 28.0183 16.3757 27.6673 16.1132Z" fill="#3C4C59"/>
<path d="M18.569 13.5909C18.736 13.3741 18.7854 13.0887 18.7008 12.8285C18.6162 12.5681 18.4085 12.3662 18.146 12.2889L15.9675 11.6476L14.6845 9.77412C14.5298 9.54832 14.2737 9.4131 14 9.4131C13.7264 9.4131 13.4702 9.54811 13.3156 9.77412L12.0325 11.6476L9.85401 12.2889C9.59146 12.3662 9.38403 12.5681 9.29944 12.8285C9.21484 13.0887 9.26398 13.3741 9.43103 13.5909L10.8166 15.3901L10.7531 17.6602C10.7457 17.9337 10.8734 18.1934 11.0949 18.3545C11.3163 18.5154 11.6027 18.5566 11.8608 18.4647L14 17.7032L16.1394 18.4647C16.2298 18.497 16.324 18.5128 16.4176 18.5128C16.5904 18.5128 16.7615 18.4588 16.9053 18.3545C17.1266 18.1934 17.2546 17.9337 17.2469 17.6602L17.1836 15.3901L18.569 13.5909Z" fill="#3C4C59"/>
</g>
<defs>
<clipPath id="clip0">
<rect width="28" height="28" fill="white"/>
</clipPath>
</defs>
</svg>
