<svg width="24" height="24" viewBox="0 0 24 24" fill="none" xmlns="http://www.w3.org/2000/svg">
<path d="M16.9219 10.5938H7.07812V23.25H16.9219V10.5938ZM14.1094 20.4375H9.89062V19.0312H11.2969V17.213L11.0909 17.419L10.0966 16.4248L12.7031 13.8182V19.0312H14.1094V20.4375Z" fill="#B3CDE4"/>
<path d="M12 4.96875C13.165 4.96875 14.1094 4.02435 14.1094 2.85938C14.1094 1.6944 13.165 0.75 12 0.75C10.835 0.75 9.89062 1.6944 9.89062 2.85938C9.89062 4.02435 10.835 4.96875 12 4.96875Z" fill="#B3CDE4"/>
<path d="M15.5156 7.78125C15.5156 6.23011 14.2543 4.96875 12.7031 4.96875H11.2969C9.74573 4.96875 8.48438 6.23011 8.48438 7.78125V9.1875H15.5156V7.78125Z" fill="#B3CDE4"/>
<path d="M18.3281 14.8125H24V23.25H18.3281V14.8125Z" fill="#B3CDE4"/>
<path d="M0 13.4062H5.67188V23.25H0V13.4062Z" fill="#B3CDE4"/>
</svg>
